<svg width="16" height="16" viewBox="0 0 16 16" fill="none" xmlns="http://www.w3.org/2000/svg">
<path d="M0.25 0.125V15.75H15.875V0.125H0.25ZM8.51488 13.4391C8.28425 13.9078 7.844 14.2156 7.33388 14.3643C6.55 14.5443 5.80025 14.4416 5.2425 14.1069C4.86925 13.8779 4.57775 13.5254 4.37988 13.1193L5.56987 12.3905C5.58025 12.3949 5.6115 12.4514 5.65325 12.5244C5.805 12.7786 5.93587 12.9586 6.19312 13.085C6.44587 13.1713 7.00075 13.2264 7.215 12.7816C7.34588 12.5554 7.30425 11.8281 7.30425 11.0235C7.30412 9.75913 7.31 8.5 7.31 7.25H8.77363C8.77363 8.625 8.78113 9.92725 8.77363 11.269C8.77675 12.0915 8.84813 12.8247 8.51488 13.4391ZM14.5866 13.0256C14.0779 14.7659 11.2414 14.8224 10.1079 13.6726C9.86837 13.402 9.71825 13.2606 9.57537 12.9482C10.1777 12.6017 10.1777 12.6017 10.7639 12.2626C11.0822 12.752 11.3766 13.0211 11.9062 13.1313C12.6248 13.219 13.3476 12.9721 13.1855 12.209C13.0189 11.5857 11.7142 11.4341 10.8264 10.7676C9.925 10.1622 9.71375 8.69125 10.4545 7.85075C10.7014 7.53988 11.1224 7.30787 11.5641 7.19637L12.0251 7.13675C12.9102 7.11888 13.4635 7.35263 13.8696 7.80613C13.9826 7.92063 14.0749 8.04413 14.2474 8.31175C13.7759 8.61225 13.7774 8.60938 13.102 9.04663C12.9578 8.73588 12.7184 8.54088 12.4654 8.45613C12.0726 8.33712 11.5774 8.4665 11.4746 8.8815C11.439 9.00938 11.4464 9.12838 11.503 9.33963C11.6621 9.7025 12.1961 9.86025 12.6751 10.0804C14.054 10.6396 14.5196 11.2393 14.6341 11.953C14.7444 12.5675 14.6075 12.9661 14.5866 13.0256Z" fill="#F0DB4F"/>
</svg>
