<svg width="16" height="16" viewBox="0 0 16 16" fill="none" xmlns="http://www.w3.org/2000/svg">
<path d="M5.95211 12.2651C3.55311 12.9353 7.41173 14.3199 10.4665 13.0112C9.96611 12.8167 9.60723 12.5923 9.60723 12.5923C8.24511 12.8498 7.61323 12.8701 6.37673 12.7288C5.35623 12.6119 5.95211 12.2651 5.95211 12.2651ZM10.1007 10.9576C8.29523 11.3049 7.25236 11.2938 5.93148 11.1576C4.91011 11.0519 5.57873 10.5569 5.57873 10.5569C2.93661 11.4339 7.04961 12.4291 10.7424 11.3489C10.3499 11.2107 10.1007 10.9576 10.1007 10.9576ZM11.5156 3.38568C11.5157 3.38568 6.17423 4.7193 8.72523 7.65905C9.47823 8.52592 8.52773 9.3053 8.52773 9.3053C8.52773 9.3053 10.4389 8.31892 9.56136 7.08318C8.74148 5.9313 8.11298 5.35905 11.5156 3.38568ZM12.7654 13.5287C12.7654 13.5287 13.2065 13.8924 12.2794 14.1736C10.5166 14.7076 4.94111 14.8686 3.39248 14.1949C2.83623 13.9527 3.87986 13.6168 4.20823 13.5459C4.55061 13.4718 4.74611 13.4853 4.74611 13.4853C4.12711 13.0494 0.744483 14.3416 3.02836 14.7122C9.25598 15.7217 14.3805 14.2576 12.7654 13.5287ZM10.625 9.73705C10.9244 9.5328 11.3379 9.35543 11.3379 9.35543C11.3379 9.35543 10.1599 9.56605 8.98623 9.66468C7.54948 9.78518 6.00836 9.80893 5.23473 9.70543C3.40323 9.46055 6.23886 8.78693 6.23886 8.78693C6.23886 8.78693 5.13736 8.71243 3.78336 9.36743C2.18186 10.1418 7.74473 10.4948 10.625 9.73705ZM11.3261 11.6302C11.3126 11.6664 11.2676 11.7072 11.2676 11.7072C15.1767 10.6796 13.7395 8.0848 11.8704 8.74155C11.7064 8.79955 11.6204 8.93443 11.6204 8.93443C11.6204 8.93443 11.724 8.89268 11.9551 8.84443C12.9 8.64755 14.2537 10.1093 11.3261 11.6302ZM8.02261 8.75868C7.44586 7.45505 5.49011 6.31455 8.02348 4.3138C11.1824 1.82042 9.56148 0.198425 9.56148 0.198425C10.2152 2.77443 7.25511 3.55255 6.18661 5.1568C5.45898 6.24993 6.54373 7.42455 8.02261 8.75868ZM11.4319 15.2272C9.03348 15.6787 6.07511 15.6261 4.32098 15.3364C4.32098 15.3364 4.68023 15.6339 6.52673 15.7528C9.33623 15.9324 13.6517 15.6528 13.7537 14.3233C13.7539 14.3233 13.5575 14.8273 11.4319 15.2272Z" fill="#EA2D2E"/>
</svg>
