<svg width="128" height="128" viewBox="0 0 128 128" fill="none" xmlns="http://www.w3.org/2000/svg">
<path d="M55.387 66.469H63.72L59.313 59.379L51.225 72.198H47.544L57.382 56.8C57.5982 56.4888 57.8871 56.2353 58.2236 56.0613C58.5602 55.8874 58.9342 55.7983 59.313 55.802C60.078 55.802 60.791 56.165 61.205 56.774L71.081 72.198H67.4L65.664 69.333H57.226L55.387 66.469ZM93.622 69.333V55.958H90.499V70.643C90.499 71.045 90.655 71.434 90.953 71.732C91.251 72.03 91.653 72.198 92.094 72.198H106.338L108.179 69.333H93.622ZM41.945 66.936C44.978 66.936 47.441 64.487 47.441 61.454C47.441 58.421 44.979 55.958 41.945 55.958H28.28V72.199H31.403V58.822H41.738C43.19 58.822 44.356 60.002 44.356 61.453C44.356 62.904 43.189 64.084 41.738 64.084L32.932 64.071L42.256 72.198H46.794L40.52 66.935H41.945V66.936ZM9.05901 72.198C4.57601 72.198 0.937012 68.569 0.937012 64.084C0.937012 59.599 4.57501 55.957 9.05901 55.957H18.498C22.983 55.957 26.619 59.6 26.619 64.084C26.619 68.568 22.983 72.198 18.498 72.198H9.05901ZM18.288 69.333C18.978 69.334 19.6615 69.1991 20.2993 68.9358C20.9371 68.6724 21.5168 68.286 22.0051 67.7985C22.4935 67.311 22.8809 66.732 23.1453 66.0946C23.4097 65.4573 23.5459 64.774 23.546 64.084C23.5463 62.6889 22.9926 61.3509 22.0066 60.364C21.0206 59.377 19.6831 58.822 18.288 58.821H9.26701C7.87231 58.8226 6.53529 59.3778 5.54974 60.3647C4.56419 61.3515 4.01075 62.6893 4.01101 64.084C4.01114 64.7738 4.14723 65.4569 4.4115 66.0942C4.67578 66.7314 5.06305 67.3103 5.55118 67.7978C6.03931 68.2853 6.61873 68.6718 7.25631 68.9352C7.8939 69.1986 8.57715 69.3338 9.26701 69.333H18.288ZM77.602 72.198C73.118 72.198 69.476 68.569 69.476 64.084C69.476 59.599 73.118 55.957 77.602 55.957H88.814L86.985 58.821H77.81C76.4143 58.8218 75.076 59.3765 74.089 60.3633C73.102 61.3501 72.5471 62.6883 72.546 64.084C72.546 66.987 74.906 69.333 77.81 69.333H89.073L87.233 72.198H77.602ZM115.799 69.333C114.655 69.3335 113.542 68.9602 112.629 68.2699C111.717 67.5796 111.055 66.6102 110.744 65.509H124.094L125.934 62.645H110.744C111.057 61.5452 111.72 60.5772 112.632 59.8873C113.544 59.1974 114.655 58.8231 115.799 58.821H124.962L126.816 55.957H115.591C111.107 55.957 107.465 59.6 107.465 64.084C107.465 68.568 111.107 72.198 115.591 72.198H125.222L127.063 69.333H115.799Z" fill="#EA1B22"/>
</svg>
