<svg width="128" height="128" viewBox="0 0 128 128" fill="none" xmlns="http://www.w3.org/2000/svg">
<path d="M63.3912 12.248C59.1692 12.268 55.1392 12.627 51.5912 13.255C41.1412 15.101 39.2452 18.965 39.2452 26.092V35.503H63.9382V38.64H29.9772C22.8012 38.64 16.5172 42.953 14.5512 51.161C12.2832 60.566 12.1832 66.436 14.5512 76.257C16.3062 83.568 20.4982 88.776 27.6752 88.776H36.1662V77.494C36.1662 69.343 43.2172 62.154 51.5922 62.154H76.2572C83.1232 62.154 88.6032 56.5 88.6032 49.606V26.093C88.6032 19.4 82.9572 14.373 76.2572 13.256C72.0132 12.55 67.6122 12.229 63.3912 12.248ZM50.0372 19.817C52.5872 19.817 54.6712 21.934 54.6712 24.538C54.6712 27.131 52.5882 29.228 50.0372 29.228C47.4772 29.228 45.4042 27.131 45.4042 24.538C45.4032 21.934 47.4772 19.817 50.0372 19.817Z" fill="url(#paint0_linear_3_7301)"/>
<path d="M91.6821 38.64V49.606C91.6821 58.106 84.4741 65.261 76.2561 65.261H51.5911C44.8351 65.261 39.2451 71.044 39.2451 77.81V101.325C39.2451 108.016 45.0631 111.953 51.5911 113.872C59.4071 116.169 66.9031 116.585 76.2561 113.872C82.4721 112.071 88.6021 108.449 88.6021 101.325V91.913H63.9381V88.775H100.95C108.126 88.775 110.802 83.77 113.298 76.256C115.876 68.521 115.765 61.082 113.298 51.16C111.524 44.015 108.137 38.639 100.95 38.639H91.6821V38.64ZM77.8091 98.187C80.3701 98.187 82.4431 100.284 82.4431 102.879C82.4431 105.481 80.3691 107.598 77.8091 107.598C75.2591 107.598 73.1761 105.481 73.1761 102.879C73.1761 100.284 75.2591 98.187 77.8091 98.187Z" fill="url(#paint1_linear_3_7301)"/>
<path opacity="0.444" d="M97.309 119.597C97.309 123.14 82.493 126.013 64.218 126.013C45.942 126.013 31.126 123.14 31.126 119.597C31.126 116.053 45.941 113.18 64.218 113.18C82.493 113.18 97.309 116.052 97.309 119.597Z" fill="url(#paint2_radial_3_7301)"/>
<defs>
<linearGradient id="paint0_linear_3_7301" x1="10.3371" y1="15.1906" x2="67.2909" y2="63.7605" gradientUnits="userSpaceOnUse">
<stop stop-color="#5A9FD4"/>
<stop offset="1" stop-color="#306998"/>
</linearGradient>
<linearGradient id="paint1_linear_3_7301" x1="88.719" y1="93.9524" x2="68.2944" y2="65.3103" gradientUnits="userSpaceOnUse">
<stop stop-color="#FFD43B"/>
<stop offset="1" stop-color="#FFE873"/>
</linearGradient>
<radialGradient id="paint2_radial_3_7301" cx="0" cy="0" r="1" gradientUnits="userSpaceOnUse" gradientTransform="translate(64.0842 119.413) rotate(-90) scale(6.41832 28.2139)">
<stop stop-color="#B8B8B8" stop-opacity="0.498"/>
<stop offset="1" stop-color="#7F7F7F" stop-opacity="0"/>
</radialGradient>
</defs>
</svg>
