<svg width="13" height="16" viewBox="0 0 13 16" fill="none" xmlns="http://www.w3.org/2000/svg">
<path d="M6.60124 4.59717C5.97086 4.59717 4.99507 3.87859 3.96747 3.90457C2.61173 3.92188 1.36825 4.6924 0.668788 5.91312C-0.738766 8.36322 0.306106 11.9821 1.67912 13.9733C2.35267 14.943 3.14712 16.0338 4.20063 15.9992C5.21096 15.9559 5.59091 15.3412 6.81712 15.3412C8.0347 15.3412 8.38011 15.9992 9.45089 15.9732C10.5389 15.9559 11.2298 14.9863 11.8947 14.008C12.6632 12.8825 12.9827 11.7916 13 11.731C12.9741 11.7224 10.8844 10.9172 10.8584 8.49308C10.8412 6.46721 12.5078 5.49756 12.5855 5.45427C11.6356 4.0604 10.1763 3.90457 9.66677 3.86994C8.33694 3.76604 7.22298 4.59717 6.60124 4.59717V4.59717ZM8.84642 2.55398C9.40771 1.87869 9.77903 0.935018 9.67541 0C8.87232 0.0346303 7.90517 0.536769 7.32661 1.21206C6.80849 1.80943 6.35945 2.77042 6.48035 3.68813C7.36978 3.75739 8.28512 3.22927 8.84642 2.55398" fill="#8F8F8F"/>
</svg>
