<svg width="209" height="47" viewBox="0 0 209 47" fill="none" xmlns="http://www.w3.org/2000/svg">
<path d="M14.7554 43.8168C7.21508 43.8168 1.45508 38.3186 1.45508 28.9455C1.45508 19.4153 7.84344 13.9695 15.1219 13.9695C18.8397 13.9695 21.4579 15.488 23.4478 17.3208L21.039 20.4626C19.3634 18.944 17.583 17.9491 15.3837 17.9491C10.1474 17.9491 6.37726 22.3477 6.37726 28.9455C6.37726 35.4386 9.99035 39.8371 15.2267 39.8371C17.7925 39.8371 20.1488 38.5804 21.9292 37.0095L23.9714 40.2037C21.4579 42.4553 18.159 43.8168 14.7554 43.8168Z" fill="#CACBCC"/>
<path d="M39.4388 43.8168C32.4221 43.8168 26.2432 38.3186 26.2432 28.9455C26.2432 19.4153 32.4221 13.9695 39.4388 13.9695C46.4032 13.9695 52.5821 19.4153 52.5821 28.9455C52.5821 38.3186 46.4032 43.8168 39.4388 43.8168ZM39.4388 39.8371C44.361 39.8371 47.6599 35.4386 47.6599 28.9455C47.6599 22.3477 44.361 17.9491 39.4388 17.9491C34.4643 17.9491 31.1653 22.3477 31.1653 28.9455C31.1653 35.4386 34.4643 39.8371 39.4388 39.8371Z" fill="#CACBCC"/>
<path d="M63.7679 43.0836L55.8086 14.6501H60.6784L64.9722 31.1447C65.5482 33.8676 66.0719 36.3811 66.5955 39.0516H66.8573C67.4857 36.3811 68.0617 33.8152 68.7948 31.1447L73.1933 14.6501H77.8537L82.357 31.1447C83.0377 33.8676 83.666 36.3811 84.3468 39.0516H84.5562C85.1322 36.3811 85.6559 33.8676 86.3366 31.1447L90.4733 14.6501H95.029L87.3839 43.0836H81.5715L77.4348 27.7934C76.7017 25.0705 76.178 22.5047 75.4973 19.5723H75.2355C74.6595 22.5047 74.0835 25.1229 73.298 27.8458L69.3184 43.0836H63.7679Z" fill="#CACBCC"/>
<path d="M106.553 43.8168C101.788 43.8168 98.2275 40.832 98.2275 35.7004C98.2275 29.5215 103.569 26.432 115.665 25.0706C115.665 21.4051 114.513 17.8968 109.852 17.8968C106.501 17.8968 103.516 19.4677 101.317 20.9862L99.4319 17.6349C102.05 15.9593 106.03 13.9695 110.585 13.9695C117.55 13.9695 120.482 18.5775 120.482 25.6466V43.0837H116.555L116.136 39.7324H115.926C113.256 41.984 110.062 43.8168 106.553 43.8168ZM107.862 39.9418C110.638 39.9418 112.942 38.6328 115.665 36.1717V28.2648C106.082 29.3644 102.888 31.7208 102.888 35.3862C102.888 38.6328 105.087 39.9418 107.862 39.9418Z" fill="#CACBCC"/>
<path d="M128.99 43.0837V14.6502H132.865L133.336 19.8342H133.494C135.431 16.2211 138.363 13.9695 141.558 13.9695C142.814 13.9695 143.652 14.1266 144.594 14.5455L143.704 18.7346C142.71 18.4204 142.081 18.2633 140.929 18.2633C138.573 18.2633 135.64 19.9913 133.755 24.8611V43.0837H128.99Z" fill="#CACBCC"/>
<path d="M157.686 43.8168C150.564 43.8168 145.956 38.4233 145.956 28.9455C145.956 19.6771 151.821 13.9695 158.314 13.9695C161.613 13.9695 163.812 15.1739 166.273 17.2684L166.064 12.3462V1.45459H170.829V43.0837H166.902L166.483 39.7324H166.378C164.126 41.984 161.142 43.8168 157.686 43.8168ZM158.733 39.7848C161.403 39.7848 163.707 38.4757 166.064 35.9099V20.9862C163.655 18.787 161.456 17.9491 159.099 17.9491C154.544 17.9491 150.931 22.4 150.931 28.8931C150.931 35.7004 153.758 39.7848 158.733 39.7848Z" fill="#CACBCC"/>
<mask id="path-7-inside-1_2187_12392" fill="white">
<path fill-rule="evenodd" clip-rule="evenodd" d="M25.4101 17.1511L21.2319 22.6009L20.0618 21.5404C18.5311 20.1533 17.0847 19.4036 15.3832 19.4036C13.2037 19.4036 11.3602 20.306 10.0357 21.902C8.69587 23.5164 7.83128 25.9162 7.83128 28.9455C7.83128 31.9321 8.66194 34.3081 9.9653 35.9072C11.2501 37.4835 13.0503 38.3825 15.2261 38.3825C17.3195 38.3825 19.3474 37.3473 20.9663 35.9188L22.2395 34.7953L25.8625 40.462L24.9415 41.287C22.1818 43.7593 18.5434 45.2713 14.7549 45.2713C10.6191 45.2713 6.89682 43.7558 4.21501 40.8899C1.53704 38.0279 0 33.9325 0 28.9455C0 23.8435 1.71725 19.7193 4.52076 16.8644C7.3174 14.0167 11.1156 12.5149 15.1214 12.5149C19.2954 12.5149 22.2497 14.2403 24.4327 16.2509L25.4101 17.1511ZM23.4472 17.3207L21.0385 20.4625C20.6695 20.128 20.2954 19.8191 19.9127 19.5404C18.5583 18.554 17.0981 17.9491 15.3832 17.9491C10.1469 17.9491 6.37673 22.3476 6.37673 28.9455C6.37673 35.4385 9.98982 39.8371 15.2261 39.8371C17.2734 39.8371 19.1873 39.0371 20.7816 37.9156C21.1855 37.6316 21.569 37.327 21.9287 37.0095L23.9709 40.2036C21.4574 42.4553 18.1585 43.8167 14.7549 43.8167C7.21455 43.8167 1.45455 38.3185 1.45455 28.9455C1.45455 19.4153 7.84291 13.9695 15.1214 13.9695C18.8392 13.9695 21.4574 15.488 23.4472 17.3207ZM39.4391 45.2713C31.5512 45.2713 24.7889 39.0524 24.7889 28.9455C24.7889 18.6851 31.5477 12.5149 39.4391 12.5149C47.2816 12.5149 54.0369 18.6889 54.0369 28.9455C54.0369 39.0486 47.2781 45.2713 39.4391 45.2713ZM44.2337 35.951C45.4381 34.3523 46.2056 31.9613 46.2056 28.9455C46.2056 25.8726 45.4359 23.455 44.2308 21.8445C43.0509 20.2676 41.4178 19.4036 39.4391 19.4036C37.4289 19.4036 35.7835 20.272 34.5995 21.8471C33.3899 23.4563 32.6202 25.8724 32.6202 28.9455C32.6202 31.9615 33.3876 34.351 34.5968 35.9484C35.781 37.5132 37.428 38.3825 39.4391 38.3825C41.4189 38.3825 43.0533 37.5175 44.2337 35.951ZM62.6644 44.5382L53.8909 13.1956H61.8026L66.3882 30.8108L66.3952 30.8436C66.5426 31.5412 66.6868 32.2253 66.8286 32.9023C67.0072 32.1949 67.1934 31.4833 67.3906 30.7647L67.392 30.7597L72.0756 13.1956H78.9642L83.7642 30.7767L83.768 30.792C83.9685 31.5948 84.1646 32.3789 84.3588 33.1542C84.5376 32.3792 84.7248 31.5945 84.9253 30.792L89.3383 13.1956H96.9261L88.4989 44.5382H80.458L76.0301 28.1716C75.8019 27.3238 75.5928 26.4876 75.3933 25.6522C75.1792 26.5088 74.9504 27.3644 74.7006 28.2313L70.4417 44.5382H62.6644ZM73.2979 27.8458C73.8215 26.0308 74.2519 24.2623 74.6515 22.4161C74.8469 21.5129 75.0349 20.591 75.2228 19.6361C75.227 19.6148 75.2312 19.5936 75.2353 19.5724H75.4971C75.5013 19.5904 75.5056 19.6083 75.5096 19.6262C75.7095 20.488 75.8958 21.3183 76.0781 22.1305C76.099 22.2236 76.12 22.3165 76.1408 22.4092C76.5512 24.2374 76.9466 25.9805 77.4346 27.7935L81.5713 43.0836H87.3837L95.0288 14.6502H90.4731L86.3364 31.1447C85.8932 32.9175 85.5166 34.6015 85.1488 36.2979C85.0323 36.8356 84.9165 37.3747 84.7998 37.9183C84.7232 38.2751 84.6462 38.6336 84.5683 38.9952C84.5642 39.014 84.5601 39.0327 84.556 39.0516H84.3466C84.3425 39.0356 84.3384 39.0198 84.3344 39.0038C84.1034 38.0972 83.8784 37.2084 83.6551 36.3232C83.2251 34.6183 82.8021 32.9264 82.3568 31.1447L77.8535 14.6502H73.1931L68.7946 31.1447C68.322 32.8665 67.9147 34.5446 67.5165 36.2353C67.4045 36.7113 67.293 37.1881 67.1812 37.6672C67.0782 38.1085 66.9746 38.5517 66.8698 38.9978C66.8656 39.0157 66.8613 39.0337 66.8571 39.0516H66.5953C66.5911 39.0301 66.5869 39.0086 66.5826 38.9871C66.3985 38.0484 66.2142 37.129 66.0276 36.2127C65.6881 34.545 65.3408 32.8879 64.972 31.1447L60.6782 14.6502H55.8084L63.7677 43.0836H69.3182L73.2979 27.8458ZM99.4318 17.6349C102.05 15.9593 106.03 13.9695 110.585 13.9695C117.55 13.9695 120.482 18.5775 120.482 25.6465V43.0836H116.555L116.136 39.7324H115.926C115.914 39.7427 115.902 39.7529 115.89 39.7631C115.53 40.0652 115.162 40.3594 114.784 40.6426C112.362 42.4577 109.574 43.8167 106.553 43.8167C101.788 43.8167 98.2275 40.832 98.2275 35.7004C98.2275 29.5215 103.569 26.432 115.665 25.0705C115.665 21.4051 114.513 17.8967 109.852 17.8967C107.087 17.8967 104.571 18.9664 102.54 20.1937C102.11 20.4537 101.701 20.7207 101.317 20.9862L99.4318 17.6349ZM114.152 23.7876C114.041 22.6211 113.763 21.6332 113.288 20.9034C112.719 20.0307 111.754 19.3513 109.852 19.3513C106.941 19.3513 104.255 20.7249 102.143 22.1831L100.831 23.0893L97.4904 17.1504L98.6478 16.4097C101.36 14.6736 105.623 12.5149 110.585 12.5149C114.415 12.5149 117.353 13.8008 119.288 16.257C121.174 18.6515 121.937 21.9455 121.937 25.6465V44.5382H115.271L114.989 42.2887C112.565 43.9789 109.711 45.2713 106.553 45.2713C103.87 45.2713 101.412 44.4279 99.6107 42.7459C97.7962 41.0513 96.7729 38.6201 96.7729 35.7004C96.7729 33.9382 97.1563 32.3252 97.9953 30.89C98.8318 29.4592 100.072 28.289 101.66 27.3329C104.552 25.5911 108.721 24.4865 114.152 23.7876ZM114.21 35.5169C111.82 37.5884 109.961 38.4873 107.862 38.4873C106.677 38.4873 105.805 38.2048 105.255 37.7553C104.754 37.3455 104.342 36.6531 104.342 35.3862C104.342 34.6905 104.491 34.1216 104.786 33.6265C105.085 33.1249 105.587 32.6115 106.425 32.1142C107.942 31.2137 110.404 30.4564 114.21 29.9168V35.5169ZM114.21 28.448C105.756 29.615 102.888 31.9129 102.888 35.3862C102.888 38.6327 105.087 39.9418 107.862 39.9418C110.638 39.9418 112.942 38.6327 115.665 36.1716V28.2647C115.162 28.3223 114.678 28.3834 114.21 28.448ZM127.535 44.5382V13.1956H134.193L134.444 15.96C136.38 13.8458 138.825 12.5149 141.557 12.5149C142.971 12.5149 144.018 12.6978 145.186 13.2163L146.262 13.6949L144.794 20.6041L143.266 20.1216C142.352 19.833 141.88 19.7178 140.929 19.7178C139.396 19.7178 136.952 20.8282 135.21 25.1383V44.5382H127.535ZM133.755 24.8611C135.64 19.9913 138.572 18.2633 140.929 18.2633C141.469 18.2633 141.894 18.2977 142.295 18.3668C142.75 18.4451 143.176 18.5676 143.704 18.7345L144.594 14.5455C143.652 14.1265 142.814 13.9695 141.557 13.9695C138.938 13.9695 136.495 15.4835 134.632 18.0207C134.226 18.5734 133.848 19.1745 133.501 19.8192C133.499 19.8241 133.496 19.8292 133.493 19.8342H133.336L132.865 14.6502H128.99V43.0836H133.755V24.8611ZM164.61 12.3771V0H172.284V44.5382H165.619L165.367 42.53C163.242 44.11 160.644 45.2713 157.686 45.2713C153.725 45.2713 150.361 43.7537 148.019 40.8481C145.706 37.9795 144.502 33.902 144.502 28.9455C144.502 19.0524 150.851 12.5149 158.314 12.5149C160.876 12.5149 162.861 13.1721 164.691 14.2919L164.61 12.3771ZM166.274 17.2684L166.064 12.3462V1.45455H170.829V43.0836H166.902L166.483 39.7324H166.378C166.374 39.7373 166.368 39.7424 166.364 39.7473C165.983 40.1281 165.58 40.4969 165.156 40.8467C163.09 42.5587 160.55 43.8167 157.686 43.8167C150.564 43.8167 145.956 38.4233 145.956 28.9455C145.956 19.6771 151.821 13.9695 158.314 13.9695C160.931 13.9695 162.855 14.727 164.768 16.0852C165.267 16.4397 165.764 16.8349 166.274 17.2684ZM166.064 35.9098V20.9862C163.655 18.7869 161.456 17.9491 159.1 17.9491C154.544 17.9491 150.931 22.4 150.931 28.8931C150.931 35.7004 153.759 39.7847 158.733 39.7847C161.404 39.7847 163.708 38.4756 166.064 35.9098ZM158.733 38.3302C160.72 38.3302 162.56 37.4407 164.61 35.3319V21.6442C162.623 19.9695 160.893 19.4036 159.1 19.4036C155.686 19.4036 152.386 22.8179 152.386 28.8931C152.386 32.1242 153.062 34.5114 154.153 36.0497C155.2 37.5244 156.701 38.3302 158.733 38.3302ZM26.2434 28.9455C26.2434 38.3185 32.4224 43.8167 39.4391 43.8167C46.4034 43.8167 52.5824 38.3185 52.5824 28.9455C52.5824 19.4153 46.4034 13.9695 39.4391 13.9695C32.4224 13.9695 26.2434 19.4153 26.2434 28.9455ZM47.6602 28.9455C47.6602 35.4385 44.3613 39.8371 39.4391 39.8371C34.4645 39.8371 31.1656 35.4385 31.1656 28.9455C31.1656 22.3476 34.4645 17.9491 39.4391 17.9491C44.3613 17.9491 47.6602 22.3476 47.6602 28.9455Z"/>
</mask>
<path fill-rule="evenodd" clip-rule="evenodd" d="M25.4101 17.1511L21.2319 22.6009L20.0618 21.5404C18.5311 20.1533 17.0847 19.4036 15.3832 19.4036C13.2037 19.4036 11.3602 20.306 10.0357 21.902C8.69587 23.5164 7.83128 25.9162 7.83128 28.9455C7.83128 31.9321 8.66194 34.3081 9.9653 35.9072C11.2501 37.4835 13.0503 38.3825 15.2261 38.3825C17.3195 38.3825 19.3474 37.3473 20.9663 35.9188L22.2395 34.7953L25.8625 40.462L24.9415 41.287C22.1818 43.7593 18.5434 45.2713 14.7549 45.2713C10.6191 45.2713 6.89682 43.7558 4.21501 40.8899C1.53704 38.0279 0 33.9325 0 28.9455C0 23.8435 1.71725 19.7193 4.52076 16.8644C7.3174 14.0167 11.1156 12.5149 15.1214 12.5149C19.2954 12.5149 22.2497 14.2403 24.4327 16.2509L25.4101 17.1511ZM23.4472 17.3207L21.0385 20.4625C20.6695 20.128 20.2954 19.8191 19.9127 19.5404C18.5583 18.554 17.0981 17.9491 15.3832 17.9491C10.1469 17.9491 6.37673 22.3476 6.37673 28.9455C6.37673 35.4385 9.98982 39.8371 15.2261 39.8371C17.2734 39.8371 19.1873 39.0371 20.7816 37.9156C21.1855 37.6316 21.569 37.327 21.9287 37.0095L23.9709 40.2036C21.4574 42.4553 18.1585 43.8167 14.7549 43.8167C7.21455 43.8167 1.45455 38.3185 1.45455 28.9455C1.45455 19.4153 7.84291 13.9695 15.1214 13.9695C18.8392 13.9695 21.4574 15.488 23.4472 17.3207ZM39.4391 45.2713C31.5512 45.2713 24.7889 39.0524 24.7889 28.9455C24.7889 18.6851 31.5477 12.5149 39.4391 12.5149C47.2816 12.5149 54.0369 18.6889 54.0369 28.9455C54.0369 39.0486 47.2781 45.2713 39.4391 45.2713ZM44.2337 35.951C45.4381 34.3523 46.2056 31.9613 46.2056 28.9455C46.2056 25.8726 45.4359 23.455 44.2308 21.8445C43.0509 20.2676 41.4178 19.4036 39.4391 19.4036C37.4289 19.4036 35.7835 20.272 34.5995 21.8471C33.3899 23.4563 32.6202 25.8724 32.6202 28.9455C32.6202 31.9615 33.3876 34.351 34.5968 35.9484C35.781 37.5132 37.428 38.3825 39.4391 38.3825C41.4189 38.3825 43.0533 37.5175 44.2337 35.951ZM62.6644 44.5382L53.8909 13.1956H61.8026L66.3882 30.8108L66.3952 30.8436C66.5426 31.5412 66.6868 32.2253 66.8286 32.9023C67.0072 32.1949 67.1934 31.4833 67.3906 30.7647L67.392 30.7597L72.0756 13.1956H78.9642L83.7642 30.7767L83.768 30.792C83.9685 31.5948 84.1646 32.3789 84.3588 33.1542C84.5376 32.3792 84.7248 31.5945 84.9253 30.792L89.3383 13.1956H96.9261L88.4989 44.5382H80.458L76.0301 28.1716C75.8019 27.3238 75.5928 26.4876 75.3933 25.6522C75.1792 26.5088 74.9504 27.3644 74.7006 28.2313L70.4417 44.5382H62.6644ZM73.2979 27.8458C73.8215 26.0308 74.2519 24.2623 74.6515 22.4161C74.8469 21.5129 75.0349 20.591 75.2228 19.6361C75.227 19.6148 75.2312 19.5936 75.2353 19.5724H75.4971C75.5013 19.5904 75.5056 19.6083 75.5096 19.6262C75.7095 20.488 75.8958 21.3183 76.0781 22.1305C76.099 22.2236 76.12 22.3165 76.1408 22.4092C76.5512 24.2374 76.9466 25.9805 77.4346 27.7935L81.5713 43.0836H87.3837L95.0288 14.6502H90.4731L86.3364 31.1447C85.8932 32.9175 85.5166 34.6015 85.1488 36.2979C85.0323 36.8356 84.9165 37.3747 84.7998 37.9183C84.7232 38.2751 84.6462 38.6336 84.5683 38.9952C84.5642 39.014 84.5601 39.0327 84.556 39.0516H84.3466C84.3425 39.0356 84.3384 39.0198 84.3344 39.0038C84.1034 38.0972 83.8784 37.2084 83.6551 36.3232C83.2251 34.6183 82.8021 32.9264 82.3568 31.1447L77.8535 14.6502H73.1931L68.7946 31.1447C68.322 32.8665 67.9147 34.5446 67.5165 36.2353C67.4045 36.7113 67.293 37.1881 67.1812 37.6672C67.0782 38.1085 66.9746 38.5517 66.8698 38.9978C66.8656 39.0157 66.8613 39.0337 66.8571 39.0516H66.5953C66.5911 39.0301 66.5869 39.0086 66.5826 38.9871C66.3985 38.0484 66.2142 37.129 66.0276 36.2127C65.6881 34.545 65.3408 32.8879 64.972 31.1447L60.6782 14.6502H55.8084L63.7677 43.0836H69.3182L73.2979 27.8458ZM99.4318 17.6349C102.05 15.9593 106.03 13.9695 110.585 13.9695C117.55 13.9695 120.482 18.5775 120.482 25.6465V43.0836H116.555L116.136 39.7324H115.926C115.914 39.7427 115.902 39.7529 115.89 39.7631C115.53 40.0652 115.162 40.3594 114.784 40.6426C112.362 42.4577 109.574 43.8167 106.553 43.8167C101.788 43.8167 98.2275 40.832 98.2275 35.7004C98.2275 29.5215 103.569 26.432 115.665 25.0705C115.665 21.4051 114.513 17.8967 109.852 17.8967C107.087 17.8967 104.571 18.9664 102.54 20.1937C102.11 20.4537 101.701 20.7207 101.317 20.9862L99.4318 17.6349ZM114.152 23.7876C114.041 22.6211 113.763 21.6332 113.288 20.9034C112.719 20.0307 111.754 19.3513 109.852 19.3513C106.941 19.3513 104.255 20.7249 102.143 22.1831L100.831 23.0893L97.4904 17.1504L98.6478 16.4097C101.36 14.6736 105.623 12.5149 110.585 12.5149C114.415 12.5149 117.353 13.8008 119.288 16.257C121.174 18.6515 121.937 21.9455 121.937 25.6465V44.5382H115.271L114.989 42.2887C112.565 43.9789 109.711 45.2713 106.553 45.2713C103.87 45.2713 101.412 44.4279 99.6107 42.7459C97.7962 41.0513 96.7729 38.6201 96.7729 35.7004C96.7729 33.9382 97.1563 32.3252 97.9953 30.89C98.8318 29.4592 100.072 28.289 101.66 27.3329C104.552 25.5911 108.721 24.4865 114.152 23.7876ZM114.21 35.5169C111.82 37.5884 109.961 38.4873 107.862 38.4873C106.677 38.4873 105.805 38.2048 105.255 37.7553C104.754 37.3455 104.342 36.6531 104.342 35.3862C104.342 34.6905 104.491 34.1216 104.786 33.6265C105.085 33.1249 105.587 32.6115 106.425 32.1142C107.942 31.2137 110.404 30.4564 114.21 29.9168V35.5169ZM114.21 28.448C105.756 29.615 102.888 31.9129 102.888 35.3862C102.888 38.6327 105.087 39.9418 107.862 39.9418C110.638 39.9418 112.942 38.6327 115.665 36.1716V28.2647C115.162 28.3223 114.678 28.3834 114.21 28.448ZM127.535 44.5382V13.1956H134.193L134.444 15.96C136.38 13.8458 138.825 12.5149 141.557 12.5149C142.971 12.5149 144.018 12.6978 145.186 13.2163L146.262 13.6949L144.794 20.6041L143.266 20.1216C142.352 19.833 141.88 19.7178 140.929 19.7178C139.396 19.7178 136.952 20.8282 135.21 25.1383V44.5382H127.535ZM133.755 24.8611C135.64 19.9913 138.572 18.2633 140.929 18.2633C141.469 18.2633 141.894 18.2977 142.295 18.3668C142.75 18.4451 143.176 18.5676 143.704 18.7345L144.594 14.5455C143.652 14.1265 142.814 13.9695 141.557 13.9695C138.938 13.9695 136.495 15.4835 134.632 18.0207C134.226 18.5734 133.848 19.1745 133.501 19.8192C133.499 19.8241 133.496 19.8292 133.493 19.8342H133.336L132.865 14.6502H128.99V43.0836H133.755V24.8611ZM164.61 12.3771V0H172.284V44.5382H165.619L165.367 42.53C163.242 44.11 160.644 45.2713 157.686 45.2713C153.725 45.2713 150.361 43.7537 148.019 40.8481C145.706 37.9795 144.502 33.902 144.502 28.9455C144.502 19.0524 150.851 12.5149 158.314 12.5149C160.876 12.5149 162.861 13.1721 164.691 14.2919L164.61 12.3771ZM166.274 17.2684L166.064 12.3462V1.45455H170.829V43.0836H166.902L166.483 39.7324H166.378C166.374 39.7373 166.368 39.7424 166.364 39.7473C165.983 40.1281 165.58 40.4969 165.156 40.8467C163.09 42.5587 160.55 43.8167 157.686 43.8167C150.564 43.8167 145.956 38.4233 145.956 28.9455C145.956 19.6771 151.821 13.9695 158.314 13.9695C160.931 13.9695 162.855 14.727 164.768 16.0852C165.267 16.4397 165.764 16.8349 166.274 17.2684ZM166.064 35.9098V20.9862C163.655 18.7869 161.456 17.9491 159.1 17.9491C154.544 17.9491 150.931 22.4 150.931 28.8931C150.931 35.7004 153.759 39.7847 158.733 39.7847C161.404 39.7847 163.708 38.4756 166.064 35.9098ZM158.733 38.3302C160.72 38.3302 162.56 37.4407 164.61 35.3319V21.6442C162.623 19.9695 160.893 19.4036 159.1 19.4036C155.686 19.4036 152.386 22.8179 152.386 28.8931C152.386 32.1242 153.062 34.5114 154.153 36.0497C155.2 37.5244 156.701 38.3302 158.733 38.3302ZM26.2434 28.9455C26.2434 38.3185 32.4224 43.8167 39.4391 43.8167C46.4034 43.8167 52.5824 38.3185 52.5824 28.9455C52.5824 19.4153 46.4034 13.9695 39.4391 13.9695C32.4224 13.9695 26.2434 19.4153 26.2434 28.9455ZM47.6602 28.9455C47.6602 35.4385 44.3613 39.8371 39.4391 39.8371C34.4645 39.8371 31.1656 35.4385 31.1656 28.9455C31.1656 22.3476 34.4645 17.9491 39.4391 17.9491C44.3613 17.9491 47.6602 22.3476 47.6602 28.9455Z" fill="#CACBCC" stroke="#CACBCC" stroke-width="2" mask="url(#path-7-inside-1_2187_12392)"/>
<path d="M208.239 15.0836C208.239 21.5102 203.028 26.72 196.602 26.72C190.176 26.72 184.966 21.5102 184.966 15.0836C184.966 8.65704 190.176 3.44727 196.602 3.44727C203.028 3.44727 208.239 8.65704 208.239 15.0836Z" fill="#636577"/>
<path fill-rule="evenodd" clip-rule="evenodd" d="M206.332 39.2706C207.537 37.4377 208.239 35.2439 208.239 32.8864C208.239 26.4597 203.028 21.25 196.602 21.25C190.176 21.25 184.966 26.4597 184.966 32.8864C184.966 37.7877 187.996 41.9813 192.286 43.6958C191.859 43.9905 191.284 44.2843 190.622 44.5505C189.641 44.9448 188.573 45.237 187.756 45.3735C187.393 45.4337 187.133 45.7539 187.148 46.1203C187.164 46.4867 187.449 46.7847 187.814 46.8155C194.43 47.3738 202.514 45.6705 206.332 39.2706Z" fill="#ABADBA"/>
</svg>
