<svg width="18" height="19" viewBox="0 0 18 19" fill="none" xmlns="http://www.w3.org/2000/svg">
<path fill-rule="evenodd" clip-rule="evenodd" d="M0 0.75C0 0.335786 0.335786 0 0.75 0H16.75C17.1642 0 17.5 0.335786 17.5 0.75V12.75C17.5 13.1642 17.1642 13.5 16.75 13.5H9.06066L4.28033 18.2803C4.06583 18.4948 3.74324 18.559 3.46299 18.4429C3.18273 18.3268 3 18.0533 3 17.75V13.5H0.75C0.335786 13.5 0 13.1642 0 12.75V0.75ZM1.5 1.5V12H3.75C4.16421 12 4.5 12.3358 4.5 12.75V15.9393L8.21967 12.2197C8.36032 12.079 8.55109 12 8.75 12H16V1.5H1.5ZM4 6.75C4 6.33579 4.33579 6 4.75 6H4.76C5.17421 6 5.51 6.33579 5.51 6.75C5.51 7.16421 5.17421 7.5 4.76 7.5H4.75C4.33579 7.5 4 7.16421 4 6.75ZM8 6.75C8 6.33579 8.33579 6 8.75 6H8.76C9.17421 6 9.51 6.33579 9.51 6.75C9.51 7.16421 9.17421 7.5 8.76 7.5H8.75C8.33579 7.5 8 7.16421 8 6.75ZM12 6.75C12 6.33579 12.3358 6 12.75 6H12.76C13.1742 6 13.51 6.33579 13.51 6.75C13.51 7.16421 13.1742 7.5 12.76 7.5H12.75C12.3358 7.5 12 7.16421 12 6.75Z" fill="#3F4150"/>
</svg>
