<svg width="114" height="63" viewBox="0 0 114 63" fill="none" xmlns="http://www.w3.org/2000/svg">
<path fill-rule="evenodd" clip-rule="evenodd" d="M0 5C0 2.23858 2.23858 0 5 0H109C111.761 0 114 2.23858 114 5V36.4167C109.628 36.4167 106.083 39.9611 106.083 44.3333C106.083 48.7056 109.628 52.25 114 52.25V57.5417C114 60.3031 111.761 62.5417 109 62.5417H5C2.23858 62.5417 0 60.3031 0 57.5417V52.25C4.37225 52.25 7.91667 48.7056 7.91667 44.3333C7.91667 39.9611 4.37225 36.4167 0 36.4167V5Z" fill="#FFC200"/>
<path d="M29.688 36.252C26.916 36.252 24.792 34.308 24.792 30.978C24.792 27.63 27.186 25.686 29.922 25.686C31.182 25.686 32.118 26.154 32.856 26.802L31.614 28.494C31.11 28.062 30.624 27.846 30.084 27.846C28.518 27.846 27.492 29.07 27.492 30.978C27.492 32.868 28.536 34.11 29.976 34.11C30.714 34.11 31.398 33.75 31.956 33.3L33 35.046C32.046 35.874 30.804 36.252 29.688 36.252ZM38.4934 36.252C35.9554 36.252 33.6514 34.308 33.6514 30.978C33.6514 27.63 35.9554 25.686 38.4934 25.686C41.0134 25.686 43.3174 27.63 43.3174 30.978C43.3174 34.308 41.0134 36.252 38.4934 36.252ZM38.4934 34.11C39.8614 34.11 40.6174 32.868 40.6174 30.978C40.6174 29.07 39.8614 27.846 38.4934 27.846C37.1074 27.846 36.3514 29.07 36.3514 30.978C36.3514 32.868 37.1074 34.11 38.4934 34.11ZM48.555 36.252C46.377 36.252 45.423 34.758 45.423 32.22V25.938H48.069V31.896C48.069 33.444 48.501 33.984 49.491 33.984C50.319 33.984 50.859 33.624 51.543 32.724V25.938H54.171V36H52.011L51.813 34.56H51.759C50.877 35.586 49.923 36.252 48.555 36.252ZM57.0099 39.87V25.938H59.1519L59.3679 26.982H59.4219C60.2499 26.244 61.2939 25.686 62.3739 25.686C64.8579 25.686 66.3339 27.702 66.3339 30.816C66.3339 34.272 64.2639 36.252 62.0499 36.252C61.1859 36.252 60.3219 35.874 59.5659 35.172L59.6559 36.81V39.87H57.0099ZM61.4739 34.074C62.6799 34.074 63.6159 33.03 63.6159 30.852C63.6159 28.908 63.0219 27.846 61.6179 27.846C60.9519 27.846 60.3399 28.188 59.6559 28.89V33.336C60.2859 33.894 60.9339 34.074 61.4739 34.074ZM72.8059 36.252C70.2679 36.252 67.9639 34.308 67.9639 30.978C67.9639 27.63 70.2679 25.686 72.8059 25.686C75.3259 25.686 77.6299 27.63 77.6299 30.978C77.6299 34.308 75.3259 36.252 72.8059 36.252ZM72.8059 34.11C74.1739 34.11 74.9299 32.868 74.9299 30.978C74.9299 29.07 74.1739 27.846 72.8059 27.846C71.4199 27.846 70.6639 29.07 70.6639 30.978C70.6639 32.868 71.4199 34.11 72.8059 34.11ZM79.8615 36V25.938H82.0035L82.2195 27.27H82.2735C83.1375 26.406 84.1815 25.686 85.5495 25.686C87.7095 25.686 88.6635 27.198 88.6635 29.718V36H86.0175V30.06C86.0175 28.476 85.5675 27.954 84.5955 27.954C83.7675 27.954 83.2455 28.35 82.5075 29.07V36H79.8615Z" fill="black"/>
</svg>
