<svg width="20" height="18" viewBox="0 0 20 18" fill="none" xmlns="http://www.w3.org/2000/svg">
<path d="M16.6665 11.3612C17.7567 10.1098 18.3332 9 18.3332 9C18.3332 9 15.3029 3.16667 9.99984 3.16667C9.71549 3.16667 9.43767 3.18344 9.1665 3.21518C8.88132 3.24857 8.6035 3.29852 8.33317 3.36293M9.99984 6.5C10.292 6.5 10.5725 6.55013 10.8332 6.64225C11.5435 6.89333 12.1065 7.45632 12.3576 8.16667C12.4497 8.42732 12.4998 8.7078 12.4998 9M2.49984 1.5L17.4998 16.5M9.99983 11.5C9.70764 11.5 9.42715 11.4499 9.1665 11.3577C8.45616 11.1067 7.89316 10.5437 7.64209 9.83333C7.59472 9.69932 7.55846 9.56006 7.5344 9.41667M3.45568 6.5C3.19881 6.78709 2.96846 7.06868 2.76537 7.33333C2.04389 8.27353 1.6665 9 1.6665 9C1.6665 9 4.69681 14.8333 9.99984 14.8333C10.2842 14.8333 10.562 14.8166 10.8332 14.7848" stroke="#3F4150" stroke-width="1.5" stroke-linecap="round" stroke-linejoin="round"/>
</svg>