<svg width="14" height="20" viewBox="0 0 14 20" fill="none" xmlns="http://www.w3.org/2000/svg">
<path fill-rule="evenodd" clip-rule="evenodd" d="M0 3.74189C0 1.6753 1.63012 0 3.64097 0H9.88844C11.8993 0 13.5294 1.6753 13.5294 3.74189C13.5294 5.05048 12.8758 6.20217 11.8858 6.87099C12.8758 7.5398 13.5294 8.69149 13.5294 10.0001C13.5294 12.0667 11.8993 13.742 9.88844 13.742H9.80936C8.86666 13.742 8.00764 13.3738 7.36102 12.7697V16.2175C7.36102 18.3116 5.68831 20 3.66061 20C1.65476 20 0 18.3298 0 16.2581C0 14.9496 0.653545 13.7979 1.64347 13.1291C0.653545 12.4603 0 11.3086 0 10.0001C0 8.69149 0.6536 7.5398 1.6436 6.87099C0.653599 6.20217 0 5.05048 0 3.74189ZM6.16839 7.48388H3.64097C2.28879 7.48388 1.19263 8.61041 1.19263 10.0001C1.19263 11.3845 2.28046 12.5077 3.62554 12.5162C3.63068 12.5162 3.63583 12.5162 3.64097 12.5162H6.16839V7.48388ZM7.36102 10.0001C7.36102 11.3897 8.45718 12.5163 9.80936 12.5163H9.88844C11.2406 12.5163 12.3368 11.3897 12.3368 10.0001C12.3368 8.61041 11.2406 7.48388 9.88844 7.48388H9.80936C8.45718 7.48388 7.36102 8.61041 7.36102 10.0001ZM3.64097 13.742C3.63583 13.742 3.63069 13.742 3.62555 13.7419C2.28047 13.7505 1.19263 14.8737 1.19263 16.2581C1.19263 17.6426 2.30343 18.7743 3.66061 18.7743C5.03963 18.7743 6.16839 17.6244 6.16839 16.2175V13.742H3.64097ZM3.64097 1.22569H6.16839V6.2581H3.64097C2.28879 6.2581 1.19263 5.13156 1.19263 3.74189C1.19263 2.35224 2.28879 1.22569 3.64097 1.22569ZM7.36102 6.2581V1.22569H9.88844C11.2406 1.22569 12.3368 2.35224 12.3368 3.74189C12.3368 5.13156 11.2406 6.2581 9.88844 6.2581H7.36102Z" fill="#3F4150"/>
</svg>
