<svg width="21" height="30" viewBox="0 0 21 30" fill="none" xmlns="http://www.w3.org/2000/svg">
<path fill-rule="evenodd" clip-rule="evenodd" d="M0.235352 5.61284C0.235352 2.51295 2.68053 0 5.69681 0H15.068C18.0843 0 20.5295 2.51295 20.5295 5.61284C20.5295 7.57572 19.5491 9.30326 18.0641 10.3065C19.5491 11.3097 20.5295 13.0372 20.5295 15.0001C20.5295 18.1 18.0843 20.613 15.068 20.613H14.9494C13.5353 20.613 12.2468 20.0607 11.2769 19.1545V24.3262C11.2769 27.4674 8.76781 30 5.72627 30C2.71749 30 0.235352 27.4947 0.235352 24.3871C0.235352 22.4244 1.21567 20.6969 2.70056 19.6936C1.21567 18.6904 0.235352 16.9629 0.235352 15.0001C0.235352 13.0372 1.21575 11.3097 2.70075 10.3065C1.21575 9.30326 0.235352 7.57572 0.235352 5.61284ZM9.48794 11.2258H5.69681C3.66853 11.2258 2.0243 12.9156 2.0243 15.0001C2.0243 17.0767 3.65604 18.7616 5.67367 18.7744C5.68137 18.7743 5.68909 18.7743 5.69681 18.7743H9.48794V11.2258ZM11.2769 15.0001C11.2769 17.0846 12.9211 18.7744 14.9494 18.7744H15.068C17.0963 18.7744 18.7405 17.0846 18.7405 15.0001C18.7405 12.9156 17.0963 11.2258 15.068 11.2258H14.9494C12.9211 11.2258 11.2769 12.9156 11.2769 15.0001ZM5.69681 20.613C5.68909 20.613 5.68138 20.6129 5.67368 20.6129C3.65605 20.6257 2.0243 22.3106 2.0243 24.3871C2.0243 26.464 3.6905 28.1615 5.72627 28.1615C7.7948 28.1615 9.48794 26.4367 9.48794 24.3262V20.613H5.69681ZM5.69681 1.83854H9.48794V9.38715H5.69681C3.66853 9.38715 2.0243 7.69733 2.0243 5.61284C2.0243 3.52835 3.66853 1.83854 5.69681 1.83854ZM11.2769 9.38715V1.83854H15.068C17.0963 1.83854 18.7405 3.52835 18.7405 5.61284C18.7405 7.69733 17.0963 9.38715 15.068 9.38715H11.2769Z" fill="#3F4150"/>
</svg>
