<svg width="15" height="15" viewBox="0 0 15 15" fill="none" xmlns="http://www.w3.org/2000/svg">
<path d="M2.5 3.125L6.25 3.125M6.25 3.125C6.25 3.81536 6.80964 4.375 7.5 4.375C8.19036 4.375 8.75 3.81536 8.75 3.125M6.25 3.125C6.25 2.43464 6.80964 1.875 7.5 1.875C8.19036 1.875 8.75 2.43464 8.75 3.125M8.75 3.125L12.5 3.125M2.5 7.5H10M10 7.5C10 8.19036 10.5596 8.75 11.25 8.75C11.9404 8.75 12.5 8.19036 12.5 7.5C12.5 6.80964 11.9404 6.25 11.25 6.25C10.5596 6.25 10 6.80964 10 7.5ZM5 11.875H12.5M5 11.875C5 11.1846 4.44036 10.625 3.75 10.625C3.05964 10.625 2.5 11.1846 2.5 11.875C2.5 12.5654 3.05964 13.125 3.75 13.125C4.44036 13.125 5 12.5654 5 11.875Z" stroke="#8C8D96" stroke-linecap="round"/>
</svg>
