<svg width="91" height="73" viewBox="0 0 91 73" fill="none" xmlns="http://www.w3.org/2000/svg">
<ellipse cx="21.4229" cy="21.5491" rx="21.4229" ry="21.5491" transform="matrix(-0.532926 -0.846162 0.786861 -0.61713 57.0869 72.2139)" fill="url(#paint0_linear_527_13015)"/>
<ellipse opacity="0.5" cx="18.1073" cy="22.6669" rx="18.1073" ry="22.6669" transform="matrix(-0.530433 -0.847727 0.791649 -0.610976 20.1074 58.3979)" fill="url(#paint1_linear_527_13015)"/>
<path fill-rule="evenodd" clip-rule="evenodd" d="M39.3089 24.1276C36.7535 19.8239 27.2049 14.5673 21.5256 25.4703C16.6983 35.5124 13.7529 57.4102 25.6791 57.6971C28.8071 57.7724 32.778 56.4347 36.1855 47.9419C37.3214 48.1332 40.1042 48.1714 42.1487 45.6465H44.8105V45.6466H47.9339C49.9784 48.1715 52.7612 48.1332 53.8971 47.9419C57.3046 56.4348 61.2755 57.7724 64.4035 57.6972C76.3297 57.4103 73.3843 35.5124 68.557 25.4704C62.8777 14.5673 53.3291 19.8239 50.7737 24.1277H45.2721V24.1276H39.3089Z" fill="#E0E3F8"/>
<path fill-rule="evenodd" clip-rule="evenodd" d="M38.886 21.2614C36.3306 16.9576 26.782 11.7011 21.1028 22.6041C16.2754 32.6462 13.33 54.544 25.2562 54.8309C28.3843 54.9062 32.3552 53.5685 35.7627 45.0757C36.8985 45.267 39.6813 45.3052 41.7258 42.7803H44.3875V42.7804H47.5109C49.5554 45.3053 52.3382 45.267 53.4741 45.0757C56.8816 53.5685 60.8525 54.9062 63.9805 54.831C75.9068 54.5441 72.9613 32.6462 68.134 22.6041C62.4547 11.7011 52.9061 16.9577 50.3508 21.2615H44.8492V21.2614H38.886Z" fill="#6583FE"/>
<path d="M21.1028 22.6041L20.2159 22.1421L20.2085 22.1564L20.2015 22.1708L21.1028 22.6041ZM38.886 21.2614L38.0262 21.772L38.3168 22.2614H38.886V21.2614ZM25.2562 54.8309L25.2803 53.8312L25.2803 53.8312L25.2562 54.8309ZM35.7627 45.0757L35.9287 44.0896L35.1345 43.9558L34.8346 44.7033L35.7627 45.0757ZM41.7258 42.7803V41.7803H41.2488L40.9486 42.151L41.7258 42.7803ZM44.3875 42.7803H45.3875V41.7803H44.3875V42.7803ZM44.3875 42.7804H43.3875V43.7804H44.3875V42.7804ZM47.5109 42.7804L48.2881 42.1511L47.9879 41.7804H47.5109V42.7804ZM53.4741 45.0757L54.4022 44.7034L54.1022 43.9559L53.308 44.0896L53.4741 45.0757ZM63.9805 54.831L63.9565 53.8313L63.9565 53.8313L63.9805 54.831ZM68.134 22.6041L69.0353 22.1709L69.0283 22.1564L69.0209 22.1422L68.134 22.6041ZM50.3508 21.2615V22.2615H50.92L51.2106 21.772L50.3508 21.2615ZM44.8492 21.2615H43.8492V22.2615H44.8492V21.2615ZM44.8492 21.2614H45.8492V20.2614H44.8492V21.2614ZM21.9897 23.0661C23.3416 20.4706 24.8803 18.9186 26.4075 18.0614C27.9285 17.2076 29.5084 17.0031 31.0241 17.2201C34.1183 17.6632 36.8909 19.8599 38.0262 21.772L39.7459 20.7509C38.3258 18.3592 35.0464 15.7757 31.3076 15.2403C29.4068 14.9681 27.375 15.2248 25.4285 16.3174C23.4881 17.4065 21.7036 19.2861 20.2159 22.1421L21.9897 23.0661ZM25.2803 53.8312C22.6735 53.7685 20.9242 52.5577 19.7586 50.579C18.5571 48.5394 17.9704 45.658 17.8967 42.3534C17.7493 35.7522 19.6556 27.9228 22.004 23.0373L20.2015 22.1708C17.7227 27.3275 15.7425 35.468 15.8972 42.398C15.9744 45.859 16.5858 49.1334 18.0354 51.5942C19.5209 54.1159 21.8758 55.7499 25.2322 55.8306L25.2803 53.8312ZM34.8346 44.7033C33.1695 48.8533 31.4136 51.1335 29.7965 52.3726C28.2065 53.5908 26.6701 53.8647 25.2803 53.8312L25.2322 55.8306C26.9704 55.8725 28.9835 55.5151 31.0129 53.9601C33.0151 52.426 34.9483 49.7909 36.6908 45.448L34.8346 44.7033ZM40.9486 42.151C39.2271 44.2771 36.8901 44.2515 35.9287 44.0896L35.5966 46.0618C36.9069 46.2825 40.1356 46.3333 42.503 43.4096L40.9486 42.151ZM44.3875 41.7803H41.7258V43.7803H44.3875V41.7803ZM43.3875 42.7803V42.7804H45.3875V42.7803H43.3875ZM44.3875 43.7804H47.5109V41.7804H44.3875V43.7804ZM46.7338 43.4097C49.1012 46.3334 52.3298 46.2825 53.6401 46.0618L53.308 44.0896C52.3467 44.2515 50.0097 44.2772 48.2881 42.1511L46.7338 43.4097ZM52.546 45.4481C54.2884 49.7909 56.2217 52.426 58.2239 53.9602C60.2533 55.5151 62.2664 55.8725 64.0046 55.8307L63.9565 53.8313C62.5666 53.8647 61.0303 53.5909 59.4403 52.3726C57.8232 51.1335 56.0672 48.8534 54.4022 44.7034L52.546 45.4481ZM64.0046 55.8307C67.361 55.7499 69.7158 54.1159 71.2013 51.5942C72.651 49.1335 73.2623 45.8591 73.3396 42.3981C73.4943 35.468 71.5141 27.3275 69.0353 22.1709L67.2327 23.0374C69.5812 27.9229 71.4874 35.7523 71.3401 42.3534C71.2663 45.658 70.6796 48.5395 69.4781 50.5791C68.3125 52.5577 66.5632 53.7686 63.9565 53.8313L64.0046 55.8307ZM69.0209 22.1422C67.5332 19.2861 65.7486 17.4066 63.8082 16.3174C61.8618 15.2248 59.83 14.9682 57.9292 15.2404C54.1904 15.7757 50.911 18.3592 49.4909 20.7509L51.2106 21.772C52.3459 19.8599 55.1185 17.6632 58.2127 17.2202C59.7283 17.0031 61.3082 17.2076 62.8293 18.0614C64.3564 18.9186 65.8952 20.4707 67.2471 23.0661L69.0209 22.1422ZM50.3508 20.2615H44.8492V22.2615H50.3508V20.2615ZM43.8492 21.2614V21.2615H45.8492V21.2614H43.8492ZM38.886 22.2614H44.8492V20.2614H38.886V22.2614Z" fill="#2626BC"/>
<rect x="13.4365" y="24.3252" width="1.13583" height="4.01687" rx="0.567917" fill="#FF5BA8"/>
<rect x="15.9922" y="25.76" width="1.14768" height="3.97542" rx="0.573838" transform="rotate(90 15.9922 25.76)" fill="#FF5BA8"/>
<rect width="1.13583" height="4.01687" rx="0.567917" transform="matrix(1 0 0 -1 68.5244 17.4395)" fill="#FD3730"/>
<rect width="1.14768" height="3.97542" rx="0.573838" transform="matrix(-4.32603e-08 -1 -1 4.41672e-08 71.0801 16.0049)" fill="#FD3730"/>
<rect x="15.708" y="20.3083" width="1.13583" height="4.01687" rx="0.567917" fill="#FAC100"/>
<rect x="18.2637" y="21.7429" width="1.14768" height="3.97542" rx="0.573838" transform="rotate(90 18.2637 21.7429)" fill="#FAC100"/>
<rect width="1.13583" height="4.01687" rx="0.567917" transform="matrix(1 0 0 -1 78.1787 44.4097)" fill="#009AE0"/>
<rect width="1.14768" height="3.97542" rx="0.573838" transform="matrix(-4.32603e-08 -1 -1 4.41672e-08 80.7354 42.9753)" fill="#009AE0"/>
<ellipse cx="7.55408" cy="15.8501" rx="7.55408" ry="15.8501" transform="matrix(0.985648 0.168811 -0.165441 0.98622 22.7246 18.8035)" fill="white" fill-opacity="0.2"/>
<ellipse cx="7.5549" cy="15.8485" rx="7.5549" ry="15.8485" transform="matrix(0.980285 -0.197588 -0.193685 -0.981064 57.0273 53.0884)" fill="white" fill-opacity="0.2"/>
<path fill-rule="evenodd" clip-rule="evenodd" d="M29.3382 21.4563C28.3972 21.4563 27.6344 22.2191 27.6344 23.1601V25.1865L25.6639 25.1865C24.7131 25.1865 23.9424 25.9572 23.9424 26.908C23.9424 27.8587 24.7131 28.6295 25.6639 28.6295H27.6344V30.6555C27.6344 31.5964 28.3972 32.3592 29.3382 32.3592C30.2791 32.3592 31.0419 31.5964 31.0419 30.6555V28.6295H33.0113C33.9621 28.6295 34.7328 27.8587 34.7328 26.908C34.7328 25.9572 33.9621 25.1865 33.0113 25.1865L31.0419 25.1865V23.16C31.0419 22.2191 30.2791 21.4563 29.3382 21.4563Z" fill="#BDC5CA"/>
<mask id="mask0_527_13015" style="mask-type:alpha" maskUnits="userSpaceOnUse" x="23" y="21" width="12" height="12">
<path fill-rule="evenodd" clip-rule="evenodd" d="M29.3382 21.4563C28.3972 21.4563 27.6344 22.2191 27.6344 23.1601V25.1865L25.6639 25.1865C24.7131 25.1865 23.9424 25.9572 23.9424 26.908C23.9424 27.8587 24.7131 28.6295 25.6639 28.6295H27.6344V30.6555C27.6344 31.5964 28.3972 32.3592 29.3382 32.3592C30.2791 32.3592 31.0419 31.5964 31.0419 30.6555V28.6295H33.0113C33.9621 28.6295 34.7328 27.8587 34.7328 26.908C34.7328 25.9572 33.9621 25.1865 33.0113 25.1865L31.0419 25.1865V23.16C31.0419 22.2191 30.2791 21.4563 29.3382 21.4563Z" fill="#D9D9D9"/>
</mask>
<g mask="url(#mask0_527_13015)">
<path fill-rule="evenodd" clip-rule="evenodd" d="M29.905 20.8823C28.9641 20.8823 28.2013 21.6451 28.2013 22.5861V24.6125L26.2313 24.6125C25.2805 24.6125 24.5098 25.3832 24.5098 26.334C24.5098 27.2848 25.2805 28.0555 26.2313 28.0555H28.2013V30.0815C28.2013 31.0225 28.9641 31.7853 29.905 31.7853C30.846 31.7853 31.6088 31.0225 31.6088 30.0815V28.0555H33.5787C34.5294 28.0555 35.3002 27.2848 35.3002 26.334C35.3002 25.3832 34.5294 24.6125 33.5787 24.6125L31.6088 24.6125V22.5861C31.6088 21.6451 30.846 20.8823 29.905 20.8823Z" fill="#E0E2E7"/>
</g>
<rect x="38.708" y="28.3423" width="5.11125" height="2.29535" rx="1" fill="#BAC2C6"/>
<rect x="39.2764" y="28.3423" width="4.54334" height="2.29535" rx="1" fill="#EAEFF0"/>
<rect x="45.5225" y="28.3423" width="5.11125" height="2.29535" rx="1" fill="#BAC2C6"/>
<rect x="46.0908" y="28.3423" width="4.54334" height="2.29535" rx="1" fill="#EAEFF0"/>
<ellipse cx="36.7208" cy="38.3845" rx="3.69146" ry="3.72995" fill="#8C8D96"/>
<ellipse cx="37.46" cy="37.1412" rx="1.47658" ry="1.49198" fill="#E0E2E7"/>
<ellipse cx="52.0538" cy="38.3845" rx="3.69146" ry="3.72995" fill="#8C8D96"/>
<ellipse cx="52.792" cy="37.1412" rx="1.47658" ry="1.49198" fill="#E0E2E7"/>
<ellipse cx="59.7204" cy="23.7518" rx="1.70375" ry="1.72152" fill="#00B157"/>
<mask id="mask1_527_13015" style="mask-type:alpha" maskUnits="userSpaceOnUse" x="58" y="22" width="4" height="4">
<ellipse cx="59.7204" cy="23.7518" rx="1.70375" ry="1.72152" fill="#00B157"/>
</mask>
<g mask="url(#mask1_527_13015)">
<ellipse cx="60.1471" cy="22.8909" rx="1.70375" ry="1.72152" fill="#00CF66"/>
</g>
<ellipse cx="63.1286" cy="27.1947" rx="1.70375" ry="1.72152" fill="#D3241F"/>
<mask id="mask2_527_13015" style="mask-type:alpha" maskUnits="userSpaceOnUse" x="61" y="25" width="4" height="4">
<ellipse cx="63.1286" cy="27.1947" rx="1.70375" ry="1.72152" fill="#D3241F"/>
</mask>
<g mask="url(#mask2_527_13015)">
<ellipse cx="63.5543" cy="26.3341" rx="1.70375" ry="1.72152" fill="#FD3730"/>
</g>
<ellipse cx="59.7204" cy="30.6378" rx="1.70375" ry="1.72152" fill="#0081BD"/>
<mask id="mask3_527_13015" style="mask-type:alpha" maskUnits="userSpaceOnUse" x="58" y="28" width="4" height="5">
<ellipse cx="59.7204" cy="30.6378" rx="1.70375" ry="1.72152" fill="#00B157"/>
</mask>
<g mask="url(#mask3_527_13015)">
<ellipse cx="60.1471" cy="29.7769" rx="1.70375" ry="1.72152" fill="#009AE0"/>
</g>
<ellipse cx="56.3131" cy="27.1947" rx="1.70375" ry="1.72152" fill="#FF9500"/>
<mask id="mask4_527_13015" style="mask-type:alpha" maskUnits="userSpaceOnUse" x="54" y="25" width="5" height="4">
<ellipse cx="56.3131" cy="27.1947" rx="1.70375" ry="1.72152" fill="#00B157"/>
</mask>
<g mask="url(#mask4_527_13015)">
<ellipse cx="56.7389" cy="26.3341" rx="1.70375" ry="1.72152" fill="#FAC100"/>
</g>
<defs>
<linearGradient id="paint0_linear_527_13015" x1="44.9949" y1="17.529" x2="18.8456" y2="32.5555" gradientUnits="userSpaceOnUse">
<stop stop-color="#B1B5FF"/>
<stop offset="1" stop-color="#D9D9D9" stop-opacity="0"/>
</linearGradient>
<linearGradient id="paint1_linear_527_13015" x1="21.3681" y1="27.1148" x2="-5.97392" y2="25.3783" gradientUnits="userSpaceOnUse">
<stop stop-color="#B1B5FF"/>
<stop offset="1" stop-color="#D9D9D9" stop-opacity="0"/>
</linearGradient>
</defs>
</svg>
