<svg width="30" height="30" viewBox="0 0 30 30" fill="none" xmlns="http://www.w3.org/2000/svg">
<path fill-rule="evenodd" clip-rule="evenodd" d="M15.0124 0C6.71094 0 0 6.87497 0 15.3802C0 22.179 4.29993 27.9339 10.2651 29.9708C11.0109 30.1239 11.284 29.6399 11.284 29.2327C11.284 28.8761 11.2595 27.6539 11.2595 26.3805C7.08337 27.2974 6.21374 24.5471 6.21374 24.5471C5.54261 22.7646 4.54822 22.3065 4.54822 22.3065C3.18139 21.3643 4.64778 21.3643 4.64778 21.3643C6.16396 21.4662 6.95954 22.943 6.95954 22.943C8.30148 25.2855 10.4639 24.6236 11.3338 24.2162C11.458 23.223 11.8559 22.5355 12.2784 22.1537C8.94771 21.7971 5.44336 20.473 5.44336 14.5653C5.44336 12.8846 6.0395 11.5096 6.98412 10.4403C6.83508 10.0584 6.31299 8.47934 7.13346 6.36591C7.13346 6.36591 8.40104 5.95841 11.2592 7.94465C12.4828 7.60799 13.7448 7.43672 15.0124 7.43528C16.28 7.43528 17.5721 7.61372 18.7654 7.94465C21.6238 5.95841 22.8914 6.36591 22.8914 6.36591C23.7118 8.47934 23.1894 10.0584 23.0404 10.4403C24.0099 11.5096 24.5815 12.8846 24.5815 14.5653C24.5815 20.473 21.0771 21.7715 17.7215 22.1537C18.2685 22.6374 18.7405 23.554 18.7405 25.0055C18.7405 27.068 18.7159 28.7233 18.7159 29.2324C18.7159 29.6399 18.9894 30.1239 19.7349 29.9711C25.7 27.9336 29.9999 22.179 29.9999 15.3802C30.0245 6.87497 23.289 0 15.0124 0Z" fill="#3F4150"/>
</svg>
