<svg width="20" height="20" viewBox="0 0 20 20" fill="none" xmlns="http://www.w3.org/2000/svg">
<path fill-rule="evenodd" clip-rule="evenodd" d="M10.0083 0C4.47396 0 0 4.58331 0 10.2535C0 14.786 2.86662 18.6226 6.84338 19.9805C7.34058 20.0826 7.5227 19.7599 7.5227 19.4885C7.5227 19.2508 7.50631 18.436 7.50631 17.587C4.72225 18.1983 4.14249 16.3647 4.14249 16.3647C3.69508 15.1764 3.03215 14.871 3.03215 14.871C2.12092 14.2429 3.09852 14.2429 3.09852 14.2429C4.10931 14.3108 4.63969 15.2954 4.63969 15.2954C5.53432 16.857 6.97592 16.4158 7.55588 16.1441C7.63865 15.482 7.90394 15.0237 8.18563 14.7691C5.96514 14.5314 3.62891 13.6487 3.62891 9.71017C3.62891 8.58976 4.02634 7.67309 4.65608 6.96018C4.55672 6.7056 4.20866 5.65289 4.75564 4.24394C4.75564 4.24394 5.60069 3.97228 7.5061 5.29644C8.32188 5.07199 9.16317 4.95782 10.0083 4.95685C10.8533 4.95685 11.7148 5.07581 12.5102 5.29644C14.4159 3.97228 15.2609 4.24394 15.2609 4.24394C15.8079 5.65289 15.4596 6.7056 15.3603 6.96018C16.0066 7.67309 16.3876 8.58976 16.3876 9.71017C16.3876 13.6487 14.0514 14.5143 11.8143 14.7691C12.179 15.0916 12.4936 15.7026 12.4936 16.6703C12.4936 18.0453 12.4773 19.1489 12.4773 19.4883C12.4773 19.7599 12.6596 20.0826 13.1566 19.9807C17.1333 18.6224 20 14.786 20 10.2535C20.0163 4.58331 15.526 0 10.0083 0Z" fill="#3F4150"/>
</svg>
