<svg width="144" height="33" viewBox="0 0 144 33" fill="none" xmlns="http://www.w3.org/2000/svg">
<path d="M10.98 32.504C5.796 32.504 1.836 28.724 1.836 22.28C1.836 15.728 6.228 11.984 11.232 11.984C13.788 11.984 15.588 13.028 16.956 14.288L15.3 16.448C14.148 15.404 12.924 14.72 11.412 14.72C7.812 14.72 5.22 17.744 5.22 22.28C5.22 26.744 7.704 29.768 11.304 29.768C13.068 29.768 14.688 28.904 15.912 27.824L17.316 30.02C15.588 31.568 13.32 32.504 10.98 32.504ZM27.9503 32.504C23.1263 32.504 18.8783 28.724 18.8783 22.28C18.8783 15.728 23.1263 11.984 27.9503 11.984C32.7383 11.984 36.9863 15.728 36.9863 22.28C36.9863 28.724 32.7383 32.504 27.9503 32.504ZM27.9503 29.768C31.3343 29.768 33.6023 26.744 33.6023 22.28C33.6023 17.744 31.3343 14.72 27.9503 14.72C24.5303 14.72 22.2623 17.744 22.2623 22.28C22.2623 26.744 24.5303 29.768 27.9503 29.768ZM44.6763 32L39.2043 12.452H42.5523L45.5043 23.792C45.9003 25.664 46.2603 27.392 46.6203 29.228H46.8003C47.2323 27.392 47.6283 25.628 48.1323 23.792L51.1563 12.452H54.3603L57.4563 23.792C57.9243 25.664 58.3563 27.392 58.8243 29.228H58.9683C59.3643 27.392 59.7243 25.664 60.1923 23.792L63.0363 12.452H66.1683L60.9123 32H56.9163L54.0723 21.488C53.5683 19.616 53.2083 17.852 52.7403 15.836H52.5603C52.1643 17.852 51.7683 19.652 51.2283 21.524L48.4923 32H44.6763ZM74.0914 32.504C70.8154 32.504 68.3674 30.452 68.3674 26.924C68.3674 22.676 72.0394 20.552 80.3554 19.616C80.3554 17.096 79.5634 14.684 76.3594 14.684C74.0554 14.684 72.0034 15.764 70.4914 16.808L69.1954 14.504C70.9954 13.352 73.7314 11.984 76.8634 11.984C81.6514 11.984 83.6674 15.152 83.6674 20.012V32H80.9674L80.6794 29.696H80.5354C78.6994 31.244 76.5034 32.504 74.0914 32.504ZM74.9914 29.84C76.8994 29.84 78.4834 28.94 80.3554 27.248V21.812C73.7674 22.568 71.5714 24.188 71.5714 26.708C71.5714 28.94 73.0834 29.84 74.9914 29.84ZM89.5165 32V12.452H92.1805L92.5045 16.016H92.6125C93.9445 13.532 95.9605 11.984 98.1565 11.984C99.0205 11.984 99.5965 12.092 100.245 12.38L99.6325 15.26C98.9485 15.044 98.5165 14.936 97.7245 14.936C96.1045 14.936 94.0885 16.124 92.7925 19.472V32H89.5165ZM109.245 32.504C104.349 32.504 101.181 28.796 101.181 22.28C101.181 15.908 105.213 11.984 109.677 11.984C111.945 11.984 113.457 12.812 115.149 14.252L115.005 10.868V3.38H118.281V32H115.581L115.293 29.696H115.221C113.673 31.244 111.621 32.504 109.245 32.504ZM109.965 29.732C111.801 29.732 113.385 28.832 115.005 27.068V16.808C113.349 15.296 111.837 14.72 110.217 14.72C107.085 14.72 104.601 17.78 104.601 22.244C104.601 26.924 106.545 29.732 109.965 29.732Z" fill="black"/>
<path d="M16.956 14.288L17.7496 14.8964L18.3055 14.1714L17.6335 13.5525L16.956 14.288ZM15.3 16.448L14.6285 17.189L15.433 17.9181L16.0936 17.0564L15.3 16.448ZM15.912 27.824L16.7545 27.2853L16.1257 26.3018L15.2504 27.0742L15.912 27.824ZM17.316 30.02L17.9832 30.7648L18.6165 30.1976L18.1585 29.4813L17.316 30.02ZM10.98 31.504C8.63937 31.504 6.62644 30.6559 5.19418 29.1252C3.75929 27.5918 2.836 25.2954 2.836 22.28H0.836C0.836 25.7086 1.89271 28.5242 3.73382 30.4918C5.57756 32.4621 8.13663 33.504 10.98 33.504V31.504ZM2.836 22.28C2.836 19.2356 3.85139 16.923 5.37098 15.3757C6.89529 13.8235 8.98199 12.984 11.232 12.984V10.984C8.47801 10.984 5.86671 12.0165 3.94402 13.9743C2.01661 15.937 0.836 18.7724 0.836 22.28H2.836ZM11.232 12.984C13.4744 12.984 15.0433 13.8858 16.2785 15.0235L17.6335 13.5525C16.1327 12.1702 14.1016 10.984 11.232 10.984V12.984ZM16.1624 13.6796L14.5064 15.8396L16.0936 17.0564L17.7496 14.8964L16.1624 13.6796ZM15.9715 15.707C14.7198 14.5726 13.2663 13.72 11.412 13.72V15.72C12.5817 15.72 13.5762 16.2354 14.6285 17.189L15.9715 15.707ZM11.412 13.72C9.31046 13.72 7.48187 14.6116 6.19649 16.1604C4.92159 17.6965 4.22 19.8266 4.22 22.28H6.22C6.22 20.1974 6.81441 18.5475 7.73551 17.4376C8.64613 16.3404 9.91354 15.72 11.412 15.72V13.72ZM4.22 22.28C4.22 24.6907 4.89092 26.8012 6.13686 28.3298C7.39556 29.8741 9.19993 30.768 11.304 30.768V28.768C9.80808 28.768 8.57045 28.1499 7.68714 27.0662C6.79108 25.9668 6.22 24.3333 6.22 22.28H4.22ZM11.304 30.768C13.3928 30.768 15.2387 29.7517 16.5736 28.5738L15.2504 27.0742C14.1373 28.0563 12.7432 28.768 11.304 28.768V30.768ZM15.0695 28.3627L16.4735 30.5587L18.1585 29.4813L16.7545 27.2853L15.0695 28.3627ZM16.6488 29.2752C15.09 30.6715 13.0554 31.504 10.98 31.504V33.504C13.5846 33.504 16.086 32.4645 17.9832 30.7648L16.6488 29.2752ZM27.9503 31.504C23.7252 31.504 19.8783 28.2195 19.8783 22.28H17.8783C17.8783 29.2285 22.5275 33.504 27.9503 33.504V31.504ZM19.8783 22.28C19.8783 16.23 23.7276 12.984 27.9503 12.984V10.984C22.5251 10.984 17.8783 15.226 17.8783 22.28H19.8783ZM27.9503 12.984C32.1346 12.984 35.9863 16.2274 35.9863 22.28H37.9863C37.9863 15.2286 33.3421 10.984 27.9503 10.984V12.984ZM35.9863 22.28C35.9863 28.2221 32.137 31.504 27.9503 31.504V33.504C33.3397 33.504 37.9863 29.2259 37.9863 22.28H35.9863ZM27.9503 30.768C29.9733 30.768 31.6755 29.8507 32.844 28.2997C33.996 26.7708 34.6023 24.6706 34.6023 22.28H32.6023C32.6023 24.3534 32.0747 25.9972 31.2467 27.0963C30.4352 28.1733 29.3114 28.768 27.9503 28.768V30.768ZM34.6023 22.28C34.6023 19.8566 33.9975 17.7387 32.846 16.1999C31.6773 14.638 29.9739 13.72 27.9503 13.72V15.72C29.3108 15.72 30.4334 16.314 31.2447 17.3981C32.0732 18.5053 32.6023 20.1674 32.6023 22.28H34.6023ZM27.9503 13.72C25.9123 13.72 24.1995 14.635 23.0245 16.1981C21.8671 17.7378 21.2623 19.8567 21.2623 22.28H23.2623C23.2623 20.1673 23.7915 18.5062 24.6232 17.3999C25.4372 16.317 26.5684 15.72 27.9503 15.72V13.72ZM21.2623 22.28C21.2623 24.6705 21.8687 26.7717 23.0265 28.3015C24.2013 29.8537 25.9129 30.768 27.9503 30.768V28.768C26.5677 28.768 25.4354 28.1703 24.6212 27.0945C23.79 25.9963 23.2623 24.3535 23.2623 22.28H21.2623ZM44.6763 32L43.7133 32.2696L43.9178 33H44.6763V32ZM39.2043 12.452V11.452H37.8859L38.2413 12.7216L39.2043 12.452ZM42.5523 12.452L43.52 12.2001L43.3253 11.452H42.5523V12.452ZM45.5043 23.792L46.4826 23.585L46.4778 23.5624L46.472 23.5401L45.5043 23.792ZM46.6203 29.228L45.639 29.4204L45.7973 30.228H46.6203V29.228ZM46.8003 29.228V30.228H47.5923L47.7737 29.457L46.8003 29.228ZM48.1323 23.792L49.0966 24.0567L49.0985 24.0497L48.1323 23.792ZM51.1563 12.452V11.452H50.388L50.19 12.1943L51.1563 12.452ZM54.3603 12.452L55.325 12.1886L55.1239 11.452H54.3603V12.452ZM57.4563 23.792L58.4264 23.5495L58.4238 23.539L58.421 23.5286L57.4563 23.792ZM58.8243 29.228L57.8553 29.475L58.0472 30.228H58.8243V29.228ZM58.9683 29.228V30.228H59.7756L59.9458 29.4388L58.9683 29.228ZM60.1923 23.792L59.2223 23.5487L59.2221 23.5495L60.1923 23.792ZM63.0363 12.452V11.452H62.2561L62.0663 12.2087L63.0363 12.452ZM66.1683 12.452L67.134 12.7117L67.4727 11.452H66.1683V12.452ZM60.9123 32V33H61.6789L61.878 32.2597L60.9123 32ZM56.9163 32L55.951 32.2612L56.1509 33H56.9163V32ZM54.0723 21.488L53.1067 21.748L53.107 21.7492L54.0723 21.488ZM52.7403 15.836L53.7144 15.6099L53.5347 14.836H52.7403V15.836ZM52.5603 15.836V14.836H51.7376L51.579 15.6433L52.5603 15.836ZM51.2283 21.524L50.2675 21.2468L50.2639 21.259L50.2607 21.2713L51.2283 21.524ZM48.4923 32V33H49.2647L49.4598 32.2527L48.4923 32ZM45.6393 31.7304L40.1673 12.1824L38.2413 12.7216L43.7133 32.2696L45.6393 31.7304ZM39.2043 13.452H42.5523V11.452H39.2043V13.452ZM41.5845 12.7039L44.5365 24.0439L46.472 23.5401L43.52 12.2001L41.5845 12.7039ZM44.5259 23.999C44.9216 25.8693 45.2804 27.5917 45.639 29.4204L47.6016 29.0356C47.2402 27.1923 46.879 25.4587 46.4826 23.585L44.5259 23.999ZM46.6203 30.228H46.8003V28.228H46.6203V30.228ZM47.7737 29.457C48.2088 27.608 48.5989 25.8697 49.0966 24.0567L47.168 23.5273C46.6576 25.3863 46.2558 27.176 45.8269 28.999L47.7737 29.457ZM49.0985 24.0497L52.1225 12.7097L50.19 12.1943L47.166 23.5343L49.0985 24.0497ZM51.1563 13.452H54.3603V11.452H51.1563V13.452ZM53.3956 12.7154L56.4916 24.0554L58.421 23.5286L55.325 12.1886L53.3956 12.7154ZM56.4861 24.0345C56.9541 25.9062 57.3866 27.6364 57.8553 29.475L59.7933 28.981C59.326 27.1476 58.8945 25.4218 58.4264 23.5495L56.4861 24.0345ZM58.8243 30.228H58.9683V28.228H58.8243V30.228ZM59.9458 29.4388C60.3437 27.594 60.6994 25.8865 61.1624 24.0345L59.2221 23.5495C58.7491 25.4415 58.3849 27.19 57.9908 29.0172L59.9458 29.4388ZM61.1622 24.0353L64.0062 12.6953L62.0663 12.2087L59.2223 23.5487L61.1622 24.0353ZM63.0363 13.452H66.1683V11.452H63.0363V13.452ZM65.2026 12.1923L59.9466 31.7403L61.878 32.2597L67.134 12.7117L65.2026 12.1923ZM60.9123 31H56.9163V33H60.9123V31ZM57.8816 31.7388L55.0376 21.2268L53.107 21.7492L55.951 32.2612L57.8816 31.7388ZM55.0379 21.228C54.5398 19.378 54.19 17.6589 53.7144 15.6099L51.7662 16.0621C52.2265 18.0451 52.5968 19.854 53.1067 21.748L55.0379 21.228ZM52.7403 14.836H52.5603V16.836H52.7403V14.836ZM51.579 15.6433C51.1856 17.6464 50.796 19.4146 50.2675 21.2468L52.1891 21.8012C52.7406 19.8894 53.143 18.0576 53.5415 16.0287L51.579 15.6433ZM50.2607 21.2713L47.5247 31.7473L49.4598 32.2527L52.1958 21.7767L50.2607 21.2713ZM48.4923 31H44.6763V33H48.4923V31ZM80.3554 19.616L80.4672 20.6097L81.3554 20.5098V19.616H80.3554ZM70.4914 16.808L69.6198 17.2983L70.1573 18.2539L71.0596 17.6309L70.4914 16.808ZM69.1954 14.504L68.6563 13.6617L67.8607 14.1709L68.3238 14.9943L69.1954 14.504ZM83.6674 32V33H84.6674V32H83.6674ZM80.9674 32L79.9751 32.124L80.0846 33H80.9674V32ZM80.6794 29.696L81.6717 29.572L81.5622 28.696H80.6794V29.696ZM80.5354 29.696V28.696H80.1701L79.8908 28.9315L80.5354 29.696ZM80.3554 27.248L81.0259 27.9899L81.3554 27.6921V27.248H80.3554ZM80.3554 21.812H81.3554V20.6907L80.2414 20.8185L80.3554 21.812ZM74.0914 31.504C72.6601 31.504 71.4882 31.0578 70.6834 30.3062C69.8879 29.5632 69.3674 28.4447 69.3674 26.924H67.3674C67.3674 28.9313 68.0709 30.6028 69.3183 31.7678C70.5565 32.9242 72.2466 33.504 74.0914 33.504V31.504ZM69.3674 26.924C69.3674 26.0115 69.5628 25.2619 69.9344 24.6263C70.3076 23.9878 70.8927 23.4063 71.7588 22.8846C73.524 21.8215 76.3412 21.0741 80.4672 20.6097L80.2435 18.6223C76.0535 19.0939 72.8768 19.8765 70.7269 21.1714C69.6355 21.8287 68.7829 22.6332 68.2078 23.6169C67.631 24.6036 67.3674 25.7125 67.3674 26.924H69.3674ZM81.3554 19.616C81.3554 18.2845 81.1524 16.8181 80.3966 15.6589C79.5908 14.4229 78.2555 13.684 76.3594 13.684V15.684C77.6672 15.684 78.33 16.1511 78.7212 16.7511C79.1624 17.4279 79.3554 18.4275 79.3554 19.616H81.3554ZM76.3594 13.684C73.7528 13.684 71.4953 14.8996 69.9232 15.9851L71.0596 17.6309C72.5114 16.6284 74.358 15.684 76.3594 15.684V13.684ZM71.3629 16.3177L70.0669 14.0137L68.3238 14.9943L69.6198 17.2983L71.3629 16.3177ZM69.7344 15.3463C71.4695 14.2359 74.0111 12.984 76.8634 12.984V10.984C73.4517 10.984 70.5213 12.4681 68.6563 13.6617L69.7344 15.3463ZM76.8634 12.984C79.0184 12.984 80.4006 13.684 81.2753 14.7943C82.1835 15.9471 82.6674 17.6965 82.6674 20.012H84.6674C84.6674 17.4675 84.1433 15.2029 82.8464 13.5567C81.5161 11.868 79.4963 10.984 76.8634 10.984V12.984ZM82.6674 20.012V32H84.6674V20.012H82.6674ZM83.6674 31H80.9674V33H83.6674V31ZM81.9596 31.876L81.6717 29.572L79.6871 29.82L79.9751 32.124L81.9596 31.876ZM80.6794 28.696H80.5354V30.696H80.6794V28.696ZM79.8908 28.9315C78.1259 30.4196 76.1558 31.504 74.0914 31.504V33.504C76.8509 33.504 79.2729 32.0684 81.18 30.4605L79.8908 28.9315ZM74.9914 30.84C77.2694 30.84 79.0873 29.742 81.0259 27.9899L79.6848 26.5061C77.8794 28.138 76.5294 28.84 74.9914 28.84V30.84ZM81.3554 27.248V21.812H79.3554V27.248H81.3554ZM80.2414 20.8185C76.9139 21.2004 74.5432 21.8124 72.9825 22.7385C72.1863 23.2111 71.5705 23.7829 71.1585 24.4742C70.7438 25.1699 70.5714 25.9263 70.5714 26.708H72.5714C72.5714 26.2297 72.6735 25.8386 72.8764 25.4982C73.082 25.1534 73.427 24.8004 74.0032 24.4585C75.1875 23.7556 77.2089 23.1796 80.4694 22.8055L80.2414 20.8185ZM70.5714 26.708C70.5714 28.069 71.0446 29.159 71.9329 29.8852C72.7879 30.5842 73.8981 30.84 74.9914 30.84V28.84C74.1766 28.84 73.5768 28.6458 73.1988 28.3368C72.8541 28.055 72.5714 27.579 72.5714 26.708H70.5714ZM89.5165 32H88.5165V33H89.5165V32ZM89.5165 12.452V11.452H88.5165V12.452H89.5165ZM92.1805 12.452L93.1764 12.3615L93.0937 11.452H92.1805V12.452ZM92.5045 16.016L91.5086 16.1065L91.5913 17.016H92.5045V16.016ZM92.6125 16.016V17.016H93.211L93.4938 16.4886L92.6125 16.016ZM100.245 12.38L101.223 12.5879L101.391 11.7953L100.651 11.4662L100.245 12.38ZM99.6325 15.26L99.3314 16.2136L100.382 16.5453L100.611 15.4679L99.6325 15.26ZM92.7925 19.472L91.86 19.111L91.7925 19.2852V19.472H92.7925ZM92.7925 32V33H93.7925V32H92.7925ZM90.5165 32V12.452H88.5165V32H90.5165ZM89.5165 13.452H92.1805V11.452H89.5165V13.452ZM91.1846 12.5425L91.5086 16.1065L93.5004 15.9255L93.1764 12.3615L91.1846 12.5425ZM92.5045 17.016H92.6125V15.016H92.5045V17.016ZM93.4938 16.4886C94.7282 14.1867 96.4667 12.984 98.1565 12.984V10.984C95.4543 10.984 93.1609 12.8773 91.7312 15.5434L93.4938 16.4886ZM98.1565 12.984C98.9123 12.984 99.3444 13.0742 99.8384 13.2938L100.651 11.4662C99.8487 11.1097 99.1287 10.984 98.1565 10.984V12.984ZM99.2664 12.1721L98.6544 15.0521L100.611 15.4679L101.223 12.5879L99.2664 12.1721ZM99.9337 14.3064C99.194 14.0728 98.6548 13.936 97.7245 13.936V15.936C98.3783 15.936 98.7031 16.0152 99.3314 16.2136L99.9337 14.3064ZM97.7245 13.936C95.5581 13.936 93.2502 15.5195 91.86 19.111L93.7251 19.833C94.9268 16.7285 96.651 15.936 97.7245 15.936V13.936ZM91.7925 19.472V32H93.7925V19.472H91.7925ZM92.7925 31H89.5165V33H92.7925V31ZM115.149 14.252L114.501 15.0135L116.246 16.4983L116.148 14.2095L115.149 14.252ZM115.005 10.868H114.005V10.8893L114.006 10.9105L115.005 10.868ZM115.005 3.38V2.38H114.005V3.38H115.005ZM118.281 3.38H119.281V2.38H118.281V3.38ZM118.281 32V33H119.281V32H118.281ZM115.581 32L114.589 32.124L114.699 33H115.581V32ZM115.293 29.696L116.286 29.572L116.176 28.696H115.293V29.696ZM115.221 29.696V28.696H114.807L114.514 28.9889L115.221 29.696ZM115.005 27.068L115.742 27.7444L116.005 27.4575V27.068H115.005ZM115.005 16.808H116.005V16.3669L115.68 16.0695L115.005 16.808ZM109.245 31.504C107.072 31.504 105.353 30.6933 104.156 29.2079C102.938 27.6971 102.181 25.3884 102.181 22.28H100.181C100.181 25.6876 101.009 28.4909 102.599 30.4631C104.209 32.4607 106.522 33.504 109.245 33.504V31.504ZM102.181 22.28C102.181 16.3375 105.881 12.984 109.677 12.984V10.984C104.546 10.984 100.181 15.4785 100.181 22.28H102.181ZM109.677 12.984C111.624 12.984 112.914 13.6627 114.501 15.0135L115.797 13.4905C114.001 11.9613 112.267 10.984 109.677 10.984V12.984ZM116.148 14.2095L116.004 10.8255L114.006 10.9105L114.15 14.2945L116.148 14.2095ZM116.005 10.868V3.38H114.005V10.868H116.005ZM115.005 4.38H118.281V2.38H115.005V4.38ZM117.281 3.38V32H119.281V3.38H117.281ZM118.281 31H115.581V33H118.281V31ZM116.574 31.876L116.286 29.572L114.301 29.82L114.589 32.124L116.574 31.876ZM115.293 28.696H115.221V30.696H115.293V28.696ZM114.514 28.9889C113.069 30.4343 111.256 31.504 109.245 31.504V33.504C111.986 33.504 114.278 32.0537 115.928 30.4031L114.514 28.9889ZM109.965 30.732C112.187 30.732 114.018 29.6215 115.742 27.7444L114.269 26.3916C112.753 28.0425 111.416 28.732 109.965 28.732V30.732ZM116.005 27.068V16.808H114.005V27.068H116.005ZM115.68 16.0695C113.872 14.4194 112.128 13.72 110.217 13.72V15.72C111.547 15.72 112.826 16.1726 114.331 17.5465L115.68 16.0695ZM110.217 13.72C106.301 13.72 103.601 17.4927 103.601 22.244H105.601C105.601 18.0673 107.87 15.72 110.217 15.72V13.72ZM103.601 22.244C103.601 24.7026 104.109 26.8054 105.185 28.3218C106.293 29.882 107.943 30.732 109.965 30.732V28.732C108.568 28.732 107.536 28.178 106.816 27.1642C106.066 26.1066 105.601 24.4654 105.601 22.244H103.601Z" fill="black"/>
<circle cx="136" cy="11" r="8" fill="#0289E2"/>
<path fill-rule="evenodd" clip-rule="evenodd" d="M138.534 30.5905C141.71 29.5307 144 26.5328 144 23C144 18.5817 140.418 15 136 15C131.582 15 128 18.5817 128 23C128 26.579 130.35 29.6091 133.592 30.6311C132.788 31.331 131.107 31.8936 130 32.0781C132.826 32.3166 135.971 31.9411 138.534 30.5905Z" fill="#FFC200" fill-opacity="0.8"/>
</svg>
