<svg width="21" height="20" viewBox="0 0 21 20" fill="none" xmlns="http://www.w3.org/2000/svg">
<path d="M8.11192 9.02382L13.6042 6.47692M13.6068 13.635L8.11971 11.0905M18.3171 5.44423C18.3171 6.71755 17.2041 7.74978 15.8312 7.74978C14.4583 7.74978 13.3453 6.71755 13.3453 5.44423C13.3453 4.1709 14.4583 3.13867 15.8312 3.13867C17.2041 3.13867 18.3171 4.1709 18.3171 5.44423ZM8.37344 10.0553C8.37344 11.3287 7.26046 12.3609 5.88753 12.3609C4.51459 12.3609 3.40161 11.3287 3.40161 10.0553C3.40161 8.78202 4.51459 7.74978 5.88753 7.74978C7.26046 7.74978 8.37344 8.78202 8.37344 10.0553ZM18.3171 14.6665C18.3171 15.9398 17.2041 16.972 15.8312 16.972C14.4583 16.972 13.3453 15.9398 13.3453 14.6665C13.3453 13.3931 14.4583 12.3609 15.8312 12.3609C17.2041 12.3609 18.3171 13.3931 18.3171 14.6665Z" stroke="#8C8D96" stroke-width="1.5"/>
<ellipse cx="5.74493" cy="10.055" rx="2.55694" ry="2.37143" fill="#8C8D96"/>
<ellipse cx="15.9742" cy="5.31186" rx="2.55694" ry="2.37143" fill="#8C8D96"/>
<ellipse cx="15.9742" cy="14.7982" rx="2.55694" ry="2.37143" fill="#8C8D96"/>
</svg>
