<svg width="29" height="30" viewBox="0 0 29 30" fill="none" xmlns="http://www.w3.org/2000/svg">
<path fill-rule="evenodd" clip-rule="evenodd" d="M18.0982 0.0682004L1.77491 1.29419C0.458231 1.41018 0 2.28517 0 3.33416V21.532C0 22.3489 0.285165 23.0479 0.973495 23.9819L4.81044 29.0559C5.44076 29.8729 6.01404 30.0479 7.21763 29.9899L26.1733 28.8229C27.7761 28.7069 28.2353 27.9479 28.2353 26.6649V6.19213C28.2353 5.52914 27.9777 5.33814 27.2195 4.77215C27.1759 4.74019 27.1323 4.70819 27.0887 4.67615L21.8791 0.94319C20.6184 0.0112011 20.1032 -0.106798 18.0982 0.0682004ZM7.64636 5.85713C6.0986 5.96313 5.74756 5.98713 4.86846 5.26014L2.63335 3.45216C2.4062 3.21816 2.52027 2.92617 3.09257 2.86817L18.7845 1.70218C20.1022 1.58518 20.7885 2.05218 21.3038 2.46017L23.9952 4.44315C24.1102 4.50215 24.3964 4.85114 24.0522 4.85114L7.84696 5.84313L7.64636 5.85713ZM5.84195 26.4899V9.1101C5.84195 8.3511 6.07107 8.00111 6.75743 7.94211L25.3699 6.83412C26.0012 6.77612 26.2863 7.18412 26.2863 7.94211V25.2059C26.2863 25.9649 26.1713 26.6069 25.1408 26.6649L7.32973 27.7149C6.2992 27.7729 5.84195 27.4239 5.84195 26.4899ZM23.4239 10.0421C23.5379 10.5671 23.4239 11.0921 22.9076 11.1521L22.0492 11.3251V24.1569C21.3038 24.5649 20.6174 24.7979 20.0442 24.7979C19.1279 24.7979 18.8987 24.506 18.2127 23.6325C18.2125 23.6323 18.2124 23.6321 18.2122 23.6319L12.5984 14.65V23.3399L14.3743 23.7489C14.3743 23.7489 14.3743 24.7989 12.9416 24.7989L8.99156 25.0319C8.87651 24.7979 8.99156 24.2149 9.39177 24.0989L10.4233 23.8079V12.3181L8.99156 12.2001C8.87651 11.6751 9.16265 10.9171 9.96505 10.8581L14.2032 10.5681L20.0442 19.666V11.6171L18.5554 11.4431C18.4404 10.8001 18.8986 10.3331 19.4709 10.2761L23.4239 10.0421Z" fill="#3F4150"/>
<path fill-rule="evenodd" clip-rule="evenodd" d="M1.77491 1.29419L18.0982 0.0682004C20.1032 -0.106798 20.6184 0.0112011 21.8791 0.94319L27.0897 4.67615C27.1341 4.7093 27.177 4.74121 27.2183 4.77201C27.9779 5.33761 28.2353 5.52924 28.2353 6.19213V26.6649C28.2353 27.9479 27.7771 28.7069 26.1733 28.8229L7.21763 29.9899C6.01404 30.0479 5.44076 29.8729 4.81044 29.0559L0.973495 23.9819C0.285165 23.0479 0 22.3489 0 21.532V3.33416C0 2.28517 0.458231 1.41018 1.77491 1.29419ZM7.64636 5.85713C6.0986 5.96313 5.74756 5.98713 4.86846 5.26014L2.63335 3.45216C2.4062 3.21816 2.52027 2.92617 3.09257 2.86817L18.7845 1.70218C20.1022 1.58518 20.7885 2.05218 21.3038 2.46017L23.9952 4.44315C24.1102 4.50215 24.3964 4.85114 24.0522 4.85114L7.84696 5.84313L7.64636 5.85713ZM5.84195 9.1101V26.4899C5.84195 27.4239 6.2992 27.7729 7.32973 27.7149L25.1408 26.6649C26.1713 26.6069 26.2863 25.9649 26.2863 25.2059V7.94211C26.2863 7.18412 26.0012 6.77612 25.3699 6.83412L6.75743 7.94211C6.07107 8.00111 5.84195 8.3511 5.84195 9.1101ZM23.4239 10.0421C23.5379 10.5671 23.4239 11.0921 22.9076 11.1521L22.0492 11.3251V24.1569C21.3038 24.5649 20.6174 24.7979 20.0442 24.7979C19.1279 24.7979 18.8987 24.506 18.2127 23.6325L18.2122 23.6319L12.5984 14.65V23.3399L14.3743 23.7489C14.3743 23.7489 14.3743 24.7989 12.9416 24.7989L8.99156 25.0319C8.87651 24.7979 8.99156 24.2149 9.39177 24.0989L10.4233 23.8079V12.3181L8.99156 12.2001C8.87651 11.6751 9.16265 10.9171 9.96505 10.8581L14.2032 10.5681L20.0442 19.666V11.6171L18.5554 11.4431C18.4404 10.8001 18.8986 10.3331 19.4709 10.2761L23.4239 10.0421Z" fill="#3F4150"/>
</svg>
