<svg width="19" height="20" viewBox="0 0 19 20" fill="none" xmlns="http://www.w3.org/2000/svg">
<path fill-rule="evenodd" clip-rule="evenodd" d="M12.0654 0.0454669L1.18327 0.862791C0.305487 0.940123 0 1.52345 0 2.22278V14.3546C0 14.8993 0.19011 15.3653 0.648997 15.9879L3.20696 19.3706C3.62717 19.9152 4.00936 20.0319 4.81175 19.9932L17.4488 19.2152C18.5174 19.1379 18.8235 18.6319 18.8235 17.7766V4.12809C18.8235 3.68609 18.6518 3.55876 18.1463 3.18143C18.1173 3.16013 18.0882 3.13879 18.0592 3.11743L14.586 0.628793C13.7456 0.00746739 13.4021 -0.0711984 12.0654 0.0454669ZM5.09757 3.90476C4.06574 3.97542 3.8317 3.99142 3.24564 3.50676L1.75557 2.30144C1.60414 2.14544 1.68018 1.95078 2.06171 1.91211L12.523 1.13479C13.4015 1.05679 13.859 1.36812 14.2025 1.64012L15.9968 2.9621C16.0735 3.00143 16.2643 3.2341 16.0348 3.2341L5.23131 3.89542L5.09757 3.90476ZM3.89464 17.6599V6.0734C3.89464 5.5674 4.04738 5.33407 4.50496 5.29474L16.9132 4.55608C17.3341 4.51741 17.5242 4.78941 17.5242 5.29474V16.8039C17.5242 17.3099 17.4475 17.7379 16.7605 17.7766L4.88649 18.4766C4.19947 18.5153 3.89464 18.2826 3.89464 17.6599ZM15.6159 6.69472C15.692 7.04472 15.6159 7.39472 15.2717 7.43471L14.6994 7.55005V16.1046C14.2025 16.3766 13.745 16.5319 13.3628 16.5319C12.7519 16.5319 12.5991 16.3374 12.1418 15.755C12.1417 15.7549 12.1416 15.7547 12.1415 15.7546L8.39894 9.76669V15.56L9.58286 15.8326C9.58286 15.8326 9.58286 16.5326 8.62772 16.5326L5.99437 16.6879C5.91767 16.5319 5.99437 16.1433 6.26118 16.0659L6.94885 15.8719V8.21204L5.99437 8.13337C5.91767 7.78338 6.10844 7.27805 6.64337 7.23872L9.4688 7.04539L13.3628 13.1106V7.74471L12.3703 7.62871C12.2936 7.20005 12.5991 6.88872 12.9806 6.85072L15.6159 6.69472Z" fill="#3F4150"/>
<path fill-rule="evenodd" clip-rule="evenodd" d="M1.18327 0.862791L12.0654 0.0454669C13.4021 -0.0711984 13.7456 0.00746739 14.586 0.628793L18.0598 3.11743C18.0894 3.13953 18.118 3.16081 18.1455 3.18134C18.652 3.55841 18.8235 3.68616 18.8235 4.12809V17.7766C18.8235 18.6319 18.518 19.1379 17.4488 19.2152L4.81175 19.9932C4.00936 20.0319 3.62717 19.9152 3.20696 19.3706L0.648997 15.9879C0.19011 15.3653 0 14.8993 0 14.3546V2.22278C0 1.52345 0.305487 0.940123 1.18327 0.862791ZM5.09757 3.90476C4.06574 3.97542 3.8317 3.99142 3.24564 3.50676L1.75557 2.30144C1.60414 2.14544 1.68018 1.95078 2.06171 1.91211L12.523 1.13479C13.4015 1.05679 13.859 1.36812 14.2025 1.64012L15.9968 2.9621C16.0735 3.00143 16.2643 3.2341 16.0348 3.2341L5.23131 3.89542L5.09757 3.90476ZM3.89464 6.0734V17.6599C3.89464 18.2826 4.19947 18.5153 4.88649 18.4766L16.7605 17.7766C17.4475 17.7379 17.5242 17.3099 17.5242 16.8039V5.29474C17.5242 4.78941 17.3341 4.51741 16.9132 4.55608L4.50496 5.29474C4.04738 5.33407 3.89464 5.5674 3.89464 6.0734ZM15.6159 6.69472C15.692 7.04472 15.6159 7.39472 15.2717 7.43471L14.6994 7.55005V16.1046C14.2025 16.3766 13.745 16.5319 13.3628 16.5319C12.7519 16.5319 12.5991 16.3374 12.1418 15.755L12.1415 15.7546L8.39894 9.76669V15.56L9.58286 15.8326C9.58286 15.8326 9.58286 16.5326 8.62772 16.5326L5.99437 16.6879C5.91767 16.5319 5.99437 16.1433 6.26118 16.0659L6.94885 15.8719V8.21204L5.99437 8.13337C5.91767 7.78338 6.10844 7.27805 6.64337 7.23872L9.4688 7.04539L13.3628 13.1106V7.74471L12.3703 7.62871C12.2936 7.20005 12.5991 6.88872 12.9806 6.85072L15.6159 6.69472Z" fill="#3F4150"/>
</svg>
