<svg width="927" height="614" viewBox="0 0 927 614" fill="none" xmlns="http://www.w3.org/2000/svg">
<path d="M554.499 129C544.099 125 555.166 114.333 561.999 109.5C586 106.167 635.5 99.5 641.5 99.5C647.5 99.5 662.333 105.167 669 108L662.5 140L631.5 168.5L607.5 174L592.5 194L588.5 212.5L561.999 216.5L538.972 197.157C536.663 198.551 536.449 197.229 537 195.5L538.972 197.157C541.559 195.595 546.777 190.625 556.5 179C574.9 157 574.166 142.5 571.5 138C570.166 136.667 564.899 133 554.499 129Z" fill="white"/>
<path d="M798.5 87.5L814 197L843.5 227.5C862.667 223.333 902 214.2 906 211C911 207 912.5 190 912.5 185V147L901 92.5H890.5L878 118.5L861 87.5L851.5 83L843.5 104L821 87.5L805 78L798.5 87.5Z" fill="white"/>
<path d="M756 548.5L730.5 535.5C739 527 756.6 509.8 759 509C761.4 508.2 769.333 519.333 773 525L756 548.5Z" fill="white"/>
<path d="M117.5 404.5L156 410V414L149.5 443L117.5 434L102.5 423L117.5 404.5Z" fill="white"/>
<path d="M181.5 329C177.5 311.4 200.5 274 212.5 257.5L213.5 257L302.5 260.5L311 292L323 318.5L318.5 322L297.5 310L293.5 312.5C294.833 322.333 298 343.4 300 349C302 354.6 299.167 355.667 297.5 355.5L283 360C278.167 357.167 268.4 351.3 268 350.5C267.6 349.7 261.167 325.833 258 314L252 355.5L236.5 367L226.5 353L224 322L222 314L202 349C179 359.5 186.5 351 181.5 329Z" fill="white"/>
<path fill-rule="evenodd" clip-rule="evenodd" d="M211.983 254.192C244.897 262.969 277.454 273.289 310.092 283.03C313.764 284.126 313.754 284.31 317.038 282.332C325.97 276.952 335.072 271.842 344.279 266.946C372.048 252.18 400.594 240.365 431.17 232.848C452.843 227.52 474.878 223.295 496.983 220.192C494.735 227.109 490.373 234.32 484.983 239.192C480.804 242.968 475.107 245.032 469.942 247.057C454.591 253.078 438.518 257.289 423.43 263.982C408.041 270.809 398.319 285.001 395.397 301.467C394.85 304.547 394.883 305.016 397.411 306.57C400.244 308.313 403.688 309.333 406.812 310.397C431.895 318.94 458.345 324.201 484.282 329.386C498.05 332.139 511.869 334.697 525.759 336.759C534.378 338.039 543.487 339.756 552.242 339.245C589.761 337.056 611.999 292.398 622.983 262.192C656.884 280.556 695.776 292.293 733.747 297.956C779.791 304.823 837.791 305.2 874.185 271.271C891.519 255.111 902.163 233.23 909.983 211.192C884.475 209.005 859.08 205.179 833.782 201.309C829.365 200.633 824.95 199.945 820.536 199.245C818.761 198.963 816.033 197.966 814.217 198.231C811.46 198.631 807.9 201.621 805.459 202.946C786.74 213.105 767.388 222.421 747.307 229.57C736.547 233.4 725.375 236.788 713.966 237.922C701.728 239.14 689.196 236.637 677.377 233.649C647.728 226.153 616.711 213.47 591.983 195.192C585.968 203.769 575.11 209.579 564.756 205.44C553.417 200.907 547.113 189.019 541.037 179.242C538.825 175.682 534.653 175.657 530.537 174.607C519.04 171.674 507.402 169.283 495.707 167.299C457.301 160.784 417.811 158.574 379.049 163.068C341.225 167.454 303.987 179.655 270.636 197.994C256.128 205.972 242.002 215.216 229.947 226.637C222.333 233.85 213.436 243.29 211.983 254.192Z" fill="#028AE2"/>
<path fill-rule="evenodd" clip-rule="evenodd" d="M326.245 6.12466C338.116 10.0987 348.825 15.9377 359.287 22.7367C364.385 26.0497 369.485 29.9267 375.119 32.2727C380.121 34.3537 385.581 35.3007 390.718 37.0107C413.733 44.6727 438.706 46.2137 462.11 38.8477C485.967 31.3387 506.217 15.2127 530.889 10.1547C554.951 5.22166 579.421 6.31266 602.526 15.2457C613.749 19.5847 623.213 26.8757 632.79 33.9757C641.968 40.7797 651.597 47.4907 658.701 56.5737C665.679 65.4937 669.707 76.5937 672.781 87.3877C674.554 93.6127 675.372 100.041 675.244 106.516C675.156 111.046 672.76 115.422 674.169 119.801C676.146 125.942 679.024 130.456 678.282 137.293C677.683 142.799 675.18 147.544 671.268 151.409C667.254 155.374 662.451 158.097 657.1 159.817C653.053 161.118 651.774 160.789 649.421 157.261C642.836 163.223 638.132 170.757 629.881 174.695C625.785 176.651 621.59 177.593 617.077 177.88C613.658 178.097 610.522 178.196 607.634 180.275C604.603 182.458 593.523 192.195 597.762 196.025C600.235 198.259 606.003 198.702 609.148 199.986C613.549 201.782 617.781 203.985 621.775 206.564C636.385 215.999 650.928 221.885 667.823 226.108C685.363 230.492 703.048 232.864 721.144 232.929C737.582 232.989 754.804 231.74 770.047 225.085C777.364 221.891 784.426 217.655 790.411 212.351C796.384 207.059 800.05 199.7 806.187 194.775C810.159 191.587 806.485 186.679 805.258 182.303C802.762 173.401 800.852 163.267 800.094 154.062C799.358 145.12 798.128 136.204 796.539 127.356C794.856 117.976 791.348 109.245 788.87 100.084C787.043 93.3287 785.205 85.4007 787.323 78.5027C788.374 75.0807 790.704 71.4647 794.016 69.8317C796.978 68.3707 798.804 69.7667 801.458 69.6097C809.245 69.1517 815.257 72.3267 821.133 77.5217C824.308 80.3287 827.986 82.7867 831.01 85.7267C833.363 88.0127 833.92 91.7017 836.428 93.7287C840.545 83.2217 844.858 69.8647 858.822 75.8737C869.869 80.6287 871.29 98.4947 876.649 107.809C879.662 105.329 880 100.442 881.172 96.9847C882.385 93.4067 884.428 89.6277 887.308 87.0967C893.6 81.5687 901.275 83.7887 905.606 90.4107C907.921 93.9507 906.543 98.0147 908.841 101.511C911.121 104.978 910.409 109.029 911.34 113.067C912.52 118.185 913.946 123.228 914.897 128.404C915.337 130.797 915.976 133.495 915.865 135.951C915.818 136.969 914.994 138.72 915.248 139.725C915.579 141.04 917.141 142.223 917.713 143.524C918.484 145.272 918.198 146.543 918.285 148.346C918.444 151.592 919.312 154.255 920.244 157.461C922.592 165.536 921.997 175.757 918.52 183.404C916.717 187.368 915.453 190.251 914.917 194.493C914.571 197.232 912.507 199.727 912.631 202.671C912.804 206.768 923.764 213.086 915.112 215.804C911.498 216.939 910.724 216.346 909.737 220.474C908.757 224.572 907.647 228.559 906.04 232.463C902.632 240.748 897.591 248.166 892.835 255.711C887.687 263.878 882.282 271.77 874.676 277.86C867.622 283.507 859.538 288.101 851.487 292.166C834.525 300.73 815.652 305.511 796.608 305.048C776.299 304.553 755.7 306.472 735.575 303.023C714.969 299.491 694.865 293.645 674.344 289.724C665.125 287.962 656.532 286.041 648.145 281.691C639.634 277.279 631.144 272.773 623.358 267.147C617.994 280.002 615.106 293.402 607.416 305.228C600.704 315.549 592.608 325.253 582.699 332.654C573.02 339.885 560.373 345.293 548.185 345.758C544.466 345.899 538.748 344.267 536.08 347.069C534.744 348.471 534.608 351.257 534.078 353.057C533.177 356.121 531.87 359.11 531.145 362.223C530.045 366.943 534.477 367.016 538.361 368.932C543.569 371.502 548.655 374.309 553.69 377.2C558.834 380.155 563.739 383.554 568.891 386.463C573.315 388.96 577.883 390.887 582.142 393.716C592.207 400.404 603.235 404.864 614.043 410.157C625.614 415.825 636.867 422.148 648.238 428.202C670.76 440.195 693.351 452.641 714.615 466.776C724.541 473.374 734.083 480.244 744.262 486.483C753.756 492.304 764.594 499.119 770.638 508.669C775.351 516.117 782.123 519.645 789.916 523.704C794.509 526.096 797.35 526.549 801.08 522.634C804.741 518.792 808.279 514.971 812.142 511.305C827.979 496.276 841.528 479.825 854.735 462.52C864.54 449.672 877.984 434.246 895.992 437.061C901.391 437.906 904.976 440.418 908.969 443.953C911.678 446.352 916.573 447.921 918.379 451.027C919.422 452.821 919.859 455.12 920.909 457.002C922.009 458.97 923.375 460.889 924.11 463.041C925.352 466.683 922.673 472.469 925.345 475.435C927.301 477.607 925.482 482.722 924.948 485.176C923.962 489.716 923.124 494.323 921.564 498.707C920.335 502.157 919.128 506.886 916.54 509.579C914.231 511.982 911.523 511.746 912.126 515.907C909.627 515.075 907.479 521.058 906.774 522.567C904.88 526.62 902.812 529.951 899.762 533.311C892.051 541.804 883.223 547.551 873.222 552.95C869.574 554.919 862.009 557.659 861.161 562.211C860.348 566.583 862.843 570.133 861.089 574.803C857.442 584.518 849.243 594.761 842.551 602.599C836.532 609.649 830.694 614.361 821.042 612.705C812.491 611.24 804.031 606.876 796.915 602.037C788.345 596.208 779.265 591.825 770.009 587.198C765.454 584.922 760.896 582.82 756.948 579.549C753.279 576.509 750.095 573.085 745.842 570.827C742.812 569.218 738.855 568.079 737.592 564.498C736.215 560.593 738.73 558.156 740.87 555.357C742.307 553.478 743.101 553.187 741.861 551.678C740.87 550.474 738.151 549.453 736.785 548.72C733.48 546.946 730.177 545.395 726.644 547.344C722.703 549.518 720.009 554.013 717.056 557.28C713.518 561.192 709.543 564.758 705.663 568.326C697.966 575.405 689.532 581.748 682.014 588.993C680.294 590.649 676.908 594.849 674.071 594.054C671.976 593.468 673.078 592.224 671.998 591.266C670.836 590.236 669.849 590.223 668.361 589.108C664.66 586.337 663.53 581.022 659.648 578.153C655.659 575.204 650.732 573.084 646.412 570.657C626.694 559.577 607.486 547.627 589.463 533.931C580.426 527.064 571.89 519.612 563.136 512.398C559.016 509.003 554.837 505.282 550.255 502.523C546.075 500.007 541.431 498.249 537.173 495.835C528.051 490.664 518.292 486.706 509.262 481.368C505.016 478.858 501.869 475.486 497.92 472.69C494.462 470.243 491.583 468.793 489.01 465.229C487.787 467.921 484.432 464.409 483.221 463.585C482.267 462.934 481.045 462.475 480.161 461.732C479.271 460.984 478.733 459.319 478.057 458.799C476.561 457.647 474.823 457.91 472.814 457.189C470.129 456.226 466.588 453.66 464.524 451.7C463.095 450.345 465.426 451.411 463.012 449.749C461.889 448.975 459.962 448.767 458.7 447.947C455.704 446.003 452.953 443.506 450.092 441.36C444.909 437.475 438.206 433.938 435.264 427.88C419.461 440.856 404.2 454.939 386.053 464.65C368.525 474.03 348.251 478.289 329.536 484.761C310.279 491.419 290.83 498.112 271.25 503.756C261.731 506.499 251.915 508.469 242.186 510.323C232.206 512.225 222.364 511.658 212.35 512.733C207.427 513.261 202.498 513.09 197.577 513.567C193.045 514.006 188.65 515.157 184.15 515.756C180.183 516.284 175.709 515.838 171.894 516.917C169.095 517.708 165.398 520.514 163.348 516.863C161.846 519.112 161.369 518.05 159.413 517.907C157.327 517.753 156.699 517.843 154.657 518.234C151.336 518.868 147.671 519.113 144.852 516.504C143.562 521.179 131.063 516.928 129.572 513.838C127.893 518.787 112.71 514.517 112.49 509.872C112.305 505.94 114.916 500.286 115.994 496.592C117.753 490.563 119.933 484.666 122.211 478.817C124.621 472.632 127.092 466.467 129.571 460.308C130.66 457.602 131.689 454.853 132.932 452.213C133.542 450.918 135.129 448.986 135.103 447.49C135.026 443.12 127.193 442.809 123.881 441.719C121.376 440.894 118.833 440.024 116.454 438.881C114.727 438.051 112.655 436.145 110.744 435.881C106.365 435.275 107.357 440.231 106.881 443.276C106.27 447.194 104.111 449.209 99.9606 449.238C95.1126 449.271 81.2876 440.934 78.6796 447.289C77.4566 450.266 77.7886 455.976 77.3406 459.175C76.6046 464.419 76.8966 469.634 77.6146 474.863C78.7936 483.473 82.6846 494.364 78.3046 502.617C69.5596 519.1 39.2356 509.166 29.5566 498.792C15.3026 483.513 15.7186 460.615 22.5486 442.116C25.8696 433.119 30.6806 423.478 36.9696 416.161C39.7636 412.91 45.0786 409.773 46.0006 405.306C46.7666 401.601 43.8866 398.187 44.4926 394.39C45.2126 389.883 49.0256 387.15 52.2936 384.416C55.6956 381.571 59.0056 378.47 62.8826 376.266C71.8536 371.169 82.0276 374.246 90.9466 377.989C100.7 382.082 110.043 387.571 118.755 393.546C123.068 396.503 126.725 399.164 131.839 400.595C135.76 401.693 139.721 402.771 143.66 403.801C147.377 404.773 150.51 405.496 153.119 402.283C155.99 398.747 156.941 397.318 161.91 397.166C167.202 397.005 172.498 397.3 177.785 397.502C178.902 397.545 181.438 397.197 182.319 398.128C183.104 398.957 181.967 400.687 182.698 401.213C183.852 402.041 190.408 392.78 190.969 400.277C191.327 396.638 195.146 398.4 197.275 398.879C198.05 399.053 198.823 399.259 199.59 399.429C200.422 399.151 201.114 399.364 201.661 400.066C202.536 400.253 203.128 399.919 203.437 399.066C212.689 398.932 222.022 399.515 231.297 399.466C242.023 399.409 252.81 399.304 263.435 397.751C267.371 397.175 271.309 396.381 275.252 395.898C277.059 395.678 278.575 395.87 280.338 395.987C280.981 396.109 281.564 396.375 282.088 396.787C282.357 396.257 282.758 395.856 283.29 395.583C290.038 393.607 296.98 392.267 303.837 390.542C308.637 389.334 312.661 388.402 317.439 388.062L318.345 388.005L320.265 388.571C320.546 387.886 321.003 387.352 321.636 386.969C323.194 386.331 324.517 386.084 326.196 385.913C332.879 385.231 339.436 385.301 345.753 384.324C349.08 383.809 361.236 381.924 363.478 385.223C365.197 381.206 377.575 386.675 381.2 384.302C375.575 376.63 373.124 368.421 371.532 359.144C369.797 349.038 368.707 338.407 371.273 328.341C373.637 319.066 378.788 309.546 385.828 303.021C392.636 296.71 394.233 289.161 398.776 281.373C408.24 265.145 423.833 255.231 441.204 249.244C450.664 245.984 460.281 243.271 469.823 240.275C477.573 237.842 484.062 234.36 487.982 226.917C454.982 226.917 423.405 237.152 393.189 249.567C378.158 255.742 363.194 262.168 348.348 268.777C340.791 272.14 333.318 275.737 326.268 280.08L324.319 281.28C322.047 282.686 319.789 284.124 317.671 285.745C317.166 286.132 314.409 287.74 314.247 288.277C312.987 292.453 319.928 299.169 321.73 302.751C324.183 307.629 326.586 313.333 326.888 318.832C327.247 325.409 323.053 328.7 316.59 327.35C308.686 325.699 302.702 319.112 296.426 314.532C295.026 318.735 296.834 323.57 297.814 327.666C299.158 333.284 300.494 338.987 301.45 344.687C302.801 352.744 301.841 361.836 293.825 366.058C273.398 376.815 262.984 348.433 258.836 334.255C256.032 336.277 256.359 343.686 255.843 346.784C254.852 352.745 253.715 359.145 251.068 364.619C249.04 368.811 245.594 373.706 240.522 374.158C235.021 374.648 230.587 369.918 228.123 365.553C223.865 358.013 222.861 349.606 222.525 341.154C222.45 339.292 222.99 322.051 221.108 321.56C215.574 331.475 212.487 342.5 205.986 351.956C200.289 360.243 191.716 365.863 184.013 356.282C172.084 341.444 175.901 320.001 180.788 303.307C183.63 293.599 187.498 284.332 192.713 275.651C194.875 272.05 197.492 269.348 200.177 266.174C202.391 263.556 203.243 262.327 202.288 259.31C201.732 257.551 201.206 257.487 201.702 255.542C202.059 254.147 203.129 252.43 203.74 251.134C205.488 247.431 207.323 243.777 209.464 240.283C214.041 232.819 220.273 226.61 226.822 220.853L227.48 220.276L227.448 220.305C227.027 220.694 230.091 218.359 230.028 218.354L230.011 218.36L230.092 218.312C231.222 217.573 231.652 215.144 232.938 217.312L233.032 217.475C233.233 214.285 235.919 212.472 238.223 210.685C239.081 210.019 239.939 209.094 240.981 208.696C241.706 208.419 243.392 208.691 243.917 208.304C244.938 207.553 245.437 206.065 246.407 205.18C247.379 204.295 248.721 203.881 249.827 203.206C252.538 201.551 255.029 199.525 257.674 197.761C263.292 194.013 269.158 190.636 275.168 187.559C287.812 181.084 301.232 175.874 314.662 171.279C326.498 167.229 338.766 163.477 350.923 160.527C363.401 157.498 376.515 158.252 389.259 157.007C415.233 154.468 442.65 154.98 468.612 157.514C481.336 158.756 493.988 160.698 506.537 163.126C518.708 165.48 531.367 168.159 542.178 174.523C544.482 175.879 548.644 180.228 551.345 180.068C553.619 179.934 555.592 175.739 556.66 174.086C559.199 170.16 562.39 166.552 564.547 162.415C567.202 157.32 568.562 151.593 570.56 146.232C561.297 147.509 551.568 148.337 542.677 144.788C534.626 141.574 529.2 135.151 523.186 129.22C516.851 122.973 510.066 118.74 501.004 118.166C490.724 117.514 481.453 121.203 471.997 124.641C452.019 131.905 432.045 139.886 411.485 145.365C401.437 148.043 391.106 150.157 380.694 150.633C375.393 150.874 370.028 150.636 364.785 151.615C362.611 152.02 361.959 152.359 360.24 151.399C360.473 151.53 358.052 147.504 357.572 149.071C357.109 150.581 357.866 151.761 356.543 152.899C354.989 154.235 351.617 153.585 349.817 153.431C347.121 153.201 344.972 152.286 342.376 151.677C338.363 150.736 333.866 151.356 329.777 150.842C327.877 150.603 326.498 150.124 324.789 149.598C322.998 149.047 324.152 149.117 322.307 148.882C320.673 148.674 319.748 148.889 317.77 148.246C316.001 147.671 314.366 147.275 312.557 146.853C310.9 146.468 309.563 145.775 308.022 145.324C309.958 145.891 305.535 144.138 305.727 144.604L305.744 144.634L305.728 144.618C305.248 144.077 304.692 142.99 303.741 142.821L303.546 142.8C306.674 147.602 292.923 142.528 292.012 142.251C284.413 139.939 276.629 134.691 268.688 134.208C260.936 133.736 253.417 139.019 247.176 142.937C239.639 147.669 232.136 152.44 224.628 157.22C208.032 167.785 190.061 177.235 171.436 183.656C162.377 186.779 153.094 189.284 143.905 191.989C139.762 193.208 135.238 193.709 131.279 195.458C128.603 196.64 124.746 200.177 122.042 197.044C120.953 199.785 115.665 199.645 113.423 199.73C113.078 199.743 113.632 200.4 112.843 200.345C111.681 200.263 111.37 199.135 110.455 198.899C108.596 198.421 108.403 199.137 106.561 199.848C104.168 200.771 104.624 199.972 102.508 199.754C101.297 199.629 100.014 200.294 98.8006 200.332C98.3076 200.348 97.6606 199.527 96.9476 199.539C96.2616 199.552 94.6536 200.371 93.7456 200.507C91.4716 200.849 88.7956 200.622 86.5026 200.52C83.2216 200.373 50.3596 197.443 52.7176 190.573C48.7636 194.221 39.5916 188.258 35.4696 186.364C33.9346 185.659 33.8356 184.974 32.9706 184.179C33.2096 183.224 32.8006 182.798 31.7436 182.9C31.5176 182.874 31.2906 182.849 31.0656 182.823C29.2546 181.9 28.6096 181.921 27.1676 180.302C25.2446 178.141 21.7046 176.187 20.7076 173.371C20.4406 172.615 20.7246 171.31 20.4526 170.716C20.1046 169.954 19.1886 170.042 18.9766 169.424C18.9026 169.208 19.2566 167.791 19.2306 167.768C17.5676 166.376 15.2236 167.036 13.2966 165.365C7.97158 160.744 4.75858 151.475 3.22658 144.893C-0.780424 127.678 -2.14842 110.368 5.62858 94.0847C9.40858 86.1677 14.0366 78.6377 19.1466 71.5147C20.5606 69.5447 22.0416 66.9437 23.8456 65.2807C24.6556 64.5337 25.7156 64.3807 26.1106 63.9337C28.2186 61.5487 29.3116 58.4817 32.1366 56.1607C35.2816 53.5757 38.3826 50.9187 41.8566 48.7807C45.0446 46.8177 49.0146 45.5507 51.9376 43.7147C52.7396 43.2107 52.4636 42.4157 53.3346 41.8167C54.2576 41.1817 55.4516 41.1327 56.4976 40.8237C57.7386 40.4587 59.2776 39.7857 60.5656 39.6747C62.9706 39.4657 63.7776 40.1547 65.5916 41.8627C65.5916 35.2897 77.6956 34.3747 82.5916 34.3627C84.8506 34.3567 96.2026 33.3437 95.9846 36.8037C98.5706 33.3857 106.433 35.9287 109.853 36.9537C113.957 38.1827 116.553 41.1897 119.186 44.4017C119.674 43.3837 120.163 42.3647 120.652 41.3467C121.399 41.8687 123.925 42.7367 123.111 44.1137C126.068 41.5047 124.401 43.6537 126.934 44.1177C128.047 44.3217 129.006 43.9107 130.177 43.7717C130.274 45.3177 129.603 45.8187 128.646 46.8967C130.94 46.9397 139.756 46.0237 133.231 48.9067C134.103 50.4667 138.241 49.9187 139.696 50.1287C140.467 50.2397 142.388 50.2797 142.848 50.8437C143.151 51.2147 142.618 52.2407 142.686 52.3317C143.308 53.1747 142.016 53.6077 143.292 53.8517C143.606 53.9117 144.599 52.9147 144.824 52.9187C146.479 52.9447 145.318 52.6157 147.073 52.8687C147.692 52.9577 148.88 53.6637 149.675 53.8267C161.661 56.2797 176.312 47.0517 185.019 39.9077C195.425 31.3717 204.483 22.2477 216.993 16.7067C229.095 11.3477 242.577 7.12166 255.439 4.05666C279.224 -1.61134 302.844 -1.71034 326.245 6.12466ZM629.013 552.327C629.399 552.532 629.783 552.737 630.168 552.941C630.716 552.663 631.265 552.386 631.813 552.108C630.241 551.362 630.133 551.035 629.013 552.327ZM756.744 518.329C753.861 520.149 751.386 524.258 748.862 526.71C745.319 530.152 741.614 533.424 737.916 536.697C742.18 538.176 748.365 544.162 752.978 541.45C755.263 540.107 756.706 536.157 758.152 534.062C760.39 530.818 763.006 527.773 765.636 524.844C768.347 521.825 759.766 516.421 756.744 518.329ZM486.45 456.194C487.593 456.673 490.095 459.431 488.934 460.397C487.758 459.037 486.179 458.054 486.45 456.194ZM119.495 412.548C117.408 414.351 115.055 418.116 113.602 420.487C111.965 423.158 111.907 424.504 114.407 426.286C119.238 429.731 126.256 430.742 131.859 432.349C134.85 433.207 138.548 435.365 141.089 432.637C143.605 429.937 143.611 424.907 144.743 421.559C145.66 418.847 146.641 416.158 147.593 413.459C142.312 413.99 137.001 414.027 131.809 412.845C128.04 411.988 122.828 409.667 119.495 412.548ZM210.712 268.182C206.448 273.973 202.644 280.107 199.29 286.468C193.74 296.997 189.426 308.176 186.693 319.766C184.756 327.977 181.926 339.521 186.349 347.398C195.984 364.558 215.54 315.022 218.525 309.841C220.302 306.756 223.06 303.447 226.115 307.413C228.621 310.668 227.805 315.885 227.921 319.718C228.267 331.11 226.677 344.753 231.232 355.472C232.727 358.99 236.687 364.071 241.157 362.473C245.164 361.039 247.166 354.138 248.405 350.583C252.324 339.336 255.104 325.589 255.231 313.688C255.256 311.297 253.111 295.491 258.642 298.988C262.26 301.274 262.112 312.371 262.463 316.002C263.838 330.188 266.64 354.279 284.241 356.666C288.116 357.192 292.502 356.275 294.771 352.791C297.591 348.462 294.755 342.641 293.767 338.091C292.064 330.247 290.135 322.161 289.965 314.086C289.861 309.136 290.348 300.907 297.301 302.817C305.68 305.118 309.224 316.079 318.634 316.446C318.643 314.24 317.422 312.442 316.387 310.599C313.039 304.642 306.941 299.541 304.877 292.951C304.2 290.789 304.904 287.538 303.565 285.736C302.3 284.035 299.445 283.599 297.536 283.214C284.827 280.647 272.333 277.172 259.683 274.213C246.16 271.051 233.622 267.633 220.958 262.065C215.252 259.556 213.949 263.787 210.712 268.182ZM513.927 357.034C515.793 357.92 517.643 358.843 519.531 359.681C521.173 360.412 521.817 359.83 522.471 358.296C521.286 358.051 514.616 355.681 513.927 357.034ZM433.849 164.865C409.667 165.574 386.025 165.883 362.191 170.474C350.792 172.67 339.618 175.214 328.439 178.332C323.717 179.649 319.554 181.022 315.436 183.649C313.905 184.625 309.852 187.69 309.23 184.187C307.194 186.138 303.224 192.094 299.969 188.785C299.398 191.177 297.619 191.103 295.883 191.916C295.272 192.202 294.939 193.175 294.153 193.528C293.955 193.616 293.889 192.249 293.601 192.226C292.564 192.144 291.746 194.328 291.15 194.885C289.715 196.22 288.371 196.831 286.469 197.316C285.643 197.592 284.796 197.769 283.929 197.847C282.908 198.266 282.296 197.965 282.094 196.944C280.685 196.967 279.654 197.479 278.178 198.147C281.363 198.877 276.005 199.68 275.293 199.761C275.205 202.141 277.239 200.633 278.553 201.126C277.945 204.113 272.409 206.393 270.131 207.858C269.742 207.03 269.353 206.202 268.963 205.375C268.333 205.984 267.845 206.685 267.496 207.478C267.261 208.438 266.579 208.77 265.451 208.474C264.395 209.312 264.237 208.924 263.588 210.104C262.917 211.327 264.901 213.707 262.019 212.682C262.019 216.744 258.246 214.282 258.907 213.228C256.053 212.952 254.835 218.176 255.155 220.214C253.79 218.861 252.953 219.032 251.582 220.089L251.461 220.183L251.533 220.132C252.587 219.419 251.503 222.337 251.597 222.303L251.61 222.291C248.712 226.11 248.985 221.834 249.882 219.581C247.918 220.368 247.546 222.498 245.97 223.7C244.567 224.77 244.172 224.273 242.965 224.433C241.106 224.679 241.667 223.15 240.852 225.198C240.507 226.066 241.03 227.621 241.03 228.568C241.836 227.466 241.531 225.723 242.987 225.092C242.552 228.285 236.342 239.255 233.731 232.79C231.191 234.555 233.99 236.489 232.323 238.853C231.083 237.657 230.786 235.754 230.925 234.124C230.146 235.16 230.171 236.469 229.561 237.517C228.925 238.61 228.259 238.698 227.952 239.886C227.487 241.69 229.076 240.806 228.237 242.72C227.816 243.681 225.844 244.522 225.068 245.063C222.35 246.957 219.602 249.151 222.24 252.299C226.371 257.226 237.256 257.79 243.102 258.618C255.568 260.384 267.717 263.317 279.999 266.034C287.395 267.671 294.639 269.493 301.893 271.676C307.102 273.242 314.297 274.216 317.046 279.609C331.566 265.727 350.928 258.484 368.848 250.158C388.258 241.141 408.302 232.768 428.864 226.742C447.095 221.398 465.793 219.37 484.627 217.528C489.59 217.042 497.243 215.799 501.666 218.848C504.397 220.73 504.523 223.58 502.432 226.098C501.3 227.462 500.078 227.108 499.386 229.54C498.85 231.42 499.144 232.844 499.635 234.705C498.379 233.721 496.13 234.307 495.487 232.572L495.424 232.377L495.365 232.583C494.506 235.971 500.497 236.439 498.66 240.502L498.541 240.75C497.906 241.991 497.904 238.01 497.345 237.981C495.825 237.902 494.58 241.452 493.955 242.436C496.782 242.436 495.706 244.492 494.189 245.53C493.106 246.271 491.28 246.486 490.022 247.098C487.513 248.322 485.307 250.116 482.733 251.283C479.915 252.562 477.437 252.641 474.638 253.4C474.205 253.517 472.486 254.161 472.312 254.176C472.075 254.197 472.021 254.923 471.819 254.951C470.03 255.204 468.678 253.543 466.946 254.22C466.283 254.48 466.627 256.099 466.052 256.466C465.417 256.871 463.618 256.354 462.85 256.311C461.002 256.205 460.718 255.961 459.252 256.818C456.732 258.29 455.449 260.28 452.052 260.641C449.396 260.924 447.684 260.422 445.156 261.418C442.598 262.425 440.175 262.648 437.682 263.323C437.366 263.409 437.282 264.49 437.025 264.565C436.2 264.809 435.214 264.623 434.426 264.865C432.616 265.422 431.147 265.918 429.466 266.917C422.078 271.308 413.949 277.899 408.156 284.227C405.511 287.116 398.134 294.393 400.54 298.575C402.083 301.258 407.411 302.562 410.068 303.695C414.031 305.386 418.129 306.617 422.135 308.183C427.116 310.131 431.635 313.157 436.716 314.853C441.62 316.49 446.867 316.813 451.933 317.687C473.851 321.467 495.324 327.546 517.255 331.316C529.282 333.384 541.561 335.852 553.777 333.903C564.543 332.185 574.852 327.423 583.451 320.77C599.099 308.664 610.003 291.475 615.487 272.566C616.619 268.66 616.857 258.889 620.511 256.499C623.555 254.509 625.152 258.895 627.127 260.628C630.336 263.443 635.039 264.532 638.9 266.138C648.458 270.113 657.142 274.309 667.243 276.998C677.485 279.723 687.869 281.86 698.223 284.107C719.211 288.662 739.245 292.97 760.817 293.04C782.164 293.108 803.592 293.911 824.702 289.979C843.168 286.54 861.741 277.145 875.545 264.389C882.516 257.948 887.892 249.813 893.373 242.124C896.314 238 899.046 233.725 901.342 229.206C903.03 225.885 905.932 221.076 906.229 217.31C906.493 213.945 904.526 214.423 901.164 214.079C895.993 213.551 890.8 213.216 885.626 212.684C875.19 211.614 864.79 210.249 854.359 209.14C843.714 208.008 833.139 206.473 822.798 203.653C819.706 202.81 817.421 201.747 815.238 204.751C813.831 206.685 813.857 211.098 810.92 207.858C805.274 214.987 797.018 219.256 789.303 223.73C780.956 228.571 772.844 233.898 763.995 237.807C744.933 246.231 723.927 245.563 703.696 242.864C683.142 240.121 662.312 236.583 642.997 228.761C634.137 225.174 626.525 219.716 618.58 214.508C614.838 212.055 610.957 210.037 606.984 207.993C602.504 205.689 599.767 202.273 595.717 199.61C592.986 208.499 582.486 211.555 574.193 211.952C563.838 212.448 555.467 207.504 549.187 199.474C543.973 192.808 542.96 182.837 534.89 179.188C525.683 175.026 514.891 173.372 505.037 171.436C481.895 166.891 457.431 164.172 433.849 164.865ZM556.608 233.206C559.211 234.37 566.779 243.075 560.774 243.202C556.958 243.283 554.715 238.496 550.5 239.221C548.609 239.547 545.783 240.199 545.318 241.658C544.16 245.291 549.506 247.631 551.817 248.64C555.376 250.194 558.303 251.757 560.246 255.312C563.23 260.774 564.013 269.611 557.033 272.054C551.844 273.87 545.36 272.461 540.239 271.033C535.923 269.829 532.627 265.366 534.614 260.931C535.177 259.675 536.684 257.46 538.44 258.29C539.835 258.95 539.156 260.2 539.584 261.319C541.299 265.803 554.123 272.195 557.076 265.418C560.677 257.154 546.986 254.665 542.806 251.902C537.404 248.331 537.262 242.222 541.384 237.554C544.996 233.463 551.359 230.86 556.608 233.206ZM579.227 261.212C579.011 263.159 578.743 265.177 578.405 267.106C578.113 268.783 578.127 270.545 576.2 271.151C574.93 271.551 573.691 270.202 572.467 271.098C571.111 272.092 571.76 264.863 571.821 264.457C572.222 261.761 572.952 256.287 575.545 254.615C579.931 251.785 579.488 258.838 579.227 261.212ZM578.947 249.913C574.293 252.86 573.085 244.502 574.937 241.784C579.534 235.036 586.285 245.27 578.947 249.913ZM484.39 245.806C485.72 246.794 485.28 246.25 485.28 248.88C483.733 248.948 483.968 246.829 484.39 245.806ZM489.648 243.531C489.2 244.575 491.214 245.828 491.863 245.991C491.903 245.654 490.92 240.57 489.648 243.531ZM237.115 228.261C235.877 230.054 236.576 231.154 238.544 230.448L238.707 230.387L237.115 228.261ZM261.986 211.017L260.808 211.515C260.252 212.046 259.698 212.576 259.143 213.106C260.762 212.791 261.886 213.034 261.986 211.017ZM268.51 208.496C267.699 206.842 264.912 210.123 264.85 210.891C265.5 210.506 269.454 210.422 268.51 208.496ZM271.127 202.652C270.45 203.605 270.588 204.369 271.541 204.944C272.332 203.887 272.933 202.732 273.342 201.477C272.286 200.71 271.503 201.748 271.127 202.652ZM804.746 84.5777C802.705 85.4937 803.772 88.6477 803.971 90.3567C804.918 98.4967 806.424 106.556 807.358 114.694C808.669 126.14 808.854 137.724 811.002 149.068C812.962 159.413 816.266 169.459 818.011 179.852C819.178 186.805 816.95 194.839 825.244 196.948C832.702 198.845 841.205 198.948 848.851 199.782C858.701 200.856 868.566 201.384 878.459 201.863C883.142 202.089 887.969 202.148 892.606 202.858C895.338 203.276 898.738 205.087 900.839 202.559C902.883 200.101 902.888 193.845 903.526 190.707C904.368 186.564 905.124 182.399 905.537 178.188C906.471 168.654 905.097 159.213 903.834 149.773C902.474 139.597 901.43 129.378 900.023 119.212C899.115 112.659 899.219 102.077 894.71 96.7877C890.598 109.067 889.484 122.104 889.278 134.979C889.233 137.743 887.425 153.628 882.617 145.884C881.281 143.73 881.259 142.5 879.182 140.679C877.041 138.802 876.292 137.301 875.568 134.459C874.256 129.311 874.045 124.784 871.208 120.155C865.433 110.733 863.092 99.0677 854.493 91.4617C854.407 100.303 853.129 109.865 854.773 118.598C855.807 124.086 860.042 131.985 856.55 137.414C854.809 140.122 853.802 139.314 851.753 137.954C850.44 137.082 850.641 136.676 848.992 135.803C847.419 134.971 846.181 135.01 844.692 133.848C839.422 129.736 839.006 122.591 837.282 116.675C833.48 103.615 820.335 95.5487 810.268 87.4707C809.172 86.5917 806.43 83.8227 804.746 84.5777ZM606.099 111.037C598.381 114.119 590.423 115.293 582.222 113.552C582.229 115.354 584.829 118.282 582.821 119.318C582.342 119.565 579.609 118.382 579.077 118.244C576.119 117.477 572.133 116.158 569.041 116.787C565.77 117.453 565.883 119.572 568.021 121.972C571.022 125.341 578.555 125.478 578.64 131.068C578.676 133.485 577.186 136.513 576.867 139.006C576.391 142.734 575.871 146.432 574.995 150.093C573.489 156.387 571.052 162.374 568.148 168.147C565.646 173.12 562.604 178.302 557.945 181.552C554.908 183.67 556.078 182.714 556.674 185.836C557.073 187.927 557.006 189.484 554.306 188.968C553.789 188.809 553.273 188.651 552.757 188.492C559.089 198.868 575.102 205.408 586.065 198.484C581.442 194.758 587.716 188.262 590.365 185.51C594.332 181.387 598.49 176.643 602.744 172.879C609.257 167.117 617.782 169.921 625.488 167.497C633.287 165.044 638.961 159.509 644.002 153.323C648.493 147.814 654.446 141.072 655.053 133.615C655.172 132.155 654.463 130.443 654.721 129.062C654.983 127.654 655.836 127.471 656.281 126.549C657.192 124.652 657.413 122.699 657.558 120.527C658.03 113.439 655.778 112.326 649.121 110.495C645.242 109.427 641.31 108.589 637.425 107.546C633.716 106.551 630.409 104.636 626.753 103.568C619.056 101.319 612.877 108.331 606.099 111.037ZM625.935 155.578C632.057 159.292 622.406 161.67 618.843 160.028C614.031 157.81 622.516 153.504 625.935 155.578ZM637.465 124.698C643.022 131.337 649.199 144.831 637.03 147.562C633.274 148.405 627.463 149.767 623.686 148.734C618.291 147.257 619.7 140.217 625.081 139.908C628.269 139.725 635.585 142.247 637.479 138.544C638.507 136.536 636.17 133.345 635.815 131.341C635.358 128.762 635.776 126.701 637.465 124.698ZM305.744 144.634L305.748 144.641C305.768 144.669 305.799 144.701 305.842 144.74L305.864 144.757L305.823 144.718L305.744 144.634ZM648.472 127.071C652.331 127.062 650.418 135.259 648.503 136.659C645.066 139.171 643.599 127.081 648.472 127.071ZM623.032 133.251C618.554 133.794 619.563 123.078 623.643 122.749C628.998 122.316 628.209 132.624 623.032 133.251ZM661.769 115.466C661.233 116.558 661.643 127.19 662.926 127.391C663.271 124.794 663.08 122.183 663.044 119.574L663.038 118.915C663.068 118.956 663.28 112.385 661.769 115.466Z" fill="black"/>
</svg>
