<svg width="86" height="76" viewBox="0 0 86 76" fill="none" xmlns="http://www.w3.org/2000/svg">
<ellipse cx="25.3137" cy="29.3657" rx="25.3137" ry="29.3657" transform="matrix(-0.995227 -0.0975883 0.00653768 -0.999979 85.6162 63.6875)" fill="url(#paint0_linear_527_12972)"/>
<ellipse opacity="0.5" cx="19.9637" cy="25.7553" rx="19.9637" ry="25.7553" transform="matrix(-0.996769 -0.0803198 -0.00658986 -0.999978 40.876 66.564)" fill="url(#paint1_linear_527_12972)"/>
<rect width="1.37083" height="4.70205" rx="0.685415" transform="matrix(1 0 0 -1 11.0742 19.9299)" fill="#2626BC"/>
<rect width="1.34344" height="4.79791" rx="0.671722" transform="matrix(-4.46025e-08 -1 -1 4.28381e-08 14.1592 18.2507)" fill="#2626BC"/>
<rect width="1.56984" height="5.49445" rx="0.784922" transform="matrix(0.714205 0.699936 0.714205 -0.699936 4.72754 58.4746)" fill="#2626BC"/>
<rect width="1.56984" height="5.49445" rx="0.784922" transform="matrix(0.714205 -0.699936 -0.714205 -0.699936 8.65137 59.574)" fill="#2626BC"/>
<rect width="1.34344" height="4.79791" rx="0.671722" transform="matrix(-4.46025e-08 1 1 4.28381e-08 69.7217 44.3174)" fill="#2626BC"/>
<rect width="1.37083" height="4.70205" rx="0.685415" transform="matrix(1 0 0 -1 71.4355 47.3403)" fill="#2626BC"/>
<rect width="1.56984" height="5.49445" rx="0.784922" transform="matrix(0.714205 0.699936 0.714205 -0.699936 74.1973 42.4182)" fill="#6583FE"/>
<rect width="1.56984" height="5.49445" rx="0.784922" transform="matrix(0.714205 -0.699936 -0.714205 -0.699936 78.1211 43.5176)" fill="#6583FE"/>
<path fill-rule="evenodd" clip-rule="evenodd" d="M14.8323 25.2577C20.5308 24.5483 27.7942 23.6441 40.0036 14.3826V14.3827C52.213 23.6442 59.4765 24.5484 65.1749 25.2578C65.7276 25.3266 66.2657 25.3936 66.7921 25.4662C67.7703 41.1695 66.792 51.9435 62.008 59.3325C55.1416 71.2207 43.3456 74.7009 40.0036 75.6499V75.6498C36.6615 74.7007 24.8656 71.2205 17.9992 59.3324C13.2152 51.9434 12.2369 41.1694 13.2151 25.4661C13.7415 25.3935 14.2796 25.3265 14.8323 25.2577Z" fill="#E0E3F8"/>
<path fill-rule="evenodd" clip-rule="evenodd" d="M63.9494 26.2211C58.5287 25.5462 51.6193 24.6861 40.0049 15.876L40.0049 74.1571C43.184 73.2543 54.4051 69.9438 60.9369 58.635C65.4877 51.6061 66.4183 41.3573 65.4878 26.4193C64.987 26.3502 64.4752 26.2865 63.9494 26.2211ZM16.0601 26.2212C21.4808 25.5463 28.3902 24.6862 40.0046 15.8761L40.0046 74.1572C36.8255 73.2545 25.6044 69.9439 19.0726 58.6351C14.5217 51.6062 13.5912 41.3574 14.5217 26.4194C15.0224 26.3503 15.5343 26.2866 16.0601 26.2212Z" fill="#E0E3F8"/>
<path fill-rule="evenodd" clip-rule="evenodd" d="M59.4773 29.7314C55.069 29.1826 49.4499 28.4831 40.0047 21.3184L40.0047 68.7149C42.59 67.9808 51.7155 65.2885 57.0273 56.0917C60.7283 50.3755 61.4851 42.0408 60.7283 29.8926C60.3211 29.8365 59.9049 29.7846 59.4773 29.7314ZM20.5313 29.7315C24.9397 29.1827 30.5587 28.4832 40.0039 21.3185L40.0039 68.715C37.4186 67.9809 28.2931 65.2886 22.9813 56.0918C19.2803 50.3757 18.5235 42.0409 19.2803 29.8927C19.6875 29.8366 20.1037 29.7847 20.5313 29.7315Z" fill="#E0E3F8"/>
<path fill-rule="evenodd" clip-rule="evenodd" d="M32.6304 45.1625L29.4562 48.1937L33.0447 51.6959L33.0446 51.6961L36.1844 54.7604L51.6019 40.0375L48.462 36.9732L36.2189 48.6647L32.6304 45.1625Z" fill="#E0E3F8"/>
<path fill-rule="evenodd" clip-rule="evenodd" d="M15.2084 21.455C20.8218 20.7456 27.9769 19.8413 40.0041 10.5798L40.0041 71.8471C36.712 70.8981 25.092 67.4179 18.328 55.5297C13.6153 48.1407 12.6517 37.3667 13.6153 21.6634C14.1338 21.5908 14.6639 21.5238 15.2084 21.455ZM64.8004 21.455C59.187 20.7456 52.0319 19.8414 40.0047 10.5799L40.0047 71.8471C43.2968 70.8981 54.9168 67.4179 61.6808 55.5297C66.3935 48.1407 67.3571 37.3667 66.3935 21.6634C65.8749 21.5908 65.3449 21.5238 64.8004 21.455Z" fill="#2626BC"/>
<path fill-rule="evenodd" clip-rule="evenodd" d="M16.417 22.4181C21.7568 21.7433 28.5632 20.8831 40.0042 12.073L40.0042 70.3541C36.8726 69.4514 25.8189 66.1408 19.3846 54.832C14.9017 47.8031 13.985 37.5543 14.9016 22.6163C15.3949 22.5473 15.8991 22.4835 16.417 22.4181ZM63.5917 22.4182C58.2519 21.7433 51.4456 20.8832 40.0046 12.0731L40.0046 70.3542C43.1362 69.4515 54.1899 66.1409 60.6241 54.8321C65.1071 47.8032 66.0238 37.5544 65.1072 22.6164C64.6139 22.5473 64.1097 22.4836 63.5917 22.4182Z" fill="#6583FE"/>
<path fill-rule="evenodd" clip-rule="evenodd" d="M20.8232 25.9284C25.1657 25.3796 30.7009 24.6801 40.0052 17.5154V17.5155C49.3095 24.6802 54.8447 25.3797 59.1872 25.9285C59.6084 25.9817 60.0185 26.0335 60.4196 26.0897C61.165 38.2379 60.4196 46.5726 56.7738 52.2888C51.5412 61.4856 42.5519 64.1779 40.0051 64.912V64.9119C37.4583 64.1777 28.4691 61.4854 23.2365 52.2887C19.5908 46.5726 18.8453 38.2378 19.5908 26.0896C19.9919 26.0335 20.4019 25.9817 20.8232 25.9284Z" fill="white"/>
<path fill-rule="evenodd" clip-rule="evenodd" d="M32.7421 41.3602L29.6152 44.3914L36.2431 50.9578L36.2432 50.9577L36.2433 50.9578L51.4307 36.2348L48.3377 33.1705L36.277 44.8624L32.7421 41.3602Z" fill="#6583FE"/>
<mask id="path-19-inside-1_527_12972" fill="white">
<ellipse cx="11.9472" cy="62.5515" rx="1.72459" ry="1.69013"/>
</mask>
<ellipse cx="11.9472" cy="62.5515" rx="1.72459" ry="1.69013" fill="white"/>
<path d="M11.6718 62.5515C11.6718 62.3425 11.8334 62.2416 11.9472 62.2416V66.2416C13.966 66.2416 15.6718 64.6273 15.6718 62.5515H11.6718ZM11.9472 62.2416C12.0611 62.2416 12.2227 62.3425 12.2227 62.5515H8.22266C8.22266 64.6273 9.92845 66.2416 11.9472 66.2416V62.2416ZM12.2227 62.5515C12.2227 62.7605 12.0611 62.8613 11.9472 62.8613V58.8613C9.92845 58.8613 8.22266 60.4756 8.22266 62.5515H12.2227ZM11.9472 62.8613C11.8334 62.8613 11.6718 62.7605 11.6718 62.5515H15.6718C15.6718 60.4756 13.966 58.8613 11.9472 58.8613V62.8613Z" fill="#6583FE" mask="url(#path-19-inside-1_527_12972)"/>
<mask id="path-21-inside-2_527_12972" fill="white">
<ellipse cx="67.997" cy="16.0727" rx="1.72459" ry="1.69013"/>
</mask>
<ellipse cx="67.997" cy="16.0727" rx="1.72459" ry="1.69013" fill="white"/>
<path d="M67.7216 16.0727C67.7216 15.8637 67.8832 15.7628 67.997 15.7628V19.7628C70.0158 19.7628 71.7216 18.1486 71.7216 16.0727H67.7216ZM67.997 15.7628C68.1109 15.7628 68.2725 15.8637 68.2725 16.0727H64.2725C64.2725 18.1486 65.9783 19.7628 67.997 19.7628V15.7628ZM68.2725 16.0727C68.2725 16.2817 68.1109 16.3826 67.997 16.3826V12.3826C65.9783 12.3826 64.2725 13.9968 64.2725 16.0727H68.2725ZM67.997 16.3826C67.8832 16.3826 67.7216 16.2817 67.7216 16.0727H71.7216C71.7216 13.9968 70.0158 12.3826 67.997 12.3826V16.3826Z" fill="#6583FE" mask="url(#path-21-inside-2_527_12972)"/>
<defs>
<linearGradient id="paint0_linear_527_12972" x1="53.1668" y1="23.8874" x2="20.2401" y2="40.2938" gradientUnits="userSpaceOnUse">
<stop stop-color="#B1B5FF"/>
<stop offset="1" stop-color="#D9D9D9" stop-opacity="0"/>
</linearGradient>
<linearGradient id="paint1_linear_527_12972" x1="16.2965" y1="37.0064" x2="-5.66294" y2="9.29515" gradientUnits="userSpaceOnUse">
<stop stop-color="#B1B5FF"/>
<stop offset="1" stop-color="#D9D9D9" stop-opacity="0"/>
</linearGradient>
</defs>
</svg>
