<svg width="131" height="30" viewBox="0 0 131 30" fill="none" xmlns="http://www.w3.org/2000/svg">
<g clip-path="url(#clip0_679_12184)">
<path d="M9.98261 27.731C5.26992 27.731 1.66992 24.2946 1.66992 18.4364C1.66992 12.4801 5.66265 9.07642 10.2117 9.07642C12.5353 9.07642 14.1717 10.0255 15.4153 11.171L13.9099 13.1346C12.8626 12.1855 11.7499 11.5637 10.3753 11.5637C7.10265 11.5637 4.74629 14.3128 4.74629 18.4364C4.74629 22.4946 7.00447 25.2437 10.2772 25.2437C11.8808 25.2437 13.3535 24.4582 14.4662 23.4764L15.7426 25.4728C14.1717 26.8801 12.1099 27.731 9.98261 27.731Z" fill="white"/>
<path d="M25.4094 27.731C21.0239 27.731 17.1621 24.2946 17.1621 18.4364C17.1621 12.4801 21.0239 9.07642 25.4094 9.07642C29.7621 9.07642 33.6239 12.4801 33.6239 18.4364C33.6239 24.2946 29.7621 27.731 25.4094 27.731ZM25.4094 25.2437C28.4857 25.2437 30.5476 22.4946 30.5476 18.4364C30.5476 14.3128 28.4857 11.5637 25.4094 11.5637C22.3003 11.5637 20.2385 14.3128 20.2385 18.4364C20.2385 22.4946 22.3003 25.2437 25.4094 25.2437Z" fill="white"/>
<path d="M40.6152 27.2726L35.6406 9.50171H38.6843L41.3679 19.8108C41.7279 21.5126 42.0552 23.0835 42.3824 24.7526H42.5461C42.9388 23.0835 43.2988 21.4799 43.757 19.8108L46.5061 9.50171H49.4188L52.2334 19.8108C52.6588 21.5126 53.0515 23.0835 53.477 24.7526H53.6079C53.9679 23.0835 54.2952 21.5126 54.7206 19.8108L57.3061 9.50171H60.1533L55.3752 27.2726H51.7424L49.157 17.7163C48.6988 16.0144 48.3715 14.4108 47.9461 12.5781H47.7824C47.4224 14.4108 47.0624 16.0472 46.5715 17.749L44.0843 27.2726H40.6152Z" fill="white"/>
<path d="M67.356 27.731C64.3778 27.731 62.1523 25.8655 62.1523 22.6582C62.1523 18.7964 65.4905 16.8655 73.0505 16.0146C73.0505 13.7237 72.3305 11.531 69.4178 11.531C67.3233 11.531 65.4578 12.5128 64.0833 13.4619L62.9051 11.3673C64.5414 10.3201 67.0287 9.07642 69.876 9.07642C74.2287 9.07642 76.0614 11.9564 76.0614 16.3746V27.2728H73.6069L73.3451 25.1782H73.2142C71.5451 26.5855 69.5487 27.731 67.356 27.731ZM68.1742 25.3091C69.9087 25.3091 71.3487 24.491 73.0505 22.9528V18.011C67.0614 18.6982 65.0651 20.171 65.0651 22.4619C65.0651 24.491 66.4396 25.3091 68.1742 25.3091Z" fill="white"/>
<path d="M81.3789 27.2728V9.50187H83.8007L84.0953 12.7419H84.1935C85.4044 10.4837 87.2371 9.07642 89.2335 9.07642C90.0189 9.07642 90.5425 9.1746 91.1312 9.43642L90.5753 12.0546C89.9534 11.8582 89.5607 11.7601 88.8407 11.7601C87.368 11.7601 85.5353 12.8401 84.3571 15.8837V27.2728H81.3789Z" fill="white"/>
<path d="M99.3133 27.731C94.8624 27.731 91.9824 24.3601 91.9824 18.4365C91.9824 12.6437 95.6479 9.07646 99.7061 9.07646C101.768 9.07646 103.142 9.82918 104.681 11.1383L104.55 8.06191V1.25464H107.528V27.2728H105.073L104.812 25.1783H104.746C103.339 26.5855 101.473 27.731 99.3133 27.731ZM99.9679 25.211C101.637 25.211 103.077 24.3928 104.55 22.7892V13.4619C103.044 12.0874 101.67 11.5637 100.197 11.5637C97.3497 11.5637 95.0915 14.3455 95.0915 18.4037C95.0915 22.6583 96.8588 25.211 99.9679 25.211Z" fill="white"/>
<mask id="path-7-inside-1_679_12184" fill="white">
<path fill-rule="evenodd" clip-rule="evenodd" d="M16.6411 11.0649L14.0297 14.471L13.2984 13.8082C12.3417 12.9413 11.4377 12.4727 10.3743 12.4727C9.01207 12.4727 7.85988 13.0367 7.03205 14.0342C6.19469 15.0432 5.65431 16.5431 5.65431 18.4364C5.65431 20.303 6.17348 21.788 6.98808 22.7875C7.79108 23.7726 8.91619 24.3346 10.2761 24.3346C11.5845 24.3346 12.8519 23.6876 13.8637 22.7947L14.6595 22.0926L16.9238 25.6342L16.3482 26.1498C14.6234 27.695 12.3494 28.64 9.98155 28.64C7.3967 28.64 5.07028 27.6928 3.39415 25.9016C1.72041 24.1129 0.759766 21.5533 0.759766 18.4364C0.759766 15.2476 1.83305 12.67 3.58524 10.8857C5.33314 9.10591 7.70704 8.16728 10.2106 8.16728C12.8194 8.16728 14.6658 9.24564 16.0302 10.5023L16.6411 11.0649ZM15.4143 11.1709L13.9088 13.1346C13.6782 12.9255 13.4444 12.7324 13.2052 12.5582C12.3587 11.9417 11.4461 11.5636 10.3743 11.5636C7.10159 11.5636 4.74522 14.3127 4.74522 18.4364C4.74522 22.4946 7.0034 25.2436 10.2761 25.2436C11.5556 25.2436 12.7518 24.7436 13.7483 24.0427C14.0007 23.8652 14.2404 23.6748 14.4652 23.4764L15.7415 25.4727C14.1706 26.88 12.1088 27.7309 9.98155 27.7309C5.26886 27.7309 1.66886 24.2946 1.66886 18.4364C1.66886 12.48 5.66159 9.07637 10.2106 9.07637C12.5343 9.07637 14.1706 10.0255 15.4143 11.1709ZM25.4092 28.64C20.4793 28.64 16.2528 24.7532 16.2528 18.4364C16.2528 12.0236 20.4771 8.16728 25.4092 8.16728C30.3107 8.16728 34.5328 12.026 34.5328 18.4364C34.5328 24.7508 30.3085 28.64 25.4092 28.64ZM28.4058 22.8148C29.1585 21.8156 29.6383 20.3213 29.6383 18.4364C29.6383 16.5158 29.1572 15.0048 28.404 13.9983C27.6665 13.0127 26.6459 12.4727 25.4092 12.4727C24.1528 12.4727 23.1245 13.0155 22.3845 13.9999C21.6285 15.0056 21.1474 16.5157 21.1474 18.4364C21.1474 20.3214 21.627 21.8148 22.3827 22.8132C23.1229 23.7912 24.1523 24.3346 25.4092 24.3346C26.6465 24.3346 27.6681 23.7939 28.4058 22.8148ZM39.925 28.1818L34.4415 8.59273H39.3864L42.2524 19.6022L42.2567 19.6227C42.3489 20.0587 42.439 20.4863 42.5276 20.9094C42.6393 20.4673 42.7556 20.0226 42.8789 19.5734L42.8797 19.5703L45.807 8.59273H50.1124L53.1124 19.5809L53.1147 19.5905C53.2401 20.0922 53.3626 20.5823 53.484 21.0668C53.5957 20.5825 53.7127 20.092 53.8381 19.5905L56.5962 8.59273H61.3386L56.0715 28.1818H51.046L48.2785 17.9527C48.1359 17.4228 48.0053 16.9002 47.8805 16.3781C47.7467 16.9135 47.6037 17.4482 47.4476 17.99L44.7858 28.1818H39.925ZM46.5709 17.7491C46.8982 16.6147 47.1672 15.5094 47.4169 14.3556C47.5391 13.791 47.6565 13.2148 47.774 12.618C47.7766 12.6047 47.7793 12.5915 47.7818 12.5782H47.9455C47.9481 12.5895 47.9507 12.6006 47.9533 12.6118C48.0782 13.1505 48.1946 13.6694 48.3085 14.177C48.3216 14.2352 48.3347 14.2933 48.3477 14.3512C48.6043 15.4938 48.8514 16.5833 49.1564 17.7164L51.7418 27.2727H55.3745L60.1527 9.50182H57.3055L54.72 19.8109C54.443 20.9189 54.2076 21.9714 53.9777 23.0316C53.9049 23.3677 53.8325 23.7046 53.7596 24.0444C53.7117 24.2674 53.6636 24.4915 53.6149 24.7175C53.6124 24.7292 53.6098 24.7409 53.6073 24.7527H53.4764C53.4738 24.7427 53.4713 24.7328 53.4687 24.7228C53.3244 24.1562 53.1837 23.6007 53.0442 23.0475C52.7755 21.9819 52.5111 20.9245 52.2327 19.8109L49.4182 9.50182H46.5055L43.7564 19.8109C43.461 20.887 43.2065 21.9358 42.9575 22.9926C42.8875 23.29 42.8179 23.588 42.748 23.8875C42.6836 24.1633 42.6189 24.4403 42.5534 24.7191C42.5507 24.7303 42.5481 24.7416 42.5455 24.7527H42.3818C42.3792 24.7393 42.3765 24.7258 42.3739 24.7124C42.2588 24.1257 42.1436 23.5511 42.027 22.9784C41.8148 21.9361 41.5977 20.9004 41.3673 19.8109L38.6836 9.50182H35.64L40.6145 27.2727H44.0836L46.5709 17.7491ZM62.9046 11.3673C64.541 10.32 67.0283 9.07637 69.8755 9.07637C74.2283 9.07637 76.061 11.9564 76.061 16.3746V27.2727H73.6065L73.3446 25.1782H73.2137C73.2062 25.1846 73.1985 25.191 73.1909 25.1974C72.9663 25.3862 72.7357 25.5701 72.4996 25.7471C70.9863 26.8816 69.2437 27.7309 67.3555 27.7309C64.3774 27.7309 62.1519 25.8655 62.1519 22.6582C62.1519 18.7964 65.4901 16.8655 73.0501 16.0146C73.0501 13.7236 72.3301 11.5309 69.4174 11.5309C67.689 11.5309 66.1165 12.1995 64.8473 12.9666C64.5784 13.129 64.3231 13.2959 64.0828 13.4618L62.9046 11.3673ZM72.1049 15.2127C72.0352 14.4836 71.8618 13.8662 71.5645 13.4101C71.2088 12.8646 70.6063 12.44 69.4174 12.44C67.5979 12.44 65.9193 13.2986 64.5994 14.2099L63.7792 14.7763L61.6913 11.0645L62.4146 10.6016C64.11 9.51646 66.774 8.16728 69.8755 8.16728C72.2692 8.16728 74.1054 8.97095 75.3146 10.5061C76.4936 12.0026 76.9701 14.0614 76.9701 16.3746V28.1818H72.8039L72.6282 26.7759C71.1129 27.8323 69.3292 28.64 67.3555 28.64C65.6785 28.64 64.142 28.1129 63.0165 27.0616C61.8824 26.0026 61.2428 24.483 61.2428 22.6582C61.2428 21.5568 61.4825 20.5487 62.0068 19.6517C62.5296 18.7575 63.3047 18.0261 64.297 17.4286C66.1045 16.3399 68.7104 15.6496 72.1049 15.2127ZM72.141 22.5436C70.647 23.8382 69.4855 24.4 68.1737 24.4C67.4331 24.4 66.8877 24.2235 66.5441 23.9426C66.2308 23.6864 65.9737 23.2536 65.9737 22.4618C65.9737 22.027 66.0665 21.6715 66.251 21.362C66.4379 21.0486 66.7515 20.7276 67.2755 20.4168C68.2237 19.854 69.7623 19.3807 72.141 19.0435V22.5436ZM72.141 18.1255C66.8573 18.8548 65.0646 20.291 65.0646 22.4618C65.0646 24.4909 66.4392 25.3091 68.1737 25.3091C69.9083 25.3091 71.3483 24.4909 73.0501 22.9527V18.0109C72.7362 18.0469 72.4333 18.0851 72.141 18.1255ZM80.4694 28.1818V8.59273H84.6305L84.7875 10.3205C85.9971 8.99908 87.5253 8.16728 89.233 8.16728C90.1167 8.16728 90.7713 8.2816 91.5007 8.60563L92.1735 8.9048L91.2562 13.223L90.301 12.9215C89.7298 12.7411 89.4345 12.6691 88.8403 12.6691C87.8824 12.6691 86.3548 13.3631 85.2657 16.0569V28.1818H80.4694ZM84.3566 15.8836C85.5348 12.84 87.3675 11.76 88.8403 11.76C89.1777 11.76 89.4433 11.7816 89.6943 11.8247C89.9787 11.8736 90.2445 11.9502 90.5748 12.0546L91.1307 9.43637C90.5421 9.17455 90.0185 9.07637 89.233 9.07637C87.5959 9.07637 86.0689 10.0226 84.9045 11.6084C84.651 11.9538 84.4145 12.3296 84.198 12.7325C84.1964 12.7356 84.1946 12.7387 84.193 12.7418H84.0948L83.8003 9.50182H81.3785V27.2727H84.3566V15.8836ZM103.641 8.08116V0.345459H108.437V28.1818H104.272L104.114 26.9267C102.786 27.9142 101.163 28.64 99.3135 28.64C96.838 28.64 94.7353 27.6916 93.2716 25.8756C91.8262 24.0826 91.0735 21.5342 91.0735 18.4364C91.0735 12.2532 95.0416 8.16728 99.7062 8.16728C101.307 8.16728 102.548 8.57801 103.692 9.27791L103.641 8.08116ZM104.681 11.1382L104.55 8.06182V1.25455H107.528V27.2727H105.073L104.812 25.1782H104.746C104.743 25.1813 104.74 25.1845 104.737 25.1876C104.499 25.4256 104.247 25.656 103.983 25.8746C102.691 26.9446 101.103 27.7309 99.3135 27.7309C94.8625 27.7309 91.9825 24.36 91.9825 18.4364C91.9825 12.6436 95.648 9.07637 99.7062 9.07637C101.342 9.07637 102.544 9.54982 103.74 10.3987C104.052 10.6203 104.363 10.8673 104.681 11.1382ZM104.55 22.7891V13.4618C103.044 12.0873 101.67 11.5636 100.197 11.5636C97.3498 11.5636 95.0916 14.3455 95.0916 18.4036C95.0916 22.6582 96.8589 25.2109 99.968 25.2109C101.637 25.2109 103.077 24.3927 104.55 22.7891ZM99.968 24.3018C101.21 24.3018 102.36 23.7459 103.641 22.4279V13.8731C102.399 12.8264 101.318 12.4727 100.197 12.4727C98.0635 12.4727 96.0007 14.6066 96.0007 18.4036C96.0007 20.4231 96.4235 21.9151 97.1053 22.8766C97.7598 23.7982 98.698 24.3018 99.968 24.3018ZM17.1619 18.4364C17.1619 24.2946 21.0237 27.7309 25.4092 27.7309C29.7619 27.7309 33.6237 24.2946 33.6237 18.4364C33.6237 12.48 29.7619 9.07637 25.4092 9.07637C21.0237 9.07637 17.1619 12.48 17.1619 18.4364ZM30.5474 18.4364C30.5474 22.4946 28.4855 25.2436 25.4092 25.2436C22.3001 25.2436 20.2383 22.4946 20.2383 18.4364C20.2383 14.3127 22.3001 11.5636 25.4092 11.5636C28.4855 11.5636 30.5474 14.3127 30.5474 18.4364Z"/>
</mask>
<path fill-rule="evenodd" clip-rule="evenodd" d="M16.6411 11.0649L14.0297 14.471L13.2984 13.8082C12.3417 12.9413 11.4377 12.4727 10.3743 12.4727C9.01207 12.4727 7.85988 13.0367 7.03205 14.0342C6.19469 15.0432 5.65431 16.5431 5.65431 18.4364C5.65431 20.303 6.17348 21.788 6.98808 22.7875C7.79108 23.7726 8.91619 24.3346 10.2761 24.3346C11.5845 24.3346 12.8519 23.6876 13.8637 22.7947L14.6595 22.0926L16.9238 25.6342L16.3482 26.1498C14.6234 27.695 12.3494 28.64 9.98155 28.64C7.3967 28.64 5.07028 27.6928 3.39415 25.9016C1.72041 24.1129 0.759766 21.5533 0.759766 18.4364C0.759766 15.2476 1.83305 12.67 3.58524 10.8857C5.33314 9.10591 7.70704 8.16728 10.2106 8.16728C12.8194 8.16728 14.6658 9.24564 16.0302 10.5023L16.6411 11.0649ZM15.4143 11.1709L13.9088 13.1346C13.6782 12.9255 13.4444 12.7324 13.2052 12.5582C12.3587 11.9417 11.4461 11.5636 10.3743 11.5636C7.10159 11.5636 4.74522 14.3127 4.74522 18.4364C4.74522 22.4946 7.0034 25.2436 10.2761 25.2436C11.5556 25.2436 12.7518 24.7436 13.7483 24.0427C14.0007 23.8652 14.2404 23.6748 14.4652 23.4764L15.7415 25.4727C14.1706 26.88 12.1088 27.7309 9.98155 27.7309C5.26886 27.7309 1.66886 24.2946 1.66886 18.4364C1.66886 12.48 5.66159 9.07637 10.2106 9.07637C12.5343 9.07637 14.1706 10.0255 15.4143 11.1709ZM25.4092 28.64C20.4793 28.64 16.2528 24.7532 16.2528 18.4364C16.2528 12.0236 20.4771 8.16728 25.4092 8.16728C30.3107 8.16728 34.5328 12.026 34.5328 18.4364C34.5328 24.7508 30.3085 28.64 25.4092 28.64ZM28.4058 22.8148C29.1585 21.8156 29.6383 20.3213 29.6383 18.4364C29.6383 16.5158 29.1572 15.0048 28.404 13.9983C27.6665 13.0127 26.6459 12.4727 25.4092 12.4727C24.1528 12.4727 23.1245 13.0155 22.3845 13.9999C21.6285 15.0056 21.1474 16.5157 21.1474 18.4364C21.1474 20.3214 21.627 21.8148 22.3827 22.8132C23.1229 23.7912 24.1523 24.3346 25.4092 24.3346C26.6465 24.3346 27.6681 23.7939 28.4058 22.8148ZM39.925 28.1818L34.4415 8.59273H39.3864L42.2524 19.6022L42.2567 19.6227C42.3489 20.0587 42.439 20.4863 42.5276 20.9094C42.6393 20.4673 42.7556 20.0226 42.8789 19.5734L42.8797 19.5703L45.807 8.59273H50.1124L53.1124 19.5809L53.1147 19.5905C53.2401 20.0922 53.3626 20.5823 53.484 21.0668C53.5957 20.5825 53.7127 20.092 53.8381 19.5905L56.5962 8.59273H61.3386L56.0715 28.1818H51.046L48.2785 17.9527C48.1359 17.4228 48.0053 16.9002 47.8805 16.3781C47.7467 16.9135 47.6037 17.4482 47.4476 17.99L44.7858 28.1818H39.925ZM46.5709 17.7491C46.8982 16.6147 47.1672 15.5094 47.4169 14.3556C47.5391 13.791 47.6565 13.2148 47.774 12.618C47.7766 12.6047 47.7793 12.5915 47.7818 12.5782H47.9455C47.9481 12.5895 47.9507 12.6006 47.9533 12.6118C48.0782 13.1505 48.1946 13.6694 48.3085 14.177C48.3216 14.2352 48.3347 14.2933 48.3477 14.3512C48.6043 15.4938 48.8514 16.5833 49.1564 17.7164L51.7418 27.2727H55.3745L60.1527 9.50182H57.3055L54.72 19.8109C54.443 20.9189 54.2076 21.9714 53.9777 23.0316C53.9049 23.3677 53.8325 23.7046 53.7596 24.0444C53.7117 24.2674 53.6636 24.4915 53.6149 24.7175C53.6124 24.7292 53.6098 24.7409 53.6073 24.7527H53.4764C53.4738 24.7427 53.4713 24.7328 53.4687 24.7228C53.3244 24.1562 53.1837 23.6007 53.0442 23.0475C52.7755 21.9819 52.5111 20.9245 52.2327 19.8109L49.4182 9.50182H46.5055L43.7564 19.8109C43.461 20.887 43.2065 21.9358 42.9575 22.9926C42.8875 23.29 42.8179 23.588 42.748 23.8875C42.6836 24.1633 42.6189 24.4403 42.5534 24.7191C42.5507 24.7303 42.5481 24.7416 42.5455 24.7527H42.3818C42.3792 24.7393 42.3765 24.7258 42.3739 24.7124C42.2588 24.1257 42.1436 23.5511 42.027 22.9784C41.8148 21.9361 41.5977 20.9004 41.3673 19.8109L38.6836 9.50182H35.64L40.6145 27.2727H44.0836L46.5709 17.7491ZM62.9046 11.3673C64.541 10.32 67.0283 9.07637 69.8755 9.07637C74.2283 9.07637 76.061 11.9564 76.061 16.3746V27.2727H73.6065L73.3446 25.1782H73.2137C73.2062 25.1846 73.1985 25.191 73.1909 25.1974C72.9663 25.3862 72.7357 25.5701 72.4996 25.7471C70.9863 26.8816 69.2437 27.7309 67.3555 27.7309C64.3774 27.7309 62.1519 25.8655 62.1519 22.6582C62.1519 18.7964 65.4901 16.8655 73.0501 16.0146C73.0501 13.7236 72.3301 11.5309 69.4174 11.5309C67.689 11.5309 66.1165 12.1995 64.8473 12.9666C64.5784 13.129 64.3231 13.2959 64.0828 13.4618L62.9046 11.3673ZM72.1049 15.2127C72.0352 14.4836 71.8618 13.8662 71.5645 13.4101C71.2088 12.8646 70.6063 12.44 69.4174 12.44C67.5979 12.44 65.9193 13.2986 64.5994 14.2099L63.7792 14.7763L61.6913 11.0645L62.4146 10.6016C64.11 9.51646 66.774 8.16728 69.8755 8.16728C72.2692 8.16728 74.1054 8.97095 75.3146 10.5061C76.4936 12.0026 76.9701 14.0614 76.9701 16.3746V28.1818H72.8039L72.6282 26.7759C71.1129 27.8323 69.3292 28.64 67.3555 28.64C65.6785 28.64 64.142 28.1129 63.0165 27.0616C61.8824 26.0026 61.2428 24.483 61.2428 22.6582C61.2428 21.5568 61.4825 20.5487 62.0068 19.6517C62.5296 18.7575 63.3047 18.0261 64.297 17.4286C66.1045 16.3399 68.7104 15.6496 72.1049 15.2127ZM72.141 22.5436C70.647 23.8382 69.4855 24.4 68.1737 24.4C67.4331 24.4 66.8877 24.2235 66.5441 23.9426C66.2308 23.6864 65.9737 23.2536 65.9737 22.4618C65.9737 22.027 66.0665 21.6715 66.251 21.362C66.4379 21.0486 66.7515 20.7276 67.2755 20.4168C68.2237 19.854 69.7623 19.3807 72.141 19.0435V22.5436ZM72.141 18.1255C66.8573 18.8548 65.0646 20.291 65.0646 22.4618C65.0646 24.4909 66.4392 25.3091 68.1737 25.3091C69.9083 25.3091 71.3483 24.4909 73.0501 22.9527V18.0109C72.7362 18.0469 72.4333 18.0851 72.141 18.1255ZM80.4694 28.1818V8.59273H84.6305L84.7875 10.3205C85.9971 8.99908 87.5253 8.16728 89.233 8.16728C90.1167 8.16728 90.7713 8.2816 91.5007 8.60563L92.1735 8.9048L91.2562 13.223L90.301 12.9215C89.7298 12.7411 89.4345 12.6691 88.8403 12.6691C87.8824 12.6691 86.3548 13.3631 85.2657 16.0569V28.1818H80.4694ZM84.3566 15.8836C85.5348 12.84 87.3675 11.76 88.8403 11.76C89.1777 11.76 89.4433 11.7816 89.6943 11.8247C89.9787 11.8736 90.2445 11.9502 90.5748 12.0546L91.1307 9.43637C90.5421 9.17455 90.0185 9.07637 89.233 9.07637C87.5959 9.07637 86.0689 10.0226 84.9045 11.6084C84.651 11.9538 84.4145 12.3296 84.198 12.7325C84.1964 12.7356 84.1946 12.7387 84.193 12.7418H84.0948L83.8003 9.50182H81.3785V27.2727H84.3566V15.8836ZM103.641 8.08116V0.345459H108.437V28.1818H104.272L104.114 26.9267C102.786 27.9142 101.163 28.64 99.3135 28.64C96.838 28.64 94.7353 27.6916 93.2716 25.8756C91.8262 24.0826 91.0735 21.5342 91.0735 18.4364C91.0735 12.2532 95.0416 8.16728 99.7062 8.16728C101.307 8.16728 102.548 8.57801 103.692 9.27791L103.641 8.08116ZM104.681 11.1382L104.55 8.06182V1.25455H107.528V27.2727H105.073L104.812 25.1782H104.746C104.743 25.1813 104.74 25.1845 104.737 25.1876C104.499 25.4256 104.247 25.656 103.983 25.8746C102.691 26.9446 101.103 27.7309 99.3135 27.7309C94.8625 27.7309 91.9825 24.36 91.9825 18.4364C91.9825 12.6436 95.648 9.07637 99.7062 9.07637C101.342 9.07637 102.544 9.54982 103.74 10.3987C104.052 10.6203 104.363 10.8673 104.681 11.1382ZM104.55 22.7891V13.4618C103.044 12.0873 101.67 11.5636 100.197 11.5636C97.3498 11.5636 95.0916 14.3455 95.0916 18.4036C95.0916 22.6582 96.8589 25.2109 99.968 25.2109C101.637 25.2109 103.077 24.3927 104.55 22.7891ZM99.968 24.3018C101.21 24.3018 102.36 23.7459 103.641 22.4279V13.8731C102.399 12.8264 101.318 12.4727 100.197 12.4727C98.0635 12.4727 96.0007 14.6066 96.0007 18.4036C96.0007 20.4231 96.4235 21.9151 97.1053 22.8766C97.7598 23.7982 98.698 24.3018 99.968 24.3018ZM17.1619 18.4364C17.1619 24.2946 21.0237 27.7309 25.4092 27.7309C29.7619 27.7309 33.6237 24.2946 33.6237 18.4364C33.6237 12.48 29.7619 9.07637 25.4092 9.07637C21.0237 9.07637 17.1619 12.48 17.1619 18.4364ZM30.5474 18.4364C30.5474 22.4946 28.4855 25.2436 25.4092 25.2436C22.3001 25.2436 20.2383 22.4946 20.2383 18.4364C20.2383 14.3127 22.3001 11.5636 25.4092 11.5636C28.4855 11.5636 30.5474 14.3127 30.5474 18.4364Z" fill="white" stroke="white" stroke-width="2" mask="url(#path-7-inside-1_679_12184)"/>
<path d="M130.909 9.77273C130.909 13.7894 127.652 17.0455 123.636 17.0455C119.62 17.0455 116.363 13.7894 116.363 9.77273C116.363 5.75611 119.62 2.5 123.636 2.5C127.652 2.5 130.909 5.75611 130.909 9.77273Z" fill="#028AE2"/>
<path fill-rule="evenodd" clip-rule="evenodd" d="M129.717 24.8896C130.471 23.744 130.909 22.3729 130.909 20.8994C130.909 16.8828 127.652 13.6267 123.636 13.6267C119.62 13.6267 116.363 16.8828 116.363 20.8994C116.363 23.9628 118.257 26.5838 120.938 27.6553C120.671 27.8395 120.312 28.0232 119.899 28.1895C119.285 28.436 118.618 28.6186 118.107 28.7039C117.88 28.7415 117.718 28.9416 117.727 29.1706C117.737 29.3996 117.915 29.5859 118.143 29.6052C122.279 29.9541 127.331 28.8895 129.717 24.8896Z" fill="#FFCC29" fill-opacity="0.8"/>
</g>
<defs>
<clipPath id="clip0_679_12184">
<rect width="130.909" height="30" fill="white"/>
</clipPath>
</defs>
</svg>
