<svg width="21" height="30" viewBox="0 0 21 30" fill="none" xmlns="http://www.w3.org/2000/svg">
<path fill-rule="evenodd" clip-rule="evenodd" d="M0.234375 5.61284C0.234375 2.51295 2.67955 0 5.69583 0H15.067C18.0833 0 20.5285 2.51295 20.5285 5.61284C20.5285 7.57572 19.5481 9.30326 18.0631 10.3065C19.5481 11.3097 20.5285 13.0372 20.5285 15.0001C20.5285 18.1 18.0833 20.613 15.067 20.613H14.9484C13.5344 20.613 12.2458 20.0607 11.2759 19.1545V24.3262C11.2759 27.4674 8.76684 30 5.7253 30C2.71651 30 0.234375 27.4947 0.234375 24.3871C0.234375 22.4244 1.21469 20.6969 2.69959 19.6936C1.21469 18.6904 0.234375 16.9629 0.234375 15.0001C0.234375 13.0372 1.21477 11.3097 2.69977 10.3065C1.21477 9.30326 0.234375 7.57572 0.234375 5.61284ZM9.48696 11.2258H5.69583C3.66756 11.2258 2.02333 12.9156 2.02333 15.0001C2.02333 17.0767 3.65507 18.7616 5.67269 18.7744C5.6804 18.7743 5.68812 18.7743 5.69583 18.7743H9.48696V11.2258ZM11.2759 15.0001C11.2759 17.0846 12.9201 18.7744 14.9484 18.7744H15.067C17.0953 18.7744 18.7395 17.0846 18.7395 15.0001C18.7395 12.9156 17.0953 11.2258 15.067 11.2258H14.9484C12.9201 11.2258 11.2759 12.9156 11.2759 15.0001ZM5.69583 20.613C5.68812 20.613 5.68041 20.6129 5.6727 20.6129C3.65508 20.6257 2.02333 22.3106 2.02333 24.3871C2.02333 26.464 3.68952 28.1615 5.7253 28.1615C7.79382 28.1615 9.48696 26.4367 9.48696 24.3262V20.613H5.69583ZM5.69583 1.83854H9.48696V9.38715H5.69583C3.66756 9.38715 2.02333 7.69733 2.02333 5.61284C2.02333 3.52835 3.66756 1.83854 5.69583 1.83854ZM11.2759 9.38715V1.83854H15.067C17.0953 1.83854 18.7395 3.52835 18.7395 5.61284C18.7395 7.69733 17.0953 9.38715 15.067 9.38715H11.2759Z" fill="white"/>
</svg>
