<svg width="507" height="507" viewBox="0 0 507 507" fill="none" xmlns="http://www.w3.org/2000/svg">
<path d="M143.525 79.9024C142.846 78.835 142.411 77.6404 142.252 76.3986C142.092 75.1568 142.211 73.8966 142.599 72.7024C142.987 71.5308 143.653 70.3805 143.553 69.1556C143.47 68.0906 142.838 67.1692 142.333 66.2266C138.625 59.3035 142.416 49.6858 149.967 46.8633C152.3 45.9899 154.828 45.7183 157.323 45.4573C163.942 44.765 170.926 44.1739 176.996 46.794C177.953 47.2762 178.96 47.66 180.001 47.939C181.276 48.1946 182.601 48.0082 183.881 47.939C188.377 47.7047 193.333 49.281 195.556 53.0461C196.439 54.6847 196.935 56.4904 197.008 58.3343C197.701 67.5314 192.268 76.8935 183.754 81.1539" fill="#1A1C3F"/>
<path d="M144.639 79.2809C144.141 78.3367 143.847 77.3051 143.777 76.2486C143.706 75.1922 143.86 74.133 144.229 73.1354C144.838 71.3886 145.67 70.0466 145.337 68.1347C145.082 66.6915 144.151 65.472 143.674 64.1247C143.141 62.562 142.965 60.9071 143.159 59.2732C143.493 56.3311 144.862 53.5864 147.039 51.4927C149.717 48.9524 153.27 48.2974 156.89 47.9459C160.837 47.5465 164.85 47.1684 168.819 47.4773C170.932 47.6276 173.013 48.0614 175 48.766C176.691 49.3785 178.226 50.2412 180.034 50.4808C183.615 50.9601 186.913 49.9057 190.333 51.6045C193.92 53.3939 194.652 57.0312 194.535 60.6578C194.28 68.5129 189.419 75.1803 182.55 79.1052C179.779 80.7028 182.207 84.617 185.073 83.2537C192.656 79.6431 198.044 71.9371 199.336 63.9809C200.001 59.9016 199.984 55.13 197.639 51.514C195.466 48.1643 191.636 46.2631 187.661 45.656C185.538 45.3471 183.465 45.6933 181.358 45.5122C178.919 45.3045 176.602 43.7175 174.185 43.1583C169.296 42.024 164.207 42.3009 159.262 42.8069C154.828 43.2648 150.049 43.5897 146.269 46.098C143.146 48.2178 140.825 51.2549 139.655 54.7519C138.314 58.5253 138.484 62.6432 140.132 66.3028C140.808 67.746 141.751 68.7685 141.573 70.4939C141.457 71.6389 140.847 72.7413 140.725 73.9182C140.513 76.2461 141.12 78.5751 142.449 80.5324C143.336 81.9011 145.404 80.7082 144.667 79.2809H144.639Z" fill="#1A1C3F"/>
<path d="M276.229 164.24C279.764 157.758 281.722 150.589 281.955 143.274C282.06 139.781 281.789 136.165 283.108 132.911C283.759 131.337 284.851 129.968 286.262 128.954C286.683 128.669 287.178 128.502 287.691 128.472C288.205 128.442 288.717 128.55 289.171 128.784C289.624 129.018 290.001 129.368 290.259 129.796C290.516 130.224 290.645 130.712 290.63 131.207C290.592 131.942 290.746 132.674 291.079 133.337C291.28 133.754 291.59 134.113 291.979 134.381C292.367 134.649 292.821 134.816 293.297 134.865C294.838 134.993 295.73 133.8 296.373 132.666C297.813 130.113 298.719 127.314 299.04 124.427C299.333 121.796 299.533 118.516 302.072 117.504C304.467 116.54 307.216 118.702 307.737 121.147C308.258 123.591 307.272 126.067 306.274 128.363L310.598 120.774C310.848 120.224 311.241 119.745 311.74 119.384C312.129 119.194 312.559 119.095 312.995 119.095C313.432 119.095 313.862 119.194 314.251 119.384C317.078 120.561 318.314 123.937 317.882 126.866C317.449 129.795 315.731 132.383 314.051 134.854L319.179 127.681C321.396 128.453 322.616 130.876 322.616 133.161C322.616 138.007 319.944 142.667 317.006 146.448C315.038 148.978 312.444 150.991 310.487 153.531C308.175 156.54 307.859 159.65 307.626 163.282C307.482 165.529 307.044 167.931 305.409 169.529" fill="white"/>
<path d="M272.481 168.647C276.014 162.162 277.968 154.991 278.197 147.675C278.302 144.181 278.03 140.571 279.35 137.317C279.996 135.742 281.086 134.372 282.498 133.36C282.919 133.074 283.414 132.905 283.929 132.875C284.444 132.844 284.957 132.951 285.411 133.185C285.866 133.419 286.243 133.771 286.501 134.199C286.759 134.628 286.888 135.118 286.872 135.613C286.834 136.347 286.987 137.079 287.316 137.743C287.517 138.16 287.826 138.52 288.215 138.788C288.604 139.055 289.058 139.222 289.533 139.271C291.074 139.399 291.967 138.206 292.604 137.072C294.046 134.52 294.954 131.721 295.276 128.833C295.564 126.208 295.769 122.922 298.308 121.91C300.703 120.946 303.447 123.109 303.974 125.553C304.5 127.997 303.497 130.479 302.516 132.79L306.812 125.17C307.066 124.619 307.46 124.139 307.959 123.774C308.348 123.584 308.779 123.485 309.215 123.485C309.651 123.485 310.081 123.584 310.471 123.774C313.298 124.951 314.534 128.333 314.096 131.257C313.658 134.18 311.945 136.774 310.271 139.245L315.399 132.077C317.616 132.849 318.836 135.272 318.836 137.551C318.836 142.397 316.164 147.057 313.226 150.838C311.258 153.373 308.663 155.381 306.707 157.921C304.395 160.93 304.079 164.04 303.846 167.672C303.702 169.919 303.264 172.327 301.629 173.919" fill="#F7CEBF"/>
<path d="M277.238 164.799C281.147 158.876 283.541 152.147 284.223 145.164C284.578 141.463 283.885 137.405 285.371 133.885C285.725 133.044 287.327 130.093 288.286 131.222C288.392 131.35 288.497 133.033 288.558 133.246C288.762 133.894 289.075 134.505 289.484 135.057C290.175 135.986 291.192 136.644 292.347 136.911C293.503 137.178 294.72 137.036 295.776 136.51C298.414 135.105 299.656 131.409 300.449 128.815C300.88 127.27 301.178 125.694 301.341 124.102C301.485 122.946 301.452 121.264 302.173 120.273C303.531 118.42 305.377 120.475 305.593 122.062C305.854 123.974 304.811 126.073 304.091 127.803C303.126 130.109 307.023 131.622 308.232 129.481L311.558 123.57C311.719 123.293 312.467 121.519 312.827 121.354C313.637 120.992 314.695 122.499 314.973 122.989C317.035 126.653 314.047 130.759 312.012 133.763C310.349 136.186 314.335 138.337 316.015 136.01L321.164 128.852L317.96 129.657C321.957 131.425 319.851 137.086 318.404 139.908C316.624 143.375 314.08 146.176 311.308 148.935C308.792 151.438 306.624 154.1 305.732 157.541C304.911 160.736 305.787 165.156 303.553 167.829C301.546 170.226 304.856 173.629 307.151 171.291C310.416 167.963 309.801 163.835 310.577 159.682C311.502 154.67 315.793 151.853 318.82 148.013C322.966 142.752 329.646 129.832 320.322 125.774C319.781 125.493 319.149 125.419 318.554 125.568C317.959 125.718 317.446 126.079 317.118 126.578L312.012 133.763L316.015 136.01C319.307 131.084 322.694 124.006 317.522 118.968C315.627 117.131 312.423 116.071 310.1 117.823C308.936 118.702 308.337 120.129 307.644 121.344L304.318 127.26L308.459 128.938C309.967 125.338 311.231 121.061 308.459 117.701C306.524 115.352 303.126 114.218 300.332 115.901C297.538 117.584 297.206 120.896 296.834 123.74C296.583 126.145 295.918 128.494 294.867 130.69C294.624 131.178 294.356 131.655 294.063 132.117C293.109 132.351 292.743 132.042 292.954 131.18C292.727 130.503 292.838 129.795 292.527 129.103C292.225 128.447 291.779 127.862 291.221 127.387C290.663 126.912 290.004 126.558 289.291 126.348C288.577 126.139 287.825 126.08 287.085 126.175C286.346 126.27 285.636 126.516 285.005 126.898C281.568 128.927 280.16 132.91 279.755 136.553C279.245 141.106 279.678 145.686 278.962 150.239C278.242 154.934 276.94 159.529 275.082 163.926C274.572 165.119 276.523 165.8 277.189 164.778L277.238 164.799Z" fill="#1A1C3F"/>
<path d="M153.448 143.761C155.062 128.517 155.199 113.161 153.858 97.8926C152.861 86.5866 151.641 73.5499 160.039 65.5564C162.196 63.4955 164.834 61.9724 167.49 60.5558C174.796 56.6576 184.635 53.6327 190.877 58.9582C194.043 61.6635 195.312 65.8546 197.873 69.0765C199.459 71.0683 202.13 72.6126 204.619 72.8044C205.935 72.9127 207.173 73.4452 208.133 74.3154C209.093 75.1856 209.719 76.3423 209.908 77.5973C213.335 99.4703 210.417 121.828 201.476 142.211" fill="white"/>
<path d="M146.557 148.444C148.171 133.202 148.307 117.848 146.961 102.582C145.969 91.2756 144.744 78.2389 153.142 70.24C155.299 68.1844 157.937 66.6613 160.598 65.2448C167.904 61.3412 177.744 58.3217 183.986 63.6471C187.146 66.3578 188.421 70.5702 190.976 73.7655C191.789 74.7854 192.804 75.6401 193.963 76.2801C195.122 76.92 196.402 77.3324 197.728 77.4933C199.043 77.6 200.282 78.1321 201.241 79.0027C202.201 79.8733 202.825 81.0309 203.011 82.2862C206.445 104.164 203.529 126.528 194.585 146.916" fill="#F7CEBF"/>
<path d="M170.843 61.4249C171.391 62.8466 171.637 64.3591 171.567 65.8737C171.498 67.3882 171.114 68.8741 170.438 70.2439C169.551 72.0013 168.221 73.519 167.339 75.2924C166.458 77.0658 166.181 79.3025 167.395 80.8735C165.914 78.7433 162.3 78.493 160.382 80.2877C158.464 82.0824 158.508 85.3629 160.31 87.2641C161.097 88.0895 162.2 88.7712 162.433 89.8682C162.644 90.8428 162.084 91.8013 161.546 92.6481L155.626 101.989L149.988 95.1351C149.906 95.0231 149.803 94.9272 149.683 94.8528C149.535 94.8035 149.377 94.7833 149.22 94.7934C149.063 94.8034 148.909 94.8436 148.769 94.9114C147.385 95.3459 145.921 95.4922 144.474 95.3407C143.027 95.1892 141.63 94.7433 140.376 94.0327C138.519 92.9676 136.989 91.2049 136.69 89.1439C136.39 87.083 137.588 84.793 139.644 84.154C137.693 84.841 135.376 83.8451 134.267 82.1569C133.158 80.4688 133.125 78.2747 133.79 76.3788C134.542 74.5094 135.692 72.8116 137.166 71.3942C143.125 65.206 151.579 61.4249 160.26 60.3119C161.121 60.2617 161.966 60.0633 162.755 59.7261C163.941 59.1296 164.634 57.9367 165.404 56.8876C169.634 51.1361 177.395 48.7716 184.712 48.3669C192.03 47.9622 199.358 49.2083 206.681 48.8994C208.898 48.8036 211.465 48.729 212.823 50.3906C214.181 52.0521 213.344 54.7361 211.581 56.0515C209.818 57.3669 207.468 57.6492 205.239 57.7717C204.898 57.7542 204.56 57.8419 204.275 58.0219C203.926 58.2989 203.898 58.7888 203.787 59.2095C203.31 61.0788 201.06 61.9149 199.086 62.2291C190.394 63.6243 181.403 60.5622 172.727 62.048" fill="#EAB642"/>
<path d="M161.546 92.645C162.101 91.7982 162.655 90.8396 162.433 89.8651C162.2 88.768 161.092 88.0864 160.31 87.2609C158.508 85.3597 158.47 82.0793 160.382 80.2846C162.295 78.4899 165.925 78.7242 167.394 80.8704C166.18 79.2994 166.474 77.0573 167.339 75.2893C168.204 73.5212 169.556 71.9982 170.438 70.2408C171.114 68.8709 171.498 67.3851 171.567 65.8705C171.637 64.356 171.39 62.8435 170.842 61.4218L172.727 62.0609C179.679 60.868 186.83 62.5934 193.87 62.5934C193.071 61.2383 192.061 60.0082 190.876 58.9455C184.635 53.62 174.8 56.6342 167.489 60.5431C164.833 61.965 162.195 63.4827 160.038 65.5437C151.657 73.5319 152.86 86.5739 153.857 97.8799C153.918 98.5988 153.979 99.3178 154.035 100.042L155.626 101.975L161.546 92.645Z" fill="#EF6348"/>
<path d="M154.534 143.757C156.523 128.895 157.024 113.885 156.031 98.9322C155.327 88.3985 153.209 74.4351 162.356 66.5428C166.912 62.6126 173.747 59.4173 179.817 58.5546C182.495 58.1818 185.361 58.3203 187.75 59.6197C190.605 61.1854 191.985 64.141 193.504 66.7931C194.934 69.2694 196.486 71.6126 198.981 73.2102C200.049 73.9069 201.226 74.4354 202.468 74.7759C203.931 75.17 205.55 74.9623 206.653 76.1765C208.555 78.2535 208.194 82.5245 208.438 85.1659C208.76 88.6541 208.915 92.1636 208.915 95.6677C208.85 111.454 205.597 127.079 199.336 141.674C198.393 143.895 202.396 145.535 203.394 143.32C209.742 129.171 213.22 113.988 213.643 98.5861C213.743 95.0819 213.684 91.5795 213.466 88.0789C213.228 84.2872 213.178 79.9896 212.086 76.3203C211.747 75.1691 211.145 74.1053 210.323 73.2068C209.501 72.3083 208.48 71.598 207.335 71.128C205.883 70.5369 204.303 70.5954 202.856 69.999C200.899 69.1682 199.652 67.6079 198.576 65.8984C195.167 60.4771 192.479 55.1623 185.322 54.0386C178.991 53.0481 172.506 55.4072 167.029 58.2404C161.142 61.2706 156.108 65.0996 153.47 71.1386C150.986 76.7996 150.654 83.1529 150.997 89.2186C151.479 97.6914 152.633 106.1 152.915 114.594C153.254 124.327 153.069 134.069 152.361 143.783C152.261 145.141 154.357 145.072 154.528 143.783L154.534 143.757Z" fill="#1A1C3F"/>
<path d="M137.167 242.862C127.799 246.025 116.595 243.336 109.882 236.312C106.246 232.504 104.477 225.464 109.112 222.838C106.39 208.396 109.455 193.452 114.594 179.628C118.552 169.003 123.813 158.677 131.479 150.13C153.387 125.702 195.134 120.68 222.63 139.165C228.09 142.834 233.068 147.377 236.15 153.054C240.518 161.106 240.685 170.59 240.48 179.681C240.291 188.003 239.873 196.319 239.227 204.631C238.911 208.689 238.517 212.832 236.765 216.528C234.87 220.538 231.499 223.744 227.813 226.353C220.839 231.285 212.634 234.361 204.026 235.273" fill="white"/>
<path d="M149.462 246.169C140.099 249.332 128.89 246.643 122.183 239.613C118.541 235.805 116.778 228.77 121.407 226.14C118.685 211.697 121.75 196.754 126.895 182.934C130.847 172.283 136.113 161.984 143.78 153.431C165.688 129.003 207.43 123.987 234.93 142.471C240.385 146.141 245.369 150.683 248.445 156.36C252.813 164.407 252.98 173.897 252.775 182.987C252.586 191.309 252.17 199.626 251.527 207.937C251.211 211.99 250.818 216.133 249.066 219.834C247.17 223.839 243.8 227.045 240.114 229.66C233.139 234.59 224.934 237.665 216.327 238.575" fill="#34C6A0"/>
<path d="M184.302 193.552C180.35 191.183 176.131 188.296 174.917 183.716C174.313 181.416 174.463 179.035 176.026 177.123C177.29 175.606 178.654 174.754 179.064 172.73C179.474 170.706 178.604 168.8 178.121 166.813C177.927 166.025 177.528 164.683 178.01 163.911C178.598 162.979 179.674 163.149 180.577 162.793C181.261 162.541 181.864 162.122 182.327 161.578C182.789 161.033 183.096 160.381 183.216 159.688C183.388 158.825 182.384 154.591 183.443 154.33L182.079 151.22C181.62 151.491 181.235 151.863 180.956 152.306C180.678 152.749 180.513 153.249 180.478 153.766C180.442 154.282 180.535 154.799 180.75 155.273C180.965 155.748 181.296 156.166 181.713 156.493C183.238 157.765 185.455 157.27 186.963 158.522C188.743 159.991 188.294 161.962 187.711 163.847C186.935 166.35 186.392 169.412 189.269 170.893C191.631 172.107 194.713 171.255 196.714 169.79C197.82 168.985 198.73 167.96 199.383 166.784C200.036 165.608 200.415 164.31 200.495 162.979C200.546 161.797 200.321 160.62 199.835 159.533C199.042 157.717 196.969 156.019 196.586 154.075C195.955 150.917 201.021 150.347 200.91 146.869C200.872 145.538 199.419 143.903 199.968 142.609C200.517 141.315 203.261 140.766 204.514 140.506L203.056 137.236C201.043 138.056 200.345 140.314 200.966 142.236C201.936 145.245 205.157 145.208 207.064 147.221C208.521 148.776 206.565 150.294 206.354 151.923C206.281 152.427 206.314 152.939 206.45 153.43C206.586 153.921 206.823 154.381 207.147 154.783C207.95 155.784 209.192 156.258 210.168 157.073C211.37 158.109 212.271 159.426 212.784 160.897C213.893 163.954 212.873 166.142 212.091 169.077C211.382 171.739 211.814 174.743 214.741 175.92C221.293 178.556 224.897 169.678 225.041 165.051L220.512 166.228C221.393 167.46 221.859 168.923 221.846 170.419C221.833 171.914 221.342 173.37 220.44 174.588C219.059 176.602 222.347 179.12 223.965 177.203C225.586 175.367 226.535 173.071 226.669 170.667C226.804 168.262 226.115 165.882 224.708 163.89C224.43 163.46 224.015 163.129 223.525 162.944C223.036 162.758 222.497 162.73 221.989 162.862C221.481 162.994 221.03 163.28 220.704 163.677C220.378 164.074 220.194 164.561 220.179 165.067C220.182 166.538 219.851 167.991 219.209 169.327C219.01 169.71 217.424 172.187 216.67 171.681C215.916 171.175 217.779 166.888 217.912 165.956C218.143 164.256 218.017 162.529 217.541 160.877C217.065 159.225 216.249 157.681 215.14 156.338C214.535 155.589 213.843 154.908 213.078 154.309C212.446 153.825 211.299 153.436 210.805 152.866C209.785 151.705 211.559 150.102 211.615 148.563C211.681 146.742 210.506 145.267 209.092 144.207C208.505 143.781 202.995 141.166 204.968 140.351C206.942 139.536 205.489 136.661 203.527 137.076C199.175 137.987 194.951 140.49 196.575 145.298C196.869 146.166 197.202 146.396 196.769 147.29C196.431 147.998 195.888 148.201 195.273 148.632C194.352 149.216 193.618 150.032 193.15 150.991C192.146 153.233 193.028 155.683 194.258 157.643C195.833 160.114 197.767 162.276 196.06 165.216C195.726 165.834 195.267 166.383 194.712 166.83C194.156 167.278 193.514 167.616 192.822 167.825C190.356 168.47 190.794 165.828 191.226 164.369C191.913 162.036 192.03 159.81 190.638 157.68C190.073 156.813 189.316 156.077 188.421 155.523C187.595 155.017 184.729 153.729 183.87 154.181C185.683 153.233 184.424 150.651 182.506 151.071C180.588 151.492 179.635 152.999 179.391 154.799C179.241 155.864 179.64 156.828 179.568 157.867C179.446 159.603 178.083 159.422 176.741 160.066C175.006 160.897 174.174 162.59 174.019 164.38C173.781 167.042 176.237 170.568 174.901 172.831C173.653 174.929 171.78 176.074 171.126 178.577C170.561 180.846 170.703 183.224 171.536 185.415C173.415 190.357 178.349 193.403 182.972 195.72C183.264 195.856 183.598 195.881 183.908 195.791C184.219 195.701 184.482 195.502 184.647 195.234C184.812 194.965 184.866 194.647 184.798 194.343C184.73 194.038 184.545 193.769 184.28 193.59L184.302 193.552Z" fill="white"/>
<path d="M136.818 241.637C133.429 242.625 129.859 242.903 126.348 242.453C122.838 242.002 119.469 240.834 116.468 239.027C113.824 237.43 111.191 235.246 109.766 232.52C108.552 230.208 107.549 226.459 110.287 224.766C110.717 224.503 111.052 224.119 111.245 223.666C111.438 223.213 111.479 222.713 111.363 222.236C109.605 211.649 110.808 200.876 113.658 190.576C116.346 180.847 120.188 171.245 125.487 162.543C134.318 148.042 148.005 137.513 164.956 133.125C180.367 129.131 197.452 130.047 211.953 136.667C219.947 140.315 227.88 145.677 232.464 153.101C237.747 161.648 237.453 172.145 237.204 181.747C237.054 187.988 236.86 194.224 236.505 200.46C236.184 206.116 236.278 212.326 233.14 217.331C227.42 226.47 214.631 231.843 204.026 233.058C201.133 233.388 201.099 237.792 204.026 237.456C214.88 236.216 225.646 232.291 233.673 224.973C242.415 216.985 242.254 205.53 242.974 194.746C243.728 183.563 244.904 171.724 242.42 160.663C240.047 150.082 232.741 142.061 223.572 136.134C193.255 116.473 148.459 124.248 126.557 152.063C118.879 161.814 113.757 173.391 110.104 185.038C106.224 197.473 104.378 210.563 106.867 223.424L107.937 220.894C100.287 225.953 105.387 235.869 111.18 240.135C114.884 242.842 119.233 244.62 123.832 245.308C128.431 245.996 133.136 245.572 137.522 244.076C139.085 243.543 138.464 241.163 136.823 241.637H136.818Z" fill="#1A1C3F"/>
<path d="M143.625 210.715C117.532 237.811 106.046 274.812 97.731 310.844C94.0945 326.56 90.7629 342.706 82.2094 356.558C74.4505 369.077 62.869 378.998 49.0376 384.975C40.4786 388.654 30.9439 390.907 23.9259 396.872C14.8791 404.578 11.9023 416.901 11.0153 428.484C10.0063 441.634 11.0433 454.855 14.0919 467.711C15.7106 474.549 17.9723 481.397 22.2629 487.069C26.5535 492.741 33.1835 497.123 40.473 497.443C52.3526 497.975 62.0924 487.804 66.0725 477.036C67.1812 474 68.046 470.784 70.0749 468.227C72.5029 465.165 76.2891 463.435 79.8701 461.73C119.433 442.756 151.68 409.386 166.586 369.392C170.466 359.002 173.177 348.256 175.882 337.535L194.907 262.281C196.016 257.834 197.163 253.26 196.526 248.723C195.888 244.185 193.072 239.632 188.549 238.194" fill="white"/>
<path d="M145.959 209.773C119.861 236.869 95.4473 276.635 87.1045 312.672C83.468 328.387 80.142 344.529 71.5829 358.38C63.826 370.9 52.2465 380.823 38.4167 386.802C29.8521 390.482 20.3174 392.714 13.2994 398.694C4.24148 406.4 1.27575 418.729 0.372173 430.317C-0.634039 443.465 0.402858 456.684 3.44877 469.539C5.07299 476.377 7.32916 483.231 11.6253 488.902C15.9215 494.574 22.5403 498.957 29.8354 499.276C41.715 499.809 51.4548 489.637 55.4349 478.869C56.5436 475.833 57.4029 472.617 59.4373 470.055C61.8653 466.999 65.6515 465.262 69.2325 463.564C108.818 444.578 141.042 411.214 155.937 371.204C159.818 360.814 162.523 350.067 165.233 339.342L184.264 264.104C185.373 259.657 186.52 255.082 185.888 250.55C185.256 246.019 182.429 241.46 177.911 240.017" fill="#4747E2"/>
<path d="M142.826 209.95C126.967 225.889 116.262 245.391 108.424 265.963C104.49 276.547 101.141 287.323 98.3904 298.246C95.4691 309.472 93.1907 320.858 89.9201 331.999C86.6883 342.975 82.1593 353.722 74.72 362.716C67.7932 371.063 58.9525 377.759 48.8877 382.282C38.8375 386.761 27.3294 389.045 19.6406 397.3C12.4896 404.958 9.74009 415.247 8.61478 425.237C7.30677 437.653 7.84996 450.184 10.2279 462.452C12.2734 473.374 15.4554 485.351 24.3027 493.148C32.0302 499.943 42.7234 502.142 52.1916 497.365C61.4103 492.716 66.4271 483.881 69.6977 474.801C70.6401 472.192 71.782 469.801 74.016 467.979C76.25 466.158 79.0051 465.003 81.5828 463.719C86.2614 461.447 90.8311 458.976 95.2917 456.306C104.392 450.869 112.996 444.701 121.013 437.869C137.138 424.165 150.515 407.74 160.482 389.408C172.09 367.887 177.157 344.109 183.077 320.741L192.878 282.094C194.541 275.576 196.204 269.063 197.834 262.545C199.198 257.107 200.528 251.239 198.843 245.716C197.396 240.987 194.125 237.233 189.308 235.486C185.788 234.213 184.28 239.618 187.756 240.891C192.945 242.787 194.081 248.911 193.66 253.587C193.105 259.722 190.971 265.868 189.463 271.837L180.112 308.956C177.057 321.146 174.047 333.394 170.904 345.579C168.055 356.566 164.806 367.504 160.116 377.905C151.937 395.801 140.461 412.132 126.241 426.111C111.783 440.394 95.0588 451.481 76.6159 460.465C71.9151 462.76 67.946 465.594 65.773 470.344C63.7607 474.748 62.6077 479.275 59.8748 483.375C54.6584 491.198 45.3843 497.285 35.4837 493.867C24.5576 490.091 19.6794 478.811 17.1295 468.805C14.1279 456.94 12.896 444.726 13.4708 432.528C13.9143 422.601 15.3611 411.977 21.3425 403.579C27.7174 394.637 38.8929 391.911 48.7214 387.879C68.6057 379.731 83.2126 363.952 90.8846 344.711C94.9923 334.406 97.3261 323.58 99.7541 312.822C102.082 302.416 104.61 292.053 107.665 281.817C113.679 261.607 121.728 241.797 134.051 224.329C137.221 219.84 140.685 215.549 144.423 211.484C145.376 210.446 143.835 208.933 142.826 209.95Z" fill="#1A1C3F"/>
<path d="M209.985 166.709C185.771 176.654 163.969 191.319 145.958 209.776C138.968 216.95 132.477 224.847 129.007 234.082C125.536 243.316 125.442 254.132 130.764 262.514C138.187 274.23 154.296 278.421 168.426 276.557C182.556 274.693 195.389 267.999 208.294 262.179C221.199 256.358 235.191 251.208 249.354 252.779C267.903 254.84 284.206 268.159 302.859 267.382C314.295 266.908 324.717 261.119 334.146 254.883C358.798 238.587 381.759 215.378 384.093 186.717C384.331 183.825 384.32 180.79 382.984 178.196C379.253 170.911 368.571 171.273 360.139 171.763C336.303 173.094 312.898 166.438 289.494 161.852C266.09 157.267 240.84 154.993 219.132 164.467" fill="white"/>
<path d="M206.143 177C181.916 186.946 160.1 201.615 142.078 220.078C135.093 227.246 128.602 235.144 125.132 244.378C121.661 253.612 121.567 264.428 126.889 272.811C134.312 284.527 150.421 288.723 164.551 286.859C178.681 284.995 191.514 278.296 204.419 272.48C217.324 266.665 231.327 261.499 245.49 263.097C264.033 265.153 280.342 278.472 298.995 277.699C310.431 277.22 320.853 271.437 330.282 265.195C354.934 248.899 377.895 225.691 380.229 197.029C380.461 194.132 380.456 191.097 379.12 188.509C375.389 181.218 364.707 181.586 356.276 182.07C332.439 183.401 309.035 176.745 285.63 172.165C262.226 167.585 236.998 165.306 215.229 174.796" fill="#4747E2"/>
<path d="M129.805 263.039C137.073 274.116 150.87 279.228 164.114 278.808C181.642 278.275 197.125 269.371 212.702 262.671C221.111 259.061 230.025 255.871 239.26 255.035C247.919 254.252 256.085 256.062 264.128 259.007C278.901 264.423 293.281 272.289 309.645 269.126C318.005 267.528 325.721 263.491 332.794 259.066C339.392 254.95 345.705 250.426 351.692 245.523C363.211 236.065 373.577 224.632 380.124 211.414C383.412 204.898 385.631 197.934 386.704 190.767C387.685 183.934 387.813 176.388 381.377 171.984C376.088 168.357 368.86 168.336 362.64 168.618C353.601 169.113 344.535 168.848 335.544 167.825C300.72 163.565 264.998 148.712 229.665 158.095C225.597 159.192 221.628 160.603 217.796 162.313C214.742 163.66 217.397 167.868 220.413 166.616C252.11 153.436 287.3 164.486 319.207 170.786C327.692 172.541 336.283 173.786 344.929 174.514C352.607 175.084 360.184 174.365 367.845 174.556C373.744 174.705 380.434 176.074 381.033 182.789C381.621 189.42 379.559 196.678 377.225 202.85C372.358 215.733 363.366 226.884 353.183 236.326C347.839 241.281 342.153 245.883 336.165 250.103C329.823 254.561 323.177 258.96 315.876 261.819C308.575 264.679 300.842 265.643 293.087 264.083C285.814 262.618 278.968 259.694 272.138 256.973C265.309 254.252 258.28 251.605 250.868 250.609C242.753 249.544 234.543 250.567 226.715 252.739C210.34 257.325 195.972 266.586 179.851 271.826C166.625 276.113 150.915 277.087 138.863 269.163C135.967 267.27 133.513 264.818 131.657 261.963C130.914 260.834 129.04 261.878 129.783 263.028L129.805 263.039Z" fill="#1A1C3F"/>
<path d="M209.442 165.802C205.085 167.602 200.45 168.625 196.137 170.595C191.908 172.513 187.822 174.786 183.809 177.098C175.78 181.628 168.094 186.698 160.809 192.27C153.497 197.908 146.771 204.215 140.725 211.101C134.899 217.832 129.267 224.984 126.484 233.43C125.614 236.061 130.049 237.968 131.224 235.348C138.37 219.371 151.94 207.266 165.493 196.136C172.27 190.47 179.478 185.299 187.057 180.666C190.771 178.434 194.596 176.405 198.41 174.344C202.407 172.182 206.326 169.349 210.534 167.613C211.809 167.081 210.706 165.291 209.425 165.813L209.442 165.802Z" fill="#1A1C3F"/>
<path d="M246.981 490.565C209.607 499.549 167.799 488.994 139.86 463.539C124.4 449.469 112.814 427.395 121.761 408.83C129.599 392.566 149.373 385.931 165.615 377.101C178.365 370.178 189.69 361.183 200.744 351.992C250.609 310.509 296.037 264.346 336.352 214.19C346.247 201.883 355.876 189.261 363.155 175.367C370.156 162.006 375.162 147.222 385.955 136.438C403.921 118.475 435.075 116.585 457.892 128.423C504.107 152.388 513.187 207.528 492.294 250.238C483.513 268.185 469.993 282.59 459.677 299.483C449.796 315.724 438.898 331.374 427.043 346.347C399.143 381.495 367.551 413.724 335.022 444.942C315.819 463.39 280.896 480.623 254.964 488.398" fill="white"/>
<path d="M251.05 503.851C213.682 512.824 171.874 502.253 143.913 476.824C128.458 462.754 116.872 440.68 125.814 422.115C133.657 405.851 153.425 399.216 169.673 390.386C182.423 383.463 193.743 374.468 204.796 365.277C254.669 323.795 300.105 277.632 340.427 227.475C350.322 215.168 359.934 202.547 367.229 188.652C374.231 175.291 379.231 160.507 390.024 149.723C407.996 131.761 439.144 129.87 461.961 141.709C508.176 165.673 517.256 220.808 496.363 263.523C487.583 281.47 474.062 295.875 463.746 312.768C453.865 329.009 442.967 344.659 431.112 359.632C403.212 394.78 371.62 427.009 339.119 458.227C319.911 476.648 284.987 493.913 259.044 501.678" fill="#EAB642"/>
<path d="M318.32 418.366C324.473 416.955 331.341 417.072 336.425 413.451C342.068 409.419 343.631 400.979 339.751 395.344C339.839 399.967 337.334 406.054 332.589 405.287C327.843 404.52 327.6 397.794 329.817 393.672C332.513 388.743 336.819 384.801 342.073 382.451C338.653 377.195 330.011 378.127 324.955 381.972C319.9 385.817 316.773 391.595 311.956 395.701C306.307 400.531 298.225 402.768 290.891 401.09C283.557 399.413 277.221 393.672 275.536 386.595C274.305 381.402 275.486 375.944 277.559 371.002C281.004 362.841 286.788 355.787 294.239 350.658C298.58 347.681 303.663 345.184 306.224 340.7C308.785 336.216 306.834 328.984 301.512 328.606C304.544 331.487 300.082 337.031 295.969 335.864C291.856 334.698 290.32 329.5 291.811 325.661C293.302 321.821 296.883 319.137 300.437 316.868C303.99 314.6 307.787 312.432 310.182 309.04C314.916 302.33 312.682 293.319 310.271 285.549C309.212 282.125 307.416 278.094 303.718 277.684C308.015 284.074 307.327 293.207 302.111 298.985C294.904 306.942 280.708 308.513 276.794 318.37C274.2 324.904 277.498 332.163 277.243 339.139C277.082 342.636 276.04 346.042 274.205 349.065C272.37 352.088 269.798 354.638 266.711 356.495C262.348 359.062 257.082 360.164 253.113 363.264C244.515 369.979 245.407 382.494 245.429 393.134C245.429 405.074 243.212 417.408 236.272 427.308C229.331 437.208 216.975 444.163 204.658 442.565C192.34 440.968 181.73 429.06 184.208 417.354C185.666 410.431 190.971 404.898 196.038 399.78C201.104 394.663 206.387 389.082 207.767 382.127C209.148 375.171 204.713 366.683 197.357 366.246L192.684 358.604C184.141 365.426 175.277 371.88 165.615 377.126C149.373 385.945 129.583 392.57 121.761 408.855C112.798 427.393 124.383 449.488 139.861 463.537C167.816 488.993 209.624 499.537 246.998 490.564L255.003 488.38C277.177 481.75 305.936 468.143 325.809 452.833C325.809 451.975 325.809 451.113 325.737 450.25C321.036 453.259 315.914 455.969 310.299 456.55C304.683 457.13 298.474 455.155 295.514 450.532C292.188 445.308 293.851 438.374 297.177 433.144C301.935 425.745 309.528 420.438 318.32 418.366Z" fill="#EF6348"/>
<path d="M457.893 128.423C435.076 116.585 403.922 118.475 385.956 136.438C385.217 137.166 384.511 137.915 383.838 138.686C385.754 139.613 387.479 140.865 388.933 142.381C393.367 147.015 395.269 153.304 396.693 159.423C398.151 165.707 399.193 172.38 397.07 178.488C394.919 184.692 389.803 189.469 384.72 193.82C379.636 198.171 374.265 202.527 371.277 208.401C368.289 214.275 368.405 222.189 373.494 226.534C375.484 220.32 379.354 214.073 385.69 211.82C392.026 209.567 400.707 213.535 400.74 220.037C400.773 226.54 393.428 230.326 389.653 235.668C387.709 238.547 386.743 241.935 386.889 245.365C387.035 248.794 388.285 252.095 390.468 254.813C391.372 251.915 392.358 248.891 394.592 246.76C396.826 244.63 400.729 243.789 403.113 245.759C404.676 247.053 405.186 249.141 405.535 251.085C407.115 259.952 406.538 270.256 399.543 276.248C394.554 280.508 387.464 281.536 380.884 282.761C365.417 285.642 350.007 290.967 338.266 301.059C333.881 304.829 329.951 309.505 328.942 315.081C327.606 322.712 332.029 330.157 332.584 337.874C332.825 341.831 332.056 345.785 330.343 349.391C328.63 352.997 326.025 356.146 322.755 358.563C318.321 361.758 312.894 363.5 308.675 366.929C304.456 370.359 301.784 376.696 305.055 380.973C306.164 376.76 310.382 373.916 314.717 372.702C319.052 371.488 323.653 371.52 328.116 370.849C338.554 369.289 348.759 363.148 352.473 353.648C356.686 342.874 352.418 329.188 360.234 320.449C367.923 311.832 381.909 313.717 393.567 311.928C415.63 308.509 433.019 287.234 431.262 265.831C430.763 259.797 428.945 253.87 429.017 247.82C429.089 241.77 431.645 235.162 437.332 232.563C442.488 230.209 449.35 232.201 452.299 236.908C455.248 241.616 453.824 248.369 449.228 251.623C456.834 254.722 464.972 247.213 466.967 239.518C468.963 231.823 467.56 223.541 469.889 215.937C470.493 213.956 471.413 211.964 473.093 210.675C477.25 207.48 483.986 210.574 485.92 215.33C487.855 220.085 486.364 225.448 484.379 230.204C491.63 227.578 497.683 222.721 502.257 216.693C506.359 181.987 492.595 146.423 457.893 128.423Z" fill="#4747E2"/>
<path d="M246.692 489.565C211.769 496.1 173.913 488.186 146.423 465.984C133.274 455.333 121.073 439.889 121.129 422.645C121.184 405.402 135.431 395.257 149.788 387.849C157.36 383.94 165.143 380.393 172.427 376C180.898 370.861 188.791 364.886 196.441 358.687C212.229 345.906 227.485 332.491 242.33 318.714C271.969 291.217 299.793 261.972 325.642 231.147C338.392 215.917 351.402 200.489 361.508 183.458C370.677 168.014 375.594 149.082 389.408 136.594C401.287 125.847 418.355 122.05 434.271 123.813C450.064 125.575 464.532 133.484 475.647 144.204C496.584 164.398 503.63 194.514 498.646 222.099C495.769 238.007 489.006 252.454 479.849 265.917C474.411 273.905 468.446 281.558 462.952 289.514C457.231 297.795 452.215 306.508 446.627 314.874C423.605 349.325 395.555 380.51 366.38 410.242C359.148 417.592 351.825 424.877 344.412 432.098C337.887 438.489 331.49 445.018 324.245 450.652C310.187 461.585 294 470.122 277.586 477.311C270.032 480.706 262.267 483.651 254.337 486.13C251.36 487.025 252.635 491.536 255.628 490.63C273.099 485.386 289.879 478.218 305.636 469.27C313.624 464.778 321.254 459.722 328.463 454.146C335.975 448.288 342.616 441.407 349.401 434.777C380.089 404.757 409.93 373.603 435.717 339.542C442.292 330.861 448.539 321.966 454.46 312.856C460.131 304.154 465.408 295.282 471.495 286.809C482.349 271.733 493.591 257.029 499.766 239.476C509.401 211.965 507.776 179.97 491.451 155.063C474.233 128.829 440.939 112.075 408.749 120.873C400.856 122.992 393.544 126.75 387.329 131.881C380.333 137.739 375.322 145.423 371.203 153.321C366.719 161.916 363.038 170.895 358.187 179.299C353.043 188.235 346.995 196.654 340.653 204.834C315.004 237.948 286.505 269.182 256.393 298.562C241.526 313.065 226.189 327.089 210.383 340.633C194.712 354.075 178.874 367.639 160.221 377.166C145.963 384.446 129.205 391.012 120.896 405.237C111.893 420.638 117.209 438.915 127.032 452.633C137.254 466.943 152.593 477.865 168.868 485.118C185.343 492.43 203.358 495.974 221.498 495.471C230.229 495.251 238.892 493.937 247.269 491.562C248.616 491.173 248.051 489.299 246.715 489.555L246.692 489.565Z" fill="#1A1C3F"/>
<path d="M487.116 280.999C483.02 275.993 476.03 273.644 469.405 274.118C462.781 274.592 456.589 277.623 451.489 281.691C440.363 290.579 434.144 306.289 440.18 318.921C441.976 322.708 444.748 325.994 447.57 329.136C450.075 331.937 452.731 334.738 456.151 336.421C462.337 339.472 470.104 338.28 476.035 334.797C481.967 331.314 486.346 325.855 490.06 320.205C494.029 314.166 497.477 307.52 497.821 300.389C498.164 293.258 494.838 285.563 488.17 282.399" fill="#1A1C3F"/>
<path d="M488.214 280.388C479.117 268.869 463.169 270.6 452.121 278.455C441.793 285.799 434.421 298.303 435.679 310.903C436.333 317.422 439.376 322.891 443.584 327.945C448.019 333.27 453.046 338.846 460.43 340.06C475.575 342.552 486.673 330.149 493.524 318.923C497.593 312.261 500.881 304.545 499.955 296.69C499.201 290.299 495.703 283.349 489.234 280.713C486.856 279.744 484.86 282.715 487.161 284.127C498.031 290.8 496.74 303.661 491.523 313.454C486.263 323.327 477.665 335.47 464.915 335.997C458.363 336.263 453.872 332.769 449.776 328.259C445.851 323.945 442.109 319.349 440.735 313.656C438.273 303.437 443.207 292.472 450.713 285.325C459.66 276.836 476.451 271.431 486.191 281.858C487.138 282.87 489.062 281.496 488.186 280.383L488.214 280.388Z" fill="#1A1C3F"/>
<path d="M465.326 283.719C468.275 285.423 462.288 294.083 460.891 296.01C458.973 298.609 453.967 303.903 450.137 301.991L448.557 305.591C451.783 306.065 454.821 305.591 457.504 303.748C458.452 303.083 458.923 301.666 457.898 300.798C456.14 299.296 458.696 296.037 459.638 294.578C461.013 292.448 462.704 290.776 465.304 290.184L462.959 287.255C461.351 290.502 459.301 293.529 456.861 296.255L460.353 298.21C460.546 296.756 461.236 295.405 462.316 294.37C464.134 292.512 461.418 289.998 459.439 291.606C457.728 293.02 456.619 294.99 456.323 297.139C456.052 298.907 458.286 300.777 459.821 299.094C462.539 296.144 464.804 292.835 466.545 289.268C467.294 287.724 466.063 285.887 464.201 286.339C459.954 287.367 457.299 290.515 455.331 294.088C453.701 297.044 452.005 300.809 455.137 303.45L455.531 300.505C453.718 301.778 451.883 302.321 449.649 301.794C449.175 301.686 448.676 301.744 448.241 301.956C447.807 302.168 447.465 302.521 447.275 302.952C447.086 303.384 447.062 303.866 447.207 304.313C447.352 304.76 447.658 305.143 448.069 305.394C454.206 309.17 461.301 302.646 464.372 297.965C466.162 295.077 467.524 291.964 468.419 288.715C469.234 285.972 469.278 283.043 466.169 281.855C465.027 281.419 464.356 283.139 465.354 283.719H465.326Z" fill="#34C6A0"/>
<path d="M336.68 221.169C355.073 238.386 376.897 251.79 398.544 265.061L417.109 276.442C428.052 283.147 439 289.857 450.081 296.359C452.016 297.494 454.017 298.644 456.251 298.99C458.485 299.336 461.041 298.702 462.294 296.886C463.546 295.07 463.114 292.392 461.784 290.538C460.453 288.685 458.424 287.407 456.456 286.188L427.076 267.99C419.116 263.064 411.156 258.138 403.084 253.383C395.978 249.197 352.905 220.647 345.632 216.728C340.205 213.804 351.126 213.09 346.27 209.352C349.696 212.078 342.8 206.689 346.27 209.352C343.149 206.865 349.213 218.549 345.632 216.728" fill="white"/>
<path d="M334.273 225.126C352.666 242.349 374.491 255.747 396.144 269.018L414.703 280.399C425.651 287.109 436.594 293.819 447.675 300.316C449.61 301.451 451.611 302.601 453.845 302.979C456.079 303.357 458.634 302.691 459.887 300.849C461.14 299.006 460.708 296.354 459.377 294.495C458.047 292.637 456.051 291.369 454.05 290.145L424.67 271.947C416.71 267.021 408.755 262.095 400.684 257.345C393.571 253.154 350.505 224.604 343.226 220.685C337.799 217.766 348.72 217.047 343.864 213.309C347.289 216.035 340.393 210.646 343.864 213.309C340.743 210.827 346.807 222.506 343.226 220.685" fill="#DDEDE8"/>
<path d="M335.864 221.955C355.133 240.29 377.556 254.472 400.284 268.489C412.818 276.221 425.324 283.996 437.929 291.622C440.984 293.47 444.027 295.308 447.12 297.113C449.787 298.679 452.525 300.489 455.668 301.027C460.574 301.868 465.602 298.854 465.181 293.705C464.704 287.847 458.39 284.934 453.861 282.132L435.485 270.768C424.675 264.084 413.771 257.55 402.945 250.904C390.644 243.352 378.637 235.316 366.585 227.419C360.626 223.515 354.695 219.537 348.575 215.857C348.154 215.601 347.721 215.351 347.294 215.101C346.491 214.632 346.285 214.009 346.186 215.101C346.064 216.4 346.308 215.633 346.917 215.303C347.561 214.939 348.145 214.487 348.652 213.961C351.391 211.176 348.98 208.428 346.468 206.601C344.196 204.95 341.856 208.375 343.564 210.223C344.291 210.968 345.119 211.616 346.025 212.15C348.342 213.476 351.014 210.303 348.952 208.508C348.037 207.709 346.989 206.703 345.676 206.681C344.013 206.655 342.959 207.954 342.904 209.456C342.849 210.702 343.353 212.049 343.669 213.242C343.835 213.865 343.935 214.536 344.14 215.143C344.196 215.308 344.14 215.676 344.207 215.798C344.816 216.741 348.447 215.127 346.978 214.488C343.835 213.109 341.08 217.588 344.245 218.983C347.987 220.623 349.822 217.572 349.113 214.371C348.824 213.061 348.386 211.783 348.004 210.494C347.887 210.095 347.821 209.525 347.754 209.456C344.872 209.903 343.874 210.521 344.839 211.245C344.944 211.336 345.055 211.421 345.166 211.506C345.221 211.506 345.471 211.751 345.515 211.788L348.442 208.146C349.223 208.577 348.043 207.832 347.821 207.661C347.508 207.449 347.212 207.216 346.934 206.963L344.029 210.579C343.625 210.297 344.844 211.314 344.966 211.32C345.371 211.32 345.459 210.787 345.182 210.856C344.584 210.958 343.248 212.278 342.843 212.704C340.626 215.026 342.228 217.364 344.595 218.743C348.819 221.198 352.965 223.755 357.095 226.353C369.662 234.256 382.04 242.431 394.524 250.457C411.82 261.571 429.603 272.025 447.092 282.857C449.97 284.641 452.863 286.403 455.729 288.182C457.913 289.561 461.661 291.91 460.79 294.967C459.055 301.091 446.377 291.676 443.816 290.142C432.103 283.219 420.501 276.077 408.893 268.994C384.385 254.083 358.664 239.656 337.505 220.368C336.429 219.388 334.816 220.927 335.875 221.933L335.864 221.955Z" fill="#1A1C3F"/>
<path d="M347.616 185.156C343.525 180.15 336.53 177.796 329.911 178.276C323.292 178.755 317.094 181.78 311.994 185.849C300.863 194.737 294.643 210.442 300.68 223.074C302.493 226.86 305.248 230.151 308.07 233.314C310.575 236.116 313.236 238.911 316.656 240.6C322.837 243.651 330.604 242.458 336.541 238.975C342.478 235.493 346.851 230.034 350.56 224.384C354.529 218.345 357.977 211.698 358.321 204.562C358.664 197.426 355.338 189.741 348.67 186.578" fill="#1A1C3F"/>
<path d="M348.714 184.545C339.617 173.026 323.668 174.756 312.62 182.611C302.282 189.955 294.92 202.459 296.184 215.059C296.833 221.578 299.882 227.047 304.084 232.101C308.518 237.426 313.546 243.002 320.936 244.216C336.075 246.703 347.173 234.306 354.03 223.08C358.093 216.417 361.38 208.701 360.46 200.846C359.706 194.455 356.208 187.505 349.739 184.869C347.361 183.895 345.365 186.872 347.66 188.283C358.531 194.956 357.245 207.817 352.023 217.61C346.801 227.404 338.164 239.626 325.415 240.148C318.862 240.419 314.378 236.926 310.276 232.415C306.356 228.101 302.609 223.5 301.24 217.813C298.773 207.593 303.707 196.628 311.218 189.481C320.165 180.992 336.956 175.587 346.696 186.014C347.638 187.026 349.567 185.652 348.686 184.539L348.714 184.545Z" fill="#1A1C3F"/>
<path d="M325.826 187.869C328.78 189.578 322.788 198.237 321.391 200.165C319.467 202.764 314.462 208.058 310.631 206.146L309.051 209.746C312.283 210.22 315.321 209.746 318.004 207.898C318.952 207.237 319.423 205.821 318.398 204.953C316.635 203.451 319.19 200.192 320.133 198.733C321.513 196.603 323.198 194.93 325.798 194.339L323.453 191.41C321.847 194.658 319.796 197.684 317.355 200.41L320.848 202.365C321.034 200.91 321.723 199.558 322.805 198.525C324.623 196.666 321.912 194.153 319.928 195.761C318.208 197.181 317.094 199.161 316.801 201.321C316.524 203.084 318.763 204.958 320.293 203.275C323.01 200.324 325.275 197.016 327.018 193.45C327.766 191.905 326.535 190.068 324.673 190.516C320.432 191.549 317.777 194.696 315.803 198.269C314.174 201.225 312.477 204.99 315.609 207.632L316.008 204.681C314.19 205.959 312.355 206.503 310.121 205.97C309.645 205.859 309.143 205.914 308.706 206.126C308.268 206.338 307.923 206.692 307.733 207.126C307.543 207.56 307.52 208.045 307.668 208.494C307.816 208.943 308.126 209.326 308.541 209.575C314.678 213.346 321.779 206.827 324.845 202.12C326.638 199.235 328 196.123 328.891 192.875C329.706 190.132 329.756 187.203 326.641 186.016C325.499 185.579 324.828 187.299 325.826 187.874V187.869Z" fill="#34C6A0"/>
<path d="M358.892 433.223C354.795 428.212 347.805 425.863 341.153 426.342C334.501 426.822 328.336 429.841 323.236 433.915C314.145 441.174 308.374 452.299 309.971 463.786C312 478.377 326.047 491.43 341.979 488.549C357.445 485.758 368.859 466.715 369.596 452.629C369.967 445.498 366.614 437.803 359.945 434.645" fill="#1A1C3F"/>
<path d="M359.989 432.607C357.95 429.984 355.299 427.855 352.25 426.393C349.2 424.931 345.836 424.176 342.428 424.188C334.828 424.188 327.788 427.564 322 432.091C310.598 440.968 304.317 455.986 309.118 469.726C313.225 481.506 324.639 491.384 338.065 491.102C351.303 490.825 361.453 480.653 366.924 469.88C369.934 463.953 372.235 457.067 371.864 450.389C371.487 443.514 367.983 435.755 361.009 432.921C358.631 431.952 356.636 434.924 358.936 436.335C369.28 442.699 368.476 454.788 364.48 464.56C360.749 473.677 353.393 483.391 343.099 486.069C331.873 488.993 320.925 482.406 315.576 473.107C309.395 462.339 311.839 449.302 319.966 440.121C328.719 430.237 347.129 422.489 357.994 434.077C358.942 435.089 360.865 433.715 359.989 432.597V432.607Z" fill="#1A1C3F"/>
<path d="M337.095 435.938C340.05 437.643 334.063 446.307 332.661 448.23C330.743 450.834 325.737 456.127 321.906 454.21L320.327 457.815C323.553 458.289 326.591 457.815 329.274 455.967C330.222 455.307 330.693 453.89 329.667 453.017C327.91 451.521 330.465 448.261 331.408 446.802C332.783 444.672 334.468 442.995 337.073 442.409L334.728 439.474C333.122 442.722 331.072 445.749 328.631 448.474L332.123 450.429C332.316 448.976 333.007 447.625 334.085 446.589C335.904 444.731 333.187 442.222 331.208 443.825C329.497 445.241 328.388 447.213 328.093 449.364C327.821 451.127 330.055 453.001 331.585 451.318C334.304 448.37 336.57 445.063 338.315 441.498C339.058 439.954 337.833 438.111 335.97 438.564C331.724 439.592 329.069 442.739 327.101 446.318C325.471 449.273 323.775 453.038 326.907 455.68L327.3 452.73C325.487 454.008 323.647 454.546 321.419 454.018C320.944 453.911 320.446 453.968 320.011 454.18C319.576 454.392 319.234 454.745 319.045 455.177C318.855 455.608 318.831 456.09 318.977 456.537C319.122 456.984 319.427 457.367 319.839 457.618C325.975 461.394 333.071 454.876 336.142 450.163C337.933 447.277 339.295 444.165 340.189 440.918C341.004 438.175 341.048 435.246 337.938 434.058C336.796 433.622 336.12 435.342 337.118 435.917L337.095 435.938Z" fill="#34C6A0"/>
<path d="M208.454 373.395C226.847 390.617 248.666 404.016 270.319 417.287L288.884 428.668C299.826 435.378 310.775 442.088 321.856 448.59C323.79 449.719 325.786 450.87 328.026 451.221C330.265 451.573 332.815 450.934 334.068 449.091C335.321 447.248 334.888 444.596 333.558 442.738C332.228 440.879 330.199 439.612 328.225 438.387L298.845 420.195C290.885 415.269 282.924 410.343 274.853 405.587C267.747 401.396 224.674 372.846 217.401 368.932C211.974 366.008 222.895 365.29 218.039 361.551C221.465 364.278 214.568 358.888 218.039 361.551C214.918 359.069 220.982 370.748 217.401 368.932" fill="white"/>
<path d="M206.05 377.354C224.443 394.571 246.295 407.975 267.914 421.262L286.474 432.637C297.422 439.347 308.365 446.057 319.446 452.56C321.381 453.694 323.382 454.844 325.616 455.191C327.85 455.537 330.405 454.903 331.658 453.087C332.911 451.271 332.479 448.592 331.148 446.734C329.818 444.875 327.794 443.608 325.821 442.388L296.441 424.191C288.48 419.265 280.52 414.339 272.454 409.583C265.342 405.398 222.275 376.842 214.997 372.928C209.57 370.005 220.49 369.291 215.634 365.547C219.06 368.274 212.164 362.884 215.634 365.547C212.513 363.065 218.578 374.75 214.997 372.928" fill="#DDEDE8"/>
<path d="M207.641 374.177C226.893 392.508 249.333 406.7 272.061 420.732C284.595 428.465 297.101 436.24 309.707 443.866C312.761 445.709 315.804 447.546 318.898 449.357C321.564 450.923 324.302 452.733 327.446 453.271C332.351 454.112 337.374 451.098 336.958 445.949C336.481 440.091 330.167 437.172 325.638 434.376L307.273 422.996C296.463 416.312 285.559 409.773 274.728 403.127C262.427 395.58 250.425 387.539 238.368 379.636C232.409 375.732 226.478 371.754 220.358 368.08L219.077 367.318C218.273 366.855 218.068 366.253 217.969 367.318C217.847 368.618 218.09 367.851 218.7 367.521C219.345 367.159 219.93 366.706 220.435 366.178C223.174 363.399 220.762 360.645 218.251 358.824C215.978 357.173 213.639 360.597 215.346 362.44C216.071 363.189 216.899 363.84 217.808 364.373C220.125 365.699 222.797 362.525 220.735 360.725C219.82 359.932 218.772 358.925 217.459 358.904C215.796 358.904 214.742 360.171 214.687 361.673C214.631 362.925 215.136 364.267 215.452 365.46C215.613 366.083 215.718 366.759 215.923 367.366C215.978 367.526 215.923 367.899 215.99 368.021C216.599 368.958 220.23 367.345 218.761 366.711C215.618 365.326 212.863 369.81 216.028 371.2C219.77 372.846 221.605 369.789 220.895 366.594C220.607 365.284 220.169 364.006 219.787 362.712C219.67 362.318 219.604 361.748 219.537 361.673C216.647 362.124 215.675 362.722 216.621 363.468C216.727 363.558 216.838 363.644 216.949 363.729C217.004 363.729 217.253 363.974 217.298 364.011L220.225 360.363C221.006 360.794 219.826 360.054 219.604 359.884C219.291 359.672 218.995 359.439 218.717 359.186L215.807 362.802C215.402 362.52 216.621 363.532 216.743 363.537C217.148 363.537 217.237 363.005 216.96 363.079C216.361 363.18 215.025 364.501 214.62 364.922C212.403 367.249 214.005 369.587 216.372 370.961C220.596 373.421 224.743 375.977 228.872 378.576C241.439 386.479 253.818 394.648 266.302 402.674C283.597 413.788 301.38 424.242 318.87 435.079C321.747 436.863 324.641 438.626 327.501 440.405C329.718 441.779 333.438 444.133 332.568 447.189C330.833 453.308 318.155 443.898 315.594 442.365C303.88 435.441 292.278 428.295 280.67 421.212C256.163 406.301 230.441 391.874 209.282 372.585C208.207 371.605 206.593 373.144 207.652 374.151L207.641 374.177Z" fill="#1A1C3F"/>
<path d="M219.393 337.383C215.302 332.372 208.306 330.023 201.687 330.502C195.068 330.982 188.871 334.001 183.771 338.075C172.64 346.958 166.42 362.668 172.457 375.3C174.269 379.087 177.024 382.372 179.846 385.536C182.352 388.337 185.012 391.138 188.427 392.826C194.614 395.878 202.38 394.68 208.317 391.197C214.254 387.714 218.628 382.255 222.336 376.61C226.305 370.571 229.753 363.92 230.125 356.789C230.496 349.658 227.142 341.963 220.474 338.805" fill="#1A1C3F"/>
<path d="M220.49 336.766C211.371 325.253 195.445 327.005 184.397 334.838C174.07 342.177 166.697 354.681 167.955 367.281C168.609 373.805 171.658 379.269 175.86 384.323C180.295 389.675 185.323 395.224 192.712 396.438C207.851 398.93 218.949 386.533 225.806 375.301C229.87 368.644 233.157 360.922 232.231 353.073C231.483 346.682 227.985 339.732 221.516 337.096C219.138 336.127 217.142 339.099 219.437 340.51C230.308 347.188 229.022 360.044 223.8 369.837C218.539 379.711 209.941 391.853 197.191 392.38C190.639 392.652 186.154 389.153 182.052 384.642C178.133 380.328 174.386 375.733 173.011 370.04C170.55 359.825 175.483 348.86 183.017 341.708C191.964 333.219 208.755 327.814 218.495 338.247C219.443 339.253 221.372 337.879 220.49 336.766Z" fill="#1A1C3F"/>
<path d="M197.601 340.098C200.555 341.802 194.563 350.467 193.166 352.389C191.242 354.993 186.237 360.282 182.406 358.37L180.826 361.975C184.058 362.449 187.096 361.975 189.773 360.127C190.727 359.467 191.192 358.05 190.172 357.177C188.41 355.68 190.965 352.421 191.908 350.962C193.288 348.832 194.973 347.154 197.573 346.569L195.228 343.634C193.619 346.88 191.568 349.907 189.13 352.634L192.623 354.589C192.81 353.135 193.499 351.783 194.58 350.749C196.398 348.891 193.687 346.377 191.702 347.985C189.993 349.401 188.886 351.373 188.593 353.524C188.315 355.286 190.555 357.161 192.085 355.473C194.798 352.52 197.056 349.21 198.793 345.642C199.541 344.098 198.31 342.26 196.448 342.713C192.207 343.741 189.552 346.888 187.578 350.467C185.948 353.422 184.252 357.188 187.384 359.829L187.783 356.879C185.965 358.157 184.13 358.695 181.896 358.167C181.422 358.06 180.923 358.117 180.489 358.329C180.054 358.541 179.712 358.894 179.522 359.326C179.333 359.757 179.309 360.239 179.454 360.686C179.6 361.133 179.905 361.516 180.316 361.767C186.453 365.543 193.554 359.025 196.619 354.338C198.413 351.454 199.775 348.342 200.666 345.093C201.481 342.345 201.525 339.422 198.416 338.234C197.274 337.798 196.603 339.518 197.601 340.093V340.098Z" fill="#34C6A0"/>
<path d="M457.892 128.42C447.209 122.962 435.178 120.408 423.096 121.034C425.824 123.732 428.048 126.861 429.67 130.284C432.525 136.201 434 143.39 430.735 149.11C427.924 154.036 421.837 157.556 421.605 163.174C423.733 159.542 429.764 159.393 432.813 162.36C435.862 165.326 436.095 170.231 434.316 174.038C432.536 177.846 429.127 180.706 425.535 183.054C422.253 185.185 418.633 187.107 416.349 190.228C412.702 195.202 413.356 201.917 414.598 207.887C415.853 204.982 417.739 202.367 420.128 200.216C422.518 198.066 425.357 196.429 428.456 195.415C429.369 195.073 430.351 194.934 431.328 195.01C432.991 195.228 434.343 196.517 435.269 197.896C436.694 200.027 437.486 202.689 436.838 205.128C436.189 207.567 433.844 209.692 431.206 209.634C436.112 211.657 442.049 209.74 445.846 206.135C449.643 202.53 451.655 197.561 453.091 192.624C454.527 187.687 455.491 182.586 457.664 177.905C459.006 175.013 460.874 172.233 463.64 170.518C466.406 168.803 470.193 168.345 472.975 170.034C474.932 171.216 476.163 173.282 476.767 175.428C477.437 177.986 477.327 180.674 476.452 183.173C475.576 185.672 473.971 187.877 471.828 189.525C475.985 189.642 479.982 187.395 482.516 184.242C485.049 181.089 486.257 177.079 486.634 173.101C486.945 169.858 486.812 166.343 488.78 163.696C489.627 162.624 490.684 161.72 491.89 161.034C484.163 147.172 472.332 135.823 457.892 128.42Z" fill="#1A1C3F"/>
<path d="M285.536 474.032C285.242 473.18 284.782 472.259 283.901 471.96C282.665 471.545 281.462 472.551 280.436 473.329C279.008 474.486 277.214 475.143 275.347 475.193C269.626 475.118 267.099 467.695 268.906 462.481C270.713 457.267 275.004 453.119 276.905 447.942C278.806 442.766 276.667 435.316 270.962 434.906C274.488 436.466 273.025 442.431 269.244 443.267C265.463 444.103 261.699 441.041 260.53 437.483C259.36 433.926 260.075 430.081 260.807 426.422C255.125 428.845 255.33 436.44 255.169 442.399C254.864 453.875 249.504 465.266 240.324 472.61C231.144 479.954 218.189 482.947 206.692 479.842C200.55 478.18 194.552 474.453 192.407 468.659C190.611 463.834 191.747 458.327 189.818 453.55C187.229 447.16 178.731 443.645 172.107 446.276C168.415 447.745 165.455 452.613 168.354 455.27C169.812 451.228 176.558 450.824 179.158 454.296C181.758 457.768 180.106 463.125 176.386 465.479C167.201 471.215 155.848 462.023 152.483 453.95C149.257 446.217 151.008 437.18 155.77 430.608C159.396 425.597 163.487 420.458 164.113 414.387C164.739 408.316 160.016 401.286 153.697 401.909C157.854 404.492 157.023 411.42 152.721 413.764C148.42 416.107 142.488 414.078 139.788 410.089C137.089 406.1 137.227 400.786 139.096 396.381C140.537 392.978 142.887 390.028 145.526 387.328C135.548 392.717 126.484 399.044 121.761 408.816C112.798 427.392 124.383 449.487 139.861 463.535C167.816 488.991 209.624 499.536 246.998 490.562L255.003 488.379C265.677 485.101 276.086 481.073 286.146 476.327C285.998 475.549 285.795 474.782 285.536 474.032Z" fill="#1A1C3F"/>
<path d="M136.701 269.871C138.435 274.478 140.97 278.768 144.196 282.562C152.611 292.44 164.984 298.245 177.002 303.704C178.798 304.529 181.082 305.301 182.639 304.114C183.593 303.379 183.903 302.138 184.158 300.988L190.761 271.208C183.475 275.268 175.306 277.644 166.9 278.147C158.494 278.649 150.081 277.266 142.328 274.105" fill="#1A1C3F"/>
<path d="M135.725 270.122C139.943 286.237 155.681 295.834 170.094 302.917C173.237 304.461 176.946 306.991 180.627 306.991C184.629 306.991 185.937 303.753 186.652 300.563C188.809 290.977 190.915 281.391 193.044 271.805C193.471 269.893 191.414 268.173 189.54 269.217C175.682 276.934 158.353 278.121 143.574 272.024C143.27 271.866 142.934 271.772 142.589 271.746C142.245 271.721 141.898 271.764 141.572 271.875C141.246 271.985 140.947 272.159 140.695 272.386C140.442 272.614 140.242 272.889 140.107 273.195C139.972 273.5 139.904 273.83 139.909 274.162C139.913 274.494 139.99 274.822 140.133 275.124C140.277 275.426 140.485 275.696 140.743 275.917C141.002 276.138 141.305 276.305 141.634 276.406C149.723 279.598 158.466 280.966 167.191 280.407C175.917 279.847 184.392 277.375 191.968 273.179L188.459 270.591L183.243 294.215C182.788 296.27 182.373 298.337 181.879 300.382C181.696 301.138 181.635 302.192 180.643 302.453C180.056 302.608 178.681 301.953 178.182 301.75C174.972 300.462 171.818 298.938 168.703 297.447C162.394 294.433 156.169 291.057 150.831 286.573C145.049 281.732 140.997 275.874 137.576 269.377C137.022 268.37 135.448 269.079 135.725 270.122Z" fill="#1A1C3F"/>
<path d="M169.185 60.7864C176.741 63.0638 184.633 64.143 192.551 63.9816C197.8 63.8591 205.655 63.8112 206.465 57.3568C206.664 55.7591 203.743 55.365 203.516 56.9733C203.061 60.2006 199.475 60.5627 196.692 60.7331C193.765 60.9195 190.821 60.9621 187.889 60.8875C181.791 60.7223 175.72 60.0308 169.751 58.8213C169.486 58.768 169.211 58.8138 168.981 58.9493C168.75 59.0847 168.582 59.2996 168.512 59.55C168.441 59.8004 168.472 60.0673 168.6 60.2962C168.727 60.525 168.94 60.6985 169.196 60.781L169.185 60.7864Z" fill="#1A1C3F"/>
<path d="M169.674 59.5563C169.79 63.7368 169.707 67.4859 167.456 71.2723C165.821 74.0203 163.193 76.1451 164.319 79.5854C164.929 81.4599 168.016 80.6505 167.39 78.7706C166.725 76.7043 168.687 75.1067 169.735 73.509C170.688 72.0685 171.407 70.4973 171.869 68.8493C172.712 65.8031 172.95 62.251 171.708 59.2634C171.303 58.2942 169.64 58.3155 169.674 59.5297V59.5563Z" fill="#1A1C3F"/>
<path d="M161.081 78.4526C158.099 79.049 156.414 81.6798 156.646 84.5289C156.885 87.2289 159.352 90.7704 162.484 90.5254C162.869 90.4605 163.218 90.2672 163.47 89.9793C163.722 89.6915 163.86 89.3276 163.86 88.9517C163.86 88.5758 163.722 88.2119 163.47 87.9241C163.218 87.6363 162.869 87.4429 162.484 87.3781C160.97 87.2556 159.978 84.9124 159.884 83.7354C159.837 83.0361 159.999 82.3385 160.351 81.7245C160.702 81.1104 161.229 80.6054 161.868 80.2686C162.933 79.7041 162.184 78.2289 161.064 78.4526H161.081Z" fill="#1A1C3F"/>
<path d="M163.863 84.7294L164.689 85.2034C164.831 85.2824 164.988 85.3316 165.151 85.3477C165.313 85.3638 165.478 85.3465 165.633 85.2968C165.788 85.2471 165.931 85.1662 166.051 85.0595C166.171 84.9528 166.267 84.8228 166.33 84.678C166.394 84.5332 166.425 84.3771 166.421 84.2199C166.418 84.0627 166.379 83.9081 166.308 83.7664C166.237 83.6247 166.136 83.499 166.011 83.3979C165.885 83.2967 165.739 83.2224 165.582 83.1797L164.661 82.9081C164.418 82.8426 164.158 82.8646 163.931 82.97C163.704 83.0754 163.524 83.2569 163.426 83.4805C163.328 83.7041 163.318 83.9544 163.399 84.1843C163.479 84.4143 163.644 84.6081 163.863 84.7294Z" fill="#1A1C3F"/>
<path d="M162.539 76.879C166.386 75.2121 169.951 73.0021 173.731 71.2021C181.749 67.3958 190.606 65.5084 199.547 65.7009C200.044 65.6882 200.539 65.7604 201.01 65.9139C202.463 66.4464 202.812 68.2571 202.956 69.7589C203.029 70.1028 202.983 70.4602 202.823 70.776C202.474 71.3086 201.648 71.266 201.038 71.053C199.597 70.5204 198.471 69.4553 197.202 68.6405C195.933 67.8257 194.286 67.2186 192.884 67.8098C193.732 70.2062 192.795 72.9648 190.982 74.7914C189.17 76.6181 186.592 77.6246 184.003 78.0666C182.993 78.3058 181.934 78.2708 180.943 77.9654C179.591 77.4329 178.776 76.1494 177.95 74.9991C177.124 73.8488 176.021 72.6612 174.568 72.5973C174.001 72.6019 173.439 72.6973 172.905 72.8796C169.616 73.8383 166.41 75.0419 163.315 76.4796" fill="#1A1C3F"/>
<path d="M162.832 77.9036C169.352 75.4432 175.305 71.9604 182.035 69.9793C185.487 68.9546 189.038 68.2677 192.634 67.929C194.663 67.7426 201.986 66.4538 200.805 70.2456L201.764 69.042C201.265 69.4095 197.667 66.4965 196.908 66.1556C195.473 65.489 193.834 65.3525 192.301 65.7722C191.739 65.924 191.262 66.2825 190.974 66.7701C190.685 67.2576 190.609 67.8348 190.76 68.3763C191.625 71.8485 188.692 74.4314 185.533 75.4379C184.119 75.8852 182.362 76.4178 181.098 75.4379C180.084 74.6231 179.568 73.2491 178.626 72.3438C176.841 70.6237 174.673 70.4053 172.328 71.0071C168.861 71.986 165.497 73.2732 162.278 74.8521C159.966 75.9172 161.984 79.187 164.285 78.1539C166.617 77.0923 169.012 76.1641 171.458 75.374C172.461 75.0545 173.842 74.3622 174.884 74.9213C175.466 75.2302 175.993 76.1941 176.369 76.6947C178.315 79.2562 180.377 80.7367 183.82 80.3C190.472 79.4586 197.124 74.2716 194.995 67.2527L193.454 69.8568C196.171 69.0207 198.443 72.7432 201.121 73.1373C203.006 73.4195 204.741 72.4343 205.001 70.5544C205.222 68.6539 204.668 66.7451 203.455 65.229C201.736 63.3385 198.915 63.6314 196.553 63.7059C190.428 63.8983 184.381 65.0793 178.664 67.1994C172.683 69.4734 167.578 73.0574 161.962 75.9651C160.887 76.4977 161.63 78.3562 162.816 77.9036H162.832Z" fill="#1A1C3F"/>
<path d="M181.885 82.878C178.825 85.7804 181.713 87.9106 184.568 89.3484C186.99 90.568 191.425 93.3212 193.864 90.9461C195.405 89.4549 193.454 87.1117 191.569 88.0863C190.887 88.4325 188.038 87.0212 187.306 86.7443C185.954 86.2117 183.093 85.578 183.692 83.8739C184.047 82.862 182.622 82.1591 181.885 82.862V82.878Z" fill="#1A1C3F"/>
<path d="M188.51 130.158C166.073 129.089 144.077 123.774 123.785 114.517C120.12 112.839 116.368 110.997 112.31 110.864C102.986 110.555 96.1618 118.964 91.4443 126.696C85.7235 136.027 80.5459 145.937 78.8386 156.625C78.2233 160.433 78.1734 164.688 80.6568 167.713C82.1979 169.588 84.5039 170.711 86.7546 171.739C98.7777 177.248 111.327 181.626 124.228 184.813" fill="white"/>
<path d="M188.509 130.16C166.136 129.094 141.23 133.813 121.002 124.568C117.332 122.89 113.585 121.048 109.527 120.915C100.203 120.606 93.3788 129.015 88.6613 136.747C82.9682 146.088 77.8018 155.988 76.111 166.708C75.4957 170.516 75.4458 174.771 77.9293 177.796C79.4703 179.67 81.7764 180.794 84.027 181.822C96.0515 187.325 108.603 191.694 121.506 194.869" fill="#34C6A0"/>
<path d="M188.78 129.217C174.179 126.853 159.833 124.722 145.752 120.137C138.737 117.867 131.868 115.199 125.181 112.149C119.399 109.486 113.445 106.887 106.943 108.746C95.3018 112.074 88.683 124.919 83.6995 134.543C80.573 140.576 77.9232 146.914 76.5429 153.538C75.3788 159.13 74.7413 165.728 79.2038 170.212C81.6151 172.636 84.9966 173.94 88.112 175.309C91.7411 176.907 95.4183 178.407 99.1434 179.809C107.098 182.798 115.245 185.288 123.534 187.265C126.861 188.069 128.302 183.148 124.959 182.291C112.121 178.989 99.3596 174.728 87.4357 169.046C85.0521 167.912 82.7793 166.666 81.8424 164.125C80.8391 161.404 81.3712 158.214 81.92 155.461C83.1895 149.118 85.6341 143.069 88.6276 137.306C91.2219 132.311 94.0435 127.279 97.4693 122.763C100.441 118.843 104.437 114.774 109.587 113.8C115.641 112.628 121.677 116.638 126.988 118.854C132.803 121.306 138.767 123.415 144.849 125.17C158.746 129.132 173.974 132.013 188.526 131.113C189.59 131.049 189.989 129.398 188.797 129.201L188.78 129.217Z" fill="#1A1C3F"/>
<path d="M110.48 114.326C110.48 130.516 94.6423 149.309 83.4779 159.593C82.6297 160.376 81.5876 161.19 80.429 161.025C79.7133 160.841 79.0684 160.462 78.5719 159.933C65.6946 148.436 53.8483 142.828 50.4114 126.266C46.9745 109.704 51.7806 82.2244 56.2264 65.8858C57.8894 59.8787 59.9294 53.9355 60.5725 47.7793C61.476 39.152 59.6024 30.2053 62.1967 21.8975C63.006 19.3147 64.2976 16.7691 66.4762 15.065C67.3573 14.3527 68.39 13.8344 69.5019 13.5464C70.6137 13.2584 71.7777 13.2078 72.9121 13.3981C73.1012 13.4364 73.2801 13.5116 73.4378 13.6189C73.5954 13.7263 73.7285 13.8636 73.8288 14.0223C73.929 14.181 73.9944 14.3578 74.0207 14.5417C74.0471 14.7256 74.0339 14.9128 73.982 15.0916V15.1928C73.9002 15.4767 73.9175 15.7784 74.0312 16.052C74.1449 16.3255 74.3488 16.5557 74.6116 16.7073C74.8745 16.859 75.1818 16.9237 75.4866 16.8915C75.7913 16.8594 76.0768 16.7322 76.2991 16.5295C76.6772 16.1699 77.0771 15.8321 77.4965 15.5176C79.8525 13.7709 83.2561 13.0307 85.9059 14.1117C86.0969 14.1941 86.2664 14.3166 86.4017 14.4701C86.5371 14.6236 86.6349 14.8043 86.6881 14.9989C86.7413 15.1935 86.7484 15.397 86.709 15.5946C86.6695 15.7922 86.5845 15.9788 86.4602 16.1407C85.0753 17.9365 83.956 19.9079 83.1342 21.9987C83.0256 22.2753 83.0144 22.5785 83.1022 22.8618C83.19 23.1451 83.372 23.393 83.6203 23.5675C83.8686 23.742 84.1696 23.8336 84.4773 23.8283C84.7849 23.8229 85.0823 23.7209 85.3238 23.5378C86.8706 22.26 88.68 21.3092 90.6344 20.7472C93.6168 19.9751 97.2865 20.9017 98.9218 23.2555C99.0318 23.4172 99.1042 23.5998 99.134 23.7908C99.1639 23.9818 99.1504 24.1767 99.0946 24.3622C99.0388 24.5478 98.942 24.7196 98.8108 24.8659C98.6796 25.0122 98.517 25.1296 98.3342 25.21C95.7011 26.4135 93.129 27.8727 91.4659 30.1414C89.5313 32.8041 89.2929 36.8301 91.8152 38.9603C92.9516 39.9189 96.8042 35.5361 98.0127 36.3881C99.2025 37.2511 100.07 38.4602 100.487 39.8353C100.903 41.2104 100.846 42.678 100.324 44.0195C99.2156 46.6822 93.7942 53.2272 90.8506 52.8385C91.501 68.3675 92.2235 83.893 93.0181 99.4149C93.14 101.758 93.2731 104.139 94.0824 106.338C96.3552 112.553 103.229 115.871 109.488 118.587" fill="white"/>
<path d="M105.06 119.966C105.06 136.15 89.2221 154.949 78.0576 165.232C77.215 166.015 76.1729 166.83 75.0143 166.659C74.299 166.485 73.6519 166.115 73.1517 165.594C60.2744 154.097 48.4281 148.489 44.9967 131.927C41.5653 115.365 46.3604 87.8852 50.8118 71.5467C52.4471 65.5396 54.5092 59.5964 55.1578 53.4401C56.0614 44.8076 54.1821 35.8661 56.7765 27.5584C57.5858 24.9702 58.883 22.43 61.056 20.7258C61.9367 20.0129 62.9694 19.4942 64.0814 19.2062C65.1933 18.9182 66.3575 18.8679 67.4919 19.059C67.6818 19.0958 67.8617 19.1701 68.0202 19.2771C68.1788 19.3841 68.3125 19.5214 68.413 19.6806C68.5135 19.8397 68.5786 20.0171 68.6042 20.2015C68.6299 20.386 68.6154 20.5736 68.5618 20.7525V20.8536C68.476 21.1389 68.4908 21.4434 68.6038 21.7198C68.7167 21.9962 68.9215 22.229 69.1864 22.382C69.4512 22.535 69.7613 22.5997 70.0684 22.566C70.3755 22.5323 70.6624 22.4021 70.8845 22.1957C71.2632 21.8348 71.665 21.4968 72.0874 21.1838C74.4433 19.4371 77.847 18.6968 80.4912 19.7779C80.683 19.8595 80.8532 19.9816 80.9892 20.135C81.1251 20.2884 81.2234 20.4693 81.2767 20.6642C81.3299 20.8592 81.3368 21.0631 81.2968 21.2609C81.2568 21.4587 81.1709 21.6453 81.0456 21.8069C79.6656 23.6057 78.5466 25.5764 77.7195 27.6649C77.604 27.9453 77.589 28.2546 77.6768 28.5441C77.7646 28.8337 77.9501 29.0869 78.2043 29.2639C78.4584 29.4408 78.7666 29.5316 79.0803 29.5217C79.394 29.5118 79.6954 29.4019 79.9369 29.2093C81.4808 27.9305 83.2887 26.9795 85.2419 26.4188C88.2243 25.6466 91.894 26.5732 93.5571 28.927C93.6651 29.0888 93.736 29.2709 93.7648 29.4611C93.7936 29.6513 93.7797 29.8452 93.724 30.0298C93.6684 30.2144 93.5722 30.3855 93.4421 30.5314C93.3119 30.6774 93.1508 30.795 92.9695 30.8762C90.3308 32.085 87.7642 33.5389 86.0956 35.8129C84.1665 38.4756 83.9226 42.5016 86.4448 44.6318C87.5535 45.5904 91.4339 41.2076 92.6424 42.0543C93.8319 42.9187 94.6993 44.1287 95.1158 45.5046C95.5323 46.8804 95.4755 48.3486 94.954 49.691C93.8453 52.3537 88.4238 58.8987 85.4803 58.5047C86.127 74.0337 86.8514 89.5609 87.6533 105.086C87.7697 107.43 87.9028 109.805 88.7121 112.01C90.9904 118.23 97.8587 121.542 104.117 124.258" fill="#F7CEBF"/>
<path d="M67.3902 147.078C67.9445 140.688 75.3283 142.711 78.8706 138.983C80.2454 137.535 80.8607 135.65 81.5869 133.86C81.9527 132.966 82.3463 131.799 83.139 131.139C84.3087 130.164 86.2101 130.228 87.6514 130.037C89.7191 129.76 91.8366 129.137 93.3001 127.603C93.9707 126.881 94.4298 126 94.6305 125.052C94.8245 124.205 94.3423 122.656 94.7192 121.958C95.0962 121.26 97.3357 120.999 98.1062 120.547C98.928 120.043 99.6153 119.36 100.113 118.555C101.166 116.883 101.51 114.587 100.29 112.937C99.0708 111.286 96.2769 111.802 96.2381 114.002C96.2381 115.141 96.4709 116.079 95.2957 116.664C94.3478 117.144 93.1671 117.096 92.2136 117.644C90.2734 118.757 89.8964 120.658 89.9297 122.661C89.9297 124.184 89.7523 124.839 88.1226 125.324C86.923 125.573 85.7085 125.751 84.4861 125.856C83.3567 125.997 82.2697 126.36 81.293 126.923C80.3164 127.485 79.4709 128.235 78.8096 129.126C77.6178 130.798 77.2575 132.769 76.5091 134.622C75.4004 137.285 73.244 137.524 70.694 138.35C66.6751 139.67 64.0419 143.217 65.0841 147.35C65.4112 148.654 67.3015 148.266 67.3902 147.051V147.078Z" fill="#EF6348"/>
<path d="M75.6333 155.488C76.7863 152.426 78.9205 151.701 82.0249 151.227C83.9765 150.966 85.8016 150.148 87.2634 148.879C88.7148 147.544 89.7185 145.823 90.146 143.937C90.8611 141.125 91.3212 139.884 94.176 138.76C95.8113 138.116 97.5021 137.557 98.8048 136.337C100.435 134.788 100.357 132.892 101.144 130.975C102.042 128.797 104.553 127.673 106.1 125.958C107.647 124.243 108.55 122.315 108.256 120.1C107.813 116.772 102.946 117.341 103.483 120.718C103.838 122.954 100.207 124.914 98.9046 126.299C97.5668 127.742 96.6943 129.527 96.3934 131.438C95.6118 135.246 90.1016 134.974 87.851 137.946C86.5317 139.682 86.5926 141.673 86.0161 143.681C85.2179 146.418 83.0504 147.409 80.3507 147.942C76.5202 148.719 73.355 151.179 73.2773 155.179C73.2773 156.542 75.1898 156.659 75.6333 155.488Z" fill="#EF6348"/>
<path d="M56.9188 68.7176C58.5715 67.5864 60.4507 66.7973 62.4375 66.4003C64.4242 66.0034 66.4751 66.0073 68.4602 66.4117C69.0399 66.4926 69.5808 66.7395 70.0124 67.12C70.5667 67.6525 70.5667 68.4939 70.6 69.2502C70.6591 73.6632 70.6591 78.0815 70.6 82.5052C70.6318 82.9247 70.5497 83.3449 70.3616 83.7248C69.9938 84.1939 69.4659 84.5238 68.8704 84.6567C62.5066 86.8455 55.8434 89.6467 52.2734 95.1585C52.4165 86.8454 53.9494 78.6084 56.8135 70.7626" fill="#EF6348"/>
<path d="M57.5231 69.7308C59.5863 68.7023 61.8541 68.1086 64.1752 67.9894C65.1505 67.9237 66.1305 67.9792 67.0911 68.1545C68.5268 68.5326 68.3328 69.0864 68.4935 70.2847C68.7929 72.564 68.4935 75.1149 68.4492 77.4261C68.4492 78.8959 68.937 81.8889 67.8948 82.693C66.7307 83.5717 64.3637 83.9498 62.9557 84.5356C61.2497 85.221 59.5956 86.02 58.0054 86.9267C54.8851 88.6824 52.2396 91.1199 50.2834 94.0416L54.6516 95.1759C54.2636 87.0971 56.1095 78.9172 58.6761 71.2646C59.4301 69.0066 55.849 68.1225 55.0175 70.2953C51.9353 78.4007 50.7768 86.6338 49.9674 95.1759C49.7346 97.5936 53.1383 97.9717 54.3301 96.3155C57.4067 92.0552 62.1962 89.5469 67.1243 87.6617C68.8927 86.9853 71.3207 86.5646 72.3573 84.8445C73.5491 82.8687 72.9116 79.5989 72.9116 77.4261C72.9116 74.5983 73.0281 71.7012 72.7509 68.9054C72.5402 66.7752 71.6422 65.3213 69.4692 64.677C64.8404 63.3083 59.6019 64.9699 56.1095 67.9468C55.0452 68.8575 56.4033 70.3113 57.5619 69.7575L57.5231 69.7308Z" fill="#EF6348"/>
<path d="M79.2757 67.2512C80.8706 67.2318 82.462 67.3981 84.0153 67.7464C84.6417 67.9009 85.2848 68.0926 85.889 68.3056C86.3575 68.4433 86.8121 68.6215 87.2471 68.8382C87.9123 69.2802 88.001 69.2482 87.5132 68.737C87.9456 69.7754 89.5698 70.6169 90.49 69.4879L90.6342 69.3121C90.9234 69.0163 91.108 68.6403 91.1618 68.2377C91.2155 67.8351 91.1356 67.4265 90.9335 67.0701C89.8858 65.4725 87.4245 64.8547 85.5952 64.5831C83.3719 64.2256 81.089 64.4652 78.9985 65.2754C77.973 65.6748 78.0229 67.2245 79.2757 67.2352V67.2512Z" fill="#EF6348"/>
<path d="M80.3123 76.6638C81.9655 76.8667 83.5975 77.2052 85.1905 77.6757C86.4433 78.0804 87.1474 78.8846 88.2394 79.4917C88.5423 79.6511 88.8869 79.7224 89.2312 79.6969C89.5755 79.6714 89.9047 79.5502 90.1785 79.3481C90.4524 79.146 90.6591 78.8717 90.7735 78.5586C90.8878 78.2456 90.9049 77.9074 90.8226 77.5851C89.8969 73.6922 83.2614 74.097 80.2901 74.7467C79.3422 74.9544 79.2646 76.5147 80.2901 76.6638H80.3123Z" fill="#EF6348"/>
<path d="M81.2048 86.2452C82.5241 86.7351 83.8712 86.6126 85.0852 87.4061C86.2992 88.1996 87.4411 89.1422 88.6551 89.957L87.9567 87.4061L88.123 87.2624C86.7094 88.0612 87.1861 90.6493 89.021 90.4576C89.5894 90.4454 90.142 90.2752 90.612 89.9677C91.7816 89.1263 91.9258 87.5659 90.612 86.7724C89.1715 85.8186 87.6511 84.9814 86.0664 84.2694C84.4754 83.6251 83.1616 84.1257 81.5263 83.9659C80.0517 83.8274 80.0185 85.8351 81.2048 86.2771V86.2452Z" fill="#EF6348"/>
<path d="M109.189 114.327C108.851 124.813 102.781 134.538 96.395 142.701C93.1989 146.757 89.7286 150.607 86.0066 154.226C84.654 155.552 81.9045 159.178 79.859 158.129C78.8112 157.597 77.8578 156.372 76.9487 155.605C75.6958 154.54 74.4319 153.512 73.157 152.474C65.8951 146.562 58.1288 140.646 54.5754 131.853C50.8336 122.598 51.2993 111.968 52.1086 102.249C53.0279 91.7514 54.7716 81.3353 57.325 71.09C58.6332 65.7326 60.3406 60.471 61.5878 55.1136C63.0181 48.9787 63.0957 42.9183 62.9959 36.6609C62.9016 30.8029 62.5967 23.6454 66.1833 18.5543C66.9935 17.3158 68.1879 16.3528 69.5981 15.801C69.8254 15.7158 72.3698 15.2685 71.8543 14.6614C71.8441 15.0591 71.8071 15.4558 71.7434 15.849C71.7863 16.3108 71.9246 16.7598 72.1502 17.1697C72.3758 17.5795 72.6842 17.9421 73.0573 18.2361C73.4305 18.5302 73.861 18.7498 74.3235 18.8822C74.7861 19.0145 75.2715 19.0569 75.7513 19.007C78.2347 18.7141 79.6317 16.1898 82.2925 15.8117C83.0569 15.753 83.8258 15.7852 84.582 15.9075C83.8502 15.8436 85.9567 13.6868 83.9999 15.8649C82.8912 17.0845 82.1373 18.8312 81.4887 20.2904C80.6627 22.1277 80.5463 24.1567 82.4976 25.3922C84.8702 26.894 86.6386 24.9981 88.5954 23.9064C89.8963 23.0852 91.4128 22.6347 92.9691 22.607C93.7178 22.6263 94.4563 22.7779 95.1477 23.0543C95.5446 23.1736 95.9189 23.3534 96.2564 23.5869C96.8107 24.4709 97.1544 24.3857 97.2376 23.3259C94.8206 25.078 92.1265 25.8502 90.1254 28.22C87.3537 31.4632 86.0343 38.3384 90.6243 40.9372C92.2873 41.8958 94.0002 41.081 95.4748 40.1544C95.9349 39.8615 97.6921 39.0094 97.8418 38.6153L98.0414 38.5141C96.7257 38.1981 96.5317 38.3757 97.4593 39.0467C97.609 39.7709 98.2298 40.3621 98.3185 41.1769C98.5514 43.307 96.783 45.2881 95.4193 46.8005C94.4382 47.8656 92.5201 50.3047 90.8793 50.2408C90.1798 50.2464 89.5106 50.5158 89.0159 50.991C88.5213 51.4661 88.2409 52.109 88.2351 52.781C88.7894 67.2716 89.6653 81.7143 90.6853 96.1835C91.0677 101.685 91.0511 107.117 94.8484 111.627C98.3407 115.755 103.507 118.151 108.452 120.287C110.902 121.352 113.047 117.874 110.581 116.798C106.101 114.844 101.157 112.73 98.0414 108.927C94.2608 104.321 95.1255 97.4883 94.9592 91.9711C94.5601 78.9077 94.1111 65.8763 93.5179 52.8023L90.8793 55.3373C95.3639 55.481 99.1944 50.4751 101.318 47.2585C103.912 43.339 104.089 37.6727 99.7654 34.6904C98.058 33.5082 96.4837 33.9076 94.7763 34.9248C94.1443 35.2976 93.0357 35.8407 92.6033 36.3946L92.1931 36.6449C91.744 36.8899 92.0212 36.9218 93.019 36.7354C93.0689 36.6289 92.3982 34.9514 92.3871 34.7064C92.243 31.4046 95.2309 29.2052 97.9305 27.7833C100.148 26.6277 102.365 25.1579 100.996 22.3886C98.446 17.1963 90.6243 17.7342 86.378 20.1999C85.8536 20.4498 85.3669 20.7669 84.9312 21.1425L84.4877 21.478C85.1197 22.9336 85.5724 22.8644 85.8458 21.2703C86.561 19.8111 87.6308 18.6076 88.4125 17.1857C89.7484 14.7999 88.357 12.4993 85.7904 11.8069C83.0783 11.1608 80.2117 11.5321 77.7746 12.8454C77.2955 13.0999 76.8344 13.3846 76.3943 13.6975L75.9508 14.0277C75.0269 14.4324 75.0861 14.9649 76.1282 15.6253C76.9265 15.2525 75.7845 12.9626 75.4131 12.5046C73.7501 10.5555 70.3076 10.9868 68.1568 11.743C65.1966 12.8081 62.9515 15.1141 61.5546 17.7768C58.4503 23.6934 58.5057 30.6537 58.6166 37.1135C58.8248 44.385 57.9209 51.6465 55.9336 58.6657C52.517 70.2218 49.966 81.9981 48.3003 93.9042C46.8368 104.955 45.8113 116.719 48.328 127.705C50.8891 138.862 58.6498 146.498 67.4805 153.581C70.0194 155.621 72.5749 157.645 75.0473 159.754C77.4143 161.772 79.8202 164.392 83.2294 162.523C85.7017 161.165 87.7029 158.625 89.5932 156.617C91.8771 154.199 94.0594 151.694 96.14 149.103C104.073 139.256 111.872 127.188 111.822 114.306C111.822 112.676 109.245 112.708 109.195 114.306L109.189 114.327Z" fill="#1A1C3F"/>
<path d="M72.9961 28.0574C73.1403 23.797 75.3964 20.0692 78.6781 17.3106C80.3412 15.8993 78.1238 13.0129 76.2667 14.3123C71.505 17.6834 69.5592 22.8331 70.3686 28.3982C70.5847 29.8787 72.9518 29.4633 72.9961 28.0574Z" fill="#1A1C3F"/>
<path d="M82.6752 29.3824C82.2982 28.4558 83.4901 27.4013 84.1165 26.7836C84.9536 25.9581 86.0511 25.4203 86.6997 24.4457C87.6587 23.0078 86.0844 21.6126 84.6154 21.8362C82.8415 22.1025 81.2339 24.1049 80.3858 25.5108C79.5376 26.9167 79.0166 28.951 80.1419 30.4102C80.99 31.4753 83.2961 30.9428 82.6752 29.3824Z" fill="#1A1C3F"/>
<path d="M80.3245 45.2158C82.6638 41.0513 87.1595 40.098 91.7162 40.9075C94.8981 41.472 95.5689 36.9027 92.3094 36.6897H91.8881C89.7982 36.5513 88.9057 39.6507 90.7794 40.54L91.1619 40.7158L92.8803 36.7962C86.6052 35.5501 80.1804 38.33 78.0683 44.3371C77.6193 45.5992 79.6426 46.4087 80.2857 45.2424L80.3245 45.2158Z" fill="#1A1C3F"/>
<path d="M297.056 143.667C298.335 142.115 298.965 140.161 298.824 138.187C298.675 135.806 297.095 134.363 295.36 132.861C295.152 132.669 294.903 132.524 294.629 132.437C294.356 132.35 294.065 132.324 293.78 132.359C293.494 132.394 293.22 132.491 292.978 132.641C292.736 132.792 292.533 132.993 292.383 133.229L292.178 133.522C291.975 133.843 291.868 134.211 291.868 134.587C291.868 134.962 291.975 135.331 292.178 135.652C293.026 136.839 294.395 137.399 295.254 138.544C295.727 139.09 296 139.771 296.031 140.481C296.062 141.191 295.85 141.891 295.426 142.474C294.828 143.411 296.302 144.572 297.056 143.677V143.667Z" fill="#1A1C3F"/>
<path d="M85.946 100.749C88.9948 105.345 92.465 110.755 97.382 113.685C98.6348 114.43 100.348 112.902 99.4719 111.682C96.2346 107.166 91.3785 103.63 87.5757 99.5401C86.7941 98.704 85.314 99.7957 85.946 100.749Z" fill="#1A1C3F"/>
<path d="M134.872 182.151C142.732 176.618 149.211 169.472 153.836 161.233C156.161 157.172 157.996 152.869 159.307 148.409C160.66 143.659 161.68 138.125 159.606 133.45C158.697 131.399 155.726 132.97 156.097 134.866C157.76 143.733 154.595 153.319 150.26 161.169C146.121 168.634 140.393 175.179 133.447 180.378C132.41 181.16 133.796 182.913 134.872 182.151Z" fill="white"/>
<path d="M250.142 195.247C244.77 206.532 243.063 219.425 246.173 231.54C246.616 233.266 249.316 232.536 248.945 230.81C246.323 219.047 247.126 207.133 252.005 195.998C252.443 194.986 250.63 194.241 250.153 195.247H250.142Z" fill="white"/>
<path d="M233.545 199.412C231.667 206.53 231.143 213.917 231.998 221.214C232.187 222.812 234.798 222.785 234.581 221.214C233.593 214.128 233.95 206.929 235.635 199.966C235.951 198.661 233.888 198.107 233.545 199.433V199.412Z" fill="white"/>
<path d="M151.939 58.5223C156.097 53.6282 161.103 50.9229 167.04 48.4679C168.442 47.8874 167.422 45.8051 166.025 46.1619C159.783 47.6744 154.101 52.0679 150.182 56.8129C149.201 58.0004 150.919 59.7046 151.939 58.501V58.5223Z" fill="#34C6A0"/>
<path d="M125.497 12.8797C126.412 18.2052 127.288 23.5786 128.297 28.9094C128.579 30.3685 130.863 29.7401 130.614 28.2916C129.682 22.9661 128.613 17.6407 127.587 12.3152C127.332 10.9945 125.275 11.5643 125.497 12.8478V12.8797Z" fill="#34C6A0"/>
<path d="M162.288 1.57241C161.791 9.06265 160.735 16.509 159.129 23.8541C158.774 25.4518 161.385 26.1547 161.712 24.5358C163.265 16.9655 164.167 9.285 164.406 1.57241C164.445 0.251693 162.377 0.272995 162.288 1.57241Z" fill="#34C6A0"/>
<path d="M202.7 0.793037C200.427 9.3404 197.567 17.6694 194.557 25.9984C193.947 27.6813 196.685 28.3683 197.328 26.728C200.423 18.4422 202.965 9.97529 204.939 1.37884C205.272 -0.00578267 203.088 -0.596908 202.722 0.793037H202.7Z" fill="#34C6A0"/>
<path d="M237.84 20.1924C233.528 24.5334 229.51 29.1351 225.811 33.9694C224.73 35.3753 227.252 36.8451 228.278 35.354C231.61 30.524 235.283 25.9191 239.27 21.5717C240.129 20.6344 238.749 19.2818 237.84 20.1924Z" fill="#34C6A0"/>
<path d="M240.068 67.411C244.592 66.2509 248.769 64.0876 252.264 61.095C253.711 59.8169 251.61 57.8998 250.141 59.0554C246.98 61.6618 243.306 63.6305 239.336 64.8442C237.635 65.3394 238.344 67.8743 240.068 67.411Z" fill="#34C6A0"/>
<path d="M361.298 106.23C368.732 99.2326 376.82 93.2947 386.327 89.0876C395.939 84.8272 406.106 82.7822 416.605 81.9568C418.501 81.8077 418.567 79.0544 416.605 79.0704C395.645 79.2514 373.2 89.2793 359.569 104.569C358.554 105.703 360.156 107.301 361.298 106.23Z" fill="#34C6A0"/>
<path d="M353.111 84.8065C356.842 78.4782 361.904 72.9659 367.975 68.6208C374.046 64.2757 380.993 61.193 388.372 59.5691C390.08 59.1964 389.359 56.6508 387.652 57.0502C379.997 58.847 372.814 62.1527 366.56 66.7576C360.306 71.3625 355.116 77.1661 351.32 83.8C350.677 84.9237 352.429 85.9302 353.111 84.8065Z" fill="#34C6A0"/>
</svg>
