<svg width="72" height="72" viewBox="0 0 72 72" fill="none" xmlns="http://www.w3.org/2000/svg">
<path d="M9 54V19H20.602C27.8295 19 33.3452 21.1284 33.3452 27.6554C33.3452 30.8716 31.5859 34.1351 28.5903 35.223V35.4122C32.3467 36.3108 35.1521 39.0068 35.1521 43.6892C35.1521 50.7365 29.256 54 21.553 54H9ZM16.0373 33.2365H20.1265C24.5962 33.2365 26.4981 31.4865 26.4981 28.6486C26.4981 25.5743 24.4535 24.3919 20.2216 24.3919H16.0373V33.2365ZM16.0373 48.6081H20.9349C25.6898 48.6081 28.305 46.9054 28.305 43.3108C28.305 39.9054 25.7849 38.4392 20.9349 38.4392H16.0373V48.6081Z" fill="white"/>
<path d="M40.8896 54V19H62.477V24.8176H47.9269V32.9054H60.2421V38.8176H47.9269V48.1351H63V54H40.8896Z" fill="white"/>
</svg>
