<svg width="72" height="72" viewBox="0 0 72 72" fill="none" xmlns="http://www.w3.org/2000/svg">
<mask id="path-1-inside-1_1286_12435" fill="white">
<path fill-rule="evenodd" clip-rule="evenodd" d="M20.0928 50.239C15.2267 49.6054 11.4771 45.6226 11.4771 40.8037C11.4771 36.4988 14.4695 32.8611 18.5771 31.6824C19.6619 27.5437 23.5838 24.4782 28.2558 24.4782C29.2795 24.4782 30.2672 24.6254 31.197 24.8988C33.2271 22.9672 36.1355 21.7573 39.366 21.7573C44.8881 21.7573 49.4692 25.2926 50.3307 29.9248C55.6985 30.0909 60 34.5934 60 40.1234C60 45.2869 56.2498 49.5545 51.3832 50.2328V50.3268H21.4829C21.4732 50.3268 21.4634 50.3269 21.4537 50.3269C21.4439 50.3269 21.4342 50.3268 21.4244 50.3268H20.0928V50.239Z"/>
</mask>
<path d="M20.0928 50.239H22.5928V48.0434L20.4156 47.7599L20.0928 50.239ZM18.5771 31.6824L19.2666 34.0854L20.6345 33.6929L20.9954 32.3163L18.5771 31.6824ZM31.197 24.8988L30.4917 27.2973L31.8754 27.7042L32.9202 26.71L31.197 24.8988ZM50.3307 29.9248L47.8729 30.3819L48.241 32.3613L50.2534 32.4236L50.3307 29.9248ZM51.3832 50.2328L51.0381 47.7568L48.8832 48.0571V50.2328H51.3832ZM51.3832 50.3268V52.8268H53.8832V50.3268H51.3832ZM21.4829 50.3268L21.4829 47.8268L21.4761 47.8268L21.4829 50.3268ZM21.4244 50.3268L21.4313 47.8268H21.4244V50.3268ZM20.0928 50.3268H17.5928V52.8268H20.0928V50.3268ZM20.4156 47.7599C16.6882 47.2746 13.9771 44.2619 13.9771 40.8037H8.97705C8.97705 46.9832 13.7651 51.9363 19.77 52.7181L20.4156 47.7599ZM13.9771 40.8037C13.9771 37.7107 16.1349 34.9841 19.2666 34.0854L17.8875 29.2794C12.804 30.7381 8.97705 35.2869 8.97705 40.8037H13.9771ZM20.9954 32.3163C21.7809 29.3194 24.676 26.9782 28.2558 26.9782V21.9782C22.4917 21.9782 17.5429 25.768 16.1588 31.0485L20.9954 32.3163ZM28.2558 26.9782C29.0391 26.9782 29.7893 27.0907 30.4917 27.2973L31.9023 22.5004C30.7452 22.1601 29.52 21.9782 28.2558 21.9782V26.9782ZM32.9202 26.71C34.4702 25.2353 36.7554 24.2573 39.366 24.2573V19.2573C35.5156 19.2573 31.984 20.6992 29.4737 23.0876L32.9202 26.71ZM39.366 24.2573C43.8984 24.2573 47.2686 27.1331 47.8729 30.3819L52.7886 29.4677C51.6698 23.4521 45.8777 19.2573 39.366 19.2573V24.2573ZM50.2534 32.4236C54.225 32.5465 57.5 35.8974 57.5 40.1234H62.5C62.5 33.2895 57.1719 27.6353 50.4081 27.426L50.2534 32.4236ZM57.5 40.1234C57.5 44.0651 54.6441 47.2541 51.0381 47.7568L51.7283 52.7089C57.8556 51.8549 62.5 46.5086 62.5 40.1234H57.5ZM48.8832 50.2328V50.3268H53.8832V50.2328H48.8832ZM51.3832 47.8268H21.4829V52.8268H51.3832V47.8268ZM21.4761 47.8268C21.4686 47.8269 21.4612 47.8269 21.4537 47.8269V52.8269C21.4657 52.8269 21.4778 52.8268 21.4898 52.8268L21.4761 47.8268ZM21.4537 47.8269C21.4462 47.8269 21.4388 47.8269 21.4313 47.8268L21.4176 52.8268C21.4296 52.8268 21.4417 52.8269 21.4537 52.8269V47.8269ZM21.4244 47.8268H20.0928V52.8268H21.4244V47.8268ZM22.5928 50.3268V50.239H17.5928V50.3268H22.5928Z" fill="white" mask="url(#path-1-inside-1_1286_12435)"/>
</svg>
