<svg width="72" height="72" viewBox="0 0 72 72" fill="none" xmlns="http://www.w3.org/2000/svg">
<path fill-rule="evenodd" clip-rule="evenodd" d="M44.7777 47.3579L35.3963 47.3579C35.0489 47.3579 34.354 47.1494 34.354 46.3155C34.354 45.2732 34.354 44.752 35.3964 44.752L51.2926 44.752C53.2036 44.752 57.0256 43.6054 57.0256 39.0189L57.0256 32.5041C57.1125 30.5062 55.9832 26.5104 50.7714 26.5104L47.3836 26.5104L47.3836 31.9829C47.4705 33.5464 46.6539 36.7257 42.6929 36.9342L29.9238 36.9342L28.6209 36.9342C27.8391 36.9342 26.3276 37.7159 26.5361 40.8431L26.5361 50.7456C26.5361 52.4829 27.8391 56.9999 32.0086 56.9999L39.3052 56.9999C41.1294 56.9999 44.5693 55.6448 44.7777 51.2668L44.7777 47.3579ZM38.7838 50.2244C37.9202 50.2244 37.2202 50.9244 37.2202 51.7879C37.2202 52.6515 37.9202 53.3515 38.7838 53.3515C39.6473 53.3515 40.3473 52.6515 40.3473 51.7879C40.3473 50.9244 39.6473 50.2244 38.7838 50.2244Z" fill="white"/>
<path d="M44.7777 47.3579L45.2777 47.3579L45.2777 46.8579L44.7777 46.8579L44.7777 47.3579ZM57.0256 32.5041L56.5261 32.4824L56.5256 32.4932L56.5256 32.5041L57.0256 32.5041ZM50.7714 26.5104L50.7714 26.0104L50.7714 26.5104ZM47.3836 26.5104L47.3836 26.0104L46.8836 26.0104L46.8836 26.5104L47.3836 26.5104ZM47.3836 31.9829L46.8836 31.9829L46.8836 31.9968L46.8844 32.0106L47.3836 31.9829ZM42.6929 36.9342L42.6929 37.4342L42.7061 37.4342L42.7192 37.4335L42.6929 36.9342ZM26.5361 40.8431L27.0361 40.8431L27.0361 40.8264L27.035 40.8098L26.5361 40.8431ZM26.5361 50.7456L26.0361 50.7456L26.5361 50.7456ZM32.0086 56.9999L32.0086 56.4999L32.0086 56.9999ZM39.3052 56.9999L39.3052 57.4999L39.3052 56.9999ZM44.7777 51.2668L45.2772 51.2906L45.2777 51.2787L45.2777 51.2668L44.7777 51.2668ZM35.3963 47.8579L44.7777 47.8579L44.7777 46.8579L35.3963 46.8579L35.3963 47.8579ZM33.854 46.3155C33.854 46.8954 34.1068 47.3061 34.4527 47.5552C34.7731 47.7859 35.1426 47.8579 35.3963 47.8579L35.3963 46.8579C35.3026 46.8579 35.1509 46.8257 35.037 46.7437C34.9486 46.68 34.854 46.5695 34.854 46.3155L33.854 46.3155ZM35.3964 44.252C35.1016 44.252 34.8273 44.2876 34.5907 44.3928C34.3366 44.5057 34.1533 44.6867 34.0371 44.9193C33.9298 45.1338 33.8902 45.3711 33.872 45.59C33.8536 45.8105 33.854 46.0614 33.854 46.3155L34.854 46.3155C34.854 46.0485 34.8543 45.8434 34.8685 45.673C34.8829 45.501 34.9085 45.4125 34.9315 45.3665C34.9455 45.3384 34.9577 45.324 34.9968 45.3066C35.0533 45.2815 35.1699 45.252 35.3963 45.252L35.3964 44.252ZM51.2926 44.252L35.3964 44.252L35.3963 45.252L51.2926 45.252L51.2926 44.252ZM56.5256 39.0189C56.5256 41.1492 55.6492 42.4323 54.5836 43.1996C53.4924 43.9852 52.1681 44.252 51.2926 44.252L51.2926 45.252C52.3281 45.252 53.8702 44.9454 55.1679 44.0111C56.491 43.0585 57.5256 41.4751 57.5256 39.0189L56.5256 39.0189ZM56.5256 32.5041L56.5256 39.0189L57.5256 39.0189L57.5256 32.5041L56.5256 32.5041ZM50.7714 27.0104C53.2308 27.0104 54.6617 27.9435 55.4834 29.0552C56.3242 30.1927 56.5657 31.5714 56.5261 32.4824L57.5252 32.5258C57.5724 31.4389 57.2928 29.8207 56.2876 28.4608C55.2635 27.0752 53.5239 26.0104 50.7714 26.0104L50.7714 27.0104ZM47.3836 27.0104L50.7714 27.0104L50.7714 26.0104L47.3836 26.0104L47.3836 27.0104ZM47.8836 31.9829L47.8836 26.5104L46.8836 26.5104L46.8836 31.9829L47.8836 31.9829ZM42.7192 37.4335C44.8514 37.3213 46.1914 36.3969 46.9702 35.2471C47.7321 34.1222 47.931 32.8224 47.8828 31.9552L46.8844 32.0106C46.9231 32.7069 46.7571 33.7785 46.1423 34.6863C45.5443 35.5691 44.4954 36.3386 42.6666 36.4349L42.7192 37.4335ZM29.9238 37.4342L42.6929 37.4342L42.6929 36.4342L29.9238 36.4342L29.9238 37.4342ZM28.6209 37.4342L29.9238 37.4342L29.9238 36.4342L28.6209 36.4342L28.6209 37.4342ZM27.035 40.8098C26.936 39.3251 27.2506 38.4811 27.604 38.0202C27.9583 37.558 28.3845 37.4342 28.6209 37.4342L28.6209 36.4342C28.0754 36.4342 27.3551 36.7012 26.8103 37.4117C26.2647 38.1235 25.9277 39.234 26.0372 40.8763L27.035 40.8098ZM27.0361 50.7456L27.0361 40.8431L26.0361 40.8431L26.0361 50.7456L27.0361 50.7456ZM32.0086 56.4999C30.1401 56.4999 28.9139 55.501 28.132 54.258C27.3379 52.9956 27.0361 51.5252 27.0361 50.7456L26.0361 50.7456C26.0361 51.7034 26.3858 53.3601 27.2856 54.7905C28.1975 56.2403 29.7075 57.4999 32.0086 57.4999L32.0086 56.4999ZM39.3052 56.4999L32.0086 56.4999L32.0086 57.4999L39.3052 57.4999L39.3052 56.4999ZM44.2783 51.243C44.1809 53.2881 43.3374 54.5874 42.3361 55.3838C41.3171 56.1942 40.1129 56.4999 39.3052 56.4999L39.3052 57.4999C40.3216 57.4999 41.7495 57.128 42.9586 56.1664C44.1854 55.1907 45.1661 53.6235 45.2772 51.2906L44.2783 51.243ZM44.2777 47.3579L44.2777 51.2668L45.2777 51.2668L45.2777 47.3579L44.2777 47.3579ZM37.7202 51.7879C37.7202 51.2005 38.1964 50.7244 38.7838 50.7244L38.7838 49.7244C37.6441 49.7244 36.7202 50.6483 36.7202 51.7879L37.7202 51.7879ZM38.7838 52.8515C38.1964 52.8515 37.7202 52.3753 37.7202 51.7879L36.7202 51.7879C36.7202 52.9276 37.6441 53.8515 38.7838 53.8515L38.7838 52.8515ZM39.8473 51.7879C39.8473 52.3753 39.3712 52.8515 38.7838 52.8515L38.7838 53.8515C39.9234 53.8515 40.8473 52.9276 40.8473 51.7879L39.8473 51.7879ZM38.7838 50.7244C39.3712 50.7244 39.8473 51.2005 39.8473 51.7879L40.8473 51.7879C40.8473 50.6483 39.9234 49.7244 38.7838 49.7244L38.7838 50.7244Z" fill="white"/>
<path d="M26.7773 24.1652H26.2773V24.6652H26.7773V24.1652ZM14.5294 39.019L15.029 39.0407L15.0294 39.0299V39.019H14.5294ZM24.1714 45.0126V45.5126H24.6714V45.0126H24.1714ZM24.1714 39.5402H24.6714V39.5263L24.6707 39.5124L24.1714 39.5402ZM28.8621 34.5889V34.0889H28.849L28.8359 34.0896L28.8621 34.5889ZM45.0189 30.68H44.5189V30.6966L44.52 30.7133L45.0189 30.68ZM26.7773 20.2563L26.2779 20.2325L26.2773 20.2444V20.2563H26.7773ZM36.1587 23.6652H26.7773V24.6652H36.1587V23.6652ZM37.7011 25.2075C37.7011 24.6276 37.4482 24.2169 37.1023 23.9679C36.7819 23.7372 36.4124 23.6652 36.1587 23.6652V24.6652C36.2524 24.6652 36.4041 24.6974 36.518 24.7794C36.6064 24.8431 36.7011 24.9535 36.7011 25.2075H37.7011ZM36.1587 27.2711C36.4535 27.2711 36.7277 27.2355 36.9644 27.1303C37.2184 27.0174 37.4017 26.8364 37.518 26.6038C37.6253 26.3893 37.6648 26.152 37.6831 25.9331C37.7014 25.7126 37.7011 25.4617 37.7011 25.2075H36.7011C36.7011 25.4746 36.7007 25.6797 36.6865 25.8501C36.6722 26.0221 36.6466 26.1105 36.6236 26.1566C36.6095 26.1846 36.5974 26.1991 36.5583 26.2165C36.5018 26.2416 36.3851 26.2711 36.1587 26.2711V27.2711ZM20.2625 27.2711H36.1587V26.2711H20.2625V27.2711ZM15.0294 32.5042C15.0294 30.3739 15.9058 29.0907 16.9715 28.3235C18.0626 27.5379 19.387 27.2711 20.2625 27.2711V26.2711C19.227 26.2711 17.6848 26.5776 16.3872 27.5119C15.064 28.4646 14.0294 30.048 14.0294 32.5042H15.0294ZM15.0294 39.019V32.5042H14.0294V39.019H15.0294ZM20.7837 44.5126C18.3243 44.5126 16.8933 43.5796 16.0716 42.4678C15.2309 41.3304 14.9894 39.9517 15.029 39.0407L14.0299 38.9973C13.9826 40.0842 14.2623 41.7023 15.2674 43.0622C16.2916 44.4478 18.0312 45.5126 20.7837 45.5126V44.5126ZM24.1714 44.5126H20.7837V45.5126H24.1714V44.5126ZM23.6714 39.5402V45.0126H24.6714V39.5402H23.6714ZM28.8359 34.0896C26.7036 34.2018 25.3637 35.1262 24.5849 36.276C23.8229 37.4008 23.624 38.7006 23.6722 39.5679L24.6707 39.5124C24.632 38.8162 24.7979 37.7446 25.4128 36.8368C26.0108 35.9539 27.0596 35.1845 28.8884 35.0882L28.8359 34.0896ZM41.6312 34.0889H28.8621V35.0889H41.6312V34.0889ZM42.9342 34.0889H41.6312V35.0889H42.9342V34.0889ZM44.52 30.7133C44.619 32.198 44.3045 33.042 43.9511 33.5029C43.5968 33.9651 43.1705 34.0889 42.9342 34.0889V35.0889C43.4796 35.0889 44.2 34.8219 44.7447 34.1113C45.2904 33.3996 45.6273 32.2891 45.5178 30.6467L44.52 30.7133ZM44.5189 20.7774V30.68H45.5189V20.7774H44.5189ZM39.5465 15.0232C41.4149 15.0232 42.6412 16.0221 43.423 17.2651C44.2171 18.5275 44.5189 19.9979 44.5189 20.7774H45.5189C45.5189 19.8197 45.1692 18.163 44.2695 16.7326C43.3575 15.2828 41.8475 14.0232 39.5465 14.0232V15.0232ZM32.2498 15.0232H39.5465V14.0232H32.2498V15.0232ZM27.2768 20.28C27.3741 18.235 28.2176 16.9357 29.2189 16.1393C30.2379 15.3289 31.4421 15.0232 32.2498 15.0232V14.0232C31.2334 14.0232 29.8056 14.395 28.5965 15.3567C27.3697 16.3324 26.389 17.8996 26.2779 20.2325L27.2768 20.28ZM27.2773 24.1652V20.2563H26.2773V24.1652H27.2773ZM33.8348 19.7351C33.8348 20.3225 33.3587 20.7987 32.7713 20.7987V21.7987C33.911 21.7987 34.8348 20.8748 34.8348 19.7351H33.8348ZM32.7713 18.6716C33.3587 18.6716 33.8348 19.1478 33.8348 19.7351H34.8348C34.8348 18.5955 33.911 17.6716 32.7713 17.6716V18.6716ZM31.7077 19.7351C31.7077 19.1478 32.1839 18.6716 32.7713 18.6716V17.6716C31.6316 17.6716 30.7077 18.5955 30.7077 19.7351H31.7077ZM32.7713 20.7987C32.1839 20.7987 31.7077 20.3225 31.7077 19.7351H30.7077C30.7077 20.8748 31.6316 21.7987 32.7713 21.7987V20.7987Z" fill="white"/>
</svg>
