<svg width="72" height="72" viewBox="0 0 72 72" fill="none" xmlns="http://www.w3.org/2000/svg">
<path d="M36 40.6313C38.5577 40.6313 40.6312 38.5578 40.6312 36C40.6312 33.4423 38.5577 31.3688 36 31.3688C33.4422 31.3688 31.3687 33.4423 31.3687 36C31.3687 38.5578 33.4422 40.6313 36 40.6313Z" fill="white"/>
<path d="M53.5906 28.3625C52.6969 28.0375 51.7625 27.7125 50.7875 27.4282C51.0312 26.4532 51.2344 25.4781 51.3969 24.5438C52.25 19.1813 51.3156 15.4031 48.7156 13.9406C47.9437 13.4938 47.0906 13.2906 46.1156 13.2906C43.2719 13.2906 39.6562 15.4031 36 18.9375C32.3437 15.4031 28.7281 13.2906 25.8843 13.2906C24.9093 13.2906 24.0562 13.4938 23.2844 13.9406C20.6844 15.4438 19.75 19.2219 20.6031 24.5438C20.7656 25.4781 20.9687 26.4532 21.2125 27.4282C20.2375 27.7125 19.3031 27.9969 18.4094 28.3625C13.3312 30.3125 10.5687 32.9938 10.5687 36C10.5687 39.0063 13.3719 41.6875 18.4094 43.6375C19.3031 43.9625 20.2375 44.2875 21.2125 44.5719C20.9687 45.5469 20.7656 46.5219 20.6031 47.4563C19.75 52.8188 20.6844 56.5969 23.2844 58.0594C24.0562 58.5063 24.9093 58.7094 25.8843 58.7094C28.7687 58.7094 32.3844 56.5969 36 53.0625C39.6562 56.5969 43.2719 58.7094 46.1156 58.7094C47.0906 58.7094 47.9437 58.5063 48.7156 58.0594C51.3156 56.5563 52.25 52.7781 51.3969 47.4563C51.2344 46.5219 51.0312 45.5469 50.7875 44.5719C51.7625 44.2875 52.6969 44.0032 53.5906 43.6375C58.6687 41.6875 61.4312 39.0063 61.4312 36C61.4312 32.9938 58.6687 30.3125 53.5906 28.3625V28.3625ZM47.5781 15.9719C49.2437 16.9469 49.8125 19.9531 49.1219 24.2188C49 25.0719 48.7969 25.9656 48.5531 26.9C46.4406 26.4125 44.2062 26.0875 41.85 25.8844C40.4687 23.9344 39.0468 22.1875 37.625 20.6031C40.6312 17.6375 43.6781 15.6063 46.1562 15.6063C46.6843 15.6063 47.1718 15.7281 47.5781 15.9719V15.9719ZM43.0281 40.0625C42.2969 41.3625 41.4437 42.6625 40.55 43.9625C39.0468 44.0844 37.5437 44.125 36 44.125C34.4156 44.125 32.9125 44.0844 31.45 43.9625C30.5562 42.6625 29.7437 41.3625 29.0125 40.0625C28.2406 38.7219 27.5093 37.3407 26.8593 36C27.5093 34.6594 28.2406 33.2782 29.0125 31.9375C29.7437 30.6375 30.5969 29.3375 31.4906 28.0375C32.9937 27.9157 34.4968 27.875 36.0406 27.875C37.625 27.875 39.1281 27.9157 40.5906 28.0375C41.4844 29.3375 42.2969 30.6375 43.0281 31.9375C43.8 33.2782 44.5312 34.6594 45.1812 36C44.4906 37.3407 43.8 38.6813 43.0281 40.0625ZM46.4 38.7219C47.0093 40.1438 47.4969 41.525 47.9437 42.9063C46.5625 43.2313 45.1 43.475 43.5562 43.6782C44.0437 42.9063 44.5718 42.0938 45.0187 41.2407C45.5062 40.3875 45.9531 39.5344 46.4 38.7219ZM36 49.7313C35.025 48.675 34.0906 47.5375 33.1968 46.3594C34.1312 46.4 35.0656 46.4406 36 46.4406C36.9343 46.4406 37.8687 46.4 38.8031 46.3594C37.9094 47.5375 36.975 48.675 36 49.7313ZM28.4437 43.6375C26.9 43.4344 25.4375 43.1907 24.0562 42.8657C24.5031 41.525 24.9906 40.1031 25.6 38.6813C26.0469 39.4938 26.4937 40.3469 26.9812 41.1594C27.4687 42.0531 27.9562 42.825 28.4437 43.6375V43.6375ZM25.6 33.2781C24.9906 31.8563 24.5031 30.475 24.0562 29.0938C25.4375 28.7688 26.9 28.525 28.4437 28.3219C27.9562 29.0938 27.4281 29.9063 26.9812 30.7594C26.4937 31.6125 26.0469 32.4656 25.6 33.2781V33.2781ZM36 22.2688C36.975 23.325 37.9094 24.4625 38.8031 25.6406C37.8687 25.6 36.9343 25.5594 36 25.5594C35.0656 25.5594 34.1312 25.6 33.1968 25.6406C34.0906 24.4625 35.025 23.325 36 22.2688ZM45.0187 30.8L43.5562 28.3625C45.1 28.5656 46.5625 28.8094 47.9437 29.1344C47.4969 30.475 47.0093 31.8969 46.4 33.3188C45.9531 32.4657 45.5062 31.6125 45.0187 30.8ZM22.8781 24.2188C22.1875 19.9531 22.7562 16.9469 24.4218 15.9719C24.8281 15.7281 25.3156 15.6063 25.8437 15.6063C28.2812 15.6063 31.3281 17.5969 34.375 20.6031C32.9531 22.1469 31.5312 23.9344 30.15 25.8844C27.7937 26.0875 25.5594 26.4531 23.4469 26.9C23.2031 25.9656 23.0406 25.0719 22.8781 24.2188V24.2188ZM12.8437 36C12.8437 34.0907 15.1594 32.0594 19.2219 30.5563C20.0344 30.2313 20.9281 29.9469 21.8219 29.7032C22.4719 31.7344 23.2843 33.8875 24.2593 36.0406C23.2843 38.1938 22.4312 40.3063 21.8219 42.3375C16.2156 40.7125 12.8437 38.275 12.8437 36ZM24.4218 56.0282C22.7562 55.0532 22.1875 52.0469 22.8781 47.7813C23 46.9282 23.2031 46.0344 23.4469 45.1C25.5594 45.5875 27.7937 45.9125 30.15 46.1157C31.5312 48.0657 32.9531 49.8125 34.375 51.3969C31.3687 54.3625 28.3218 56.3938 25.8437 56.3938C25.3156 56.3938 24.8281 56.2719 24.4218 56.0282ZM49.1219 47.7813C49.8125 52.0469 49.2437 55.0532 47.5781 56.0282C47.1718 56.2719 46.6843 56.3938 46.1562 56.3938C43.7187 56.3938 40.6718 54.4032 37.625 51.3969C39.0468 49.8532 40.4687 48.0657 41.85 46.1157C44.2062 45.9125 46.4406 45.5469 48.5531 45.1C48.7969 46.0344 48.9594 46.9282 49.1219 47.7813V47.7813ZM52.7781 41.4438C51.9656 41.7688 51.0719 42.0532 50.1781 42.2969C49.5281 40.2657 48.7156 38.1125 47.7406 35.9594C48.7156 33.8063 49.5687 31.6938 50.1781 29.6625C55.7844 31.2875 59.1562 33.725 59.1562 36C59.1562 37.9094 56.8 39.9407 52.7781 41.4438Z" fill="white"/>
</svg>
