<svg width="72" height="72" viewBox="0 0 72 72" fill="none" xmlns="http://www.w3.org/2000/svg">
<path d="M55.6695 14.4911C54.9972 16.1039 54.1366 17.6315 53.1056 19.0421C48.5884 14.5274 42.4634 11.991 36.0769 11.9902C22.869 11.9902 12 22.8682 12 36.0907C11.9999 39.3559 12.6627 42.5871 13.9484 45.5884C15.234 48.5898 17.1157 51.2989 19.4794 53.5515L20.3674 54.339C24.7072 57.998 30.2001 60.0064 35.8766 60.0097C48.4343 60.0097 58.9905 50.1697 59.8845 37.6286C60.5411 31.4895 58.7404 23.7247 55.6695 14.4911V14.4911ZM22.9001 53.6887C22.7068 53.9269 22.4628 54.119 22.1858 54.2509C21.9089 54.3829 21.606 54.4514 21.2993 54.4515C20.1675 54.4515 19.2416 53.52 19.2416 52.3882C19.2416 51.2569 20.1735 50.3254 21.2993 50.3254C21.768 50.3254 22.2311 50.4877 22.5938 50.7881C23.4754 51.5006 23.613 52.8071 22.9001 53.6887ZM55.5697 46.4745C49.6286 54.3952 36.9398 51.7256 28.8038 52.107C28.8038 52.107 27.3593 52.1947 25.9084 52.4321C25.9084 52.4321 26.4521 52.2007 27.159 51.9319C32.8687 49.944 35.5703 49.5562 39.0409 47.7746C45.576 44.4487 52.0361 37.1719 53.3809 29.601C50.892 36.8842 43.3496 43.1422 36.477 45.6866C31.7681 47.4247 23.2628 49.1126 23.2628 49.1126L22.9189 48.9311C17.1281 46.1119 16.9526 33.5647 27.4777 29.5136C32.0869 27.738 36.4958 28.7134 41.4739 27.5254C46.7895 26.2627 52.9369 22.2739 55.4381 17.0726C58.2397 25.3939 61.6106 38.4221 55.5694 46.4745H55.5697Z" fill="white"/>
</svg>
