<svg width="501" height="501" viewBox="0 0 501 501" fill="none" xmlns="http://www.w3.org/2000/svg">
<path d="M123.913 200.771C125.506 184.047 119.319 167.474 119.57 150.671C119.492 150.173 119.585 149.664 119.832 149.225C120.079 148.786 120.467 148.443 120.932 148.251C130.81 142.208 141.634 137.871 152.951 135.42C153.578 135.211 154.258 135.232 154.87 135.48C155.276 135.754 155.601 136.131 155.812 136.572C165.4 152.805 172.409 170.428 176.588 188.812C176.929 190.315 177.245 191.928 176.694 193.371C176.248 194.538 175.286 195.43 174.309 196.217C170.486 199.268 165.971 201.332 161.163 202.228" fill="white"/>
<path d="M120.24 208.34C121.833 191.616 115.646 175.038 115.896 158.24C115.858 157.721 115.96 157.202 116.192 156.737C116.46 156.349 116.818 156.031 117.234 155.81C127.112 149.767 137.936 145.429 149.253 142.979C149.879 142.769 150.56 142.791 151.172 143.039C151.576 143.311 151.9 143.686 152.109 144.126C161.697 160.368 168.706 177.999 172.885 196.391C173.226 197.894 173.542 199.507 172.99 200.95C172.545 202.117 171.583 203.009 170.606 203.795C166.783 206.847 162.268 208.911 157.459 209.807" fill="#34C6A0"/>
<path d="M124.748 200.77C126.011 190.149 124.312 179.823 122.744 169.332C121.917 163.766 121.241 158.17 121.186 152.539C121.186 150.926 121.186 150.174 122.534 149.212C123.526 148.563 124.557 147.975 125.62 147.449C127.958 146.163 130.338 144.965 132.759 143.857C137.486 141.713 142.372 139.939 147.373 138.551C149.237 138.05 153.145 136.261 154.583 137.819C156.276 139.658 157.388 142.764 158.561 144.984C163.516 154.389 167.625 164.215 170.84 174.347C171.709 177.093 172.512 179.86 173.25 182.649C173.951 185.309 175.104 188.34 175.189 191.111C175.279 194.262 171.547 196.166 169.117 197.494C166.47 198.894 163.635 199.906 160.7 200.5C158.44 201.001 159.412 204.347 161.647 203.936C167.012 202.934 172.884 200.475 176.732 196.467C180.58 192.459 178.009 186.677 176.797 182.123C173.608 170.243 169.245 158.71 163.771 147.694C162.559 145.243 161.291 142.821 159.968 140.43C158.871 138.426 157.589 134.773 155.314 133.827C153.24 132.96 150.184 134.277 148.175 134.829C145.309 135.58 142.48 136.457 139.688 137.459C133.968 139.493 128.436 142.023 123.155 145.019C121.532 145.941 119.092 146.908 118.295 148.736C117.173 151.306 118.03 155.405 118.265 158.12C119.498 172.338 123.881 186.396 123.095 200.765C123.04 201.832 124.598 201.767 124.728 200.765L124.748 200.77Z" fill="#1A1C3F"/>
<path d="M256.011 191.233C253.506 189.624 253.005 186.223 252.719 183.242L248.581 136.173C248.25 132.41 247.95 128.452 249.493 125.005C251.597 120.291 256.637 117.641 261.517 115.987C273.12 112.11 285.61 111.979 297.844 112.225C301.462 112.3 305.359 112.485 308.25 114.63C311.406 116.954 312.679 121.017 313.601 124.83C317.794 142.205 318.611 160.196 319.067 178.061C319.167 181.774 319.197 185.722 317.248 188.878C315.084 192.385 311.001 194.123 307.168 195.651" fill="#1A1C3F"/>
<path d="M256.711 190.541C254.306 188.442 254.171 185.221 253.97 182.26C253.7 178.337 253.444 174.414 253.143 170.491C252.587 163.137 252.056 155.782 251.465 148.447C251.19 145.011 250.884 141.579 250.593 138.147C250.293 134.575 249.657 130.657 250.714 127.125C252.617 120.792 259.812 118.327 265.558 116.789C272.197 115.011 279.05 114.349 285.899 114.154C289.276 114.059 292.657 114.074 296.034 114.154C299.301 114.204 302.998 114.014 305.994 115.527C311.41 118.257 312.161 126.689 313.173 131.919C314.55 139.27 315.505 146.694 316.034 154.154C316.645 162.12 316.946 170.106 317.126 178.092C317.206 181.649 317.377 185.712 315.032 188.673C312.978 191.258 309.626 192.545 306.675 193.783C304.406 194.74 305.323 198.487 307.722 197.575C313.654 195.311 319.381 192.185 320.678 185.406C321.38 181.749 321.074 177.961 320.954 174.259C320.824 170.106 320.668 165.957 320.453 161.809C320.046 153.346 319.202 144.909 317.923 136.534C317.277 132.445 316.495 128.367 315.508 124.344C314.756 121.253 313.8 118.092 311.846 115.527C307.477 109.78 299.762 110.311 293.309 110.261C285.338 110.201 277.322 110.492 269.471 112C262.868 113.267 255.137 115.246 250.433 120.391C245.153 126.143 246.61 133.999 247.257 141.093C248.133 150.737 249.115 160.376 250.077 170.02C250.553 174.78 250.979 179.539 251.58 184.304C251.991 187.395 252.758 190.376 255.558 192.095C256.49 192.661 257.597 191.298 256.746 190.556L256.711 190.541Z" fill="#1A1C3F"/>
<path d="M210.817 191.935C194.858 192.814 178.864 192.814 162.906 191.935C161.057 191.835 159.168 191.714 157.445 191.028C152.65 189.129 150.506 183.588 149.429 178.543C147.88 171.172 147.497 163.603 148.297 156.113C148.527 153.949 148.918 151.654 150.376 150.036C151.653 148.613 153.547 147.942 155.386 147.396C166.062 144.205 177.3 143.478 188.422 142.767C204.9 141.71 221.433 140.657 237.911 141.765C241.873 142.03 246.177 142.571 248.968 145.397C251.322 147.777 252.074 151.264 252.65 154.56C253.889 161.447 254.798 168.378 255.375 175.352C255.551 177.451 255.701 179.58 255.275 181.639C254.393 185.918 251.102 189.385 247.289 191.524C243.477 193.663 239.158 194.665 234.9 195.647" fill="white"/>
<path d="M206.351 198.346C190.395 199.225 174.402 199.225 158.446 198.346C156.592 198.246 154.708 198.121 152.985 197.439C148.19 195.541 146.046 190 144.969 184.955C143.424 177.59 143.042 170.028 143.837 162.545C144.072 160.375 144.463 158.086 145.916 156.468C147.193 155.045 149.092 154.373 150.926 153.827C161.607 150.636 172.845 149.905 183.992 149.193C200.47 148.141 217.003 147.089 233.481 148.191C237.438 148.457 241.747 148.998 244.538 151.823C246.887 154.203 247.639 157.69 248.22 160.982C249.432 167.885 250.336 174.831 250.93 181.818C251.106 183.912 251.256 186.047 250.83 188.106C249.948 192.384 246.652 195.851 242.844 197.991C239.037 200.13 234.708 201.132 230.449 202.109" fill="#EF6348"/>
<path d="M210.815 191.007C202.001 191.321 193.183 191.375 184.362 191.168C180.02 191.064 175.695 190.897 171.386 190.667C167.378 190.451 162.519 190.772 158.691 189.459C151.852 187.11 150.885 176.644 150.334 170.642C149.96 166.589 149.917 162.512 150.204 158.452C150.49 154.555 150.825 151.173 154.919 149.74C162.849 146.965 171.522 146.078 179.843 145.421C188.466 144.735 197.113 144.229 205.755 143.818C214.492 143.402 223.245 143.192 231.992 143.518C235.735 143.658 239.703 143.603 243.34 144.605C247.348 145.712 249.182 148.528 250.083 152.43C251.085 156.829 251.642 161.398 252.183 165.877C252.724 170.356 253.631 175.321 253.255 179.905C252.498 189.174 241.647 191.749 234.307 193.548C231.521 194.234 232.704 198.432 235.484 197.831C243.195 196.168 251.907 193.633 255.97 186.188C258.079 182.33 257.889 178.217 257.473 173.968C257.012 169.179 256.411 164.404 255.67 159.645C254.437 151.739 253.37 143.077 244.437 140.607C240.429 139.51 236.091 139.53 231.987 139.379C226.707 139.184 221.426 139.184 216.146 139.309C206.101 139.545 196.071 140.206 186.046 140.862C176.351 141.499 166.567 142.26 157.138 144.75C153.591 145.687 149.693 146.729 147.759 150.156C145.825 153.583 145.901 158.382 145.815 162.205C145.635 170.181 146.226 179.88 150.294 186.969C152.298 190.476 155.47 192.861 159.483 193.447C164.833 194.224 170.475 193.948 175.87 194.003C187.527 194.094 199.174 193.715 210.81 192.866C211.982 192.781 212.007 190.972 210.81 191.012L210.815 191.007Z" fill="#1A1C3F"/>
<path d="M216.201 445.254C235.028 445.254 250.289 430.87 250.289 413.125C250.289 395.381 235.028 380.996 216.201 380.996C197.375 380.996 182.113 395.381 182.113 413.125C182.113 430.87 197.375 445.254 216.201 445.254Z" fill="#1A1C3F"/>
<path d="M247.177 413.127C247.037 425.502 238.685 436.319 227.052 440.317C214.858 444.51 200.885 441.248 192.262 431.544C188.276 427.02 185.865 421.326 185.39 415.315C184.914 409.304 186.401 403.301 189.627 398.207C196.391 387.566 209.797 382.316 222.072 384.62C235.95 387.226 247.017 398.703 247.177 413.127C247.217 417.135 253.45 417.135 253.404 413.127C253.234 397.982 243.144 385.046 229.031 380.061C214.732 374.991 197.668 379.059 187.643 390.582C177.819 401.855 176.15 418.488 184.251 431.223C192.538 444.249 208.365 450.417 223.385 447.756C240.123 444.75 253.214 430.332 253.404 413.187C253.45 409.114 247.217 409.114 247.177 413.127Z" fill="#1A1C3F"/>
<path d="M205.455 424.125C210.914 424.125 215.34 419.199 215.34 413.123C215.34 407.047 210.914 402.121 205.455 402.121C199.996 402.121 195.57 407.047 195.57 413.123C195.57 419.199 199.996 424.125 205.455 424.125Z" fill="#DDEDE8"/>
<path d="M420.766 445.254C439.592 445.254 454.854 430.87 454.854 413.125C454.854 395.381 439.592 380.996 420.766 380.996C401.939 380.996 386.678 395.381 386.678 413.125C386.678 430.87 401.939 445.254 420.766 445.254Z" fill="#1A1C3F"/>
<path d="M451.737 413.123C451.602 425.498 443.25 436.315 431.617 440.313C419.423 444.506 405.45 441.244 396.827 431.54C392.841 427.017 390.428 421.322 389.953 415.311C389.478 409.3 390.966 403.297 394.192 398.204C400.956 387.562 414.362 382.312 426.637 384.616C440.51 387.222 451.582 398.7 451.737 413.123C451.782 417.131 458.01 417.131 457.969 413.123C457.799 397.978 447.709 385.042 433.591 380.057C419.292 374.987 402.233 379.055 392.203 390.578C382.384 401.851 380.71 418.484 388.816 431.219C397.103 444.245 412.93 450.413 427.95 447.752C444.688 444.746 457.779 430.328 457.969 413.183C458.01 409.11 451.782 409.11 451.737 413.123Z" fill="#1A1C3F"/>
<path d="M410.018 424.125C415.477 424.125 419.902 419.199 419.902 413.123C419.902 407.047 415.477 402.121 410.018 402.121C404.558 402.121 400.133 407.047 400.133 413.123C400.133 419.199 404.558 424.125 410.018 424.125Z" fill="#DDEDE8"/>
<path d="M47.8359 413.011C48.1315 398.863 49.5293 377.39 52.0043 363.457C52.4501 360.952 53.0463 358.257 55.0103 356.648C58.2768 353.983 63.1365 355.807 67.3148 355.231C76.1625 354.013 79.4039 343.126 80.7967 334.309C86.5282 298.076 93.9847 262.171 103.166 226.594C105.01 219.46 107.134 211.965 112.45 206.859C116.894 202.596 122.996 200.577 128.958 199.014C162.901 190.081 309.719 191.654 344.784 193.287C355.485 193.788 366.953 194.56 375.385 201.163C383.125 207.225 386.762 217.015 389.884 226.338C401.205 260.164 410.487 294.637 417.679 329.574C418.626 334.189 419.658 339.053 422.819 342.545C428.701 349.058 438.972 348.056 447.303 350.782C456.988 353.923 464.217 362.38 468.29 371.708C472.363 381.037 473.726 402.906 475.044 413.001" fill="white"/>
<path d="M27.6406 413.011C27.9412 398.863 29.334 377.39 31.814 363.457C32.2548 360.952 32.856 358.257 34.82 356.648C38.0865 353.983 42.9462 355.807 47.1245 355.231C55.9672 354.013 59.2136 343.126 60.6064 334.309C66.3379 298.076 73.7944 262.171 82.9761 226.594C84.8147 219.46 86.944 211.965 92.2596 206.859C96.7035 202.596 102.781 200.577 108.763 199.014C142.71 190.081 289.528 191.654 324.593 193.287C335.295 193.788 346.758 194.56 355.194 201.163C362.935 207.225 366.572 217.015 369.693 226.338C381.015 260.163 390.295 294.637 397.484 329.574C398.436 334.189 399.488 339.053 402.629 342.545C408.511 349.058 418.776 348.056 427.113 350.782C436.797 353.923 444.022 362.38 448.1 371.708C452.178 381.037 453.536 402.906 454.853 413.001" fill="#DDEDE8"/>
<path d="M466.737 371.195L342.389 372.824C341.197 372.824 339.884 372.889 338.987 373.615C337.92 374.462 337.76 375.935 337.76 377.247C337.772 381.629 338.709 385.958 340.51 389.953C341.126 391.325 341.898 392.723 343.226 393.545C344.428 394.291 345.926 394.462 347.364 394.587C352.74 395.043 358.145 395.088 363.541 395.088C399.67 395.168 435.78 394.333 471.872 392.583" fill="#1A1C3F"/>
<path d="M466.737 370.199C427.795 369.498 388.797 370.525 349.854 370.991C347.53 370.991 345.21 371.036 342.89 371.071C341.252 371.101 339.498 371.121 338.106 372.108C335.235 374.112 335.926 378.621 336.327 381.587C336.828 385.284 337.855 389.337 339.884 392.518C341.858 395.625 344.894 396.156 348.311 396.421C357.83 397.158 367.434 396.877 376.963 396.847C386.743 396.81 396.519 396.707 406.292 396.537C428.165 396.131 450.009 394.968 471.873 394.497C474.323 394.442 474.288 390.535 471.873 390.715C454.042 392.033 436.096 392.348 418.221 392.749C400.345 393.15 382.434 393.345 364.533 393.32C360.235 393.32 355.931 393.32 351.638 393.105C349.689 393.014 347.58 393.07 345.676 392.604C343.291 392.028 342.344 389.983 341.528 387.859C340.842 386.093 340.324 384.266 339.979 382.403C339.654 380.62 339.028 377.944 339.589 376.146C340.295 373.906 343.471 374.548 345.375 374.523L352.339 374.422L406.056 373.661C426.287 373.375 446.527 373.085 466.737 372.188C467.003 372.188 467.258 372.082 467.446 371.894C467.634 371.707 467.739 371.452 467.739 371.186C467.739 370.92 467.634 370.665 467.446 370.477C467.258 370.289 467.003 370.184 466.737 370.184V370.199Z" fill="#1A1C3F"/>
<path d="M48.8482 413.009C49.5897 399.331 50.6919 385.669 52.5206 372.092C52.9464 368.921 53.3622 365.699 54.0686 362.573C54.3943 361.15 54.7901 359.527 55.8522 358.455C57.26 357.042 59.3592 357.042 61.2029 357.112C64.254 357.222 67.28 357.613 70.2209 356.521C72.5818 355.63 74.6587 354.119 76.2329 352.147C79.8401 347.744 81.4533 341.927 82.4503 336.421C83.9533 328.159 85.1657 319.843 86.6487 311.576C89.6714 294.653 93.0782 277.801 96.8691 261.02C98.7829 252.56 100.787 244.118 102.881 235.695C104.675 228.511 106.047 220.725 109.534 214.122C114.655 204.442 125.431 201.416 135.511 199.643C150.827 196.948 166.573 196.301 182.104 195.595C202.981 194.643 223.883 194.262 244.779 194.092C265.036 193.932 285.295 193.995 305.556 194.282C319.584 194.483 333.612 194.648 347.64 195.424C354.844 195.825 362.389 196.472 369.007 199.593C375.46 202.634 379.859 207.965 383.005 214.247C386.397 221.026 388.516 228.465 390.836 235.66C393.471 243.836 395.989 252.049 398.391 260.299C403.14 276.642 407.422 293.111 411.237 309.708C413.06 317.653 414.518 325.7 416.432 333.62C417.985 340.048 421.121 345.514 427.384 348.24C433.21 350.775 439.693 350.8 445.74 352.543C452.143 354.382 457.494 358.725 461.397 364.066C468.541 373.811 469.768 385.699 471.056 397.373C471.632 402.588 472.133 407.818 472.799 413.024C473.17 415.885 477.724 415.925 477.348 413.024C475.845 401.501 475.344 389.777 472.714 378.4C470.034 366.766 462.604 355.354 451.517 350.178C445.505 347.393 438.962 347.212 432.654 345.569C429.548 344.758 426.547 343.5 424.353 341.06C421.848 338.305 420.926 334.492 420.149 330.96C416.462 314.156 412.775 297.393 408.361 280.76C403.872 263.843 398.887 247.064 393.406 230.424C389.092 217.323 384.508 202.504 371.036 196.136C361.292 191.527 350.095 191.477 339.528 191.101C332.688 190.86 325.841 190.678 318.987 190.555C299.555 190.164 280.118 189.997 260.676 190.054C238.908 190.099 217.139 190.364 195.386 191.111C177.801 191.712 160.115 192.413 142.645 194.618C135.732 195.49 128.828 196.622 122.245 198.977C115.762 201.311 110.221 205.044 106.714 211.096C102.976 217.539 101.488 225.124 99.6997 232.258C95.3577 249.409 91.4232 266.653 87.8962 283.991C84.4443 300.955 81.6838 318.009 78.6878 335.053C77.7158 340.564 76.2279 347.263 71.789 351.085C66.6037 355.594 59.3442 350.98 54.0486 354.988C51.6488 356.807 50.7821 359.768 50.2711 362.603C49.72 365.659 49.3142 368.75 48.9384 371.832C48.0767 378.846 47.6208 385.96 47.2701 393.044C46.9394 399.692 46.7691 406.335 46.8192 412.994C46.8192 414.306 48.7781 414.291 48.8232 412.994L48.8482 413.009Z" fill="#1A1C3F"/>
<path d="M42.8164 413.011C43.117 398.863 44.5098 377.39 46.9897 363.457C47.4306 360.952 48.0318 358.257 49.9957 356.648C53.2623 353.983 58.122 355.807 62.3003 355.231C71.1429 354.013 74.3894 343.126 75.7822 334.309C81.5136 298.076 88.9702 262.171 98.1519 226.594C99.9905 219.46 102.12 211.965 107.435 206.859C111.879 202.596 117.981 200.577 123.938 199.014C157.886 190.081 193.577 191.654 228.647 193.287C239.349 193.788 250.812 194.56 259.248 201.163C266.989 207.225 270.626 217.015 273.747 226.338C285.069 260.163 294.349 294.637 301.538 329.574C302.49 334.189 303.542 339.053 306.683 342.545C312.565 349.058 322.83 348.056 331.167 350.782C340.851 353.923 348.076 362.38 352.154 371.708C356.232 381.037 357.59 402.906 358.907 413.001" fill="#EAB642"/>
<path d="M46.3986 369.647C48.96 369.457 51.5344 369.537 54.0789 369.888C54.5564 369.921 55.0195 370.065 55.4316 370.309C56.3484 370.945 56.3434 372.283 56.2182 373.39C55.6846 378.095 54.6775 382.735 53.2122 387.238C53.0633 387.832 52.7786 388.385 52.3805 388.851C51.9585 389.22 51.4659 389.499 50.9326 389.672L45.5469 391.782" fill="#EF6348"/>
<path d="M375.009 372.398L342.389 372.824C341.197 372.824 339.884 372.889 338.987 373.616C337.92 374.463 337.76 375.935 337.76 377.248C337.775 381.629 338.712 385.958 340.51 389.953C341.126 391.326 341.898 392.724 343.226 393.546C344.428 394.292 345.926 394.462 347.364 394.588C352.74 395.044 358.145 395.089 363.541 395.089C368.732 395.089 373.922 395.08 379.112 395.064C378.917 387.428 377.254 379.823 375.009 372.398Z" fill="white"/>
<path d="M389.884 226.347C343.792 224.543 297.504 224.914 251.367 224.808C232.793 224.762 214.22 224.775 195.646 224.849C172.6 224.959 133.362 219.533 121.232 245.535C116.914 254.788 115.857 266.797 114.244 276.842C111.533 293.706 110.521 310.75 108.863 327.734C108.567 330.74 108.282 333.866 109.153 336.752C111.273 343.766 120.496 344.768 126.633 344.873C136.242 345.013 145.892 345.124 155.516 344.993C243.645 343.811 331.776 342.565 419.909 341.256" fill="white"/>
<path d="M380.425 226.347C334.333 224.543 288.046 224.914 241.909 224.808C223.332 224.762 204.758 224.775 186.188 224.849C163.142 224.959 123.903 219.533 111.769 245.535C107.45 254.788 106.398 266.797 104.785 276.842C102.075 293.706 101.058 310.75 99.3993 327.734C99.1087 330.74 98.8182 333.866 99.6949 336.752C101.814 343.766 111.038 344.768 117.175 344.873C126.784 345.013 136.428 345.124 146.057 344.993C234.19 343.811 322.321 342.565 410.45 341.256" fill="#34C6A0"/>
<path d="M301.548 329.582C294.359 294.644 285.079 260.17 273.757 226.345L273.256 224.842C262.805 224.842 252.359 224.832 241.919 224.812C223.341 224.766 204.768 224.779 186.197 224.852C163.151 224.963 123.913 219.537 111.779 245.539C107.46 254.792 106.408 266.801 104.795 276.846C102.084 293.71 101.067 310.754 99.4091 327.738C99.1185 330.744 98.8279 333.87 99.7047 336.756C101.824 343.77 111.047 344.772 117.185 344.877C126.794 345.017 136.438 345.128 146.067 344.997C199.684 344.276 253.303 343.533 306.923 342.768C306.848 342.688 306.773 342.618 306.703 342.537C303.532 339.06 302.499 334.196 301.548 329.582Z" fill="#4747E2"/>
<path d="M23.9532 414.019C82.9609 415.326 141.969 415.687 200.992 415.912C230.325 416.028 259.674 416.413 289.007 415.942C318.681 415.487 348.351 415.532 378.025 415.597C394.361 415.634 410.698 415.634 427.038 415.597C443.686 415.597 460.414 416.098 477.048 415.477C480.254 415.361 480.264 410.607 477.048 410.467C462.238 409.93 447.358 410.371 432.539 410.356C417.719 410.341 402.864 410.311 388.03 410.356C358.691 410.416 329.348 410.652 300.009 410.201C270.671 409.75 241.337 409.905 211.994 410.021C182.319 410.131 152.645 410.141 122.976 410.411C89.9666 410.712 56.959 411.226 23.9532 411.955C23.6874 411.955 23.4326 412.06 23.2447 412.248C23.0567 412.436 22.9512 412.691 22.9512 412.957C22.9512 413.222 23.0567 413.477 23.2447 413.665C23.4326 413.853 23.6874 413.959 23.9532 413.959V414.019Z" fill="#1A1C3F"/>
<path d="M197.159 225.721C196.242 245.26 196.458 264.879 196.357 284.443C196.302 294.068 196.157 303.687 196.007 313.311C195.926 318.286 195.846 323.261 195.836 328.241C195.836 333.01 195.41 337.97 196.082 342.7C196.347 344.593 199.639 344.593 199.904 342.7C200.571 337.975 200.165 333.01 200.15 328.241C200.15 323.261 200.06 318.286 199.98 313.311C199.829 303.687 199.684 294.068 199.629 284.443C199.524 264.904 199.744 245.27 198.827 225.721C198.811 225.511 198.716 225.315 198.561 225.172C198.407 225.029 198.204 224.949 197.993 224.949C197.782 224.949 197.579 225.029 197.425 225.172C197.27 225.315 197.175 225.511 197.159 225.721Z" fill="#1A1C3F"/>
<path d="M43.8328 413.008C44.3989 403.489 45.0803 393.97 46.1073 384.451C46.6083 379.667 47.1093 374.877 47.8207 370.118C48.3217 366.651 48.3217 360.038 51.5782 357.903C53.5271 356.626 56.3127 357.132 58.492 357.237C60.6714 357.342 62.8357 357.307 64.9149 356.606C68.3868 355.433 71.0471 352.793 72.9309 349.702C77.6453 341.886 78.1262 331.952 79.6042 323.179C83.5888 299.602 88.3032 276.167 93.7474 252.874C96.3476 241.757 98.577 230.264 102.299 219.457C103.893 214.828 106.197 210.339 110.055 207.193C113.913 204.046 118.923 202.418 123.707 201.125C146.092 195.073 169.448 193.786 192.535 194.026C204.118 194.147 215.686 194.663 227.254 195.199C237.084 195.655 247.795 195.935 256.312 201.476C264.654 206.897 268.406 216.747 271.452 225.76C275.21 236.872 278.717 248.061 281.973 259.327C288.606 282.039 294.326 304.996 299.132 328.199C300.084 332.798 300.866 337.718 303.456 341.726C305.791 345.343 309.318 347.653 313.346 349.011C317.579 350.438 322.068 350.824 326.427 351.731C330.815 352.559 334.956 354.377 338.536 357.047C352.809 367.993 353.706 386.425 355.49 402.803C355.856 406.21 356.206 409.617 356.642 413.018C357.008 415.879 361.567 415.919 361.191 413.018C360.164 405.002 359.573 396.986 358.431 389.01C357.288 381.035 355.876 373.289 351.873 366.27C347.364 358.394 340.5 351.591 331.742 348.735C323.586 346.085 311.622 347.478 306.692 338.981C304.012 334.351 303.466 328.46 302.369 323.314C301.116 317.453 299.805 311.608 298.436 305.779C295.657 293.946 292.638 282.172 289.378 270.459C286.075 258.592 282.526 246.795 278.732 235.068C275.62 225.449 272.875 214.968 266.973 206.601C261.207 198.43 252.665 194.197 242.95 192.613C232.028 190.835 220.691 190.915 209.654 190.519C186.107 189.668 162.399 189.698 139.123 193.726C133.308 194.711 127.546 195.987 121.859 197.548C117.069 198.881 112.259 200.604 108.256 203.62C100.105 209.748 97.7704 220.068 95.3807 229.427C89.2751 253.385 83.9462 277.526 79.3937 301.851C77.2294 313.425 75.6863 325.153 73.3817 336.691C72.5701 340.699 71.4429 344.812 69.1934 348.284C66.6283 352.252 63.1112 353.57 58.5071 353.344C54.1934 353.129 49.5341 353.039 46.9841 357.212C44.8247 360.764 44.6795 365.634 44.1534 369.657C42.8558 379.562 42.2646 389.526 41.934 399.506C41.7887 404.015 41.7336 408.524 41.8037 413.033C41.8037 414.346 43.7576 414.331 43.8077 413.033L43.8328 413.008Z" fill="#1A1C3F"/>
<path d="M99.1076 445.254C117.934 445.254 133.196 430.87 133.196 413.125C133.196 395.381 117.934 380.996 99.1076 380.996C80.2813 380.996 65.0195 395.381 65.0195 413.125C65.0195 430.87 80.2813 445.254 99.1076 445.254Z" fill="#1A1C3F"/>
<path d="M130.085 413.123C129.945 425.498 121.593 436.315 109.96 440.313C97.7707 444.506 83.7928 441.244 75.1706 431.54C71.1845 427.016 68.7734 421.321 68.2991 415.31C67.8249 409.299 69.3131 403.297 72.5404 398.204C79.2989 387.562 92.7056 382.312 104.98 384.616C118.858 387.222 129.925 398.7 130.085 413.123C130.125 417.131 136.358 417.131 136.313 413.123C136.147 397.978 126.052 385.042 111.939 380.057C97.6405 374.987 80.5764 379.055 70.5514 390.578C60.7268 401.851 59.0585 418.484 67.1596 431.219C75.4512 444.245 91.2728 450.413 106.293 447.752C123.031 444.746 136.122 430.328 136.313 413.183C136.358 409.11 130.125 409.11 130.085 413.123Z" fill="#1A1C3F"/>
<path d="M88.3613 424.125C93.8205 424.125 98.246 419.199 98.246 413.123C98.246 407.047 93.8205 402.121 88.3613 402.121C82.9021 402.121 78.4766 407.047 78.4766 413.123C78.4766 419.199 82.9021 424.125 88.3613 424.125Z" fill="#DDEDE8"/>
<path d="M303.672 445.254C322.498 445.254 337.76 430.87 337.76 413.125C337.76 395.381 322.498 380.996 303.672 380.996C284.846 380.996 269.584 395.381 269.584 413.125C269.584 430.87 284.846 445.254 303.672 445.254Z" fill="#1A1C3F"/>
<path d="M334.669 413.123C334.533 425.498 326.182 436.315 314.549 440.313C302.354 444.506 288.381 441.244 279.759 431.54C275.773 427.016 273.361 421.322 272.886 415.311C272.411 409.3 273.898 403.298 277.124 398.204C283.887 387.562 297.294 382.312 309.569 384.616C323.446 387.222 334.513 398.7 334.669 413.123C334.714 417.131 340.941 417.131 340.901 413.123C340.731 397.978 330.641 385.042 316.527 380.057C302.224 374.987 285.165 379.055 275.135 390.578C265.315 401.851 263.642 418.484 271.748 431.219C280.035 444.245 295.861 450.413 310.881 447.752C327.62 444.746 340.711 430.328 340.901 413.183C340.916 409.11 334.669 409.11 334.669 413.123Z" fill="#1A1C3F"/>
<path d="M292.924 424.125C298.383 424.125 302.809 419.199 302.809 413.123C302.809 407.047 298.383 402.121 292.924 402.121C287.465 402.121 283.039 407.047 283.039 413.123C283.039 419.199 287.465 424.125 292.924 424.125Z" fill="#DDEDE8"/>
<path d="M375.008 369.281L346.346 369.657C342.543 369.707 337.629 369.086 335.504 373.069C333.826 376.215 334.698 380.804 335.369 384.131C336.096 387.723 337.333 392.002 339.878 394.757C342.729 397.859 347.288 397.763 351.171 397.959C360.464 398.435 369.818 398.219 379.121 398.174C379.944 398.166 380.731 397.836 381.313 397.254C381.895 396.672 382.225 395.886 382.233 395.063C381.967 387.047 380.289 379.231 378.019 371.566C376.887 367.733 370.875 369.367 372.007 373.224C374.116 380.364 375.745 387.598 376.015 395.063L379.131 391.947C371.717 391.982 364.302 392.052 356.892 391.917C353.43 391.857 349.773 391.952 346.371 391.351C343.32 390.814 342.478 386.761 341.802 384.176C341.389 382.619 341.118 381.028 340.99 379.422C340.945 378.77 340.519 376.561 341.096 376.03C341.807 375.374 345.399 375.9 346.381 375.885L352.308 375.81L375.043 375.509C379.011 375.459 379.026 369.236 375.008 369.281Z" fill="#1A1C3F"/>
<path d="M447.213 371.451C450.399 378.354 452.063 385.862 452.093 393.465C458.689 393.204 465.282 392.917 471.872 392.603L466.737 371.195L447.213 371.451Z" fill="white"/>
<path d="M444.522 373.022C447.405 379.454 448.923 386.414 448.981 393.463C448.99 394.285 449.321 395.071 449.902 395.653C450.484 396.234 451.27 396.565 452.092 396.574C458.689 396.317 465.282 396.031 471.872 395.717C472.349 395.709 472.817 395.592 473.243 395.377C473.668 395.161 474.039 394.852 474.329 394.473C474.618 394.094 474.817 393.654 474.912 393.187C475.008 392.719 474.996 392.236 474.878 391.774L469.742 370.367C469.555 369.713 469.16 369.137 468.619 368.725C468.077 368.314 467.417 368.088 466.736 368.082L447.197 368.338C443.189 368.388 443.189 374.615 447.197 374.565L466.736 374.309L463.73 372.02L468.866 393.428L471.872 389.485C465.282 389.802 458.689 390.089 452.092 390.346L455.208 393.463C455.099 385.316 453.29 377.283 449.898 369.876C448.255 366.228 442.884 369.395 444.522 373.022Z" fill="#1A1C3F"/>
<path d="M46.1224 370.644C47.3348 370.859 48.5422 370.949 49.7646 371.075C50.7015 371.165 53.1514 371.125 53.933 371.766C55.0853 372.703 53.432 378.319 53.1013 379.852C52.8358 381.085 52.5302 382.312 52.1945 383.529C51.8939 384.612 51.7236 386.485 50.9771 387.347C50.3107 388.119 48.6174 388.439 47.6955 388.815C46.4905 389.229 45.3578 389.829 44.3388 390.594C43.1965 391.49 44.1334 393.635 45.5462 393.509C47.6154 393.324 49.5242 392.382 51.438 391.606C52.6604 391.105 53.7576 390.563 54.444 389.386C56.3127 386.265 56.9089 381.661 57.5301 378.144C57.9961 375.493 59.2887 371.009 56.7436 368.975C54.2837 367.006 48.8779 367.793 46.1023 368.65C45.2005 368.925 45.0402 370.453 46.1023 370.654L46.1224 370.644Z" fill="#1A1C3F"/>
<path d="M135.55 204.672C135.686 204.772 135.425 205.173 135.24 205.173L137.635 206.535C137.429 206.034 137.905 205.729 138.076 205.253C138.316 204.561 138.206 203.604 138.261 202.883C138.381 201.22 138.551 199.556 138.762 197.903C139.278 194.244 140.045 190.625 141.056 187.071C141.512 185.453 141.878 183.504 142.73 182.031C143.687 180.383 145.054 180.118 146.828 179.902C150.761 179.401 154.719 179.106 158.662 178.785C173.797 177.572 188.972 176.991 204.147 176.811C234.247 176.45 264.353 177.583 294.433 178.554C303.08 178.835 311.732 179.055 320.379 179.396C324.282 179.546 327.584 179.897 329.898 183.404C331.622 185.994 332.458 189.06 333.26 192.031C333.987 194.722 338.165 193.579 337.438 190.879C336.041 185.704 333.982 179.657 328.921 176.961C325.971 175.393 322.604 175.513 319.362 175.433C315.034 175.318 310.71 175.178 306.386 175.052C290.139 174.577 273.892 174.05 257.644 173.625C225.31 172.763 192.895 172.417 160.616 174.917C156.011 175.273 151.402 175.629 146.808 176.14C143.391 176.515 140.641 177.442 139.123 180.749C135.786 188.013 134.639 196.826 134.138 204.727L134.719 203.324C133.376 204.782 133.256 206.27 134.027 208.033C134.368 208.815 135.47 209.141 136.227 208.93C139.704 207.983 140.29 203.419 137.374 201.45C135.37 200.102 133.602 203.274 135.505 204.652L135.55 204.672Z" fill="#1A1C3F"/>
<path d="M201.663 358.289C198.226 363.068 211.252 362.798 212.935 362.798C216.495 362.852 220.055 362.728 223.602 362.427C225.811 362.217 227.995 361.079 227.715 358.529C227.715 358.071 227.533 357.631 227.209 357.307C226.884 356.983 226.445 356.801 225.986 356.801C225.528 356.801 225.088 356.983 224.764 357.307C224.44 357.631 224.258 358.071 224.258 358.529C224.228 358.87 214.764 358.94 213.917 358.965C212.484 359.01 203.652 359.797 203.396 358.499C203.216 357.627 202.104 357.673 201.673 358.274L201.663 358.289Z" fill="#1A1C3F"/>
<path d="M111.063 358.289C107.626 363.069 120.657 362.798 122.335 362.798C125.895 362.853 129.455 362.729 133.002 362.428C135.216 362.217 137.401 361.08 137.115 358.53C137.091 358.088 136.899 357.673 136.578 357.368C136.257 357.064 135.831 356.895 135.389 356.895C134.947 356.895 134.521 357.064 134.2 357.368C133.879 357.673 133.687 358.088 133.663 358.53C133.633 358.871 124.144 358.941 123.317 358.966C121.89 359.011 113.052 359.797 112.796 358.5C112.616 357.628 111.504 357.673 111.073 358.274L111.063 358.289Z" fill="#1A1C3F"/>
<path d="M110.486 333.074C112.254 322.553 113.727 312.032 115.967 301.581C116.468 299.227 116.939 296.842 117.615 294.532C118.462 291.616 119.94 290.219 123.016 289.903C128.221 289.367 133.497 289.207 138.722 288.981C149.851 288.51 160.988 288.398 172.134 288.645C174.388 288.696 177.034 288.485 178.842 290.093C180.506 291.596 181.187 293.961 181.748 296.03C183.121 301.04 184.188 306.196 185.165 311.316C186.232 316.907 186.773 322.603 187.93 328.169C188.366 330.485 189.196 332.708 190.385 334.743C191.753 336.962 194.078 338.981 194.013 341.757C193.962 344.051 197.52 344.051 197.58 341.757C197.675 336.792 192.97 333.465 191.693 328.841C190.19 323.33 189.849 317.418 188.822 311.807C187.78 306.095 186.628 300.349 185.075 294.773C184.028 290.99 182.194 287.002 178.161 285.71C175.786 284.948 173.096 285.113 170.646 285.063C167.306 284.993 163.981 284.956 160.671 284.953C154.352 284.953 148.036 285.072 141.723 285.309C135.501 285.544 129.228 285.755 123.026 286.371C118.517 286.822 115.661 288.876 114.308 293.28C112.4 299.532 111.413 306.196 110.466 312.648C109.412 319.34 108.886 326.104 108.893 332.879C108.893 333.766 110.336 334.036 110.496 333.099L110.486 333.074Z" fill="#1A1C3F"/>
<path d="M142.178 345.413C142.142 342.308 142.344 339.204 142.784 336.13C143.195 333.289 143.891 330.313 145.895 328.259C147.114 327.106 148.566 326.227 150.154 325.684C154.352 324.08 158.916 323.68 163.405 323.615C167.448 323.544 171.832 323.825 174.928 326.435C176.197 327.611 177.293 328.961 178.185 330.443C181.071 334.807 183.971 339.181 186.351 343.845" fill="#EF6348"/>
<path d="M143.16 345.413C143.481 340.673 143.516 333.719 146.742 329.882C150.284 325.668 157.95 325.538 162.98 325.473C168.35 325.398 172.839 326.009 176.071 330.703C179.227 335.239 182.082 339.977 184.618 344.886C185.795 347.196 189.327 345.152 188.125 342.847C186.467 339.716 184.618 336.705 182.669 333.739C180.9 331.044 179.237 327.973 176.933 325.683C172.809 321.59 166.612 321.565 161.196 321.866C155.55 322.181 148.11 323.003 144.237 327.667C140.445 332.231 140.82 339.892 141.231 345.418C141.28 345.641 141.403 345.842 141.581 345.986C141.76 346.13 141.982 346.208 142.211 346.208C142.44 346.208 142.662 346.13 142.84 345.986C143.018 345.842 143.142 345.641 143.19 345.418L143.16 345.413Z" fill="#1A1C3F"/>
<path d="M201.23 342.964C202.573 331.21 203.595 319.417 206.055 307.843C207.202 302.443 208.475 296.746 210.734 291.686C213.214 286.13 218.279 285.073 223.785 284.121C229.758 283.101 235.826 282.746 241.877 283.064C246.741 283.314 254.161 283.234 257.858 286.972C261.255 290.409 261.33 296.491 262.097 300.97C263.075 306.701 264.255 312.392 265.634 318.044C266.21 320.403 266.851 322.853 268.404 324.782C270.138 326.927 272.758 327.468 274.822 329.146C278.67 332.282 278.895 338.274 279.081 342.813C279.186 345.288 283.049 345.318 282.938 342.813C282.743 338.254 282.377 333.294 279.932 329.286C278.805 327.469 277.23 325.971 275.358 324.938C274.076 324.226 272.593 323.765 271.566 322.658C270.539 321.551 270.063 320.008 269.662 318.58C267.959 312.488 266.731 306.22 265.654 299.998C264.762 294.928 264.502 289.026 260.96 284.968C257.418 280.91 251.32 280.328 246.21 279.807C239.707 279.154 233.151 279.255 226.671 280.108C221.536 280.774 215.148 281.386 211.14 285.033C207.207 288.59 205.9 294.737 204.592 299.632C200.83 313.72 199.732 328.45 199.161 342.969C199.106 344.371 201.165 344.301 201.306 342.969L201.23 342.964Z" fill="#1A1C3F"/>
<path d="M307.978 342.964C309.291 331.521 310.293 320.063 312.612 308.766C313.65 303.309 315.137 297.947 317.056 292.734C318.058 290.184 319.396 287.879 321.841 286.501C324.025 285.274 326.691 284.823 329.12 284.362C334.919 283.271 340.818 282.809 346.716 282.984C349.742 283.065 352.761 283.315 355.759 283.736C358.264 284.092 360.959 284.472 363.143 285.81C367.497 288.48 367.793 294.583 368.534 299.107C369.446 304.694 370.545 310.242 371.831 315.75C372.417 318.255 372.898 320.875 374.095 323.165C375.293 325.454 377.171 326.672 379.411 327.839C384.827 330.71 385.543 335.96 385.779 341.596C385.879 344.071 389.741 344.101 389.636 341.596C389.431 336.887 388.99 331.807 385.864 328.029C384.391 326.246 382.582 325.244 380.573 324.182C377.387 322.498 376.695 319.873 375.879 316.587C374.362 310.494 373.083 304.345 372.041 298.14C371.209 293.16 370.668 287.463 366.625 283.896C362.582 280.329 356.515 280.079 351.49 279.653C345.29 279.14 339.052 279.308 332.888 280.154C327.678 280.865 321.099 281.527 317.247 285.565C313.569 289.417 312.312 295.545 311.024 300.529C307.462 314.342 306.395 328.741 305.839 342.954C305.784 344.357 307.843 344.287 307.978 342.954V342.964Z" fill="#1A1C3F"/>
<path d="M229.132 312.625C230.4 300.636 229.869 284.434 229.092 272.4C228.992 270.872 228.892 269.264 229.593 267.891C230.595 265.887 232.875 264.985 235.019 264.384C240.213 262.955 245.614 262.431 250.986 262.836C253.992 263.061 257.163 263.682 259.253 265.842C261.492 268.146 261.918 271.623 262.068 274.86C262.658 287.699 260.724 300.53 256.377 312.625" fill="white"/>
<path d="M224.394 312.625C225.661 300.636 225.125 284.434 224.349 272.4C224.253 270.872 224.153 269.263 224.85 267.891C225.827 265.887 228.131 264.985 230.27 264.384C235.464 262.955 240.866 262.431 246.237 262.836C249.243 263.061 252.42 263.682 254.509 265.842C256.748 268.146 257.174 271.623 257.324 274.86C257.916 287.699 255.984 300.529 251.638 312.625" fill="#F7CEBF"/>
<path d="M230.24 312.624C231.116 305.382 231.559 298.095 231.567 290.801C231.597 287.138 231.507 283.466 231.397 279.809C231.347 278.215 231.307 276.627 231.212 275.039C231.112 273.296 230.681 271.317 231.021 269.593C231.738 265.991 237.604 265.44 240.54 264.974C244.694 264.323 249.353 264.042 253.501 264.909C257.649 265.776 259.658 268.471 260.164 272.594C260.547 276.457 260.604 280.345 260.335 284.217C259.851 293.76 257.978 303.181 254.774 312.183C254.062 314.187 257.254 315.059 257.965 313.065C261.222 303.927 263.151 294.369 263.692 284.683C264.077 277.669 265.33 266.437 257.68 262.679C254.102 260.926 249.638 260.881 245.741 261.016C241.367 261.171 236.698 261.768 232.584 263.321C229.138 264.623 227.169 267.128 227.099 270.836C227.023 274.904 227.6 279.037 227.8 283.1C228.331 292.91 228.757 302.794 228.02 312.604C227.91 314.052 230.054 313.982 230.235 312.604L230.24 312.624Z" fill="#1A1C3F"/>
<path d="M210.95 344.154C210.456 336.518 211.897 328.881 215.139 321.949C215.991 320.131 217.008 318.322 218.581 317.075C220.344 315.682 222.589 315.141 224.828 314.745C234.803 312.961 245.029 313.437 255.144 314.099C258.33 314.309 261.707 314.6 264.277 316.504C267.604 318.963 268.666 323.387 269.492 327.44L272.333 341.303C272.438 341.804 272.057 342.641 271.682 342.275" fill="white"/>
<path d="M205.511 344.154C205.017 336.518 206.457 328.881 209.699 321.949C210.551 320.131 211.568 318.322 213.141 317.075C214.905 315.682 217.179 315.141 219.389 314.745C229.364 312.961 239.594 313.437 249.704 314.099C252.891 314.309 256.272 314.6 258.837 316.504C262.169 318.963 263.226 323.387 264.058 327.44C265 332.063 265.945 336.684 266.894 341.303C266.999 341.804 266.623 342.641 266.242 342.275" fill="#34C6A0"/>
<path d="M211.837 344.151C211.692 336.311 213.15 327.393 217.348 320.604C219.823 316.631 224.267 316.095 228.561 315.594C232.803 315.115 237.073 314.921 241.341 315.013C245.62 315.073 249.903 315.324 254.172 315.609C257.849 315.855 262.143 315.985 264.693 319.116C266.867 321.802 267.403 325.524 268.05 328.811C268.477 330.968 268.901 333.129 269.322 335.294L269.868 338.069C269.983 338.66 270.79 340.89 270.505 341.391L272.048 340.509H271.687C269.382 340.379 269.412 343.906 271.687 344.071L272.048 344.101C272.36 344.103 272.666 344.021 272.936 343.866C273.207 343.71 273.431 343.485 273.586 343.215C274.342 341.942 274.087 340.865 273.781 339.452C273.365 337.448 272.934 335.444 272.509 333.44C271.742 329.853 271.166 326.16 270.044 322.663C269.147 319.873 267.789 317.178 265.429 315.349C262.924 313.415 259.813 312.874 256.752 312.608C248.642 311.817 240.48 311.722 232.353 312.323C225.475 312.909 217.95 313.435 214.468 320.239C210.767 327.63 209.241 335.921 210.069 344.146C210.174 345.264 211.867 345.309 211.842 344.146L211.837 344.151Z" fill="#1A1C3F"/>
<path d="M335.099 312.625C336.372 300.636 335.836 284.434 335.059 272.4C334.959 270.872 334.859 269.264 335.56 267.891C336.562 265.887 338.847 264.985 340.986 264.384C346.18 262.955 351.581 262.431 356.953 262.836C359.959 263.061 363.13 263.682 365.219 265.842C367.459 268.146 367.885 271.623 368.04 274.86C368.625 287.699 366.69 300.529 362.344 312.625" fill="white"/>
<path d="M330.359 312.625C331.626 300.636 331.09 284.434 330.314 272.4C330.218 270.871 330.118 269.263 330.815 267.891C331.817 265.887 334.096 264.985 336.235 264.384C341.43 262.962 346.832 262.445 352.202 262.855C355.208 263.081 358.385 263.702 360.474 265.861C362.713 268.166 363.139 271.643 363.289 274.879C363.878 287.712 361.946 300.535 357.603 312.625" fill="#F7CEBF"/>
<path d="M336.206 312.624C337.082 305.382 337.525 298.095 337.534 290.801C337.564 287.138 337.474 283.466 337.364 279.809C337.313 278.215 337.273 276.627 337.178 275.039C337.078 273.296 336.647 271.317 336.988 269.593C337.704 265.991 343.571 265.44 346.507 264.974C350.66 264.323 355.319 264.042 359.468 264.909C363.616 265.776 365.625 268.471 366.131 272.594C366.513 276.457 366.57 280.345 366.301 284.217C365.818 293.76 363.944 303.181 360.74 312.183C360.029 314.187 363.245 315.059 363.932 313.065C367.189 303.927 369.117 294.369 369.658 284.683C370.044 277.669 371.296 266.437 363.646 262.679C360.069 260.926 355.605 260.881 351.707 261.016C347.333 261.171 342.689 261.768 338.551 263.321C335.104 264.623 333.135 267.128 333.04 270.836C332.965 274.904 333.541 279.037 333.741 283.1C334.272 292.91 334.698 302.794 333.962 312.604C333.852 314.052 335.996 313.982 336.176 312.604L336.206 312.624Z" fill="#1A1C3F"/>
<path d="M316.917 344.154C316.423 336.518 317.863 328.881 321.106 321.949C321.957 320.131 322.974 318.322 324.548 317.075C326.311 315.682 328.586 315.141 330.795 314.745C340.77 312.961 350.995 313.437 361.111 314.099C364.297 314.309 367.674 314.6 370.244 316.504C373.57 318.963 374.632 323.387 375.459 327.44L378.3 341.303C378.405 341.804 378.024 342.641 377.648 342.275" fill="white"/>
<path d="M312.303 344.154C311.807 336.518 313.245 328.881 316.486 321.949C317.343 320.131 318.355 318.322 319.933 317.075C321.692 315.682 323.941 315.141 326.175 314.745C336.155 312.961 346.381 313.437 356.491 314.099C359.682 314.309 363.059 314.6 365.629 316.504C368.956 318.963 370.013 323.387 370.845 327.44C371.793 332.063 372.738 336.684 373.68 341.303C373.785 341.804 373.41 342.641 373.029 342.275" fill="#4747E2"/>
<path d="M317.804 344.151C317.659 336.311 319.117 327.393 323.315 320.604C325.79 316.631 330.234 316.095 334.528 315.594C338.77 315.115 343.04 314.921 347.308 315.013C351.587 315.073 355.87 315.324 360.139 315.609C363.816 315.855 368.11 315.985 370.66 319.116C372.834 321.802 373.37 325.524 374.016 328.811C374.444 330.968 374.868 333.129 375.289 335.294L375.835 338.069C375.95 338.66 376.757 340.89 376.471 341.391L378.014 340.509H377.654C375.349 340.379 375.379 343.906 377.654 344.071L378.014 344.101C378.326 344.103 378.633 344.021 378.903 343.866C379.173 343.71 379.397 343.485 379.552 343.215C380.309 341.942 380.053 340.865 379.748 339.452C379.332 337.448 378.901 335.444 378.475 333.44C377.709 329.853 377.133 326.16 376.01 322.663C375.114 319.873 373.756 317.178 371.396 315.349C368.891 313.415 365.78 312.874 362.719 312.608C354.609 311.817 346.446 311.722 338.32 312.323C331.441 312.909 323.916 313.435 320.434 320.239C316.734 327.63 315.208 335.921 316.036 344.146C316.141 345.264 317.834 345.309 317.809 344.146L317.804 344.151Z" fill="#1A1C3F"/>
<path d="M389.883 225.313C364.727 223.595 339.377 223.204 314.151 222.994C288.926 222.783 263.671 222.783 238.43 222.693C218.07 222.623 197.719 222.653 177.358 222.332C162.689 222.097 146.427 222.292 133.27 229.697C126.871 233.26 121.816 238.823 118.882 245.534C114.773 254.993 113.872 265.413 112.293 275.499C110.41 287.628 109.217 299.817 108.165 312.072C107.639 318.199 106.893 324.346 106.547 330.488C106.297 334.932 107.018 339.506 110.555 342.552C117.098 348.154 127.639 346.981 135.57 347.061C148.22 347.182 160.87 346.966 173.521 346.781C198.905 346.407 224.277 346.041 249.638 345.684C300.043 345.007 350.454 344.501 400.859 343.72L419.897 343.419C422.613 343.379 422.618 339.161 419.897 339.196C370.825 339.882 321.752 340.789 272.679 341.505C248.146 341.859 223.611 342.193 199.072 342.507C174.758 342.808 150.405 343.509 126.091 342.883C122.444 342.788 118.511 342.462 115.214 340.764C110.455 338.314 110.405 333.469 110.831 328.67C111.893 316.766 112.885 304.847 114.212 292.968C115.435 282.062 116.888 271.02 119.012 260.243C120.675 251.801 123.27 243.369 129.818 237.433C140.61 227.643 157.148 226.741 170.956 226.641C178 226.591 185.044 226.917 192.088 227.017C203.215 227.177 214.357 226.957 225.484 226.927C274.297 226.801 323.144 226.335 371.952 227.137C377.924 227.237 383.896 227.353 389.873 227.408C391.215 227.408 391.19 225.434 389.873 225.343L389.883 225.313Z" fill="#1A1C3F"/>
<path d="M144.218 332.59C141.362 335.25 139.734 339.023 139.003 342.855C138.271 346.688 138.356 350.631 138.462 354.529C138.497 355.861 138.612 357.359 139.634 358.206C140.329 358.692 141.151 358.965 141.999 358.993C143.502 359.168 145.145 359.203 146.438 358.401C148.346 357.229 148.857 354.729 149.188 352.515L150.3 345.125C150.288 344.957 150.312 344.788 150.369 344.629C150.426 344.47 150.516 344.325 150.632 344.203C150.749 344.08 150.889 343.984 151.045 343.919C151.201 343.855 151.369 343.823 151.538 343.827C154.93 343.207 158.375 342.92 161.823 342.971L161.197 354.564C161.083 355.433 161.168 356.317 161.448 357.149C162.324 359.233 165.1 359.554 167.364 359.519C168.732 359.519 170.23 359.423 171.252 358.517C171.923 357.839 172.381 356.981 172.57 356.047C173.356 353.126 173.226 350.035 173.947 347.084C174.56 344.594 175.763 342.288 177.454 340.36" fill="white"/>
<path d="M148.005 332.59C145.15 335.25 143.521 339.023 142.79 342.855C142.058 346.688 142.144 350.631 142.249 354.529C142.284 355.861 142.399 357.359 143.421 358.206C144.115 358.692 144.935 358.965 145.781 358.993C147.284 359.168 148.932 359.203 150.225 358.401C152.133 357.229 152.644 354.729 152.975 352.515L154.082 345.125C154.07 344.957 154.094 344.788 154.151 344.629C154.208 344.47 154.298 344.325 154.414 344.203C154.531 344.08 154.672 343.984 154.827 343.919C154.983 343.855 155.151 343.823 155.32 343.827C158.716 343.207 162.164 342.92 165.615 342.971L164.989 354.564C164.875 355.433 164.96 356.317 165.24 357.149C166.116 359.233 168.892 359.554 171.156 359.519C172.524 359.519 174.017 359.423 175.044 358.517C175.715 357.839 176.173 356.981 176.362 356.047C177.148 353.126 177.018 350.035 177.74 347.084C178.352 344.594 179.555 342.288 181.247 340.36" fill="#EF6348"/>
<path d="M143.521 331.896C139.212 335.498 137.318 340.769 136.762 346.235C136.381 349.438 136.352 352.674 136.677 355.884C136.948 358.068 138.03 359.892 140.249 360.553C145.029 361.921 149.352 359.912 150.55 355.042C150.851 353.606 151.076 352.154 151.226 350.694C151.356 349.757 151.276 346.235 151.922 345.599C152.569 344.962 155.244 345.002 156.191 344.917C158.065 344.752 159.943 344.702 161.827 344.717L160.104 342.993C159.959 345.568 159.793 348.144 159.633 350.724C159.498 352.913 158.926 355.528 159.693 357.658C160.81 360.784 164.442 361.43 167.368 361.435C171.376 361.435 173.801 359.677 174.718 355.719C175.87 350.739 175.384 345.999 178.861 341.801C180.489 339.832 177.679 336.986 176.031 338.97C174.028 341.278 172.615 344.037 171.912 347.011C171.621 348.528 171.407 350.058 171.271 351.596C171.091 353.169 171.181 356.185 169.728 357.252C168.821 357.913 166.857 357.723 165.775 357.618C163.731 357.422 163.065 356.711 163.005 354.612C162.899 350.784 163.355 346.841 163.551 343.018C163.545 342.563 163.362 342.128 163.04 341.805C162.718 341.483 162.283 341.3 161.827 341.295C159.241 341.279 156.657 341.436 154.092 341.766C152.589 341.966 150.399 341.936 149.312 343.214C148.095 344.637 148.2 347.547 147.914 349.326C147.584 351.355 147.524 354.086 146.411 355.879C145.234 357.753 141.096 358.083 140.43 355.674C139.783 353.349 140.194 350.138 140.269 347.743C140.44 342.618 141.482 337.317 144.913 333.329C145.037 333.136 145.092 332.907 145.067 332.679C145.042 332.451 144.94 332.239 144.778 332.077C144.616 331.916 144.403 331.814 144.175 331.791C143.947 331.767 143.718 331.822 143.526 331.946L143.521 331.896Z" fill="#1A1C3F"/>
<path d="M145.075 332.339C143.229 331.667 141.588 330.529 140.31 329.037C139.033 327.546 138.161 325.749 137.78 323.822C137.405 321.778 137.605 319.679 137.825 317.615C137.91 316.143 138.231 314.695 138.777 313.326C139.388 311.994 140.516 310.821 141.949 310.531C142.311 310.522 142.658 310.384 142.926 310.14C143.021 309.996 143.084 309.834 143.111 309.664C143.432 308.296 143.652 306.883 144.293 305.631C144.935 304.378 146.127 303.301 147.53 303.246C148.036 303.25 148.536 303.358 148.998 303.564C149.46 303.77 149.874 304.069 150.215 304.444C150.893 305.197 151.405 306.085 151.718 307.049C155.116 306.263 158.606 305.951 162.089 306.122C162.335 306.153 162.585 306.127 162.82 306.047C163.012 305.948 163.183 305.812 163.321 305.646C164.138 304.65 165.113 303.796 166.207 303.116C167.339 302.51 168.802 302.339 169.884 303.031C171.262 303.912 171.548 305.781 171.598 307.414C171.575 307.736 171.637 308.057 171.778 308.346C172.077 308.707 172.474 308.973 172.92 309.113C174.624 309.929 175.611 311.803 175.926 313.667C176.242 315.531 175.977 317.439 175.831 319.323C175.661 321.523 175.641 323.752 175.1 325.891C174.559 328.031 173.421 330.125 171.533 331.262" fill="white"/>
<path d="M148.26 333.3C146.414 332.628 144.773 331.491 143.495 329.999C142.217 328.507 141.346 326.71 140.966 324.783C140.59 322.744 140.79 320.644 141.011 318.58C141.092 317.117 141.409 315.675 141.948 314.312C142.559 312.979 143.686 311.807 145.124 311.516C145.484 311.503 145.828 311.365 146.096 311.125C146.194 310.974 146.257 310.803 146.281 310.624C146.602 309.257 146.823 307.839 147.464 306.616C148.105 305.394 149.297 304.282 150.7 304.232C151.207 304.233 151.707 304.34 152.17 304.547C152.632 304.753 153.046 305.053 153.386 305.429C154.066 306.181 154.578 307.069 154.889 308.034C158.285 307.251 161.773 306.941 165.254 307.112C165.499 307.143 165.748 307.118 165.981 307.037C166.174 306.94 166.344 306.804 166.482 306.637C167.298 305.647 168.273 304.801 169.368 304.131C170.505 303.525 171.963 303.355 173.045 304.046C174.423 304.928 174.713 306.797 174.758 308.43C174.736 308.751 174.798 309.072 174.939 309.362C175.236 309.722 175.634 309.987 176.081 310.123C177.784 310.945 178.776 312.814 179.087 314.683C179.398 316.551 179.137 318.455 178.992 320.339C178.821 322.538 178.801 324.768 178.26 326.907C177.719 329.046 176.582 331.14 174.693 332.278" fill="#EF6348"/>
<path d="M145.561 331.507C139.699 328.251 138.602 322.489 139.654 316.287C139.975 314.418 140.551 312.925 142.38 312.134C143.151 311.803 143.808 311.723 144.344 310.976C145.1 309.924 145.005 308.236 145.491 307.054C145.812 306.277 146.303 305.135 147.274 304.959C148.667 304.709 149.659 306.518 150.045 307.504C150.178 307.934 150.469 308.297 150.86 308.518C151.252 308.74 151.713 308.804 152.149 308.697C154.472 308.177 156.839 307.879 159.218 307.805C160.816 307.765 162.62 308.166 164.013 307.264C165.19 306.502 166.057 304.478 167.64 304.463C170.11 304.463 169.188 307.414 169.759 308.892C170.33 310.37 171.894 310.586 172.805 311.728C174.043 313.271 173.807 315.581 173.667 317.434C173.417 321.342 174.113 327.013 170.551 329.659C168.682 331.046 170.351 334.168 172.42 332.865C176.047 330.581 177.239 326.698 177.74 322.63C178.276 318.281 179.208 313.111 176.317 309.358C175.848 308.676 175.239 308.102 174.529 307.675C173.467 307.174 173.647 307.274 173.477 305.986C173.256 304.303 172.66 302.665 171.277 301.603C167.6 298.767 164.213 302.66 161.578 304.829L162.795 304.328C158.888 304.729 155.13 304.549 151.237 305.4L153.342 306.593C151.934 303.086 148.332 299.804 144.609 302.69C142.735 304.143 142.3 306.247 141.678 308.401C141.373 309.473 141.753 308.762 141.147 309.038C140.792 309.198 140.441 309.288 140.09 309.483C139.205 309.986 138.45 310.69 137.886 311.538C136.573 313.441 136.343 315.796 136.112 318.051C135.852 320.556 135.736 323.156 136.538 325.591C137.15 327.471 138.231 329.165 139.681 330.511C141.13 331.856 142.899 332.81 144.82 333.281C145.857 333.526 146.543 332.068 145.561 331.522V331.507Z" fill="#1A1C3F"/>
<path d="M148.767 317.168L148.521 317.063C148.604 317.112 148.694 317.149 148.787 317.173C148.877 317.173 149.378 317.298 148.877 317.173C148.761 317.162 148.65 317.12 148.555 317.052C148.461 316.983 148.387 316.89 148.341 316.782L148.206 316.311L148.256 316.662C148.256 316.772 148.256 316.762 148.256 316.632C148.186 316.391 148.226 316.752 148.256 316.502C148.286 316.251 148.256 316.502 148.221 316.587C148.186 316.672 148.146 316.747 148.156 316.782C148.231 316.607 148.251 316.567 148.201 316.667C148.151 316.767 148.156 316.757 148.136 316.797C148.014 316.981 147.933 317.19 147.901 317.408C147.869 317.627 147.885 317.85 147.948 318.061C148.012 318.273 148.121 318.468 148.269 318.632C148.416 318.797 148.598 318.927 148.802 319.013C149.005 319.099 149.225 319.139 149.446 319.131C149.666 319.122 149.882 319.065 150.078 318.964C150.275 318.862 150.446 318.719 150.58 318.543C150.715 318.368 150.809 318.165 150.856 317.95C151.087 317.073 151.162 315.88 150.355 315.264C150.159 315.096 149.92 314.984 149.665 314.942C149.41 314.899 149.148 314.926 148.908 315.021C148.667 315.116 148.457 315.274 148.3 315.48C148.143 315.685 148.044 315.929 148.015 316.186C148.017 316.413 148.092 316.633 148.229 316.814C148.366 316.995 148.559 317.126 148.777 317.188L148.767 317.168Z" fill="#1A1C3F"/>
<path d="M160.872 316.454L160.627 316.348C160.71 316.395 160.8 316.432 160.892 316.459C160.982 316.459 161.483 316.579 160.982 316.459C160.866 316.446 160.755 316.403 160.661 316.333C160.567 316.264 160.493 316.17 160.446 316.063L160.311 315.592L160.361 315.948C160.361 316.058 160.361 316.048 160.361 315.918C160.291 315.677 160.331 316.038 160.361 315.782C160.391 315.527 160.361 315.812 160.326 315.872C160.291 315.933 160.251 316.033 160.261 316.063C160.341 315.892 160.356 315.852 160.306 315.948L160.241 316.083C160.118 316.267 160.037 316.476 160.005 316.695C159.972 316.914 159.988 317.137 160.052 317.349C160.115 317.561 160.225 317.756 160.373 317.921C160.521 318.086 160.703 318.216 160.907 318.302C161.111 318.388 161.332 318.428 161.553 318.418C161.774 318.409 161.99 318.352 162.186 318.249C162.383 318.147 162.554 318.003 162.688 317.826C162.822 317.65 162.915 317.447 162.961 317.23C163.192 316.358 163.267 315.166 162.46 314.55C162.264 314.382 162.026 314.27 161.771 314.227C161.517 314.184 161.255 314.211 161.015 314.305C160.774 314.399 160.564 314.557 160.407 314.762C160.249 314.966 160.15 315.21 160.121 315.467C160.123 315.693 160.198 315.913 160.335 316.094C160.472 316.275 160.664 316.406 160.882 316.469L160.872 316.454Z" fill="#1A1C3F"/>
<path d="M152.105 321.187C153.237 322.134 154.865 322.53 156.203 321.728C156.49 321.556 156.705 321.287 156.809 320.969C156.913 320.652 156.899 320.307 156.769 319.999C156.642 319.69 156.405 319.438 156.104 319.291C155.803 319.144 155.458 319.113 155.136 319.203C154.329 319.544 153.457 319.413 152.536 319.549C152.374 319.6 152.229 319.691 152.112 319.813C151.996 319.936 151.912 320.086 151.869 320.249C151.826 320.413 151.825 320.584 151.866 320.748C151.907 320.912 151.99 321.063 152.105 321.187Z" fill="#1A1C3F"/>
<path d="M150.847 326.923C152.045 327.253 153.448 327.394 154.485 326.577C155.887 325.475 155.487 323.731 155.702 322.198L153.423 321.888C153.423 323.391 153.543 325.184 154.66 326.282C155.777 327.379 157.365 327.284 158.803 327.404C160.381 327.534 160.391 325.039 158.803 324.934C157.997 324.879 157.095 325.019 156.459 324.473C155.822 323.927 155.782 322.785 155.742 321.888C155.677 320.385 153.588 320.43 153.423 321.888C153.332 322.674 153.563 323.661 153.337 324.393C153.037 325.42 151.94 325.425 151.053 325.365C150.166 325.305 150.016 326.662 150.847 326.898V326.923Z" fill="#1A1C3F"/>
<path d="M252.945 263.57C250.697 269.283 247.042 274.335 242.319 278.259C241.319 278.98 240.434 279.848 239.694 280.834C239.027 281.866 238.762 283.269 239.403 284.341C239.101 283.513 238.522 282.815 237.764 282.365C237.007 281.915 236.117 281.74 235.245 281.871C234.38 282.043 233.589 282.475 232.978 283.11C232.367 283.745 231.966 284.553 231.828 285.423C231.716 286.298 231.84 287.186 232.187 287.997C232.534 288.807 233.092 289.51 233.802 290.032C234.243 290.358 234.759 290.654 234.954 291.16C235.056 291.51 235.073 291.879 235.004 292.237L234.248 298.96C234.213 299.569 234.069 300.166 233.822 300.724C233.111 302.081 231.372 302.467 229.844 302.648C226.072 303.093 222.266 303.189 218.476 302.933C217.615 302.873 216.648 302.738 216.142 302.041C215.795 301.425 215.683 300.705 215.826 300.012C216.241 296.286 217.047 292.613 218.231 289.055C221.543 278.469 226.808 268.068 235.541 261.225C238.046 259.221 240.946 257.552 244.128 257.122C247.309 256.691 250.836 257.733 252.725 260.328C253.13 259.93 253.626 259.636 254.169 259.472C254.713 259.308 255.288 259.279 255.846 259.386C256.959 259.616 258.01 260.082 258.927 260.754C263.236 263.61 266.442 267.768 269.614 271.881C268.469 272.812 267.128 273.471 265.692 273.809C264.256 274.147 262.762 274.155 261.323 273.833C259.883 273.511 258.535 272.867 257.38 271.949C256.225 271.032 255.293 269.864 254.654 268.534C254.153 267.452 253.812 266.28 253.276 265.203" fill="#EAB642"/>
<path d="M252.209 263.141C249.799 267.489 247.264 271.613 243.637 275.08C240.966 277.64 235.966 280.29 237.85 284.754L240.791 283.511C238.501 278.271 230.826 279.924 230.24 285.405C230.104 286.806 230.43 288.214 231.167 289.413C232.094 290.916 233.331 291.247 233.281 293.161C233.236 294.909 233.221 297.71 232.54 299.303C231.703 301.262 228.852 301.061 227.029 301.177C224.975 301.306 222.917 301.328 220.861 301.242C220.125 301.212 218.662 301.392 218.071 300.891C217.324 300.255 217.84 298.697 218.001 297.685C218.675 293.87 219.681 290.122 221.007 286.482C223.361 279.674 226.598 272.99 231.327 267.499C235.656 262.464 245.606 253.972 251.618 261.432C252.199 262.154 253.296 261.933 253.907 261.432C256.337 259.373 260.766 264.238 262.294 265.826C264.337 268.033 266.243 270.364 268 272.805L268.687 270.195C266.102 272.069 262.875 272.765 259.919 271.277C256.963 269.789 256.152 267.049 254.884 264.263C253.912 262.124 250.816 263.982 251.743 266.097C253.466 270.029 254.974 273.381 259.228 275.115C261.102 275.857 263.137 276.099 265.133 275.816C267.129 275.533 269.017 274.735 270.611 273.501C270.856 273.348 271.065 273.141 271.221 272.897C271.378 272.653 271.478 272.377 271.515 272.09C271.552 271.802 271.525 271.51 271.435 271.234C271.345 270.959 271.195 270.706 270.996 270.495C267.489 266.026 258.311 253.241 251.618 259.143H253.907C249.068 253.156 240.746 255.35 235.405 259.313C229.118 263.972 224.383 270.395 220.946 277.349C219.253 280.835 217.811 284.438 216.633 288.131C215.375 292.013 213.597 296.868 214.008 301.006C214.408 305.014 218.762 304.749 221.828 304.754C225.41 304.754 230.741 305.15 233.852 303.03C235.085 302.189 235.621 300.926 235.856 299.498C236.222 297.058 236.698 294.368 236.693 291.903C236.693 289.979 235.591 289.594 234.423 288.346C231.462 285.195 236.382 281.167 238.066 285.095C238.777 286.748 241.708 285.54 241.011 283.852C240.009 281.382 243.101 279.674 244.634 278.231C246.03 276.912 247.323 275.489 248.501 273.972C250.936 270.953 252.745 267.478 253.822 263.752C253.869 263.554 253.845 263.347 253.753 263.165C253.662 262.984 253.509 262.841 253.322 262.762C253.134 262.684 252.925 262.674 252.732 262.735C252.538 262.796 252.372 262.924 252.264 263.096L252.209 263.141Z" fill="#EAB642"/>
<path d="M348.005 267.927C347.688 269.772 346.719 271.443 345.275 272.636C344.593 273.197 343.772 273.693 343.451 274.52C343.284 275.076 343.241 275.663 343.326 276.238L343.687 280.887C343.461 280.075 342.948 279.373 342.243 278.912C341.537 278.451 340.688 278.263 339.854 278.382C337.725 278.753 336.447 281.183 336.673 283.332C336.898 285.482 338.246 287.34 339.679 288.934C338.552 290.241 337.313 291.448 335.976 292.541C335.763 292.754 335.487 292.894 335.19 292.942C334.618 292.972 334.243 292.375 334.012 291.859C331.658 286.564 331.041 280.682 330.46 274.91C330.143 272.61 330.072 270.282 330.25 267.967C330.366 266.638 330.746 265.345 331.367 264.164C332.96 261.308 336.252 259.886 339.383 258.964C340.136 258.804 340.849 258.492 341.477 258.047C341.845 257.695 342.18 257.311 342.479 256.9C343.317 255.955 344.325 255.177 345.45 254.605C349.458 252.456 354.172 252.02 358.671 252.556C363.17 253.092 367.504 254.535 371.803 255.973C372.248 256.099 372.672 256.292 373.06 256.544C373.444 256.87 373.746 257.281 373.943 257.745C374.139 258.208 374.225 258.712 374.192 259.214C374.162 261.925 371.988 264.284 369.428 265.181C366.868 266.078 364.032 265.742 361.412 264.976C358.792 264.209 356.352 263.027 353.772 262.195C353.42 262.05 353.036 262.001 352.659 262.055C352.307 262.165 351.988 262.363 351.733 262.631C350.49 263.733 349.263 264.865 348.06 266.013" fill="#1A1C3F"/>
<path d="M347.237 267.716C346.772 269.263 345.85 270.634 344.592 271.648C343.835 272.26 342.984 272.711 342.473 273.572C341.285 275.576 342.102 278.702 342.247 280.887L345.073 280.506C343.805 276.879 339.371 275.586 336.656 278.582C333.339 282.25 335.834 286.994 338.565 290.105V287.821C337.793 288.687 336.957 289.464 336.155 290.296C335.982 290.353 335.825 290.454 335.701 290.588C335.577 290.722 335.488 290.885 335.444 291.062C335.143 290.356 334.867 289.634 334.622 288.903C333.867 286.586 333.309 284.209 332.954 281.799C332.252 277.35 331.265 272.124 331.997 267.645C332.763 262.916 336.691 261.774 340.594 260.371C342.598 259.649 343.394 258.071 345.048 256.864C346.866 255.621 348.933 254.788 351.105 254.424C355.864 253.487 360.749 254.424 365.333 255.787C367.172 256.328 369.697 256.789 371.345 257.756C373.78 259.179 371.435 262.109 369.752 263.046C365.464 265.431 360.113 262.545 356.015 261.042C354.452 260.476 352.843 259.785 351.28 260.732C349.717 261.679 348.169 263.437 346.892 264.84C345.389 266.493 347.628 268.632 349.311 267.255C350.173 266.548 351 265.817 351.816 265.07C352.818 264.163 352.898 263.873 354.166 264.299C356.736 265.16 359.176 266.393 361.816 267.059C365.644 268.026 370.008 267.901 373.119 265.186C375.574 263.046 377.172 258.998 375.068 256.067C374.021 254.609 372.187 254.224 370.559 253.703C368.259 252.966 365.939 252.255 363.585 251.699C359.046 250.697 354.336 250.286 349.757 251.288C347.711 251.72 345.751 252.489 343.956 253.562C341.992 254.765 340.809 256.784 338.585 257.48C335.208 258.532 331.726 260.13 329.898 263.337C327.698 267.2 328.465 272.104 328.896 276.293C329.452 281.553 330.083 286.959 332.207 291.854C334.482 297.104 338.284 292.911 340.779 290.09C341.072 289.782 341.235 289.373 341.235 288.948C341.235 288.523 341.072 288.114 340.779 287.806C339.537 286.413 338.114 284.684 338.184 282.695C338.259 280.586 341.125 278.307 342.232 281.273C342.733 282.675 345.213 282.63 345.058 280.892C344.938 279.499 344.797 278.101 344.692 276.709C344.552 274.825 345.128 274.434 346.32 273.202C347.692 271.768 348.543 269.916 348.735 267.941C348.85 267.009 347.438 266.939 347.172 267.731L347.237 267.716Z" fill="#1A1C3F"/>
<path d="M247.735 284.228C247.089 283.972 246.488 284.588 246.262 285.124C246.133 285.4 246.089 285.708 246.135 286.01C246.18 286.311 246.313 286.592 246.518 286.818C246.695 286.992 246.924 287.103 247.17 287.134C247.416 287.166 247.665 287.116 247.88 286.993C248.089 286.862 248.25 286.668 248.34 286.439C248.43 286.21 248.445 285.958 248.381 285.721C248.331 285.571 248.271 285.426 248.201 285.285L248.311 285.555C248.29 285.498 248.275 285.44 248.266 285.38L248.306 285.675C248.299 285.616 248.299 285.555 248.306 285.495L248.271 285.776C248.266 285.746 248.266 285.715 248.271 285.685C248.301 285.585 248.281 285.625 248.211 285.806C248.262 285.734 248.304 285.657 248.336 285.575C248.428 285.363 248.444 285.126 248.381 284.904C248.335 284.744 248.249 284.599 248.131 284.481C248.014 284.363 247.869 284.276 247.71 284.228H247.735Z" fill="#1A1C3F"/>
<path d="M257.013 284.751C256.366 284.495 255.765 285.112 255.54 285.648C255.411 285.924 255.366 286.232 255.412 286.533C255.457 286.834 255.591 287.115 255.795 287.341C255.972 287.515 256.201 287.626 256.447 287.658C256.693 287.69 256.943 287.64 257.158 287.517C257.366 287.386 257.527 287.192 257.618 286.963C257.708 286.734 257.722 286.482 257.659 286.244C257.613 286.093 257.553 285.947 257.478 285.808L257.594 286.079C257.57 286.022 257.553 285.964 257.544 285.903L257.584 286.194C257.576 286.134 257.576 286.073 257.584 286.014L257.549 286.299V286.209C257.579 286.109 257.549 286.149 257.493 286.329C257.543 286.256 257.584 286.177 257.614 286.094C257.706 285.882 257.722 285.645 257.659 285.422C257.611 285.264 257.525 285.119 257.408 285.002C257.291 284.885 257.146 284.799 256.987 284.751H257.013Z" fill="#1A1C3F"/>
<path d="M246.361 281.956C246.672 281.747 247.009 281.578 247.363 281.455C247.764 281.33 248.17 281.294 248.56 281.139C248.759 281.077 248.933 280.954 249.059 280.788C249.185 280.622 249.256 280.421 249.262 280.212C249.261 280.003 249.192 279.799 249.066 279.632C248.939 279.465 248.762 279.343 248.56 279.285C247.438 279.065 246.246 279.591 245.334 280.232C245.107 280.367 244.943 280.586 244.876 280.841C244.81 281.096 244.846 281.367 244.978 281.595C245.113 281.822 245.331 281.986 245.587 282.053C245.842 282.119 246.113 282.083 246.341 281.951L246.361 281.956Z" fill="#1A1C3F"/>
<path d="M258.961 280.665C258.224 279.823 257.072 279.162 255.93 279.433C255.705 279.501 255.508 279.64 255.368 279.829C255.228 280.018 255.152 280.247 255.152 280.482C255.152 280.717 255.228 280.946 255.368 281.135C255.508 281.324 255.705 281.463 255.93 281.532C256.626 281.697 257.343 281.582 258.019 281.887C258.182 281.976 258.372 282.003 258.554 281.965C258.735 281.926 258.897 281.824 259.011 281.677C259.124 281.53 259.181 281.348 259.172 281.162C259.163 280.977 259.088 280.8 258.961 280.665Z" fill="#1A1C3F"/>
<path d="M253.731 285.011C253.599 286.312 253.657 287.625 253.901 288.909C254.132 290.227 256.261 289.686 255.935 288.353C255.669 287.251 255.465 286.136 255.324 285.011C255.324 284.8 255.24 284.598 255.091 284.448C254.941 284.299 254.739 284.215 254.527 284.215C254.316 284.215 254.113 284.299 253.964 284.448C253.815 284.598 253.731 284.8 253.731 285.011Z" fill="#1A1C3F"/>
<path d="M246.186 291.739C246.211 293.242 246.912 294.79 248.47 295.246C248.61 295.285 248.757 295.296 248.901 295.278C249.045 295.26 249.185 295.214 249.311 295.143C249.438 295.071 249.549 294.975 249.638 294.86C249.728 294.746 249.794 294.615 249.833 294.475C249.872 294.334 249.882 294.188 249.865 294.044C249.847 293.899 249.801 293.76 249.729 293.633C249.658 293.507 249.562 293.396 249.447 293.306C249.333 293.217 249.201 293.151 249.061 293.112C248.24 292.977 247.989 291.975 247.633 291.338C247.545 291.194 247.413 291.083 247.256 291.02C247.099 290.958 246.926 290.948 246.763 290.992C246.6 291.036 246.456 291.131 246.352 291.264C246.248 291.397 246.189 291.56 246.186 291.729V291.739Z" fill="#1A1C3F"/>
<path d="M351.401 284.228C350.755 283.972 350.154 284.588 349.928 285.124C349.8 285.4 349.755 285.708 349.801 286.01C349.846 286.311 349.979 286.592 350.184 286.818C350.361 286.992 350.59 287.103 350.836 287.134C351.082 287.166 351.331 287.116 351.546 286.993C351.755 286.862 351.916 286.668 352.006 286.439C352.096 286.21 352.111 285.958 352.047 285.721C352.001 285.57 351.941 285.424 351.867 285.285L351.982 285.555C351.957 285.499 351.941 285.44 351.932 285.38L351.972 285.675C351.965 285.616 351.965 285.555 351.972 285.495L351.937 285.776V285.685C351.967 285.585 351.937 285.625 351.882 285.806C351.931 285.734 351.971 285.656 352.002 285.575C352.094 285.363 352.11 285.126 352.047 284.904C352.001 284.744 351.915 284.599 351.797 284.481C351.68 284.363 351.535 284.276 351.376 284.228H351.401Z" fill="#1A1C3F"/>
<path d="M361.222 284.751C360.575 284.495 359.974 285.112 359.749 285.648C359.62 285.924 359.575 286.232 359.621 286.533C359.666 286.834 359.8 287.115 360.004 287.341C360.181 287.515 360.41 287.626 360.656 287.658C360.902 287.69 361.152 287.64 361.367 287.517C361.575 287.386 361.736 287.192 361.827 286.963C361.917 286.734 361.931 286.482 361.868 286.244C361.822 286.093 361.762 285.947 361.687 285.808L361.803 286.079C361.779 286.022 361.762 285.964 361.753 285.903L361.793 286.194C361.785 286.134 361.785 286.073 361.793 286.014L361.758 286.299C361.755 286.269 361.755 286.239 361.758 286.209C361.788 286.109 361.768 286.149 361.697 286.329C361.751 286.257 361.793 286.178 361.823 286.094C361.915 285.882 361.931 285.645 361.868 285.422C361.82 285.264 361.734 285.119 361.617 285.002C361.5 284.885 361.355 284.799 361.196 284.751H361.222Z" fill="#1A1C3F"/>
<path d="M350.033 280.846C350.342 280.634 350.679 280.465 351.035 280.345C351.43 280.225 351.841 280.185 352.227 280.03C352.427 279.968 352.602 279.846 352.729 279.68C352.855 279.513 352.927 279.312 352.933 279.103C352.933 278.893 352.863 278.688 352.736 278.521C352.608 278.354 352.43 278.233 352.227 278.176C351.105 277.956 349.912 278.482 349.006 279.123C348.778 279.257 348.613 279.475 348.545 279.73C348.478 279.985 348.513 280.257 348.645 280.486C348.779 280.715 348.998 280.881 349.254 280.949C349.511 281.016 349.783 280.979 350.013 280.846H350.033Z" fill="#1A1C3F"/>
<path d="M363.931 279.56C363.194 278.718 362.042 278.057 360.895 278.327C360.67 278.396 360.473 278.535 360.333 278.724C360.193 278.913 360.117 279.141 360.117 279.377C360.117 279.612 360.193 279.841 360.333 280.03C360.473 280.219 360.67 280.358 360.895 280.426C361.596 280.592 362.313 280.476 362.984 280.782C363.147 280.874 363.338 280.904 363.522 280.867C363.706 280.829 363.87 280.727 363.985 280.579C364.1 280.431 364.157 280.247 364.147 280.059C364.137 279.872 364.061 279.695 363.931 279.56Z" fill="#1A1C3F"/>
<path d="M356.647 285.011C356.515 286.312 356.573 287.625 356.817 288.909C357.048 290.227 359.172 289.686 358.821 288.353C358.559 287.251 358.357 286.135 358.215 285.011C358.215 284.8 358.131 284.598 357.982 284.448C357.832 284.299 357.63 284.215 357.418 284.215C357.207 284.215 357.004 284.299 356.855 284.448C356.706 284.598 356.622 284.8 356.622 285.011H356.647Z" fill="#1A1C3F"/>
<path d="M236.052 281.79C233.652 280.853 231.438 282.867 231.122 285.191C230.806 287.516 232.51 290.702 234.353 291.935C234.534 292.04 234.736 292.102 234.944 292.117C235.152 292.132 235.361 292.099 235.554 292.02C235.748 291.942 235.921 291.82 236.06 291.665C236.199 291.509 236.301 291.324 236.357 291.123C236.598 289.946 235.27 288.914 234.704 287.982C234.303 287.326 233.797 286.594 233.752 285.808C233.687 284.675 234.604 283.433 235.821 283.568C236.914 283.693 236.934 282.13 236.062 281.79H236.052Z" fill="#1A1C3F"/>
<path d="M251.271 265.818C251.827 272.045 257.048 278.789 263.821 278.508C265.87 278.423 265.89 275.252 263.821 275.307C258.766 275.452 253.986 270.217 252.909 265.592C252.699 264.696 251.186 264.866 251.271 265.818Z" fill="#1A1C3F"/>
<path d="M351.07 294.675C351.743 295.359 352.536 295.913 353.41 296.308C353.537 296.38 353.677 296.424 353.822 296.438C353.968 296.452 354.114 296.435 354.252 296.388C354.39 296.341 354.516 296.265 354.623 296.166C354.73 296.067 354.814 295.946 354.871 295.812C354.928 295.677 354.955 295.533 354.952 295.387C354.948 295.241 354.914 295.098 354.851 294.966C354.789 294.835 354.699 294.718 354.588 294.624C354.477 294.529 354.347 294.46 354.207 294.419C353.47 294.129 352.759 293.777 352.082 293.367C351.908 293.277 351.707 293.251 351.516 293.294C351.324 293.336 351.153 293.445 351.034 293.601C350.914 293.757 350.854 293.95 350.862 294.146C350.871 294.343 350.948 294.53 351.08 294.675H351.07Z" fill="#1A1C3F"/>
<path d="M215.971 329.323C214.733 333.947 214.102 339.508 216.121 343.992C216.833 345.58 218.937 344.348 218.711 342.905C218.005 338.371 216.863 334.418 217.544 329.759C217.689 328.757 216.247 328.256 215.971 329.323Z" fill="#1A1C3F"/>
<path d="M237.929 325.838C239.337 328.844 240.805 331.85 241.937 335.016C242.939 337.727 243.706 340.687 245.389 343.072C246.471 344.61 249.081 343.729 248.545 341.74C247.734 338.734 245.825 336.153 244.232 333.523C242.538 330.723 241.07 327.787 239.522 324.906C238.951 323.844 237.428 324.776 237.924 325.838H237.929Z" fill="#1A1C3F"/>
<path d="M337.293 321.924C337.609 325.637 339.217 329.469 340.529 332.946C341.892 336.533 343.315 340.271 345.309 343.557C346.311 345.226 348.661 343.768 347.884 342.054C346.336 338.638 344.467 335.376 342.969 331.924C341.471 328.472 340.549 324.78 338.816 321.538C338.445 320.852 337.228 321.138 337.313 321.949L337.293 321.924Z" fill="#1A1C3F"/>
<path d="M254.552 177.168C276.271 179.102 298.184 179.172 319.968 178.912L319.537 175.72L317.854 175.951C315.785 176.231 316.651 179.413 318.725 179.102L320.404 178.857C322.227 178.586 321.771 175.62 319.968 175.66C298.159 176.161 276.381 175.58 254.552 175.5C253.465 175.5 253.5 177.073 254.552 177.168Z" fill="#34C6A0"/>
<path d="M270.955 130.987C270.058 134.324 270.995 138.147 271.371 141.508C271.822 145.471 272.293 149.439 272.839 153.392C273.34 157.185 273.966 160.972 274.587 164.75C274.923 166.754 275.434 169.083 277.934 168.718C279.477 168.492 278.821 166.148 277.288 166.373C277.242 166.373 272.087 134.259 272.563 131.423C272.733 130.386 271.24 129.92 270.955 130.977V130.987Z" fill="#EAB642"/>
<path d="M283.651 130.987C282.754 134.324 283.686 138.147 284.067 141.508C284.513 145.471 284.984 149.439 285.53 153.392C286.056 157.185 286.662 160.972 287.283 164.75C287.614 166.754 288.13 169.083 290.63 168.718C292.173 168.492 291.517 166.148 289.984 166.373C289.934 166.373 284.783 134.259 285.259 131.423C285.43 130.386 283.937 129.92 283.651 130.977V130.987Z" fill="#EAB642"/>
<path d="M296.345 130.987C295.443 134.324 296.38 138.147 296.761 141.508C297.207 145.471 297.677 149.439 298.224 153.392C298.725 157.185 299.356 160.972 299.977 164.75C300.308 166.754 300.824 169.083 303.324 168.718C304.867 168.492 304.211 166.148 302.672 166.373C302.627 166.373 297.472 134.259 297.948 131.423C298.123 130.386 296.625 129.92 296.345 130.977V130.987Z" fill="#EAB642"/>
<path d="M129.58 150.8C128.798 146.386 128.001 141.947 127.606 137.478C127.255 133.57 126.749 128.145 130.451 125.574C134.665 122.649 138.337 126.436 139.605 130.309C140.919 134.576 141.838 138.955 142.35 143.39C142.585 145.189 145.451 145.224 145.221 143.39C144.314 136.13 142.51 117.969 130.737 122.213C126.228 123.846 124.57 128.846 124.66 133.265C124.78 139.277 126.163 145.554 128.077 151.211C128.143 151.395 128.277 151.548 128.452 151.639C128.626 151.729 128.828 151.751 129.018 151.699C129.207 151.647 129.37 151.526 129.474 151.359C129.579 151.193 129.616 150.993 129.58 150.8Z" fill="#1A1C3F"/>
<path d="M133.161 140.832C133.01 137.711 132.66 134.584 132.6 131.463C132.539 128.342 133.071 123.978 136.542 122.716C143.902 120.05 145.43 131.333 145.911 136.102C146.076 137.69 148.587 137.706 148.416 136.102C147.765 129.815 145.801 118.126 136.838 120.135C127.875 122.144 130.771 134.699 131.628 141.042C131.743 141.909 133.196 141.703 133.156 140.832H133.161Z" fill="#1A1C3F"/>
<path d="M147.637 164.773C181.73 162.884 215.853 159.733 249.996 158.996C252.115 158.951 252.075 155.559 249.996 155.725C215.898 158.48 181.705 159.622 147.637 162.814C146.399 162.929 146.359 164.818 147.637 164.773Z" fill="#1A1C3F"/>
<path d="M266.483 118.877C267.359 114.789 266.277 110.516 267.485 106.508C268.988 101.568 274.363 102.084 278.642 101.853C280.906 101.733 283.181 101.688 285.45 101.718C287.58 101.743 291.578 101.217 293.416 102.41C294.869 103.346 294.819 105.972 294.949 107.42C295.045 108.472 296.062 112.635 294.949 113.381C292.845 114.794 294.208 117.745 296.618 117.339C299.123 116.924 299.969 114.424 299.919 112.174C299.842 109.156 299.355 106.163 298.471 103.276C296.407 96.8485 288.993 97.8004 283.507 97.8605C279.935 97.8921 276.367 98.1195 272.82 98.5418C270.105 98.8725 267.605 99.5088 265.806 101.738C261.833 106.748 264.749 112.981 264.679 118.617C264.679 119.619 266.242 119.874 266.463 118.857L266.483 118.877Z" fill="#1A1C3F"/>
<path d="M79.2979 99.5531C85.5884 98.0887 92.0479 97.4803 98.5012 97.7445C98.8247 97.7406 99.1339 97.6108 99.3631 97.3825C99.5923 97.1542 99.7235 96.8455 99.7287 96.5221V87.6444C99.7287 86.2466 99.4231 84.4881 100.074 83.2305C100.726 81.973 102.214 81.7877 103.581 81.3718C106.492 80.5051 113.692 77.2286 115.56 81.2366C116.217 82.6394 118.376 81.8879 118.376 80.475V71.6825C118.376 69.0623 117.434 64.6986 120.029 63.1655C124.673 60.42 130.55 58.922 135.821 57.895C138.596 57.3589 142.033 56.7527 144.338 58.8268C146.201 60.4952 147.158 63.1705 148.2 65.3699C150.872 71.0212 153.559 76.6725 156.262 82.3237C156.497 82.7222 156.879 83.0119 157.327 83.13C157.774 83.2482 158.25 83.1853 158.651 82.955C161.657 80.9961 165.064 78.6664 168.827 78.7566C172.589 78.8468 174.653 81.1614 174.939 84.6684C175.129 86.988 175.024 89.6784 176.642 91.5522C177.383 92.4029 178.377 92.9945 179.478 93.2405C180.65 93.506 184.488 92.6093 184.829 94.0872C185.36 96.3217 188.786 95.3748 188.265 93.1403C188.113 92.4639 187.793 91.8365 187.335 91.3157C186.878 90.7949 186.296 90.3973 185.645 90.1594C183.922 89.453 180.57 90.5351 179.368 89.1574C178.391 88.0301 178.671 85.7456 178.546 84.3578C178.396 82.6845 178.14 81.0161 177.258 79.5532C175.535 76.7025 172.053 75.2496 168.827 75.1895C164.408 75.1043 160.44 77.6043 156.888 79.9289L159.278 80.5552C156.006 73.7767 152.98 66.7927 149.398 60.1695C148.155 57.8799 146.507 55.7707 144.022 54.7888C141.116 53.6415 137.91 54.1575 134.944 54.7537C131.583 55.4283 128.281 56.3681 125.069 57.5643C122.534 58.5012 119.328 59.4581 117.249 61.2416C114.994 63.1805 115.245 66.0212 115.245 68.7567L115.34 80.4851L118.155 79.7235C115.395 73.9019 107.204 77.2185 102.8 78.5913C100.155 79.4229 97.2888 80.1344 96.9481 83.3357C96.4722 87.5942 97.1285 92.2535 97.2588 96.5321L98.4862 95.3046C91.8458 95.2595 85.2339 96.1775 78.857 98.0301C78.6633 98.0947 78.5018 98.2313 78.4058 98.4116C78.3099 98.5919 78.2869 98.8022 78.3416 98.9989C78.3962 99.1957 78.5244 99.364 78.6996 99.469C78.8747 99.574 79.0836 99.6077 79.2829 99.5631L79.2979 99.5531Z" fill="#34C6A0"/>
<path d="M342.644 150.225C350.41 149.699 358.175 149.223 365.946 148.642C366.913 148.567 367.95 147.405 367.203 146.448C362.694 140.586 367.819 132.45 375.089 134.594C375.334 134.659 375.591 134.667 375.839 134.618C376.088 134.568 376.322 134.463 376.523 134.309C376.725 134.155 376.889 133.957 377.002 133.731C377.116 133.504 377.176 133.254 377.178 133.001L377.323 119.975C377.348 117.891 377.323 115.792 377.394 113.707C377.484 111.132 378.576 110.466 380.931 109.82C385.074 108.682 389.277 107.745 393.506 106.974C395.595 106.593 397.689 106.232 399.793 105.972C400.735 105.764 401.712 105.764 402.654 105.972C404.037 106.408 404.623 107.66 405.239 108.903C406.983 112.464 408.31 116.214 409.192 120.08C410.094 123.948 410.024 127.79 410.61 131.663C411.657 138.617 420.996 132.395 424.578 136.909C426.852 139.774 423.816 144.684 424.653 148.101C425.339 150.897 427.509 153.512 430.625 153.186L428.711 151.728L428.475 151.703C426.391 152.114 426.827 155.681 428.976 155.456C431.567 155.185 433.055 153.256 432.534 150.671C432.415 150.254 432.165 149.886 431.82 149.623C431.475 149.36 431.054 149.216 430.62 149.213C426.692 149.624 429.197 141.824 429.312 140.02C429.459 138.527 429.172 137.024 428.485 135.691C427.798 134.358 426.74 133.251 425.439 132.505C422.789 131.002 419.508 130.827 416.547 131.207C415.68 131.318 414.748 131.668 414.327 130.902C413.987 130.285 414.197 128.552 414.137 127.861C413.974 125.794 413.703 123.737 413.325 121.698C412.556 117.635 411.334 113.671 409.683 109.88C408.315 106.713 406.812 102.931 403.015 102.325C399.217 101.718 394.468 103.161 390.69 103.923C386.447 104.78 381.762 105.501 377.754 107.214C373.671 108.963 373.972 112.766 373.957 116.603L373.872 132.996L375.966 131.403C373.831 130.763 371.55 130.8 369.437 131.51C367.324 132.219 365.483 133.567 364.167 135.366C361.377 139.314 361.998 144.554 364.914 148.206L365.946 145.701C358.17 146.563 350.415 147.515 342.644 148.427C341.537 148.557 341.482 150.28 342.644 150.2V150.225Z" fill="#34C6A0"/>
</svg>
