<svg width="501" height="501" viewBox="0 0 501 501" fill="none" xmlns="http://www.w3.org/2000/svg">
<path d="M391.782 421.095C301.641 416.658 211.315 417.682 121.297 424.161C109.774 424.993 98.2515 425.92 87.0591 428.785C77.2946 431.29 66.1173 438.059 67.2947 448.069C68.452 457.898 80.3207 461.937 90.0852 463.6C155.35 474.697 221.848 476.17 288.015 477.628C311.487 478.129 335.014 478.63 358.401 476.626C374.633 475.208 390.966 472.508 405.881 465.924C416.782 461.115 428.225 450.313 423.982 439.176C420.665 430.484 409.954 427.753 400.77 426.225" fill="#DDEDE8"/>
<path d="M391.782 420.007C337.453 417.191 283.071 416.348 228.636 417.477C201.442 418.041 174.267 419.107 147.113 420.673C133.716 421.445 120.265 422.106 106.918 423.509C96.0513 424.656 83.9171 425.924 74.5634 432.091C67.4091 436.81 62.4242 445.287 67.0484 453.609C71.1816 461.079 80.8109 463.93 88.6265 465.377C114.678 470.202 141.231 472.822 167.634 474.821C194.282 476.825 220.996 477.882 247.709 478.604C274.683 479.335 301.727 480.302 328.711 479.891C354.096 479.501 380.965 478.283 404.687 468.368C413.505 464.686 423.264 458.208 426.05 448.474C428.7 439.22 422.658 431.47 414.452 427.988C410.233 426.199 405.754 425.242 401.255 424.481C399.036 424.105 398.084 427.487 400.319 427.883C408.335 429.24 419.617 431.39 422.518 440.307C425.855 450.528 414.973 459.345 407.027 463.353C396.716 468.574 384.883 471.209 373.53 472.963C361.005 474.896 348.3 475.633 335.655 475.969C310.289 476.655 284.868 475.653 259.503 475.002C233.952 474.345 208.355 473.469 182.85 471.855C157.539 470.252 132.249 467.908 107.158 464.245C101.146 463.363 95.0643 462.512 89.0824 461.354C84.8539 460.533 80.5904 459.375 76.7979 457.296C73.3961 455.433 70.2849 452.697 69.4532 448.779C68.5013 444.32 70.7558 440.352 73.9872 437.452C81.9081 430.332 93.9771 428.86 104.087 427.602C116.718 426.034 129.488 425.388 142.163 424.566C167.627 422.903 193.132 421.66 218.676 420.839C270.062 419.242 321.465 419.417 372.884 421.365C379.183 421.605 385.479 421.871 391.772 422.161C393.169 422.226 393.164 420.057 391.772 419.987L391.782 420.007Z" fill="#DDEDE8"/>
<path d="M386.938 204.333C383.316 201.007 378.611 199.108 373.696 198.987C370.45 198.922 367.183 199.638 363.987 198.957C361.326 198.381 358.977 196.848 356.918 195.044C351.291 190.074 347.794 181.748 350.906 174.909C353.135 169.989 358.265 166.763 360.169 161.708C362.995 154.193 357.784 146.312 356.161 138.456C353.972 127.67 360.279 115.17 370.936 112.404C376.948 110.851 384.052 112.119 388.791 108.106C391.872 105.491 393.03 101.337 394.723 97.67C399.473 87.3945 409.823 79.8594 421.091 78.7722C432.358 77.6851 444.082 83.2111 450.194 92.7401C455.474 100.992 462.458 108.011 470.199 113.967C476.952 119.143 485.97 123.421 488.059 132.474C490.324 142.319 482.649 150.661 481.897 160.17C481.301 167.685 484.998 175.014 485.78 182.414C486.842 192.494 482.899 202.579 477.012 210.831C472.468 217.204 466.491 222.88 459.102 225.43C451.712 227.98 442.724 226.848 437.228 221.272C435.725 219.769 434.457 217.92 432.488 217.148C428.125 215.43 424.017 219.754 420.309 222.634C415.339 226.492 407.889 228.01 402.814 224.293C396.792 219.859 395.845 209.648 388.696 207.414" fill="#34C6A0"/>
<path d="M387.689 203.582C385.035 200.926 381.744 198.995 378.13 197.971C373.867 196.794 369.669 197.826 365.385 197.2C357.87 196.092 351.582 187.475 351.763 180.065C351.958 172.36 360.28 168.492 362.404 161.478C364.884 153.367 359.699 145.642 358.191 137.901C357.599 134.623 357.767 131.252 358.682 128.049C359.598 124.845 361.236 121.895 363.471 119.424C365.615 117.044 368.397 115.329 371.487 114.485C375.164 113.533 379.002 113.673 382.75 112.982C386.257 112.345 389.558 110.832 391.868 108.022C394.177 105.211 395.225 101.689 396.788 98.4475C400.098 91.6268 405.764 86.2334 412.739 83.2622C419.582 80.3848 427.272 80.2627 434.202 82.9215C437.728 84.2559 440.953 86.2773 443.691 88.8684C446.517 91.5437 448.346 94.8353 450.6 97.9565C455.652 104.86 461.657 111.014 468.436 116.233C473.446 120.166 479.879 123.442 483.225 129.094C487.233 135.877 483.611 142.846 481.001 149.389C479.553 153.016 478.36 156.689 478.11 160.617C477.829 165.015 478.871 169.429 479.959 173.643C480.996 177.681 482.083 181.659 482.058 185.867C481.964 190.138 481.083 194.356 479.458 198.307C476.597 205.546 471.652 212.605 465.52 217.45C459.929 221.869 452.614 224.199 445.625 222.034C442.018 220.922 440.084 218.502 437.414 216.062C434.443 213.347 430.635 212.36 426.803 213.813C420.044 216.378 415.956 224.183 407.79 222.861C401.492 221.859 399.824 214.309 396.166 210.09C394.293 207.921 392.038 206.127 389.288 205.241C386.537 204.354 385.45 208.557 388.1 209.559C391.176 210.732 392.254 213.793 393.676 216.488C395.22 219.419 396.682 222.385 398.872 224.91C404.333 231.198 413.541 230.922 420.295 226.949C423.301 225.175 426.211 221.213 429.738 220.531C431.292 220.236 432.163 221.278 433.145 222.34C434.545 223.936 436.12 225.369 437.84 226.613C444.498 231.233 453.816 231.673 461.241 228.793C477.389 222.53 489.387 203.828 489.848 186.709C489.979 181.974 488.937 177.39 487.709 172.851C486.532 168.492 485.139 163.968 485.735 159.399C486.767 151.508 491.802 144.81 491.862 136.644C491.923 128.477 487.008 122.47 480.84 117.836C474.327 112.946 467.639 108.708 461.837 102.881C458.533 99.6023 455.542 96.0212 452.905 92.185C450.777 88.9057 448.128 85.9951 445.064 83.5678C438.846 78.754 431.178 76.1944 423.316 76.3083C415.645 76.4887 408.326 79.4997 402.404 84.3243C399.388 86.7814 396.8 89.7201 394.744 93.0217C392.599 96.4586 391.567 100.411 389.503 103.878C385.109 111.253 374.824 108.387 367.91 111.218C361.517 113.853 356.953 119.66 354.884 126.148C352.329 134.134 354.659 141.178 357.189 148.788C358.601 153.041 359.909 157.806 357.795 162.044C356.096 165.461 353.025 168.006 350.826 171.062C346.232 177.47 347.229 185.662 351.557 191.944C353.772 195.161 356.768 198.061 360.315 199.755C364.458 201.734 368.426 200.942 372.84 200.782C377.675 200.544 382.431 202.081 386.212 205.105C387.259 205.947 388.717 204.604 387.715 203.602L387.689 203.582Z" fill="#34C6A0"/>
<path d="M108.988 207.123C102.475 206.722 97.8106 212.924 93.0962 217.443C86.063 224.133 76.798 227.977 67.0943 228.23C58.2316 228.43 48.2768 224.462 45.4611 216.055C43.0814 208.956 46.4631 200.83 43.8479 193.801C40.4812 184.693 29.2237 181.812 21.849 175.484C14.6396 169.302 11.1777 159.092 13.0264 149.798C14.8751 140.505 21.869 132.383 30.7868 129.112C39.4241 125.946 50.5763 126.316 55.5813 118.591C57.7206 115.279 58.1314 111.191 58.9531 107.333C61.5132 95.3545 69.4039 83.9568 80.9971 79.9538C92.5902 75.9508 107.405 81.4568 111.328 93.0699C113.041 98.1501 112.745 104.002 115.792 108.411C119.464 113.736 126.683 115.109 133.151 115.339C139.619 115.57 146.508 115.204 152.059 118.531C157.61 121.857 160.646 128.395 160.841 134.833C161.037 141.271 158.682 147.564 155.371 153.085C152.575 157.739 149.053 163.671 152.284 168.03C153.572 169.773 155.666 170.7 157.294 172.103C161.037 175.289 162.169 180.785 161.212 185.63C160.255 190.474 157.535 194.733 154.609 198.686C152.991 200.87 150.791 203.225 148.096 202.909C146.733 202.754 145.531 201.907 144.183 201.632C141.032 200.965 138.091 203.475 136.277 206.141C134.464 208.806 133.056 211.937 130.336 213.656C124.925 217.103 117.675 213.059 113.833 207.919" fill="#EF6348"/>
<path d="M108.988 205.995C101.297 205.244 96.2624 212.067 91.0871 216.596C84.3279 222.446 75.7023 225.69 66.7635 225.745C60.2505 225.745 52.3848 223.37 48.9179 217.413C46.7837 213.741 47.0692 209.397 47.2897 205.324C47.5251 201.01 47.7155 196.596 46.0773 192.508C43.467 185.995 37.3148 182.343 31.5483 178.951C24.91 175.043 19.0483 170.745 16.4381 163.145C15.1323 159.426 14.7325 155.45 15.2718 151.547C15.8112 147.643 17.2742 143.924 19.5393 140.7C24.1034 134.147 30.8418 131.181 38.3769 129.462C44.8899 127.959 52.2195 126.617 56.6283 121.071C59.2736 117.749 60.0752 113.676 60.8718 109.608C61.5933 105.608 62.8716 101.73 64.6694 98.0847C68.1363 91.2811 73.6473 85.2291 80.9118 82.4786C84.0718 81.3212 87.4443 80.8595 90.7991 81.125C94.1539 81.3904 97.4119 82.3768 100.351 84.0166C103.314 85.6169 105.796 87.9795 107.54 90.8603C109.544 94.2821 109.865 98.245 110.631 102.048C111.398 105.85 112.825 109.643 115.761 112.358C118.457 114.863 121.949 116.301 125.496 117.088C133.432 118.856 142.88 116.707 150.115 120.955C157.54 125.314 158.632 134.983 156.392 142.543C155.11 146.897 152.74 150.559 150.601 154.497C148.687 158.004 146.909 162.188 147.825 166.271C148.797 170.604 152.159 172.032 155.155 174.728C157.865 177.163 158.597 181.241 158.021 184.713C157.264 189.252 154.614 193.44 151.893 197.062C150.967 198.295 149.759 200.093 148.036 199.948C146.984 199.858 145.937 199.151 144.894 198.946C143.829 198.726 142.729 198.726 141.663 198.946C137.84 199.743 135.195 202.904 133.231 206.055C131.267 209.207 129.183 212.939 124.819 212.568C120.902 212.253 117.555 209.427 115.185 206.496C113.812 204.798 110.806 207.082 112.134 208.851C116.473 214.627 125.16 220.269 132.174 215.339C135.746 212.834 136.904 208.415 140.055 205.584C142.109 203.741 143.422 204.252 145.741 205.138C146.794 205.57 147.929 205.767 149.065 205.716C150.202 205.665 151.314 205.367 152.324 204.843C156.262 202.839 159.083 198.134 161.197 194.417C163.482 190.409 165.095 185.8 164.829 181.12C164.589 176.817 162.966 172.553 159.674 169.658C158.276 168.425 156.262 167.614 155.1 166.151C153.847 164.557 154.403 162.513 155.055 160.785C156.728 156.331 159.774 152.483 161.568 148.054C163.401 143.545 164.459 138.561 164.023 133.686C163.246 124.978 158.281 117.088 149.809 114.147C141.172 111.141 131.538 114.337 123.066 110.825C113.943 107.048 116.237 96.216 112.179 88.8413C104.664 75.179 85.521 72.9395 73.2615 81.0908C66.478 85.5998 61.6183 92.4234 58.6674 99.9384C57.0091 104.157 56.488 108.551 55.3458 112.899C54.2035 117.248 51.7636 120.134 47.7005 121.917C40.5562 125.039 32.4651 124.923 25.5663 128.821C22.0032 130.843 18.877 133.553 16.3692 136.792C13.8614 140.032 12.0218 143.738 10.9572 147.694C9.94712 151.777 9.80379 156.026 10.5364 160.168C11.269 164.31 12.8613 168.253 15.2106 171.742C19.8349 178.53 26.9791 181.787 33.6324 186.15C36.6384 188.124 39.6444 190.524 41.1474 193.886C43.1063 198.225 42.1745 203.26 42.0192 207.849C41.7336 216.231 44.7947 223.41 52.4149 227.468C59.7045 231.351 68.4469 231.441 76.2825 229.357C85.1753 226.992 91.9588 221.661 98.1161 215.043C101.077 211.862 104.389 208.465 109.003 208.245C109.302 208.245 109.589 208.126 109.8 207.914C110.011 207.703 110.13 207.416 110.13 207.117C110.13 206.818 110.011 206.532 109.8 206.32C109.589 206.109 109.302 205.99 109.003 205.99L108.988 205.995Z" fill="#EF6348"/>
<path d="M267.289 109.785C260.275 101.048 256.297 89.6101 257.77 78.498C259.243 67.3858 266.532 56.9099 276.988 52.8818C280.29 51.6043 283.807 50.973 287.158 49.8307C290.51 48.6885 293.812 46.9099 295.79 43.9741C297.769 41.0382 298.035 36.7396 295.645 34.1244C295.057 33.5885 294.516 33.0036 294.027 32.3759C293.125 30.9781 293.416 29.0493 294.368 27.6866C295.32 26.3238 296.807 25.4321 298.331 24.7657C306.737 21.0784 316.903 23.2627 324.383 28.5884C327.058 30.4972 329.528 32.8619 330.85 35.8729C332.173 38.8839 332.163 42.6264 330.159 45.2666L336.482 41.2937C337.353 40.7476 338.325 40.1765 339.342 40.3218C340.178 40.5067 340.935 40.9481 341.507 41.5843C344.764 44.6987 347.159 48.6027 348.461 52.9169C349.132 55.1664 349.498 57.6063 348.836 59.8608C348.175 62.1153 346.286 64.1343 343.947 64.3698C345.45 64.2094 346.807 65.3718 347.288 66.7846C347.769 68.1974 347.519 69.7455 347.038 71.1483C344.357 79.039 335.344 82.9969 327.038 83.6733C318.731 84.3496 310.34 82.6713 302.063 83.5982C287.589 85.2565 274.468 95.6222 269.498 109.33" fill="#34C6A0"/>
<path d="M268.38 109.146C262.268 100.864 258.595 90.4938 259.642 80.1231C260.564 70.9297 265.574 61.9268 273.51 57.017C281.301 52.1973 293.806 53.2044 298.365 43.8407C300.218 40.0331 299.768 35.4489 296.812 32.3678C292.017 27.3578 303.3 25.0882 306.611 25.0081C312.308 24.8628 317.929 26.8217 322.588 30.0181C326.992 33.0541 331.937 38.7154 328.355 44.1763C327.197 45.9399 329.487 48.1843 331.24 47.0621L335.168 44.5872C336.195 43.9308 337.618 42.6182 338.851 42.6984C340.91 42.8286 342.974 46.6513 343.931 48.3146C345.865 51.6963 349.522 60.8897 343.269 61.9719C340.404 62.4729 341.2 66.8366 343.936 66.9017C346.28 66.9518 344.271 71.3506 343.69 72.3576C342.771 73.9113 341.56 75.2724 340.123 76.3656C337.157 78.6602 333.46 79.9578 329.808 80.6541C320.324 82.4527 310.549 79.8125 300.99 81.1551C285.684 83.3094 272.503 94.2513 267.223 108.71C266.171 111.581 270.73 112.773 271.772 109.968C276.551 97.4026 288.635 87.6732 302.062 86.1702C316.446 84.567 333.775 90.5689 345.324 78.6552C347.718 76.1902 349.672 72.8736 350.018 69.4017C350.404 65.554 348.014 61.8867 343.946 61.8516L344.612 66.7815C354.377 64.9829 351.776 52.7234 348.304 46.6513C346.651 43.7705 343.861 39.502 340.529 38.4098C338.655 37.7936 337.022 38.5501 335.454 39.492C333.315 40.7545 331.225 42.1122 329.111 43.4198L331.997 46.3056C339.201 35.6643 326.15 25.5792 317.212 22.5432C312.072 20.7846 306.371 20.3187 301.085 21.6864C296.666 22.8237 290.96 25.6944 291.466 31.0952C291.727 33.8658 294.397 34.9179 295.018 37.4379C295.785 40.5491 293.891 43.5 291.486 45.2785C286.681 48.8206 280.214 49.0811 274.853 51.4408C265.334 55.6342 258.365 64.9979 256.186 75.068C253.425 87.8535 258.165 100.93 266.391 110.704C267.308 111.791 269.237 110.328 268.395 109.171L268.38 109.146Z" fill="#34C6A0"/>
<path d="M218.225 151.193C218.206 149.807 217.969 148.432 217.524 147.12C217.023 145.642 215.966 144.064 214.408 144.059C213.96 144.083 213.525 144.212 213.136 144.435C212.747 144.657 212.416 144.968 212.168 145.341C211.667 146.099 211.326 146.952 211.166 147.846C210.854 149.093 210.747 150.383 210.851 151.664C211.226 155.101 213.967 158.057 217.279 159.044" fill="#F7CEBF"/>
<path d="M219.172 151.192C219.467 148.431 219.036 144.629 216.476 142.945C213.916 141.262 211.04 143.086 209.923 145.576C207.062 151.933 210.389 158.722 216.772 160.931C219.182 161.768 220.244 157.925 217.829 157.109C214.778 156.107 212.644 153.486 212.769 150.205C212.814 148.887 213.155 144.934 215.459 146.417C216.667 147.194 217.047 150.13 217.308 151.427C217.533 152.56 219.066 152.159 219.172 151.177V151.192Z" fill="#1A1C3F"/>
<path d="M196.436 277.179C190.925 282.69 181.832 280.856 174.222 279.253C158.846 276.011 142.624 275.305 127.584 279.854C112.544 284.403 98.8114 294.699 92.4537 309.072C86.547 322.419 87.4938 338.191 93.105 351.657C98.7162 365.124 108.636 376.477 120.039 385.61C142.474 403.606 170.54 413.526 198.941 418.045C227.343 422.564 256.286 421.978 285.023 420.866C294.041 420.515 303.936 420.365 311.075 425.931C314.417 428.536 317.202 432.399 321.396 433.03C325.038 433.581 328.67 431.326 330.699 428.25C332.728 425.174 333.435 421.427 333.821 417.764C334.845 407.941 333.893 398.011 331.02 388.561C329.737 384.353 328.014 380.129 324.853 377.038C321.807 374.032 317.733 372.404 313.735 370.931C270.454 354.994 222.553 351.212 182.418 328.501C191.937 336.823 204.728 340.109 216.987 343.14L264.988 354.984C269.046 355.986 273.315 356.988 277.358 355.921C283.094 354.418 287.082 348.907 288.62 343.201C290.158 337.494 289.697 331.427 289.392 325.5C288.425 306.976 289.041 288.404 291.23 269.984" fill="white"/>
<path d="M204.933 284.173C199.422 289.684 190.324 287.851 182.714 286.247C167.338 283.001 151.116 282.299 136.076 286.849C121.036 291.398 107.304 301.693 100.946 316.067C95.0441 329.419 95.986 345.185 101.597 358.652C107.208 372.119 117.128 383.471 128.531 392.605C150.966 410.601 179.032 420.52 207.433 425.039C235.835 429.558 264.778 428.982 293.515 427.855C302.533 427.504 312.433 427.354 319.567 432.92C322.909 435.525 325.7 439.388 329.888 440.019C333.53 440.57 337.162 438.316 339.191 435.24C341.22 432.164 341.927 428.416 342.313 424.754C343.337 414.93 342.385 405.001 339.512 395.551C338.23 391.342 336.506 387.119 333.345 384.028C330.304 381.022 326.226 379.393 322.228 377.92C278.941 362.014 231.041 358.216 190.88 335.521C200.399 343.842 213.19 347.129 225.449 350.16L273.45 362.004C277.513 363.006 281.777 364.008 285.82 362.94C291.556 361.437 295.544 355.951 297.082 350.225C298.62 344.499 298.16 338.447 297.854 332.52C296.893 313.996 297.508 295.424 299.693 277.004" fill="#4747E2"/>
<path d="M195.756 276.495C191.788 279.917 186.522 279.757 181.637 279C176.552 278.219 171.582 276.846 166.497 276.035C155.335 274.241 143.952 274.031 132.815 276.275C114.629 279.962 97.2439 291.776 90.0145 309.276C81.9233 328.815 87.6698 351.215 99.7489 367.778C111.828 384.341 129.408 396.705 147.92 405.232C190.154 424.686 237.519 424.771 283.065 423.058C293.13 422.672 303.806 422.056 311.747 429.3C314.818 432.111 318.03 435.207 322.473 435.227C326.917 435.247 330.82 432.301 332.964 428.609C335.555 424.155 336.01 418.669 336.256 413.634C336.517 408.058 336.166 402.47 335.209 396.971C333.506 386.991 330.339 376.49 320.745 371.555C316.116 369.175 311.011 367.597 306.091 365.959C301.171 364.321 296.121 362.788 291.061 361.355C280.54 358.349 269.934 355.739 259.327 353.093C238.356 347.863 217.163 342.572 197.369 333.725C192.619 331.6 187.977 329.262 183.441 326.711C181.437 325.593 179.032 328.409 180.906 330.002C189.899 337.678 201.141 341.25 212.429 344.07C225.951 347.442 239.478 350.653 253.005 353.965C263.766 356.605 277.634 362.542 286.071 352.156C293.937 342.497 291.131 328.68 290.835 317.237C290.43 301.45 291.336 285.714 292.869 270.008C293.045 268.204 289.929 267.758 289.678 269.577C287.992 282.304 287.165 295.13 287.203 307.968C287.203 314.296 287.393 320.614 287.704 326.931C288.025 332.863 288.436 339.146 286.241 344.802C284.322 349.757 280.274 354.125 274.718 354.536C271.737 354.757 268.776 354.035 265.901 353.329C262.554 352.512 259.212 351.671 255.881 350.824C243.406 347.728 230.932 344.618 218.461 341.495C206.362 338.444 193.571 335.363 183.892 327.031L181.362 330.333C217.258 350.598 258.516 356.024 297.454 367.838C302.464 369.341 307.423 370.984 312.333 372.768C316.907 374.426 321.692 376.245 324.758 380.233C327.824 384.22 329.267 389.596 330.354 394.496C331.588 400.016 332.161 405.664 332.063 411.32C331.987 416.385 331.862 422.397 329.082 426.821C327.869 428.749 325.975 430.388 323.706 430.874C321.306 431.375 319.197 430.197 317.398 428.734C313.941 425.909 311.121 422.888 306.902 421.149C302.799 419.451 298.345 418.845 293.937 418.644C282.995 418.203 271.938 419.255 260.991 419.431C249.388 419.611 237.774 419.501 226.191 418.8C204.869 417.502 183.606 414.08 163.426 406.881C144.583 400.157 126.522 390.012 112.324 375.764C98.1257 361.515 88.0656 342.006 91.1267 321.485C93.9273 302.713 108.516 288.595 126.021 282.613C136.217 279.131 147.003 278.194 157.71 278.795C163.345 279.153 168.95 279.884 174.488 280.984C178.676 281.791 182.93 282.558 187.208 282.182C190.986 281.846 194.428 280.574 197.118 277.833C198 276.931 196.682 275.659 195.751 276.465L195.756 276.495Z" fill="#1A1C3F"/>
<path d="M96.8379 177.453C98.902 175.655 98.5112 172.403 97.9501 169.728C97.8717 169.182 97.688 168.656 97.409 168.18C97.1137 167.819 96.7993 167.475 96.4671 167.148C95.0142 165.379 96.2116 162.468 98.2557 161.436C105.691 157.689 113.531 165.615 116.352 171.727C118.932 177.313 119.809 183.636 119.944 189.733C120.052 191.334 119.937 192.943 119.603 194.512C119.037 196.46 117.825 198.157 116.165 199.323C114.506 200.49 112.499 201.056 110.475 200.93C107.71 200.685 105.22 199.122 103.196 197.223C101.172 195.324 99.5232 193.075 97.6445 191.035" fill="white"/>
<path d="M96.8379 180.535C98.902 178.737 98.5112 175.485 97.9501 172.81C97.8717 172.264 97.688 171.738 97.409 171.262C97.1485 170.876 96.7677 170.586 96.4671 170.225C95.0142 168.461 96.2116 165.551 98.2557 164.518C105.691 160.771 113.531 168.697 116.352 174.809C118.932 180.395 119.809 186.718 119.944 192.81C120.052 194.413 119.937 196.023 119.603 197.594C119.037 199.542 117.824 201.239 116.165 202.405C114.506 203.572 112.499 204.138 110.475 204.012C107.71 203.767 105.22 202.204 103.196 200.305C101.172 198.406 99.5232 196.157 97.6445 194.118" fill="#F7CEBF"/>
<path d="M97.3088 178.256C99.6885 176.683 99.9691 173.747 99.7637 171.107C99.6484 169.604 99.4781 168.211 98.6464 166.944C98.0903 166.107 97.5092 165.902 97.6845 164.789C97.8599 163.677 99.0823 163.001 100.059 162.665C106.467 160.476 112.524 167.986 114.653 173.101C116.141 176.88 117.045 180.864 117.334 184.915C117.619 188.201 118.416 193.006 116.332 195.841C113.982 199.008 109.924 198.988 106.893 196.909C103.747 194.754 102.093 190.932 98.8769 188.948C96.6875 187.59 94.5633 190.205 95.5703 192.259C97.0733 195.355 100.315 198.407 103.055 200.456C105.901 202.58 109.343 203.897 112.92 203.291C114.518 203.005 116.038 202.385 117.382 201.474C118.726 200.563 119.863 199.379 120.721 198.001C122.725 194.759 122.454 190.756 122.224 187.109C121.723 179.814 120.089 172.274 115.475 166.423C111.763 161.718 105.791 157.179 99.443 159.028C96.437 159.9 93.7767 162.385 94.1174 165.741C94.3178 167.69 95.8709 168.747 96.4721 170.501C97.2236 172.725 97.3288 174.96 96.0663 176.984C95.9684 177.162 95.9309 177.366 95.9594 177.567C95.988 177.768 96.081 177.955 96.2246 178.098C96.3681 178.242 96.5543 178.335 96.7553 178.363C96.9562 178.392 97.161 178.354 97.3388 178.256H97.3088Z" fill="#1A1C3F"/>
<path d="M191.086 261.019C180.029 270.934 168.732 281.004 155.16 287.021C141.588 293.038 125.1 294.441 112.254 287.021C100.571 280.273 93.6269 267.307 90.7111 254.136C87.7953 240.964 88.2712 227.307 88.0358 213.815C87.9356 208.044 87.5899 201.927 84.3484 197.147C83.2612 195.544 81.8885 194.141 80.8113 192.543C78.7071 189.387 77.8705 185.529 77.5548 181.771C77.134 176.636 77.8204 170.96 81.4777 167.332C82.2537 166.577 83.1645 165.974 84.163 165.554C88.3414 163.77 92.5448 168.274 90.3253 172.242C89.5027 173.683 89.1294 175.337 89.2532 176.992C89.7412 175.457 90.6275 174.079 91.8219 172.998C93.0162 171.917 94.4758 171.172 96.0518 170.839H96.157C99.8694 170.168 102.299 174.517 99.9195 177.443C99.0832 178.471 98.4369 179.64 98.0107 180.895C99.7742 178.891 101.693 176.741 104.288 176.055C104.972 175.88 105.684 175.844 106.382 175.95C108.622 176.275 109.844 178.6 109.148 180.754C109.008 181.213 108.984 181.699 109.078 182.169C109.171 182.639 109.38 183.079 109.684 183.45C110.731 184.632 112.369 185.023 113.817 185.654C120.455 188.535 123.081 196.31 126.202 202.838C128.281 207.192 130.861 211.28 133.431 215.363L143.632 231.541C152.55 219.513 163.627 209.249 176.297 201.27C181.437 198.039 187.139 195.113 193.211 195.258" fill="white"/>
<path d="M189.879 271.348C178.857 281.263 167.535 291.333 153.962 297.35C140.39 303.367 123.902 304.765 111.057 297.35C99.3735 290.602 92.4296 277.631 89.5138 264.46C86.598 251.288 87.074 237.636 86.8385 224.144C86.7383 218.368 86.3926 212.255 83.1511 207.471C82.064 205.873 80.6912 204.465 79.6141 202.872C77.5099 199.715 76.6732 195.858 76.3576 192.1C75.9367 186.965 76.6231 181.289 80.2804 177.656C81.0568 176.901 81.9676 176.298 82.9658 175.878C87.1441 174.094 91.3475 178.603 89.1281 182.571C88.3061 184.011 87.9328 185.663 88.0559 187.316C88.5459 185.779 89.4355 184.4 90.6335 183.32C91.8316 182.239 93.2952 181.497 94.8745 181.168H94.9797C98.6922 180.497 101.117 184.841 98.7423 187.772C97.906 188.8 97.2597 189.969 96.8334 191.223C98.597 189.219 100.516 187.07 103.111 186.384C103.794 186.206 104.507 186.17 105.205 186.279C107.445 186.604 108.667 188.929 107.966 191.083C107.828 191.542 107.806 192.028 107.9 192.498C107.994 192.968 108.203 193.408 108.507 193.779C109.554 194.956 111.192 195.352 112.64 195.978C119.278 198.859 121.903 206.639 125.025 213.167C127.104 217.521 129.684 221.609 132.254 225.692L142.455 241.87C151.373 229.842 162.449 219.578 175.12 211.599C180.26 208.363 185.961 205.442 192.033 205.562" fill="#F7CEBF"/>
<path d="M116.233 287.811C112.646 284.93 112.726 278.608 116.393 275.822C120.06 273.037 126.173 274.64 127.991 278.868C127.991 273.082 131.208 266.764 136.839 265.432C138.055 265.077 139.358 265.176 140.506 265.712C142.315 266.714 142.916 268.979 143.137 271.023C143.387 273.355 143.379 275.707 143.111 278.037C144.038 276.159 145.415 274.539 147.119 273.322C148.597 272.189 150.413 271.589 152.275 271.619C154.113 271.729 155.957 272.836 156.593 274.57C157.44 276.894 156.007 279.379 154.629 281.439C155.441 280.391 157.28 280.657 158.021 281.749C158.763 282.841 158.522 284.394 157.781 285.482C156.954 286.524 155.872 287.336 154.639 287.836C148.602 290.662 141.664 290.572 135 290.421L125.481 290.211C122.761 290.151 119.935 290.066 117.525 288.803" fill="#EF6348"/>
<path d="M116.818 287.214C114.313 284.293 113.953 279.063 117.67 276.848C120.786 274.99 124.945 276.653 126.423 279.774C127.229 281.478 129.719 280.526 129.774 278.867C129.915 274.789 131.593 270.11 135.371 268.041C137.715 266.763 140.23 266.919 140.927 269.819C141.558 272.465 141.372 275.38 141.092 278.056C140.882 280.06 143.933 280.746 144.829 279.058C146.132 276.623 148.487 273.918 151.468 273.707C152.84 273.607 154.223 274.208 154.569 275.586C154.98 277.224 153.567 279.058 152.745 280.355C151.362 282.48 154.383 284.579 156.137 282.971C156.253 283.153 156.302 283.37 156.277 283.584C156.251 283.799 156.152 283.998 155.997 284.148C155.784 284.622 155.412 285.007 154.945 285.235C154.252 285.678 153.521 286.059 152.76 286.372C151.341 286.976 149.868 287.446 148.361 287.775C144.965 288.557 141.508 288.622 138.036 288.577C134.564 288.532 131.237 288.416 127.84 288.326C124.444 288.236 121.187 288.276 118.016 286.959C116.012 286.117 114.624 289.464 116.538 290.466C121.287 292.971 127.405 292.209 132.6 292.304C138.196 292.404 143.877 292.6 149.419 291.608C153.582 290.861 159.729 289.103 160.516 284.193C161.207 279.904 156.392 276.898 153.081 279.915L156.473 282.53C157.951 280.275 159.408 277.59 158.827 274.789C158.558 273.63 157.985 272.563 157.167 271.698C156.349 270.834 155.316 270.202 154.173 269.869C148.827 268.256 143.692 272.59 141.362 277.029L145.105 278.031C145.451 274.454 145.716 269.945 143.953 266.643C142.284 263.512 138.918 262.695 135.671 263.717C129.313 265.721 126.247 272.61 126.152 278.842L129.504 277.936C126.999 272.926 119.905 270.987 115.401 274.564C111.112 277.976 111.172 285.42 115.761 288.522C116.603 289.088 117.39 287.88 116.793 287.189L116.818 287.214Z" fill="#EF6348"/>
<path d="M115.314 187.734C121.642 192.92 122.99 201.878 126.677 208.806C131.101 217.118 136.587 224.758 141.707 232.629C142.669 234.107 144.548 233.992 145.53 232.629C154.372 220.644 165.446 210.481 178.145 202.699C182.759 199.884 187.664 197.484 193.175 197.489C196.111 197.489 196.116 192.905 193.175 192.925C182.308 193 172.519 200.555 164.367 207.008C155.81 213.776 148.335 221.762 141.682 230.394H145.505C140.39 221.993 135.109 213.676 130.044 205.249C126.076 198.646 123.32 190.395 116.667 185.931C115.605 185.214 114.267 186.903 115.279 187.734H115.314Z" fill="#1A1C3F"/>
<path d="M190.274 260.214C178.556 270.309 166.382 280.926 151.587 286.196C138.175 290.966 122.314 291.457 110.365 282.739C98.7918 274.292 93.3309 259.693 91.4422 245.976C90.2548 237.399 90.1947 228.721 90.1997 220.079C90.1997 212.84 90.6556 204.874 87.4141 198.175C85.5654 194.353 82.1536 191.702 80.821 187.584C79.5774 183.733 79.2481 179.646 79.859 175.645C80.36 172.685 82.4743 166.803 86.4221 167.389C88.336 167.669 89.0073 169.493 88.3961 171.116C87.6446 173.12 86.9532 174.779 87.0183 176.983C87.0935 179.543 90.5253 179.909 91.372 177.569C92.0584 175.62 95.2548 171.748 97.7497 173.206C98.6916 173.757 98.7517 174.894 98.3309 175.781C97.6045 177.344 96.4722 178.591 95.8259 180.29C95.0343 182.389 98.1455 184.122 99.5884 182.479C100.951 180.926 103.596 177.434 106.046 178.236C107.484 178.702 106.848 179.984 106.773 181.126C106.68 182.354 107.007 183.576 107.7 184.593C109.288 187.048 113.246 184.759 111.637 182.289C111.041 181.372 111.637 180.159 111.567 179.137C111.522 178.321 111.309 177.523 110.941 176.793C110.528 175.974 109.924 175.268 109.18 174.732C108.436 174.197 107.575 173.848 106.668 173.717C102.379 173.01 98.9722 176.352 96.4071 179.293L100.17 181.487C101.172 178.792 103.436 177.098 103.01 173.972C102.864 172.843 102.414 171.775 101.708 170.882C101.002 169.989 100.067 169.305 99.0022 168.902C93.8319 167.078 88.6766 171.908 87.0985 176.417L91.4572 177.008C91.387 174.819 92.5744 173.311 92.9852 171.267C93.2948 169.678 93.0265 168.031 92.2287 166.622C91.4537 165.252 90.2478 164.175 88.7984 163.56C87.349 162.945 85.737 162.826 84.2127 163.221C76.6576 165.285 74.849 174.744 75.33 181.422C75.6055 185.285 76.3671 189.202 78.2859 192.614C80.4803 196.517 83.6666 199.172 84.834 203.686C85.9312 207.93 85.836 212.379 85.9111 216.712C85.9913 221.722 86.0714 226.697 86.1867 231.687C86.5674 248.546 89.0474 266.592 100.17 280.019C110.821 292.889 127.429 296.687 143.356 293.275C162.674 289.132 177.925 274.884 191.893 261.842C192.98 260.84 191.392 259.267 190.269 260.224L190.274 260.214Z" fill="#1A1C3F"/>
<path d="M149.919 242.117C148.792 238.971 148.055 235.754 147.048 232.598C146.322 230.314 144.809 227.794 142.83 226.391C141.577 225.504 139.824 226.972 140.265 228.36C140.996 230.714 141.703 233.224 143.1 235.284C144.809 237.789 146.362 240.339 147.825 243.009C148.436 244.126 150.365 243.37 149.919 242.127V242.117Z" fill="#1A1C3F"/>
<path d="M98.3558 189.068C97.9901 185.606 100.615 182.745 101.191 179.579C101.457 178.126 99.974 176.638 98.5412 177.54C96.6824 178.712 95.455 181.137 94.974 183.246C94.3778 185.832 94.974 187.415 96.0712 189.689C96.5722 190.751 98.486 190.27 98.3558 189.068Z" fill="#1A1C3F"/>
<path d="M88.9771 185.896C89.1875 183.331 89.5182 181.177 90.7857 178.908C91.8528 176.999 93.1254 175.461 93.2907 173.226C93.4009 171.773 91.452 170.591 90.2446 171.478C85.5302 174.94 85.7356 181.087 86.9129 186.177C87.1935 187.389 88.8769 187.019 88.967 185.896H88.9771Z" fill="#1A1C3F"/>
<path d="M406.742 177.453C404.683 175.655 405.069 172.403 405.63 169.728C405.71 169.182 405.894 168.657 406.171 168.18C406.436 167.794 406.817 167.504 407.113 167.148C408.565 165.379 407.368 162.468 405.324 161.436C397.894 157.689 390.049 165.615 387.228 171.727C384.653 177.313 383.771 183.636 383.636 189.733C383.53 191.334 383.645 192.942 383.976 194.512C384.543 196.461 385.756 198.158 387.416 199.325C389.077 200.491 391.085 201.058 393.11 200.93C395.87 200.685 398.36 199.122 400.384 197.223C402.408 195.324 404.056 193.075 405.94 191.035" fill="white"/>
<path d="M406.742 180.535C404.683 178.737 405.068 175.485 405.63 172.81C405.71 172.264 405.894 171.739 406.171 171.262C406.436 170.876 406.817 170.586 407.113 170.225C408.565 168.461 407.368 165.551 405.324 164.518C397.894 160.771 390.048 168.697 387.228 174.809C384.653 180.395 383.771 186.718 383.636 192.81C383.53 194.413 383.645 196.023 383.976 197.594C384.543 199.543 385.756 201.24 387.416 202.407C389.076 203.573 391.085 204.14 393.11 204.012C395.87 203.767 398.36 202.204 400.384 200.305C402.408 198.406 404.056 196.157 405.94 194.118" fill="#F7CEBF"/>
<path d="M407.543 176.983C406.426 175.185 406.416 173.556 406.877 171.517C407.278 169.744 408.485 168.687 409.146 167.109C410.234 164.513 408.811 161.447 406.511 160.029C400.825 156.522 394.061 159.999 389.978 164.293C384.968 169.578 382.644 176.462 381.742 183.596C380.855 190.645 380.379 199.057 388.014 202.469C391.652 204.092 395.609 203.536 398.976 201.522C402.343 199.508 406.296 195.826 408.039 192.259C409.041 190.205 406.922 187.589 404.728 188.947C401.516 190.951 399.873 194.759 396.712 196.908C393.651 198.997 389.653 199.002 387.273 195.841C385.219 193.115 385.955 188.521 386.211 185.35C386.474 181.15 387.39 177.018 388.926 173.1C391.085 167.925 397.077 160.575 403.52 162.665C404.522 162.99 405.7 163.627 405.895 164.789C406.07 165.816 405.444 166.142 404.938 166.943C404.116 168.251 403.936 169.578 403.816 171.106C403.615 173.752 403.891 176.678 406.276 178.256C407.052 178.757 408.024 177.755 407.543 176.983Z" fill="#1A1C3F"/>
<path d="M312.498 261.019C323.55 270.934 334.848 281.004 348.42 287.021C361.992 293.038 378.48 294.441 391.326 287.021C403.009 280.273 409.953 267.307 412.869 254.136C415.785 240.964 415.304 227.307 415.539 213.815C415.639 208.044 415.985 201.927 419.226 197.147C420.314 195.544 421.691 194.141 422.763 192.543C424.868 189.387 425.709 185.529 426.02 181.771C426.441 176.636 425.754 170.96 422.097 167.332C421.323 166.575 420.412 165.971 419.412 165.554C415.233 163.77 411.03 168.274 413.249 172.242C414.072 173.683 414.445 175.337 414.322 176.992C413.834 175.457 412.948 174.08 411.755 172.999C410.562 171.918 409.103 171.173 407.528 170.839H407.423C403.71 170.168 401.286 174.517 403.66 177.443C404.498 178.47 405.145 179.639 405.569 180.895C403.806 178.891 401.887 176.741 399.292 176.055C398.609 175.879 397.899 175.844 397.202 175.95C394.958 176.275 393.736 178.6 394.437 180.754C394.574 181.213 394.597 181.699 394.503 182.169C394.408 182.639 394.2 183.079 393.896 183.45C392.849 184.632 391.21 185.023 389.763 185.654C383.124 188.535 380.499 196.31 377.378 202.838C375.299 207.192 372.724 211.28 370.148 215.363L359.953 231.511C351.032 219.484 339.954 209.22 327.283 201.24C322.143 198.009 316.441 195.083 310.369 195.228" fill="white"/>
<path d="M313.696 271.348C324.748 281.263 336.045 291.333 349.617 297.35C363.189 303.367 379.677 304.765 392.523 297.35C404.206 290.602 411.155 277.631 414.066 264.46C416.977 251.288 416.501 237.636 416.736 224.144C416.842 218.368 417.182 212.255 420.424 207.471C421.511 205.873 422.889 204.465 423.961 202.872C426.065 199.715 426.907 195.858 427.217 192.1C427.638 186.965 426.952 181.289 423.294 177.656C422.519 176.9 421.608 176.297 420.609 175.878C416.431 174.094 412.227 178.603 414.447 182.571C415.269 184.011 415.642 185.663 415.519 187.316C415.029 185.779 414.139 184.4 412.941 183.32C411.743 182.239 410.28 181.497 408.7 181.168H408.595C404.883 180.497 402.458 184.841 404.833 187.772C405.671 188.798 406.317 189.968 406.741 191.223C404.983 189.219 403.059 187.07 400.464 186.384C399.782 186.206 399.071 186.17 398.375 186.279C396.13 186.604 394.908 188.929 395.609 191.083C395.748 191.542 395.771 192.028 395.676 192.499C395.582 192.969 395.373 193.408 395.068 193.779C394.026 194.956 392.383 195.352 390.94 195.978C384.297 198.859 381.671 206.639 378.55 213.167C376.471 217.521 373.896 221.609 371.321 225.692L361.125 241.87C352.206 229.843 341.129 219.579 328.46 211.599C323.34 208.333 317.634 205.412 311.566 205.532" fill="#F7CEBF"/>
<path d="M362.725 226.607C362.755 229.458 364.769 231.852 366.672 233.977C369.177 236.772 371.828 239.668 375.335 241.026L386.392 223.676C383.997 222.038 381.582 220.384 379.598 218.27C377.614 216.156 376.066 213.511 375.781 210.625C371.652 216.203 367.801 221.979 364.228 227.955" fill="#EF6348"/>
<path d="M361.877 226.606C361.516 230.043 363.745 232.884 365.885 235.344C368.39 238.2 370.985 240.92 374.497 242.478C374.886 242.69 375.341 242.745 375.769 242.632C376.197 242.519 376.567 242.247 376.801 241.872C380.579 236.15 384.246 230.349 387.949 224.572C388.177 224.161 388.237 223.678 388.118 223.224C387.998 222.769 387.708 222.378 387.307 222.132C382.848 219.066 378.61 215.775 377.828 210.063C377.553 208.059 374.903 208.31 373.971 209.562C371.816 212.471 369.737 215.449 367.733 218.495C365.98 221.171 363.224 224.342 362.618 227.513C362.535 227.86 362.565 228.224 362.706 228.552C362.846 228.88 363.088 229.154 363.396 229.334C363.704 229.513 364.062 229.588 364.417 229.548C364.771 229.508 365.103 229.355 365.363 229.111C367.868 227.107 369.497 223.25 371.3 220.594C373.334 217.588 375.454 214.632 377.608 211.707L373.75 211.206C374.677 217.719 380.419 221.782 385.494 225.234L384.852 222.794C381.185 228.585 377.478 234.357 373.886 240.193L375.784 239.422C372.899 238.245 370.674 236.045 368.57 233.816C366.466 231.586 364.351 229.462 363.56 226.396C363.299 225.394 361.952 225.705 361.856 226.626L361.877 226.606Z" fill="#EF6348"/>
<path d="M386.877 185.929C380.228 190.393 377.468 198.644 373.5 205.247C368.44 213.674 363.154 221.991 358.039 230.392H361.862C355.208 221.76 347.734 213.774 339.176 207.006C331.025 200.553 321.231 192.978 310.364 192.923C307.428 192.923 307.423 197.487 310.364 197.487C315.73 197.487 320.539 199.751 325.048 202.472C329.363 205.075 333.494 207.971 337.413 211.139C345.212 217.352 352.147 224.579 358.034 232.627C359.036 233.99 360.895 234.105 361.857 232.627C366.987 224.756 372.473 217.096 376.887 208.804C380.574 201.876 381.922 192.918 388.249 187.732C389.251 186.911 387.939 185.227 386.862 185.929H386.877Z" fill="#1A1C3F"/>
<path d="M311.687 261.832C324.332 273.625 337.604 285.96 354.307 291.611C369.613 296.787 387.258 295.349 399.517 284.096C411.982 272.668 416.05 255.128 417.097 238.881C417.699 229.282 417.283 219.648 417.839 210.049C418.089 205.72 418.841 201.346 421.441 197.764C423.946 194.297 426.336 191.436 427.388 187.158C429.202 179.798 429.131 169.042 421.977 164.397C418.726 162.288 414.562 162.494 412.032 165.61C410.95 166.936 410.395 168.614 410.474 170.324C410.589 172.724 412.213 174.483 412.132 176.967L416.486 176.376C414.908 171.867 409.753 167.043 404.582 168.861C403.558 169.242 402.65 169.882 401.947 170.719C401.245 171.556 400.772 172.561 400.574 173.636C399.958 176.887 402.333 178.646 403.375 181.446L407.142 179.252C404.572 176.306 401.166 172.969 396.877 173.676C396.021 173.801 395.203 174.117 394.486 174.601C393.769 175.085 393.17 175.724 392.734 176.471C392.336 177.184 392.089 177.97 392.007 178.781C391.892 179.838 392.508 181.331 391.907 182.248C390.304 184.718 394.257 187.013 395.845 184.553C396.482 183.622 396.821 182.519 396.817 181.391C396.787 180.179 395.91 178.711 397.498 178.195C399.953 177.398 402.588 180.88 403.956 182.438C405.399 184.082 408.515 182.348 407.719 180.249C407.112 178.641 406.216 177.473 405.404 176.011C404.868 175.069 404.708 173.841 405.81 173.185C408.315 171.682 411.516 175.645 412.188 177.549C413.009 179.868 416.466 179.553 416.546 176.962C416.613 175.294 416.305 173.632 415.644 172.098C414.973 170.565 414.307 169.092 415.965 167.859C419.111 165.56 422.288 170.66 423.094 173.125C425.334 179.983 423.645 188.08 419.212 193.611C414.532 199.447 413.555 206.066 413.41 213.375C413.24 221.892 413.49 230.379 412.849 238.876C411.752 253.455 407.924 268.55 397.263 279.197C386.702 289.718 371.381 291.356 357.443 287.834C340.249 283.49 326.381 271.501 313.285 260.194C312.183 259.237 310.575 260.795 311.667 261.812L311.687 261.832Z" fill="#1A1C3F"/>
<path d="M355.754 242.984C357.217 240.314 358.76 237.774 360.484 235.259C361.882 233.2 362.583 230.69 363.314 228.335C363.74 226.957 362.007 225.48 360.754 226.366C358.75 227.764 357.247 230.294 356.531 232.574C355.529 235.74 354.787 238.956 353.66 242.093C353.219 243.32 355.163 244.097 355.754 242.974V242.984Z" fill="#1A1C3F"/>
<path d="M407.507 189.689C408.599 187.415 409.19 185.827 408.609 183.246C408.108 181.142 406.891 178.707 405.037 177.54C403.599 176.638 402.121 178.126 402.387 179.579C402.963 182.745 405.588 185.591 405.222 189.068C405.097 190.27 406.996 190.751 407.507 189.689Z" fill="#1A1C3F"/>
<path d="M416.662 186.177C417.854 181.082 418.045 174.945 413.325 171.478C412.118 170.591 410.169 171.773 410.284 173.226C410.455 175.461 411.727 176.999 412.789 178.908C414.057 181.177 414.387 183.331 414.598 185.896C414.688 187.009 416.371 187.399 416.657 186.177H416.662Z" fill="#1A1C3F"/>
<path d="M307.143 277.177C312.654 282.688 321.747 280.854 329.358 279.251C344.733 276.01 360.956 275.303 375.996 279.852C391.036 284.402 404.773 294.697 411.126 309.071C417.033 322.417 416.091 338.189 410.475 351.656C404.858 365.123 394.944 376.475 383.541 385.609C361.111 403.604 333.04 413.524 304.643 418.043C276.247 422.562 247.294 421.976 218.556 420.864C209.538 420.513 199.644 420.363 192.504 425.929C189.163 428.534 186.377 432.397 182.189 433.028C178.547 433.579 174.914 431.325 172.88 428.249C170.846 425.173 170.15 421.425 169.764 417.763C168.737 407.939 169.689 398.009 172.565 388.559C173.847 384.351 175.571 380.128 178.732 377.036C181.773 374.03 185.851 372.402 189.849 370.929C233.126 354.992 281.031 351.21 321.161 328.5C311.642 336.821 298.852 340.108 286.592 343.139L238.581 355.007C234.523 356.009 230.255 357.011 226.212 355.944C220.475 354.441 216.487 348.93 214.954 343.224C213.421 337.518 213.872 331.45 214.183 325.524C215.144 307 214.529 288.428 212.344 270.008" fill="white"/>
<path d="M298.65 284.172C304.161 289.683 313.255 287.849 320.865 286.246C336.24 283 352.463 282.298 367.503 286.847C382.543 291.396 396.275 301.692 402.633 316.066C408.54 329.417 407.593 345.184 401.982 358.651C396.37 372.118 386.451 383.47 375.048 392.603C352.613 410.599 324.547 420.519 296.15 425.038C267.754 429.557 238.801 428.981 210.064 427.854C201.046 427.503 191.151 427.353 184.012 432.919C180.67 435.524 177.884 439.387 173.691 440.018C170.054 440.569 166.416 438.315 164.387 435.239C162.358 432.162 161.652 428.415 161.271 424.753C160.242 414.929 161.193 404.999 164.067 395.549C165.349 391.341 167.098 387.118 170.234 384.026C173.28 381.02 177.353 379.392 181.356 377.919C224.633 361.982 272.538 358.2 312.668 335.489C303.149 343.811 290.359 347.098 278.099 350.129L230.099 361.972C226.04 362.974 221.772 363.976 217.729 362.909C211.992 361.406 208.004 355.92 206.466 350.194C204.928 344.467 205.389 338.415 205.7 332.488C206.662 313.964 206.045 295.392 203.856 276.973" fill="#4747E2"/>
<path d="M306.457 277.866C312.519 284.063 321.803 282.435 329.453 280.967C340.3 278.893 351.467 277.961 362.469 279.264C380.78 281.443 399.107 290.641 407.945 307.485C417.719 326.107 412.208 348.567 400.55 364.91C389.067 380.997 371.993 392.845 354.253 401.142C314.002 419.99 268.476 420.516 224.949 419.003C215.476 418.677 205.135 417.455 196.187 421.357C192.179 423.096 189.499 426.047 186.192 428.727C184.383 430.19 182.304 431.347 179.905 430.861C177.505 430.375 175.516 428.527 174.318 426.458C171.693 421.949 171.608 415.937 171.563 410.866C171.504 405.364 172.083 399.873 173.286 394.504C174.424 389.494 175.851 383.888 179.208 379.829C182.364 376.012 187.179 374.283 191.698 372.655C230.07 358.807 271.452 354.278 308.707 337.149C313.296 335.035 317.79 332.729 322.189 330.23L319.779 327.154C310.966 334.78 299.568 337.996 288.496 340.787C282.558 342.269 276.518 343.307 270.425 343.893C252.414 345.671 233.972 344.825 216.357 340.561C204.705 337.775 193.538 333.252 183.231 327.144C181.423 326.067 179.849 328.818 181.588 329.95C199.479 341.618 221.102 346.483 242.179 347.896C257.018 348.898 272.554 348.472 287.078 344.985C299.634 341.979 312.519 338.472 322.564 329.955C324.313 328.452 322.063 325.807 320.18 326.864C281.923 348.106 237.615 352.46 196.653 366.237C187.224 369.414 177.234 372.35 172.7 382.064C168.166 391.778 166.728 403.492 167.319 414.128C167.785 422.505 170.376 435.761 181.468 435.275C186.037 435.08 189.203 431.708 192.384 428.857C196.117 425.511 200.676 423.847 205.616 423.231C210.876 422.58 216.217 422.92 221.498 423.121C227.384 423.341 233.271 423.537 239.158 423.662C251.412 423.922 263.682 423.892 275.926 423.206C298.246 421.964 320.595 418.527 341.702 410.962C361.111 403.998 379.703 393.592 394.338 378.898C408.741 364.444 419.037 344.83 417.098 323.923C415.279 304.349 402.158 288.597 384.478 280.737C374.794 276.433 364.298 274.599 353.726 274.609C348.148 274.64 342.581 275.115 337.078 276.027C331.748 276.889 326.557 278.387 321.192 279.113C316.512 279.745 311.602 279.76 307.825 276.518C306.893 275.712 305.575 276.984 306.457 277.886V277.866Z" fill="#1A1C3F"/>
<path d="M186.688 278.963C197.79 289.034 212.474 294.074 226.893 298.162C248.376 304.249 270.42 308.818 292.734 309.459C295.45 309.534 298.245 309.545 300.79 308.643C306.136 306.764 309.473 301.173 310.309 295.567C311.146 289.96 309.964 284.269 308.771 278.728C308.531 277.591 308.27 276.408 307.514 275.517C306.757 274.625 305.379 274.159 304.412 274.805" fill="#1A1C3F"/>
<path d="M185.971 279.674C193.737 287.009 203.351 291.828 213.326 295.436C224.533 299.484 236.187 302.545 247.8 305.18C259.759 307.962 271.906 309.868 284.142 310.881C289.789 311.322 296.557 312.44 301.993 310.38C306.191 308.787 309.207 305.275 310.951 301.222C313.406 295.511 313.01 289.243 311.953 283.256C311.231 279.108 309.904 269.729 303.401 273.081C301.397 274.113 302.78 277.45 304.944 276.743C307.108 276.037 308.361 289.769 308.376 291.352C308.421 295.741 307.374 300.285 304.368 303.632C300.861 307.535 296.186 307.665 291.267 307.515C286.016 307.354 280.746 306.979 275.545 306.417C255.019 304.17 234.8 299.685 215.25 293.041C205.23 289.634 195.515 285.14 187.364 278.256C186.387 277.43 184.979 278.757 185.936 279.679L185.971 279.674Z" fill="#1A1C3F"/>
<path d="M202.535 190.264C192.374 191.546 184.083 197.122 180.937 203.465C177.79 209.808 177.174 217.057 176.603 224.111L173.597 261.185C173.402 263.585 173.226 266.085 174.098 268.32C175.19 271.065 177.71 272.949 180.155 274.607C197.49 286.351 217.56 294.301 238.401 296.28C259.243 298.259 280.821 294.096 298.787 283.35C303.747 280.379 308.456 276.912 313.817 274.717C318.326 272.859 323.621 271.656 326.342 267.598C328.661 264.146 328.386 259.637 328.02 255.494C326.778 241.296 325.534 227.101 324.288 212.909C323.957 209.136 323.616 205.309 322.284 201.762C320.044 195.815 312.925 189.001 301.768 189.031C295.41 189.031 288.286 193.851 283.116 197.548" fill="#EAB642"/>
<path d="M202.534 189.377C191.157 189.878 181.086 196.001 177.354 207.008C175.175 213.425 174.814 220.339 174.223 227.048C173.592 234.202 173.015 241.361 172.434 248.515L171.557 259.247C171.277 262.654 170.806 266.221 172.209 269.452C174.523 274.778 180.961 277.969 185.681 280.775C196.948 287.574 209.184 292.621 221.968 295.745C247.113 301.787 274.473 299.322 297.268 286.682C302.935 283.54 308.12 279.457 314.087 276.867C319.062 274.708 324.954 273.5 328.14 268.656C331.592 263.405 330.184 256.396 329.678 250.554L327.739 228.265C327.063 220.449 327.023 212.233 325.309 204.548C324.214 199.476 321.325 194.97 317.173 191.857C312.339 188.207 306.333 186.458 300.294 186.942C293.511 187.594 287.374 191.752 282.033 195.685C279.839 197.303 281.893 201.016 284.217 199.417C288.761 196.286 293.531 192.804 298.997 191.547C303.947 190.404 309.603 191.882 313.776 194.633C323.08 200.77 322.203 212.959 323.075 222.819L324.914 243.621C325.415 249.522 326.727 255.895 326.136 261.822C325.515 268.054 320.535 269.983 315.349 271.922C309.954 273.926 305.199 276.932 300.319 279.938C280.204 292.563 255.916 297.017 232.509 293.36C220.769 291.489 209.369 287.896 198.677 282.699C193.434 280.163 188.356 277.302 183.471 274.131C181.292 272.714 178.837 271.296 177.189 269.232C174.944 266.416 175.686 262.553 175.951 259.212L177.665 237.749C178.236 230.555 178.486 223.28 179.433 216.126C180.245 209.968 181.853 203.686 186.492 199.292C191.001 195.044 196.788 192.504 202.75 191.116C203.752 190.885 203.536 189.282 202.509 189.332L202.534 189.377Z" fill="#EAB642"/>
<path d="M218.381 186.782L196.523 192.383C195.551 192.629 194.519 192.924 193.888 193.716C193.41 194.441 193.186 195.305 193.251 196.171C193.251 199.177 194.308 202.083 195.496 204.843C200.972 217.589 209.844 229.026 221.483 236.576C233.121 244.127 247.585 247.573 261.217 245.003C273.266 242.729 284.213 235.895 292.459 226.822C300.706 217.749 306.367 206.526 309.954 194.803C310.25 193.836 310.53 192.774 310.14 191.842C309.604 190.555 308.06 190.074 306.698 189.758C298.385 187.832 289.948 186.493 281.447 185.75" fill="#F7CEBF"/>
<path d="M204.133 191.478C206.899 194.128 205.802 198.447 206.758 201.829C207.951 206.042 211.137 206.563 215.05 206.433C217.966 206.338 218.948 207.695 220.06 210.145C221.012 212.255 221.894 214.218 223.677 215.777C225.195 217.102 227.027 218.018 228.998 218.437C231.378 218.938 233.221 218.317 235.511 217.906C238.797 217.315 239.619 219.91 241.743 221.769C243.361 223.176 245.339 224.104 247.455 224.449C252.139 225.235 255.576 223.016 258.978 220.115C260.902 218.482 262.65 217.23 265.285 217.325C267.921 217.42 270.37 218.447 272.996 218.101C277.435 217.51 278.642 213.788 281.012 210.641C282.775 208.272 285.36 209.063 287.74 207.821C288.745 207.294 289.629 206.563 290.335 205.674C291.041 204.785 291.553 203.759 291.838 202.66C292.229 201.107 291.633 199.113 292.339 197.68C292.91 196.558 294.218 195.817 295.035 194.9C296.563 193.187 297.379 190.962 296.037 188.918C295.835 188.6 295.527 188.365 295.168 188.252C294.809 188.14 294.422 188.158 294.075 188.304C293.728 188.45 293.444 188.714 293.273 189.049C293.102 189.384 293.055 189.769 293.141 190.135C293.642 192.325 290.671 193.768 289.589 195.311C288.146 197.38 288.847 199.419 288.331 201.693C287.72 204.379 285.41 204.805 283.096 205.2C281.275 205.509 279.641 206.504 278.532 207.981C277.5 209.284 276.828 210.792 275.916 212.169C274.464 214.379 272.69 214.97 270.08 214.674C265.686 214.173 262.234 213.502 258.457 216.343C254.879 219.033 251.944 222.48 246.969 221.012C243.066 219.86 241.588 214.86 237.45 214.469C235.27 214.264 233.316 215.521 231.152 215.471C229.867 215.439 228.605 215.119 227.459 214.535C226.314 213.951 225.314 213.116 224.534 212.094C222.485 209.314 222.154 205.226 218.522 203.823C216.197 202.921 213.572 204.284 211.368 203.357C209.539 202.59 209.364 200.391 209.113 198.662C208.652 195.556 208.432 191.598 205.296 189.975C204.349 189.474 203.292 190.707 204.123 191.478H204.133Z" fill="#EF6348"/>
<path d="M217.85 186.576L217.945 138.82C217.945 133.254 218.03 127.427 220.66 122.518C225.921 112.703 238.766 110.494 249.853 109.391C258.22 108.56 268.23 108.42 273.165 115.228C275.931 119.046 276.236 124.056 276.442 128.755C277.29 148.201 278.138 167.644 278.987 187.087" fill="white"/>
<path d="M217.85 186.576L217.945 138.82C217.945 133.254 218.03 127.427 220.66 122.518C225.921 112.703 238.766 110.494 249.853 109.391C258.22 108.56 268.23 108.42 273.165 115.228C275.931 119.046 276.236 124.056 276.442 128.755C277.29 148.201 278.138 167.644 278.987 187.087" fill="white"/>
<path d="M223.947 189.753L224.037 141.998C224.037 136.427 224.123 130.6 226.753 125.695C232.013 115.876 244.859 113.671 255.946 112.564C264.313 111.738 274.323 111.597 279.258 118.406C282.023 122.218 282.329 127.228 282.534 131.933C283.386 151.372 284.234 170.814 285.079 190.259" fill="#F7CEBF"/>
<path d="M260.52 118.45C256.512 124.762 251.417 130.925 244.378 133.48C243.411 133.83 242.213 134.061 241.467 133.359C240.605 132.553 240.991 131.055 241.808 130.208C237.233 136.907 228.942 139.792 221.216 142.272L217.434 143.47C215.43 142.382 213.361 141.23 212.028 139.376C210.695 137.523 210.345 134.757 211.853 133.044C211.312 132.636 210.875 132.105 210.579 131.495C210.283 130.886 210.136 130.214 210.149 129.537C210.191 128.181 210.551 126.854 211.201 125.664C213.762 120.474 218.626 116.847 223.486 113.7C228.997 110.148 234.748 106.927 240.966 104.888C247.183 102.849 253.902 102.027 260.319 103.31C262.824 103.811 265.51 104.813 266.652 107.112C266.998 107.813 267.243 108.675 267.955 109.016C268.531 109.291 269.212 109.111 269.848 109.141C271.737 109.236 272.98 111.08 273.912 112.723C276.607 117.478 279.307 122.242 281.427 127.252C281.857 128.114 282.093 129.06 282.118 130.023C282.12 130.503 281.978 130.973 281.71 131.371C281.442 131.77 281.061 132.078 280.615 132.257C280.997 132.914 281.232 133.645 281.302 134.402C281.372 135.158 281.276 135.921 281.021 136.636C280.475 138.054 279.327 145.028 277.819 145.153C276.061 145.308 274.257 138.349 272.94 137.182C267.589 132.438 264.363 125.809 261.261 119.367" fill="#34C6A0"/>
<path d="M276.442 128.755C276.237 124.051 275.941 119.041 273.166 115.228C268.231 108.42 258.221 108.56 249.854 109.391C238.767 110.489 225.921 112.703 220.661 122.518C218.03 127.427 217.955 133.254 217.945 138.82V143.329L221.222 142.277C228.682 139.882 236.668 137.107 241.332 130.884C240.886 131.716 240.831 132.743 241.472 133.364C242.219 134.066 243.416 133.835 244.383 133.485C251.422 130.949 256.497 124.787 260.525 118.455L261.242 119.411C264.338 125.854 267.574 132.483 272.92 137.227C274.077 138.254 275.615 143.74 277.159 144.962L276.442 128.755Z" fill="#EF6348"/>
<path d="M277.789 151.193C277.804 149.807 278.039 148.432 278.485 147.12C278.986 145.642 280.044 144.064 281.602 144.059C282.05 144.084 282.485 144.213 282.875 144.436C283.264 144.658 283.597 144.968 283.846 145.341C284.346 146.1 284.686 146.952 284.848 147.846C285.16 149.093 285.267 150.383 285.164 151.664C284.788 155.101 282.048 158.057 278.736 159.044" fill="#F7CEBF"/>
<path d="M278.702 151.444C278.978 150.062 279.304 147.291 280.551 146.434C282.776 144.881 283.196 149 283.246 150.222C283.367 153.499 281.242 156.104 278.186 157.126C275.772 157.937 276.824 161.79 279.238 160.948C285.616 158.739 288.943 151.93 286.087 145.593C284.97 143.088 282.124 141.254 279.534 142.963C276.944 144.671 276.528 148.448 276.839 151.209C276.944 152.181 278.477 152.597 278.702 151.46V151.444Z" fill="#1A1C3F"/>
<path d="M218.882 186.579C219.343 172.326 219.564 158.057 219.999 143.799C220.18 137.787 219.814 131.168 222.028 125.447C223.857 120.723 227.91 117.546 232.464 115.617C237.018 113.688 242.159 112.782 247.109 112.201C251.933 111.629 256.958 111.088 261.793 111.81C266.983 112.581 271.362 115.156 272.9 120.427C274.659 126.469 274.158 133.408 274.403 139.64C275.099 155.447 275.47 171.344 277.038 187.095C277.279 189.51 280.851 189.6 280.886 187.095C281.081 171.283 280.059 155.427 279.383 139.64C279.102 133.042 279.538 125.898 277.805 119.475C277.111 116.808 275.761 114.357 273.878 112.344C271.995 110.332 269.638 108.822 267.023 107.952C261.798 106.103 255.941 106.324 250.515 106.825C245.195 107.326 239.809 107.977 234.679 109.51C229.639 111.013 224.619 113.438 221.152 117.486C216.993 122.316 215.731 128.388 215.681 134.625C215.611 142.982 216.087 151.369 216.297 159.72C216.528 168.678 216.568 177.631 216.798 186.584C216.816 186.845 216.933 187.089 217.124 187.267C217.315 187.445 217.566 187.544 217.828 187.544C218.089 187.544 218.34 187.445 218.532 187.267C218.723 187.089 218.839 186.845 218.857 186.584L218.882 186.579Z" fill="#1A1C3F"/>
<path d="M218.076 185.683C213.436 186.685 208.797 187.687 204.168 188.734C202.089 189.2 200.014 189.666 197.935 190.117C196.152 190.508 194.093 190.693 192.705 192.001C190.14 194.42 191.202 199.09 192.114 202.021C193.33 205.624 194.89 209.102 196.773 212.406C204.038 225.783 215.31 237.176 229.388 243.218C243.852 249.42 260.099 249.616 274.428 242.947C288.596 236.349 299.403 224.1 306.221 210.237C308.125 206.342 309.769 202.325 311.141 198.213C312.279 194.811 313.726 190.698 309.814 188.554C308.07 187.602 305.946 187.351 304.032 186.95C301.557 186.429 299.072 185.963 296.577 185.553C291.567 184.716 286.512 184.095 281.447 183.639C278.752 183.398 278.772 187.602 281.447 187.842C289.126 188.526 296.752 189.709 304.278 191.384C305.595 191.675 308.125 191.685 308.07 193.453C308.02 194.956 307.008 196.85 306.512 198.258C305.339 201.581 303.974 204.833 302.424 207.997C296.492 220.072 287.629 230.743 275.771 237.336C263.747 244.024 249.789 245.297 236.663 241.264C223.802 237.316 212.855 228.629 205.155 217.717C203.155 214.874 201.353 211.898 199.759 208.809C197.895 205.207 195.751 201.154 195.38 197.061C195.15 194.506 196.858 194.25 198.887 193.649C201.082 193.003 203.286 192.376 205.485 191.745C209.884 190.488 214.278 189.19 218.667 187.892C220.09 187.471 219.493 185.387 218.055 185.683H218.076Z" fill="#1A1C3F"/>
<path d="M194.449 335.023C202.459 343.102 211.355 350.252 220.967 356.336C222.326 357.297 223.837 358.023 225.436 358.485C227.761 359.036 230.186 358.51 232.515 357.984C243.272 355.559 254.113 353.105 264.178 348.601C243.232 348.226 222.412 345.267 202.19 339.793" fill="#1A1C3F"/>
<path d="M193.778 335.695C198.456 340.746 203.518 345.428 208.918 349.698C211.594 351.827 214.319 353.902 217.11 355.885C219.615 357.669 222.285 359.833 225.366 360.495C228.447 361.156 231.799 360.259 234.86 359.548C238.292 358.746 241.724 357.92 245.136 357.043C251.98 355.308 258.68 353.045 265.176 350.274C266.984 349.478 265.942 346.792 264.219 346.767C243.449 346.325 222.809 343.367 202.751 337.96C200.311 337.298 199.244 341.091 201.709 341.742C222.099 347.185 243.077 350.12 264.179 350.485L263.227 346.978C257.188 349.581 250.936 351.656 244.539 353.18C241.563 353.922 238.567 354.598 235.571 355.259C232.415 355.951 228.788 357.303 225.551 356.502C222.746 355.81 220.086 353.731 217.681 352.198C215.035 350.508 212.455 348.73 209.94 346.862C204.78 342.953 199.832 338.772 195.116 334.337C194.934 334.18 194.699 334.097 194.459 334.106C194.218 334.115 193.99 334.214 193.82 334.384C193.65 334.554 193.55 334.783 193.542 335.023C193.533 335.263 193.616 335.498 193.773 335.68L193.778 335.695Z" fill="#1A1C3F"/>
<path d="M296.633 420.581C301.999 421.283 306.828 424.194 311.087 427.535C314.093 429.885 317.174 432.606 320.966 432.876C325.095 433.167 328.937 430.321 331.052 426.764C333.166 423.207 333.897 419.023 334.594 414.945C334.679 414.444 334.719 413.838 334.308 413.542C334.148 413.457 333.972 413.405 333.792 413.388C333.611 413.372 333.429 413.392 333.256 413.447C323.02 415.316 312.99 419.509 302.615 418.723" fill="#1A1C3F"/>
<path d="M296.277 421.845C300.65 423.019 304.723 425.109 308.226 427.977C311.087 430.232 313.857 432.887 317.279 434.26C324.539 437.176 331.367 431.92 334.118 425.372C335.451 422.206 336.783 417.902 336.768 414.41C336.768 410.237 332.129 411.449 329.534 412.015C325.17 412.967 320.871 414.195 316.508 415.142C314.324 415.629 312.116 416.007 309.895 416.274C307.48 416.545 305.01 416.324 302.62 416.645C300.486 416.93 299.614 420.047 302.074 420.698C306.924 421.98 312.906 420.507 317.685 419.405C320.235 418.814 322.76 418.123 325.29 417.466C326.633 417.116 327.981 416.775 329.328 416.464C330.365 416.214 332.675 415.267 333.752 415.588L332.48 414.611C332.48 414.611 332.244 416.229 332.129 416.835C331.928 417.927 331.713 419.014 331.432 420.087C330.966 422.049 330.212 423.932 329.193 425.673C326.949 429.305 322.981 431.685 318.747 430.031C314.859 428.503 311.848 425.157 308.226 423.083C304.604 421.008 300.761 419.45 296.618 419.25C295.115 419.18 294.829 421.479 296.262 421.855L296.277 421.845Z" fill="#1A1C3F"/>
<path d="M217.936 142.585C215.656 141.127 210.421 137.61 213.066 134.279C213.627 133.572 213.828 132.505 213.066 131.814C209.885 128.938 214.569 123.572 216.718 121.413C219.449 118.663 222.73 116.523 225.982 114.479C233.051 110.055 240.686 106.198 249.028 105.045C252.971 104.499 257.274 104.464 261.127 105.581C263.131 106.158 264.133 106.949 265.135 108.683C265.831 109.9 266.518 110.827 267.991 111.107C268.592 111.218 269.388 110.992 269.955 111.198C271.012 111.583 271.613 112.851 272.144 113.748C273.226 115.571 274.243 117.45 275.255 119.314C276.052 120.742 281.397 129.68 279.559 130.566C278.557 131.067 278.406 132.39 278.842 133.307C279.844 135.446 278.106 139.72 277.339 141.874C277.082 142.373 276.854 142.886 276.658 143.412C276.718 143.557 278.552 142.911 278.502 143.222C278.502 143.101 278.096 142.595 278.026 142.47C277.299 141.127 276.728 139.715 276.087 138.327C274.624 135.16 271.653 133.116 269.654 130.271C267.039 126.553 265.01 122.44 262.926 118.407C261.733 116.102 258.482 118.126 259.504 120.411C261.939 125.872 264.584 131.253 268.482 135.842C269.95 137.575 271.443 138.723 272.364 140.807C273.126 142.53 273.737 144.489 274.99 145.937C277.915 149.339 280.561 146.067 281.503 143.026C282.67 139.264 284.068 135.01 282.294 131.288L281.578 134.028C284.724 132.495 284.248 128.983 283.111 126.283C281.353 122.25 279.369 118.319 277.169 114.509C275.586 111.684 273.953 107.781 270.34 107.23C269.654 107.125 269.163 107.295 268.722 106.934C268.281 106.573 268.041 105.596 267.68 105.121C266.596 103.776 265.16 102.76 263.532 102.185C256.107 99.2889 246.858 100.727 239.554 103.262C231.665 106.097 224.28 110.177 217.68 115.346C212.805 119.108 203.547 128.873 210.932 134.559L210.306 132.175C209.625 133.225 209.25 134.444 209.223 135.695C209.197 136.947 209.519 138.181 210.155 139.259C211.578 141.839 214.314 143.176 216.879 144.364C217.114 144.504 217.396 144.545 217.662 144.477C217.928 144.409 218.156 144.239 218.296 144.003C218.437 143.767 218.477 143.485 218.41 143.219C218.342 142.954 218.172 142.725 217.936 142.585Z" fill="#34C6A0"/>
<path d="M243.054 132.439C243.014 132.313 242.994 132.183 242.954 132.058C242.864 131.777 243.049 132.559 242.979 132.028C242.979 132.188 242.914 132.298 242.979 132.063C243.044 131.827 243.084 131.737 243.154 131.562L242.653 132.444L242.774 132.333L241.862 132.864C242.207 132.767 242.529 132.6 242.808 132.375C243.087 132.15 243.317 131.87 243.485 131.553C243.653 131.235 243.754 130.888 243.784 130.53C243.813 130.173 243.769 129.813 243.655 129.473C243.014 127.97 241.18 127.834 240.048 128.891C239.791 129.124 239.584 129.405 239.439 129.72C239.293 130.034 239.212 130.374 239.202 130.72L239.282 131.306C239.322 130.64 239.282 130.45 239.212 130.74C239.157 130.872 239.119 131.01 239.096 131.151C238.863 132.094 239.003 133.09 239.487 133.932C239.731 134.336 240.112 134.64 240.561 134.787C241.009 134.934 241.496 134.915 241.932 134.733C242.369 134.551 242.725 134.217 242.933 133.792C243.142 133.367 243.188 132.88 243.064 132.424L243.054 132.439Z" fill="#34C6A0"/>
<path d="M211.553 130.602C210.31 131.223 209.311 132.241 208.712 133.494C208.113 134.747 207.949 136.164 208.246 137.521C209.058 140.848 212.169 143.714 215.19 145.086C219.028 146.835 222.204 144.921 225.526 142.937C229.268 140.687 232.74 138.002 236.197 135.337C237.284 134.5 236.222 132.616 235.1 133.463C230.676 136.713 225.792 139.286 220.611 141.098C217.76 142.14 215.601 140.973 213.547 138.879C211.803 137.085 210.501 134.024 212.63 132C213.396 131.269 212.424 130.192 211.553 130.602Z" fill="#1A1C3F"/>
<path d="M246.307 133.717C250.055 132.499 253.031 129.709 255.911 127.134C259.373 124.022 262.86 120.405 265.47 116.547C266.638 114.809 264.188 113.371 262.79 114.478C259.478 117.109 256.583 120.515 253.897 123.767C251.322 126.883 249.388 130.16 245.531 131.878C244.489 132.344 245.23 134.072 246.307 133.717Z" fill="#1A1C3F"/>
<path d="M231.202 156.587C233.366 158.947 235.841 158.832 238.802 158.817C241.061 158.817 241.031 155.455 238.802 155.31C237.695 155.25 236.708 155.685 235.626 155.746C234.487 155.798 233.351 155.591 232.304 155.139C232.113 155.033 231.89 154.998 231.676 155.042C231.462 155.086 231.271 155.205 231.137 155.378C231.004 155.551 230.937 155.766 230.949 155.985C230.96 156.203 231.05 156.41 231.202 156.567V156.587Z" fill="#1A1C3F"/>
<path d="M232.695 147.651C234.981 147.123 237.368 147.227 239.599 147.951C241.102 148.452 241.603 145.812 239.9 145.737C237.259 145.622 234.834 145.236 232.244 146.012C232.041 146.084 231.873 146.23 231.773 146.421C231.673 146.612 231.649 146.834 231.706 147.042C231.764 147.25 231.897 147.428 232.081 147.541C232.264 147.654 232.484 147.693 232.695 147.651Z" fill="#1A1C3F"/>
<path d="M263.838 155.158C262.791 155.611 261.655 155.818 260.516 155.765C259.434 155.694 258.437 155.264 257.34 155.329C255.115 155.454 255.075 158.806 257.34 158.836C260.301 158.836 262.775 158.966 264.94 156.606C265.091 156.449 265.181 156.242 265.193 156.024C265.205 155.805 265.138 155.59 265.004 155.417C264.871 155.244 264.679 155.125 264.465 155.081C264.251 155.037 264.028 155.072 263.838 155.178V155.158Z" fill="#1A1C3F"/>
<path d="M263.898 146.012C261.303 145.246 258.888 145.622 256.238 145.737C254.559 145.812 255 148.447 256.538 147.951C258.771 147.227 261.16 147.123 263.447 147.651C263.658 147.693 263.878 147.654 264.061 147.541C264.245 147.428 264.379 147.249 264.436 147.042C264.493 146.834 264.469 146.612 264.37 146.421C264.27 146.23 264.101 146.084 263.898 146.012Z" fill="#1A1C3F"/>
<path d="M237.419 199.67C237.564 199.468 237.754 199.301 237.973 199.183C238.192 199.064 238.435 198.996 238.683 198.984C238.932 198.972 239.181 199.016 239.41 199.113C239.64 199.21 239.844 199.358 240.009 199.545L241.156 197.571C240.594 197.411 239.995 197.449 239.458 197.678C238.921 197.907 238.479 198.313 238.205 198.828C237.829 199.47 237.869 200.131 237.704 200.832C237.203 203.077 235.59 203.838 233.345 203.363C230.84 202.836 230.089 201.158 228.486 199.47C227.116 198.078 225.409 197.065 223.531 196.529C221.712 195.973 220.976 198.753 222.749 199.36C224.898 200.096 227.018 200.913 229.167 201.649C230.134 201.98 230.966 200.963 230.75 200.066C229.658 195.517 228.21 191.694 225.124 188.097L224.082 190.602C227.749 190.792 232.168 190.402 233.566 194.67C234.247 196.759 232.278 199.74 234.568 201.108C236.211 202.11 237.709 199.525 236.071 198.543C236.958 199.074 236.777 195.387 236.667 194.8C236.349 193.198 235.595 191.714 234.488 190.512C231.782 187.576 227.769 187.847 224.097 187.666C222.734 187.596 222.283 189.274 223.06 190.171C225.59 193.112 227.739 196.865 228.28 200.747L230.174 199.294C228.015 198.257 225.78 197.386 223.546 196.529L222.764 199.36C225.374 200.246 226.271 202.03 228.005 203.924C229.335 205.261 231.088 206.097 232.965 206.288C234.808 206.554 236.732 206.359 238.265 205.216C238.956 204.711 239.512 204.044 239.883 203.272C240.054 202.902 240.68 199.876 240.545 199.856C241.597 200.006 242.649 198.778 241.692 197.887C241.305 197.496 240.834 197.2 240.314 197.022C239.794 196.844 239.24 196.789 238.695 196.861C238.15 196.933 237.629 197.13 237.173 197.436C236.717 197.743 236.338 198.151 236.066 198.628C235.565 199.45 236.787 200.457 237.434 199.68L237.419 199.67Z" fill="#EF6348"/>
<path d="M263.756 198.619C263.482 198.143 263.102 197.736 262.645 197.432C262.188 197.127 261.667 196.932 261.122 196.862C260.577 196.793 260.024 196.85 259.505 197.029C258.986 197.209 258.515 197.506 258.13 197.897C257.178 198.784 258.22 200.016 259.277 199.866C259.412 200.962 259.611 202.05 259.873 203.123C260.212 203.909 260.742 204.599 261.417 205.127C262.95 206.369 264.964 206.58 266.857 206.304C268.614 206.12 270.266 205.38 271.572 204.19C273.451 202.311 274.332 200.302 277.083 199.375L276.301 196.545C274.067 197.401 271.832 198.273 269.673 199.31L271.562 200.763C272.108 196.875 274.257 193.128 276.787 190.187C277.559 189.29 277.113 187.612 275.75 187.682C272.073 187.862 268.07 187.592 265.359 190.528C264.322 191.649 263.595 193.022 263.25 194.51C263.105 195.137 262.864 199.105 263.776 198.559C262.133 199.561 263.626 202.111 265.279 201.124C267.569 199.751 265.595 196.765 266.281 194.686C267.669 190.442 272.103 190.808 275.765 190.618L274.723 188.113C271.642 191.71 270.214 195.532 269.097 200.082C268.881 200.978 269.713 201.995 270.68 201.665C272.829 200.928 274.949 200.112 277.098 199.375C278.866 198.769 278.14 195.983 276.316 196.545C274.557 197.047 272.945 197.971 271.622 199.235C269.878 200.943 269.117 202.822 266.502 203.378C264.608 203.779 262.694 203.293 262.168 201.224C261.988 200.512 262.108 199.796 261.782 199.105C261.539 198.52 261.09 198.045 260.521 197.768C259.952 197.491 259.301 197.432 258.691 197.602L259.838 199.576C260.003 199.388 260.208 199.241 260.437 199.144C260.666 199.047 260.915 199.002 261.164 199.014C261.412 199.026 261.655 199.094 261.874 199.213C262.093 199.332 262.283 199.499 262.429 199.701C263.065 200.467 264.287 199.48 263.796 198.649L263.756 198.619Z" fill="#EF6348"/>
<path d="M250.544 208.092C250.163 207.528 249.746 206.989 249.296 206.479C249.082 206.193 248.896 205.888 248.74 205.567L248.61 205.281C248.495 204.72 248.375 204.835 248.244 205.632L247.052 206.133C246.791 205.848 246.776 205.863 247.002 206.193C247.09 206.355 247.167 206.522 247.232 206.694C247.448 207.195 247.643 207.696 247.849 208.197C248.52 209.861 251.14 209.785 251.155 207.746C251.149 207.164 251.339 206.597 251.695 206.135C252.05 205.674 252.55 205.345 253.114 205.201L251 203.603C251.057 204.282 250.847 204.956 250.414 205.482C249.888 206.103 249.156 206.298 248.69 207.01C248.574 207.209 248.504 207.432 248.488 207.662C248.472 207.893 248.509 208.123 248.596 208.337C248.683 208.551 248.818 208.741 248.991 208.894C249.164 209.047 249.369 209.159 249.592 209.219C252.468 209.881 254.462 205.983 254.367 203.603C254.362 203.345 254.299 203.091 254.182 202.861C254.065 202.631 253.898 202.431 253.693 202.274C253.487 202.118 253.249 202.011 252.996 201.96C252.743 201.908 252.482 201.915 252.232 201.98C250.962 202.327 249.84 203.081 249.04 204.128C248.24 205.174 247.805 206.454 247.803 207.771L251.11 207.325C250.609 206.073 250.213 204.525 249.226 203.548C248.239 202.571 246.25 202.34 245.459 203.763C244.171 206.068 247.573 209.405 249.722 209.55C249.889 209.541 250.051 209.49 250.193 209.402C250.335 209.315 250.453 209.193 250.536 209.048C250.62 208.903 250.665 208.74 250.669 208.573C250.673 208.406 250.635 208.241 250.559 208.092H250.544Z" fill="#EF6348"/>
<path d="M212.423 217.394C214.082 217.394 214.082 214.824 212.423 214.824C210.765 214.824 210.765 217.394 212.423 217.394Z" fill="#EF6348"/>
<path d="M235.669 231.264H236.17C236.484 231.264 236.784 231.139 237.007 230.919C237.227 230.693 237.353 230.392 237.358 230.077C237.355 229.763 237.229 229.462 237.007 229.24C236.897 229.13 236.767 229.043 236.623 228.983C236.48 228.924 236.326 228.894 236.17 228.895H235.669C235.36 228.903 235.066 229.027 234.843 229.24C234.626 229.459 234.503 229.754 234.502 230.062C234.505 230.371 234.627 230.667 234.843 230.889C235.066 231.101 235.361 231.222 235.669 231.229V231.264Z" fill="#EF6348"/>
<path d="M265.144 231.342H265.645C265.976 231.342 266.293 231.21 266.527 230.976C266.761 230.742 266.892 230.425 266.892 230.094C266.891 229.764 266.759 229.447 266.527 229.212C266.288 228.986 265.974 228.857 265.645 228.852H265.144C264.815 228.854 264.499 228.983 264.262 229.212C264.033 229.449 263.902 229.764 263.896 230.094C263.898 230.425 264.029 230.741 264.262 230.976C264.499 231.205 264.814 231.336 265.144 231.342Z" fill="#EF6348"/>
<path d="M285.625 221.985C287.078 221.985 287.078 219.73 285.625 219.73C284.172 219.73 284.172 221.985 285.625 221.985Z" fill="#EF6348"/>
<path d="M246.491 151.512C245.339 155.6 244.943 160.079 244.417 164.293C244.147 166.497 247.684 166.527 247.924 164.293C248.34 160.21 248.751 155.831 248.26 151.768C248.145 150.831 246.807 150.495 246.511 151.532L246.491 151.512Z" fill="#1A1C3F"/>
<path d="M246.252 174.968C246.401 175.148 246.602 175.278 246.828 175.339C247.178 175.444 246.682 175.229 246.993 175.399C247.208 175.519 247.439 175.63 247.649 175.755C247.78 175.835 247.865 175.95 247.714 175.795L248.01 176.095C248.266 176.346 247.865 175.88 248.085 176.201C248.284 176.465 248.524 176.695 248.797 176.882C249.799 177.634 251.342 176.622 251.272 175.464C251.186 174.061 249.939 173.014 248.611 172.764C247.961 172.636 247.287 172.742 246.707 173.064C246.532 173.138 246.375 173.252 246.252 173.397C246.128 173.543 246.041 173.715 245.996 173.901C245.952 174.086 245.952 174.279 245.996 174.465C246.041 174.65 246.128 174.823 246.252 174.968Z" fill="#1A1C3F"/>
<path d="M108.988 205.995C101.297 205.244 96.2624 212.067 91.0871 216.596C84.3279 222.446 75.7023 225.69 66.7635 225.745C60.2505 225.745 52.3848 223.37 48.9179 217.413C46.7837 213.741 47.0692 209.397 47.2897 205.324C47.5251 201.01 47.7155 196.596 46.0773 192.508C43.467 185.995 37.3148 182.343 31.5483 178.951C24.91 175.043 19.0483 170.745 16.4381 163.145C15.1323 159.426 14.7325 155.45 15.2718 151.547C15.8112 147.643 17.2742 143.924 19.5393 140.7C24.1034 134.147 30.8418 131.181 38.3769 129.462C44.8899 127.959 52.2195 126.617 56.6283 121.071C59.2736 117.749 60.0752 113.676 60.8718 109.608C61.5933 105.608 62.8716 101.73 64.6694 98.0847C68.1363 91.2811 73.6473 85.2291 80.9118 82.4786C84.0718 81.3212 87.4443 80.8595 90.7991 81.125C94.1539 81.3904 97.4119 82.3768 100.351 84.0166C103.314 85.6169 105.796 87.9795 107.54 90.8603C109.544 94.2821 109.865 98.245 110.631 102.048C111.398 105.85 112.825 109.643 115.761 112.358C118.457 114.863 121.949 116.301 125.496 117.088C133.432 118.856 142.88 116.707 150.115 120.955C157.54 125.314 158.632 134.983 156.392 142.543C155.11 146.897 152.74 150.559 150.601 154.497C148.687 158.004 146.909 162.188 147.825 166.271C148.797 170.604 152.159 172.032 155.155 174.728C157.865 177.163 158.597 181.241 158.021 184.713C157.264 189.252 154.614 193.44 151.893 197.062C150.967 198.295 149.759 200.093 148.036 199.948C146.984 199.858 145.937 199.151 144.894 198.946C143.829 198.726 142.729 198.726 141.663 198.946C137.84 199.743 135.195 202.904 133.231 206.055C131.267 209.207 129.183 212.939 124.819 212.568C120.902 212.253 117.555 209.427 115.185 206.496C113.812 204.798 110.806 207.082 112.134 208.851C116.473 214.627 125.16 220.269 132.174 215.339C135.746 212.834 136.904 208.415 140.055 205.584C142.109 203.741 143.422 204.252 145.741 205.138C146.794 205.57 147.929 205.767 149.065 205.716C150.202 205.665 151.314 205.367 152.324 204.843C156.262 202.839 159.083 198.134 161.197 194.417C163.482 190.409 165.095 185.8 164.829 181.12C164.589 176.817 162.966 172.553 159.674 169.658C158.276 168.425 156.262 167.614 155.1 166.151C153.847 164.557 154.403 162.513 155.055 160.785C156.728 156.331 159.774 152.483 161.568 148.054C163.401 143.545 164.459 138.561 164.023 133.686C163.246 124.978 158.281 117.088 149.809 114.147C141.172 111.141 131.538 114.337 123.066 110.825C113.943 107.048 116.237 96.216 112.179 88.8413C104.664 75.179 85.521 72.9395 73.2615 81.0908C66.478 85.5998 61.6183 92.4234 58.6674 99.9384C57.0091 104.157 56.488 108.551 55.3458 112.899C54.2035 117.248 51.7636 120.134 47.7005 121.917C40.5562 125.039 32.4651 124.923 25.5663 128.821C22.0032 130.843 18.877 133.553 16.3692 136.792C13.8614 140.032 12.0218 143.738 10.9572 147.694C9.94712 151.777 9.80379 156.026 10.5364 160.168C11.269 164.31 12.8613 168.253 15.2106 171.742C19.8349 178.53 26.9791 181.787 33.6324 186.15C36.6384 188.124 39.6444 190.524 41.1474 193.886C43.1063 198.225 42.1745 203.26 42.0192 207.849C41.7336 216.231 44.7947 223.41 52.4149 227.468C59.7045 231.351 68.4469 231.441 76.2825 229.357C85.1753 226.992 91.9588 221.661 98.1161 215.043C101.077 211.862 104.389 208.465 109.003 208.245C109.302 208.245 109.589 208.126 109.8 207.914C110.011 207.703 110.13 207.416 110.13 207.117C110.13 206.818 110.011 206.532 109.8 206.32C109.589 206.109 109.302 205.99 109.003 205.99L108.988 205.995Z" fill="#EF6348"/>
<path d="M387.689 203.582C385.035 200.926 381.744 198.995 378.13 197.971C373.867 196.794 369.669 197.826 365.385 197.2C357.87 196.092 351.582 187.475 351.763 180.065C351.958 172.36 360.28 168.492 362.404 161.478C364.884 153.367 359.699 145.642 358.191 137.901C357.599 134.623 357.767 131.252 358.682 128.049C359.598 124.845 361.236 121.895 363.471 119.424C365.615 117.044 368.397 115.329 371.487 114.485C375.164 113.533 379.002 113.673 382.75 112.982C386.257 112.345 389.558 110.832 391.868 108.022C394.177 105.211 395.225 101.689 396.788 98.4475C400.098 91.6268 405.764 86.2334 412.739 83.2622C419.582 80.3848 427.272 80.2627 434.202 82.9215C437.728 84.2559 440.953 86.2773 443.691 88.8684C446.517 91.5437 448.346 94.8353 450.6 97.9565C455.652 104.86 461.657 111.014 468.436 116.233C473.446 120.166 479.879 123.442 483.225 129.094C487.233 135.877 483.611 142.846 481.001 149.389C479.553 153.016 478.36 156.689 478.11 160.617C477.829 165.015 478.871 169.429 479.959 173.643C480.996 177.681 482.083 181.659 482.058 185.867C481.964 190.138 481.083 194.356 479.458 198.307C476.597 205.546 471.652 212.605 465.52 217.45C459.929 221.869 452.614 224.199 445.625 222.034C442.018 220.922 440.084 218.502 437.414 216.062C434.443 213.347 430.635 212.36 426.803 213.813C420.044 216.378 415.956 224.183 407.79 222.861C401.492 221.859 399.824 214.309 396.166 210.09C394.293 207.921 392.038 206.127 389.288 205.241C386.537 204.354 385.45 208.557 388.1 209.559C391.176 210.732 392.254 213.793 393.676 216.488C395.22 219.419 396.682 222.385 398.872 224.91C404.333 231.198 413.541 230.922 420.295 226.949C423.301 225.175 426.211 221.213 429.738 220.531C431.292 220.236 432.163 221.278 433.145 222.34C434.545 223.936 436.12 225.369 437.84 226.613C444.498 231.233 453.816 231.673 461.241 228.793C477.389 222.53 489.387 203.828 489.848 186.709C489.979 181.974 488.937 177.39 487.709 172.851C486.532 168.492 485.139 163.968 485.735 159.399C486.767 151.508 491.802 144.81 491.862 136.644C491.923 128.477 487.008 122.47 480.84 117.836C474.327 112.946 467.639 108.708 461.837 102.881C458.533 99.6023 455.542 96.0212 452.905 92.185C450.777 88.9057 448.128 85.9951 445.064 83.5678C438.846 78.754 431.178 76.1944 423.316 76.3083C415.645 76.4887 408.326 79.4997 402.404 84.3243C399.388 86.7814 396.8 89.7201 394.744 93.0217C392.599 96.4586 391.567 100.411 389.503 103.878C385.109 111.253 374.824 108.387 367.91 111.218C361.517 113.853 356.953 119.66 354.884 126.148C352.329 134.134 354.659 141.178 357.189 148.788C358.601 153.041 359.909 157.806 357.795 162.044C356.096 165.461 353.025 168.006 350.826 171.062C346.232 177.47 347.229 185.662 351.557 191.944C353.772 195.161 356.768 198.061 360.315 199.755C364.458 201.734 368.426 200.942 372.84 200.782C377.675 200.544 382.431 202.081 386.212 205.105C387.259 205.947 388.717 204.604 387.715 203.602L387.689 203.582Z" fill="#34C6A0"/>
<path d="M84.9942 97.8445C74.2127 102.263 78.2357 115.941 75.9311 124.703C72.4592 137.894 54.6637 134.443 44.829 138.06C40.0796 139.778 35.6056 143.14 33.6818 147.95C31.758 152.759 33.2459 157.909 36.5425 161.762C40.0495 165.865 44.9994 168.07 49.7689 170.329C54.839 172.734 59.9693 175.535 61.6476 181.291C63.3711 187.218 62.2989 193.616 64.7238 199.397C66.7278 204.157 70.6756 208.51 76.2468 208.22C78.4712 208.105 78.5063 204.683 76.2468 204.713C71.1967 204.828 68.4813 199.532 67.6746 195.194C66.7177 190.054 67.5043 184.753 65.9712 179.663C62.835 169.272 52.2939 167.368 44.308 162.013C40.4503 159.427 36.5826 155.214 38.2008 150.224C39.789 145.329 44.8741 142.709 49.5234 141.577C59.1677 139.162 71.2618 140.244 77.5794 130.931C80.9812 125.921 80.2598 119.763 80.0193 114.042C79.8038 108.816 80.5503 102.323 85.8459 99.8034C86.9431 99.2774 86.1515 97.3435 85.0092 97.7994L84.9942 97.8445Z" fill="#DDEDE8"/>
<path d="M130.571 193.817C137.875 191.698 142.76 183.967 141.623 176.432C140.906 171.688 137.239 168.256 136.112 163.707C134.924 158.907 138.507 154.944 140.531 150.941C142.379 147.279 143.176 143.296 141.468 139.418C139.814 135.671 136.412 132.905 132.645 131.458C130.777 130.735 128.796 130.346 126.793 130.31C123.587 130.25 120.245 131.247 117.089 130.375C112.129 129.008 109.378 123.732 107.911 119.213C106.097 113.622 105.305 107.47 101.899 102.525C99.0478 98.3765 94.4988 95.4056 89.3735 95.616C87.2944 95.7012 87.2743 98.8875 89.3735 98.8625C100.2 98.7472 101.703 113.617 104.278 121.142C105.556 124.869 107.475 128.547 110.461 131.197C113.923 134.273 117.946 135.09 122.485 134.704C126.933 134.303 131.002 134.228 134.724 137.059C138.171 139.659 139.529 143.572 137.996 147.645C136.618 151.312 133.988 154.398 132.935 158.206C131.843 162.114 133.011 165.681 134.975 169.078C137.364 173.211 139.709 176.883 138.637 181.858C137.635 186.402 134.469 190.375 130.07 191.973C128.912 192.389 129.368 194.193 130.571 193.837V193.817Z" fill="#DDEDE8"/>
<path d="M73.8063 164.077C71.5768 162.814 69.5027 160.745 69.648 157.97C69.7782 155.465 71.652 154.137 73.9966 153.842C76.7271 153.501 79.7131 154.152 82.2581 152.84C85.5096 151.131 85.69 147.013 87.6088 144.227C89.5276 141.442 95.0938 136.487 97.3833 141.306C98.5957 143.862 98.6308 146.767 100.419 149.077C102.208 151.387 104.893 152.138 107.599 152.584C110.525 153.06 114.337 152.93 116.241 155.59C117.318 157.093 117.974 159.097 118.746 160.8C119.703 162.88 121.677 165.665 120.85 168.02C120.284 169.633 122.679 170.525 123.526 169.152C125.62 165.78 123.08 161.717 121.797 158.476C120.58 155.395 119.457 152.213 116.331 150.59C113.546 149.142 110.419 149.302 107.398 148.872C103.666 148.346 102.458 146.342 101.456 142.945C100.715 140.44 99.8332 137.754 97.2731 136.572C94.1368 135.129 90.7601 136.953 88.3653 138.992C85.5998 141.372 84.0968 144.328 82.8844 147.689C81.2912 152.098 77.0778 150.785 73.3403 151.412C70.184 151.938 67.7041 153.967 67.3283 157.293C66.9225 161.131 69.5678 164.132 72.8393 165.725C73.9265 166.256 74.8684 164.723 73.7962 164.087L73.8063 164.077Z" fill="#DDEDE8"/>
<path d="M422.543 99.043C413.951 99.5189 410.099 108.206 408.14 115.411C406.927 119.865 405.92 124.569 402.844 128.176C401.456 129.804 399.728 131.147 397.604 131.598C394.933 132.164 392.123 131.262 389.477 130.932C385.77 130.431 382.005 131.264 378.855 133.284C375.706 135.303 373.376 138.376 372.283 141.954C371.071 145.706 371.582 149.429 373.145 152.976C375.084 157.354 377.854 161.027 375.024 165.696C372.774 169.413 369.478 172.259 368.611 176.718C367.894 180.405 368.746 184.619 372.458 186.297C375.079 187.484 377.378 183.822 374.763 182.359C372.148 180.896 373.095 176.989 374.322 174.844C376.161 171.618 379.037 169.128 380.394 165.596C381.802 161.933 380.976 158.376 379.392 154.94C377.864 151.658 375.825 148.587 376.497 144.809C376.801 143.2 377.433 141.67 378.352 140.315C379.272 138.959 380.46 137.807 381.842 136.929C385.51 134.619 389.307 135.791 393.365 136.052C401.01 136.553 406.346 131.493 408.896 124.644C411.832 116.823 411.506 102.044 422.569 100.827C423.656 100.706 423.706 99.0229 422.569 99.0881L422.543 99.043Z" fill="#DDEDE8"/>
<path d="M432.247 101.097C443.013 102.705 441.265 118.026 443.82 125.586C445.353 130.15 448.279 133.176 452.242 135.781C456.405 138.522 460.188 141.107 460.874 146.442C461.196 148.706 460.835 151.014 459.837 153.071C458.64 155.455 456.911 157.479 455.989 160.01C454.12 165.16 456.14 170.355 458.169 175.11C460.243 179.974 461.886 184.704 460.879 190.059C460.308 193.106 457.728 201.127 453.514 200.52C452.011 200.3 450.603 198.992 449.506 198.045C448.005 196.688 446.424 195.421 444.772 194.253C443.216 193.169 441.377 192.561 439.481 192.504C438.606 192.525 437.74 192.694 436.921 193.005C436.313 193.247 435.728 193.542 435.173 193.887C434.812 194.118 434.451 194.333 434.075 194.533C433.524 194.66 433.635 194.766 434.406 194.849C433.249 192.134 429.577 194.238 429.982 196.713C430.343 198.917 432.688 200.375 434.842 200.19C436.996 200.004 438.474 197.765 440.573 198.571C444.08 199.919 446.36 203.692 449.777 205.335C461.25 210.846 467.427 193.587 466.811 184.999C466.355 178.592 462.803 173.516 461.16 167.464C460.348 164.458 460.779 161.918 462.402 159.233C463.905 156.728 465.448 154.328 465.984 151.392C466.457 148.844 466.324 146.221 465.597 143.734C464.869 141.247 463.567 138.965 461.796 137.074C457.703 132.76 451.105 131.633 448.159 126.152C445.213 120.671 445.724 114.128 443.399 108.432C441.465 103.712 437.888 99.5188 432.522 99.1931C431.45 99.128 431.175 100.932 432.262 101.092L432.247 101.097Z" fill="#DDEDE8"/>
<path d="M401.555 154.383C401.676 150.475 406.24 150.916 408.965 150.666C410.716 150.552 412.411 150.003 413.895 149.068C416.846 147.114 418.599 143.862 419.947 140.696C421.295 137.53 422.427 133.787 425.067 131.367C428.459 128.251 433.359 129.619 435.739 133.291C438.314 137.269 437.197 142.129 435.709 146.247C434.361 149.984 434.241 153.231 435.789 156.948C437.377 160.751 440.233 164.463 439.15 168.787C438.068 173.111 433.669 175.801 429.266 175.094C426.35 174.624 425.032 178.982 428.023 179.603C436.084 181.282 443.86 175.57 444.11 167.164C444.231 163.04 442.061 159.604 440.358 156.016C439.406 154.012 438.705 151.978 439.206 149.754C439.707 147.529 440.734 145.415 441.144 143.126C442.467 135.726 439.236 126.863 430.854 125.791C422.718 124.744 419.381 132.865 417.031 139.078C416.24 141.167 415.328 143.316 413.925 145.09C411.976 147.534 409.642 147.97 406.651 148.311C403.399 148.682 398.73 150.485 399.852 154.629C399.914 154.826 400.043 154.994 400.217 155.105C400.391 155.215 400.599 155.26 400.803 155.232C401.008 155.204 401.195 155.104 401.333 154.95C401.471 154.797 401.55 154.599 401.555 154.393V154.383Z" fill="#DDEDE8"/>
<path d="M247.54 284.424C244.614 282.331 241.959 279.885 239.634 277.14C237.409 274.515 234.859 271.273 234.689 267.671C234.539 264.525 236.558 261.158 240.09 261.834C243.862 262.546 245.821 266.529 247.555 269.52C248.401 270.978 250.926 270.792 251.297 269.019C251.689 267.125 252.504 265.345 253.683 263.811C254.861 262.278 256.372 261.032 258.101 260.166C259.842 259.219 261.806 258.757 263.787 258.828C266.487 259.059 267.199 261.218 267.294 263.618C267.635 273.327 258.326 279.525 251.172 284.159C249.108 285.507 251.032 288.833 253.116 287.48C258.321 284.099 263.637 280.582 267.274 275.456C270.435 270.983 272.715 264.204 270.185 258.923C267.75 253.843 261.487 254.379 257.069 256.338C254.688 257.42 252.579 259.021 250.899 261.025C249.219 263.028 248.009 265.383 247.359 267.916L251.102 267.415C248.882 263.167 245.901 258.668 240.846 257.696C236.452 256.844 232.424 259.475 231.092 263.708C228.036 273.372 238.942 282.491 246.352 286.443C247.72 287.175 248.772 285.276 247.55 284.394L247.54 284.424Z" fill="#DDEDE8"/>
</svg>
